G04*
G04 #@! TF.GenerationSoftware,Altium Limited,Altium Designer,21.2.2 (38)*
G04*
G04 Layer_Color=32896*
%FSTAX24Y24*%
%MOIN*%
G70*
G04*
G04 #@! TF.SameCoordinates,CF9AC677-4E03-495D-8773-30470D0FCF73*
G04*
G04*
G04 #@! TF.FilePolarity,Positive*
G04*
G01*
G75*
%ADD11C,0.0079*%
%ADD13C,0.0039*%
%ADD70C,0.0118*%
G36*
X02783Y021827D02*
X027828Y021807D01*
X027821Y021809D01*
X027826Y021827D01*
X027828Y021829D01*
X02783Y021827D01*
D02*
G37*
G36*
X027997Y022215D02*
X028002Y022197D01*
X027997Y022161D01*
X027988Y022138D01*
X027984Y02212D01*
X027979Y022111D01*
X027966Y022089D01*
X02795Y022046D01*
X027943Y022025D01*
X02793Y022003D01*
X027921Y021994D01*
X027907Y021971D01*
X027898Y021949D01*
X027894Y02194D01*
X02788Y021917D01*
X027876Y021899D01*
X027867Y02189D01*
X027862Y021881D01*
X027858Y021868D01*
X027846Y021847D01*
X027828Y021852D01*
X027815Y021856D01*
X027799Y021845D01*
X027794Y021827D01*
X02779Y021813D01*
X027772Y021795D01*
X027767Y021777D01*
X027761Y021771D01*
X027754Y021768D01*
X027749Y02175D01*
X027745Y021723D01*
X027736Y021714D01*
X027731Y021683D01*
X02774Y02166D01*
X027747Y021649D01*
X027765Y021644D01*
X027788Y021649D01*
X02781Y021658D01*
X027878Y021662D01*
X027918Y02168D01*
X027954Y021689D01*
X028Y021707D01*
X028024Y021714D01*
X028036Y021725D01*
X028054Y02173D01*
X02809Y021734D01*
X028103Y021748D01*
X028135Y021752D01*
X028144Y021757D01*
X028153Y021766D01*
X028171Y021771D01*
X028203Y021775D01*
X02823Y021793D01*
X02827Y021798D01*
X028279Y021807D01*
X028302Y021816D01*
X028351Y02182D01*
X028392Y021838D01*
X028417Y021845D01*
X028428Y021856D01*
X02846Y021861D01*
X028469Y021865D01*
X028478Y021874D01*
X028496Y021879D01*
X028521Y021886D01*
X02855Y021897D01*
X028568Y021901D01*
X028595Y02191D01*
X028609Y021906D01*
X028627Y021924D01*
X028663Y021933D01*
X028683Y021949D01*
X028688Y021962D01*
X028694Y021969D01*
X028753Y021965D01*
X02878Y021946D01*
X028789Y021942D01*
X028803Y021928D01*
X028825Y021915D01*
X028834Y021906D01*
X028857Y021892D01*
X028911Y021838D01*
X028918Y021836D01*
X02892Y021825D01*
X0289Y021804D01*
X028893Y021789D01*
X028886Y021791D01*
X028875Y02182D01*
X028852Y021825D01*
X02883Y021811D01*
X028816Y021807D01*
X028807Y021816D01*
X028789Y02182D01*
X028708Y021816D01*
X028667Y021798D01*
X028658Y021793D01*
X028649Y021784D01*
X028631Y02178D01*
X028622Y021775D01*
X028595Y021757D01*
X028577Y021752D01*
X028554Y021739D01*
X028532Y02173D01*
X028523Y021721D01*
X028487Y021707D01*
X028478Y021698D01*
X02846Y021694D01*
X028437Y021689D01*
X028397Y021671D01*
X028367Y021665D01*
X028356Y021653D01*
X028338Y021649D01*
X028315Y021644D01*
X028306Y021635D01*
X028284Y021626D01*
X028243Y021608D01*
X028218Y021601D01*
X028203Y021586D01*
X028167Y021581D01*
X028157Y021572D01*
X028135Y021563D01*
X028124Y021561D01*
X028121Y021558D01*
X028103Y021554D01*
X02809Y02154D01*
X028045Y021536D01*
X028031Y021522D01*
X028006Y021516D01*
X027968Y0215D01*
X027932Y021504D01*
X027927Y021509D01*
X027914Y021504D01*
X027882Y021509D01*
X02786Y021518D01*
X027815Y021522D01*
X027788Y02154D01*
X027756Y021545D01*
X027742Y021558D01*
X027711Y021577D01*
X027686Y021597D01*
X027673Y02161D01*
X027661Y02164D01*
X027655Y02166D01*
X027668Y021683D01*
X027677Y021705D01*
X027682Y021737D01*
X027686Y02175D01*
X027691Y021768D01*
X0277Y021791D01*
X027713Y021822D01*
X027718Y02184D01*
X027731Y021854D01*
X027738Y021879D01*
X027754Y02189D01*
X027765Y021919D01*
X027776Y021931D01*
X027783Y021946D01*
X027792Y021951D01*
X027799Y021958D01*
X027812Y02198D01*
X027821Y021989D01*
X027826Y021998D01*
X027844Y022025D01*
X027848Y022034D01*
X027862Y022048D01*
X02788Y02208D01*
X027889Y022102D01*
X027894Y022111D01*
X027907Y022134D01*
X027912Y022143D01*
X02793Y022161D01*
X027952Y022201D01*
X027959Y022208D01*
X027986Y022222D01*
X027997Y022215D01*
D02*
G37*
G36*
X028956Y021793D02*
X028963Y021786D01*
X028958Y021705D01*
X028931Y021655D01*
X028913Y021624D01*
X028859Y02157D01*
X028857Y021563D01*
X028848Y021558D01*
X028841Y021552D01*
X028836Y021543D01*
X02883Y021536D01*
X028821Y021531D01*
X028809Y021516D01*
X028796Y021507D01*
X028794Y0215D01*
X028771Y021486D01*
X028762Y021473D01*
X028753Y021468D01*
X028746Y021462D01*
X028742Y021452D01*
X02873Y02145D01*
X028728Y021466D01*
X028751Y02148D01*
X028755Y021489D01*
X028762Y021495D01*
X028771Y0215D01*
X028782Y021516D01*
X028791Y02152D01*
X028796Y021529D01*
X028803Y021536D01*
X028812Y02154D01*
X028818Y021547D01*
X028823Y021556D01*
X028836Y02157D01*
X028845Y021592D01*
X028843Y021599D01*
X02883Y021595D01*
X028809Y021579D01*
X028807Y021572D01*
X028787Y021561D01*
X028782Y021552D01*
X028776Y021545D01*
X028755Y021534D01*
X028753Y021527D01*
X028746Y021525D01*
X028733Y021502D01*
X028719Y021493D01*
X028699Y02145D01*
X02869Y021446D01*
X028642Y021398D01*
X028629Y021376D01*
X028532Y021279D01*
X028518Y021274D01*
X028509Y021297D01*
X028491Y021306D01*
X028451Y021274D01*
X028437Y021261D01*
X028415Y021247D01*
X028406Y021238D01*
X028399Y021236D01*
X028394Y021227D01*
X028388Y02122D01*
X028365Y021207D01*
X028266Y021107D01*
X028257Y021103D01*
X028221Y021067D01*
X028198Y021053D01*
X028189Y021044D01*
X028167Y021031D01*
X028157Y021022D01*
X028148Y021017D01*
X028137Y021006D01*
X028135Y020999D01*
X028112Y020986D01*
X028103Y020977D01*
X028094Y020972D01*
X02809Y020963D01*
X028081Y020959D01*
X028058Y020945D01*
X028049Y020931D01*
X028027Y020922D01*
X028013Y020909D01*
X028004Y020904D01*
X028002Y020893D01*
X028006Y02088D01*
X028Y020877D01*
X027991Y020891D01*
X027973Y020886D01*
X027964Y020868D01*
X027945Y020864D01*
X027932Y02085D01*
X027923Y020846D01*
X027914Y020832D01*
X027885Y020816D01*
X02788Y020807D01*
X027864Y020796D01*
X027851Y020783D01*
X027837Y020778D01*
X027824Y020765D01*
X027817Y020762D01*
X027812Y020753D01*
X027801Y020742D01*
X027792Y020737D01*
X027781Y020722D01*
X027765Y020715D01*
X027747Y020697D01*
X027745Y020695D01*
X027724Y020674D01*
X027715Y02067D01*
X027679Y020634D01*
X02767Y020629D01*
X027664Y020622D01*
X027659Y020613D01*
X027634Y020598D01*
X027591Y020555D01*
X027582Y020532D01*
X027578Y02051D01*
X027571Y020503D01*
X027562Y020498D01*
X027551Y020487D01*
X027548Y02048D01*
X027526Y020467D01*
X027494Y020435D01*
X027488Y020433D01*
X027483Y020424D01*
X027474Y020401D01*
X027479Y020392D01*
X027485Y020386D01*
X027517Y020377D01*
X027539Y020368D01*
X027598Y020372D01*
X02763Y020377D01*
X027652Y020386D01*
X027722Y020392D01*
X027745Y020401D01*
X02777Y020408D01*
X02781Y020413D01*
X027851Y020431D01*
X027887Y02044D01*
X027909Y020449D01*
X027941Y020453D01*
X027959Y020458D01*
X027968Y020467D01*
X028004Y020476D01*
X028031Y02048D01*
X028063Y020494D01*
X028081Y020498D01*
X028103Y020512D01*
X028117Y020516D01*
X028144Y020521D01*
X028157Y020534D01*
X028191Y020541D01*
X028207Y020553D01*
X02823Y020562D01*
X028252Y020566D01*
X028261Y020575D01*
X028291Y020586D01*
X02832Y020602D01*
X02846Y02067D01*
X028469Y020674D01*
X028478Y020683D01*
X028507Y020695D01*
X028536Y02071D01*
X028676Y020778D01*
X028685Y020783D01*
X028694Y020792D01*
X028724Y020803D01*
X028753Y020819D01*
X028769Y020825D01*
X028773Y020834D01*
X02878Y020841D01*
X028803Y020846D01*
X028816Y020859D01*
X028834Y020864D01*
X028857Y020877D01*
X028879Y020886D01*
X028895Y020893D01*
X028897Y0209D01*
X028933Y020913D01*
X028942Y020922D01*
X02896Y020927D01*
X028983Y02094D01*
X029006Y020949D01*
X029028Y020963D01*
X029051Y020972D01*
X029073Y020986D01*
X029096Y020995D01*
X029112Y021001D01*
X029114Y021008D01*
X029157Y021024D01*
X029177Y021031D01*
X029186Y021026D01*
X0292Y021031D01*
X029218Y021035D01*
X029236Y021031D01*
X029249Y021017D01*
X029274Y02101D01*
X029285Y020999D01*
X029308Y020986D01*
X029344Y020949D01*
X029353Y020945D01*
X029366Y020931D01*
X029389Y020918D01*
X029391Y020907D01*
X029387Y020893D01*
X029364Y020853D01*
X029344Y020823D01*
X029335Y020819D01*
X029321Y020796D01*
X029312Y020792D01*
X029306Y020776D01*
X029292Y020762D01*
X029283Y02074D01*
X029274Y020735D01*
X029269Y020726D01*
X029249Y020701D01*
X029238Y020686D01*
X029218Y020656D01*
X029209Y020652D01*
X029202Y020645D01*
X029197Y020636D01*
X029139Y020577D01*
X029134Y020568D01*
X029125Y020559D01*
X029121Y02055D01*
X029109Y020539D01*
X029103Y020537D01*
X029098Y020528D01*
X029076Y020496D01*
X029071Y020487D01*
X029051Y020462D01*
X029035Y020437D01*
X029017Y020406D01*
X029008Y020397D01*
X028994Y020374D01*
X028985Y020365D01*
X028979Y02035D01*
X02897Y020345D01*
X028963Y020338D01*
X028949Y020316D01*
X02894Y020307D01*
X028936Y020298D01*
X028873Y020234D01*
X02887Y020228D01*
X028859Y020225D01*
X028843Y020228D01*
X028834Y020219D01*
X028814Y020207D01*
X028809Y020198D01*
X028746Y020135D01*
X028735Y020115D01*
X028726Y02011D01*
X028719Y020104D01*
X028715Y020095D01*
X028699Y020083D01*
X028676Y020047D01*
X028667Y020043D01*
X028661Y020036D01*
X028649Y020016D01*
X028642Y020013D01*
X028629Y019991D01*
X028597Y019959D01*
X028584Y019937D01*
X028552Y019905D01*
X028548Y019896D01*
X028534Y019887D01*
X02853Y019878D01*
X028523Y019871D01*
X028514Y019876D01*
X028512Y019887D01*
X028521Y01991D01*
X028514Y019912D01*
X028485Y019892D01*
X02848Y019883D01*
X028462Y019865D01*
X028457Y019851D01*
X028433Y019826D01*
X028426Y019824D01*
X028421Y019815D01*
X02841Y019804D01*
X028403Y019801D01*
X028399Y019792D01*
X02837Y019763D01*
X028363Y019761D01*
X028358Y019752D01*
X028329Y019722D01*
X02832Y019718D01*
X028313Y019711D01*
X028309Y019702D01*
X028293Y019691D01*
X028284Y019677D01*
X028261Y019664D01*
X028248Y019659D01*
X028245Y019662D01*
X028264Y01968D01*
X028268Y019689D01*
X028279Y0197D01*
X028286Y019702D01*
X028291Y019711D01*
X028297Y019718D01*
X028306Y019722D01*
X028313Y019729D01*
X028327Y019752D01*
X028338Y019763D01*
X028345Y019765D01*
X028349Y019779D01*
X028342Y019786D01*
X02832Y019781D01*
X028309Y019765D01*
X028288Y019745D01*
X028279Y019741D01*
X028261Y019722D01*
X028252Y019718D01*
X028241Y019702D01*
X028227Y019693D01*
X028223Y019684D01*
X028216Y019677D01*
X028207Y019673D01*
X028198Y019659D01*
X028178Y019648D01*
X028176Y019641D01*
X02816Y019634D01*
X028155Y019625D01*
X028148Y019619D01*
X028146Y019634D01*
X028155Y019644D01*
X028148Y01965D01*
X028117Y019632D01*
X028108Y019619D01*
X028079Y019603D01*
X028074Y019594D01*
X028054Y019574D01*
X028045Y019569D01*
X028027Y019551D01*
X028004Y019538D01*
X027973Y019506D01*
X02795Y019492D01*
X027923Y019465D01*
X027914Y019461D01*
X027896Y019443D01*
X027887Y019438D01*
X02788Y019431D01*
X027876Y019422D01*
X027851Y019407D01*
X027839Y019395D01*
X027835Y019377D01*
X02783Y019364D01*
X027833Y019362D01*
X027873Y019384D01*
X027882Y019393D01*
X027891Y019398D01*
X027905Y019411D01*
X027925Y019413D01*
X027914Y019393D01*
X027905Y019389D01*
X027864Y019348D01*
X027855Y019344D01*
X027842Y01933D01*
X027835Y019328D01*
X02783Y019319D01*
X027824Y019312D01*
X027801Y019298D01*
X027774Y019271D01*
X027765Y019267D01*
X027754Y01926D01*
X027749Y019251D01*
X027724Y019235D01*
X027693Y019204D01*
X02767Y01919D01*
X027643Y019163D01*
X027634Y019159D01*
X027616Y019141D01*
X027594Y019127D01*
X027562Y019095D01*
X027539Y019082D01*
X02753Y019073D01*
X027521Y019068D01*
X027503Y01905D01*
X027481Y019037D01*
X027454Y01901D01*
X027431Y018996D01*
X027422Y018987D01*
X027413Y018983D01*
X027395Y018965D01*
X027373Y018951D01*
X027341Y018933D01*
X027336Y018924D01*
X027314Y01891D01*
X027276Y01889D01*
X027271Y018881D01*
X027246Y018865D01*
X027237Y018856D01*
X027224Y018852D01*
X027206Y018834D01*
X027197Y018829D01*
X027167Y0188D01*
X027163Y018791D01*
X027149Y018777D01*
X02714Y018755D01*
X027145Y018737D01*
X027156Y018726D01*
X027188Y018716D01*
X027219Y018703D01*
X027323Y018707D01*
X027336Y018712D01*
X027406Y018719D01*
X027429Y018723D01*
X027465Y018728D01*
X027476Y018739D01*
X02753Y018748D01*
X027553Y018757D01*
X027587Y018759D01*
X027598Y018748D01*
X027616Y018744D01*
X027623Y01875D01*
X027627Y018759D01*
X027634Y018766D01*
X02767Y018771D01*
X027679Y01878D01*
X027697Y018784D01*
X02772Y018798D01*
X027742Y018807D01*
X027765Y01882D01*
X027774Y018829D01*
X027799Y018836D01*
X027806Y018843D01*
X027828Y018852D01*
X027846Y018856D01*
X027855Y01887D01*
X027876Y018868D01*
X027864Y018856D01*
X027842Y018843D01*
X027833Y018834D01*
X027815Y018829D01*
X027801Y018816D01*
X02777Y018811D01*
X027761Y018807D01*
X027742Y01878D01*
X02774Y018773D01*
X027747Y018766D01*
X027765Y018762D01*
X027792Y018766D01*
X027801Y018775D01*
X027833Y018793D01*
X027842Y018802D01*
X02786Y018807D01*
X027878Y018825D01*
X027896Y018829D01*
X027914Y018847D01*
X027936Y018861D01*
X027945Y01887D01*
X027964Y018874D01*
X02797Y018881D01*
X027975Y01889D01*
X027982Y018897D01*
X028Y018901D01*
X028002Y018913D01*
X027995Y018919D01*
X027982Y018924D01*
X027979Y018926D01*
X027986Y018933D01*
X028018Y018929D01*
X028022Y018947D01*
X028031Y018956D01*
X028054Y018965D01*
X028058Y018974D01*
X028081Y018983D01*
X02809Y018987D01*
X028099Y018996D01*
X028121Y019005D01*
X028135Y019019D01*
X028153Y019023D01*
X028162Y019028D01*
X028189Y019046D01*
X028198Y01905D01*
X028212Y019064D01*
X028239Y019068D01*
X028257Y019086D01*
X028315Y019118D01*
X02832Y019127D01*
X028342Y019141D01*
X028351Y01915D01*
X028376Y019156D01*
X028388Y019172D01*
X02841Y019186D01*
X028419Y019195D01*
X028442Y019199D01*
X028453Y019215D01*
X028471Y019219D01*
X028487Y019231D01*
X028496Y01924D01*
X028505Y019244D01*
X028518Y019258D01*
X028548Y019269D01*
X028564Y019285D01*
X028577Y019289D01*
X028609Y019312D01*
X028618Y019316D01*
X028624Y019323D01*
X028627Y01933D01*
X028649Y019339D01*
X028679Y019355D01*
X028683Y019364D01*
X028715Y019377D01*
X028719Y019386D01*
X028726Y019393D01*
X028753Y019398D01*
X028789Y019434D01*
X028818Y019441D01*
X028823Y019454D01*
X028825Y01947D01*
X028852Y019474D01*
X028861Y019488D01*
X02887Y019492D01*
X028882Y019504D01*
X028884Y01951D01*
X028893Y019515D01*
X02892Y019542D01*
X028942Y019556D01*
X028951Y019565D01*
X028992Y019587D01*
X029003Y019594D01*
X029006Y019601D01*
X029015Y019605D01*
X02903Y019616D01*
X029033Y019623D01*
X029055Y019637D01*
X029064Y019646D01*
X029087Y019659D01*
X029096Y019668D01*
X029114Y019673D01*
X029132Y019691D01*
X029154Y019704D01*
X029163Y019713D01*
X029173Y019718D01*
X029191Y019736D01*
X029213Y01975D01*
X029222Y019759D01*
X029245Y019772D01*
X029272Y019799D01*
X029281Y019804D01*
X029299Y019822D01*
X029321Y019835D01*
X02933Y019844D01*
X029353Y019858D01*
X029362Y019867D01*
X029371Y019871D01*
X029389Y019889D01*
X029412Y019903D01*
X029421Y019912D01*
X029436Y019919D01*
X029439Y019925D01*
X029448Y01993D01*
X029463Y019941D01*
X029466Y019948D01*
X029488Y019962D01*
X029497Y019971D01*
X02952Y019984D01*
X029529Y019993D01*
X029547Y019998D01*
X029565Y020016D01*
X02959Y020022D01*
X029594Y020031D01*
X029601Y020038D01*
X029637Y020047D01*
X029669Y020061D01*
X029714Y020065D01*
X029723Y02007D01*
X029736Y020065D01*
X02975Y02007D01*
X029763Y020065D01*
X029795Y020061D01*
X029809Y020056D01*
X029822Y020043D01*
X029845Y020029D01*
X029854Y02002D01*
X029867Y020016D01*
X029883Y019991D01*
X029892Y019982D01*
X029906Y019959D01*
X029915Y01995D01*
X02991Y019928D01*
X029903Y019921D01*
X029885Y019916D01*
X029824Y019914D01*
X029813Y019934D01*
X029791Y01993D01*
X029782Y019916D01*
X029732Y019889D01*
X029718Y019876D01*
X029709Y019871D01*
X029691Y019853D01*
X029669Y01984D01*
X02966Y019831D01*
X029651Y019826D01*
X029637Y019813D01*
X029615Y019799D01*
X029606Y019786D01*
X029597Y019781D01*
X029579Y019763D01*
X029569Y019759D01*
X029556Y019745D01*
X029547Y019741D01*
X029538Y019727D01*
X029515Y019713D01*
X029506Y019704D01*
X029497Y0197D01*
X029486Y019693D01*
X029482Y019684D01*
X029457Y019659D01*
X029434Y019646D01*
X029425Y019637D01*
X029403Y019623D01*
X029371Y019605D01*
X029362Y019596D01*
X029344Y019601D01*
X029342Y019607D01*
X029346Y019621D01*
X029333Y019634D01*
X029337Y019657D01*
X029371Y019691D01*
X029394Y019704D01*
X029403Y019713D01*
X029412Y019718D01*
X029452Y019759D01*
X029475Y019772D01*
X029484Y019781D01*
X029506Y019795D01*
X029511Y019804D01*
X02952Y019808D01*
X029538Y019826D01*
X029547Y019831D01*
X029554Y019837D01*
X029556Y019844D01*
X029565Y019849D01*
X029583Y019867D01*
X029592Y019871D01*
X029603Y019878D01*
X029606Y019885D01*
X029615Y019889D01*
X029635Y01991D01*
X029639Y019928D01*
X029628Y019939D01*
X029592Y019934D01*
X029579Y019921D01*
X029556Y019912D01*
X02952Y019876D01*
X029497Y019862D01*
X029443Y019808D01*
X029421Y019795D01*
X029389Y019763D01*
X02938Y019759D01*
X029344Y019722D01*
X029319Y019716D01*
X029312Y019704D01*
X029283Y019698D01*
X029267Y019682D01*
X029238Y019675D01*
X029222Y019659D01*
X029209Y019655D01*
X029202Y019648D01*
X029206Y019625D01*
X02922Y019616D01*
X029206Y019603D01*
X029204Y019596D01*
X029182Y019583D01*
X029177Y019574D01*
X029154Y01956D01*
X029145Y019551D01*
X029136Y019547D01*
X029127Y019533D01*
X029105Y019519D01*
X029073Y019488D01*
X029053Y019477D01*
X029048Y019468D01*
X029042Y019461D01*
X02901Y019443D01*
X028985Y019422D01*
X02897Y019411D01*
X028956Y019398D01*
X028933Y019384D01*
X028924Y019375D01*
X028911Y019371D01*
X028897Y019357D01*
X028888Y019353D01*
X02887Y019334D01*
X028848Y019321D01*
X028839Y019312D01*
X028816Y019298D01*
X028807Y019289D01*
X028798Y019285D01*
X02878Y019267D01*
X028757Y019253D01*
X028748Y019244D01*
X028733Y019238D01*
X02873Y019231D01*
X028721Y019226D01*
X028706Y019215D01*
X028703Y019208D01*
X028681Y019195D01*
X028672Y019186D01*
X028649Y019172D01*
X02864Y019163D01*
X028609Y019145D01*
X028577Y019122D01*
X028552Y019102D01*
X028545Y019095D01*
X028527Y019091D01*
X028487Y019059D01*
X028478Y01905D01*
X028455Y019046D01*
X028442Y019032D01*
X028419Y019023D01*
X028406Y01901D01*
X028388Y019005D01*
X028381Y018998D01*
X028376Y018989D01*
X028347Y018978D01*
X028338Y018969D01*
X028315Y01896D01*
X028302Y018947D01*
X028279Y018938D01*
X028266Y018924D01*
X028248Y018919D01*
X028239Y018915D01*
X028225Y018901D01*
X028203Y018897D01*
X028176Y018879D01*
X028153Y018865D01*
X028144Y018856D01*
X028121Y018852D01*
X028108Y018838D01*
X028083Y018832D01*
X028067Y01882D01*
X028045Y018811D01*
X028038Y018809D01*
X028033Y0188D01*
X028027Y018793D01*
X028009Y018789D01*
X028Y018784D01*
X027986Y018771D01*
X027959Y018766D01*
X027941Y018748D01*
X027918Y018744D01*
X027909Y018735D01*
X027887Y018726D01*
X027873Y018721D01*
X02786Y018707D01*
X027828Y018703D01*
X027788Y018685D01*
X02777Y01868D01*
X027738Y018667D01*
X027702Y018658D01*
X02767Y018644D01*
X027652Y01864D01*
X027589Y018635D01*
X027567Y018626D01*
X02753Y018622D01*
X027517Y018617D01*
X027377Y018613D01*
X027345Y018617D01*
X027291Y018622D01*
X02726Y018635D01*
X027242Y01864D01*
X027183Y018644D01*
X027179Y018649D01*
X027172Y018642D01*
X027185Y018619D01*
X027203Y018601D01*
X027183Y018595D01*
X027161Y018608D01*
X027152Y018617D01*
X027129Y018622D01*
X027115Y018635D01*
X027106Y01864D01*
X027093Y018667D01*
X027084Y018676D01*
X027052Y01868D01*
X027043Y018685D01*
X027005Y018723D01*
X027009Y018741D01*
X027018Y01875D01*
X027032Y018773D01*
X027043Y018784D01*
X027057Y01878D01*
X027064Y018773D01*
X027066Y018766D01*
X027088Y018757D01*
X027111Y018762D01*
X027131Y018782D01*
X027136Y018791D01*
X027163Y018818D01*
X027176Y018841D01*
X027203Y018868D01*
X027212Y01889D01*
X027226Y018922D01*
X027224Y018929D01*
X02721Y018924D01*
X027185Y018904D01*
X027167Y01889D01*
X027165Y018883D01*
X027142Y01887D01*
X027129Y018856D01*
X027106Y018843D01*
X027097Y018834D01*
X027057Y018816D01*
X02703Y01882D01*
X027023Y018827D01*
X027039Y01887D01*
X02705Y018886D01*
X027059Y018895D01*
X02707Y018915D01*
X027093Y018929D01*
X027106Y018942D01*
X027115Y018947D01*
X027129Y01896D01*
X027145Y018958D01*
X02714Y018949D01*
X027111Y018919D01*
X027102Y018915D01*
X027084Y018897D01*
X027075Y018892D01*
X027068Y018872D01*
X027073Y018863D01*
X027088Y018861D01*
X027109Y018877D01*
X027113Y018886D01*
X027129Y018892D01*
X027147Y01891D01*
X027156Y018915D01*
X027174Y018933D01*
X027197Y018947D01*
X027206Y018956D01*
X027212Y018958D01*
X027217Y018967D01*
X027228Y018978D01*
X027242Y018983D01*
X027278Y019019D01*
X027287Y019023D01*
X027327Y019064D01*
X02735Y019077D01*
X027382Y019109D01*
X027404Y019122D01*
X027431Y01915D01*
X02744Y019154D01*
X027503Y019217D01*
X027526Y019231D01*
X027553Y019258D01*
X027576Y019271D01*
X027652Y019348D01*
X027661Y019353D01*
X027679Y019371D01*
X027695Y019377D01*
X027697Y019384D01*
X027706Y019389D01*
X027752Y019434D01*
X027761Y019438D01*
X027772Y019445D01*
X027776Y019454D01*
X027815Y019492D01*
X027824Y019497D01*
X027839Y019508D01*
X027844Y019517D01*
X027851Y019524D01*
X02786Y019528D01*
X027869Y019542D01*
X027878Y019547D01*
X027885Y019553D01*
X027887Y01956D01*
X027909Y019574D01*
X027918Y019583D01*
X027927Y019587D01*
X027939Y019603D01*
X027952Y019612D01*
X027957Y019621D01*
X027982Y019637D01*
X028013Y019668D01*
X028033Y01968D01*
X028038Y019689D01*
X028045Y019695D01*
X028054Y0197D01*
X028065Y019716D01*
X028085Y019736D01*
X028094Y019741D01*
X028117Y019763D01*
X028126Y019768D01*
X028162Y019804D01*
X028169Y019806D01*
X028173Y019815D01*
X02818Y019822D01*
X028203Y019835D01*
X028212Y019849D01*
X028221Y019853D01*
X028227Y01986D01*
X028232Y019869D01*
X028245Y019878D01*
X02825Y019887D01*
X028273Y019901D01*
X028277Y01991D01*
X028293Y019921D01*
X0283Y019928D01*
X028302Y019934D01*
X028311Y019939D01*
X028324Y019953D01*
X028333Y019957D01*
X028358Y019977D01*
X028397Y020016D01*
X028419Y020029D01*
X028473Y020083D01*
X028505Y020101D01*
X028527Y02011D01*
X028536Y020115D01*
X028559Y020128D01*
X028568Y020133D01*
X028582Y020147D01*
X028591Y020151D01*
X028602Y020162D01*
X028604Y020169D01*
X028613Y020174D01*
X028636Y020196D01*
X028642Y020198D01*
X028647Y020207D01*
X028658Y020219D01*
X028667Y020223D01*
X028832Y020388D01*
X028845Y02041D01*
X028866Y020435D01*
X0289Y020469D01*
X028904Y020478D01*
X028913Y020487D01*
X028918Y020496D01*
X028929Y020507D01*
X028936Y02051D01*
X02894Y020519D01*
X028951Y02053D01*
X02896Y020534D01*
X028976Y020559D01*
X029003Y020586D01*
X029008Y020595D01*
X029019Y020607D01*
X029028Y020611D01*
X029037Y02062D01*
X029039Y020609D01*
X02903Y0206D01*
X029017Y020577D01*
X029008Y020568D01*
X029003Y020559D01*
X028967Y020523D01*
X028956Y020503D01*
X028947Y020498D01*
X02894Y020492D01*
X028936Y020483D01*
X028909Y020456D01*
X028904Y020447D01*
X028893Y020435D01*
X028884Y020431D01*
X028877Y020424D01*
X028873Y020415D01*
X028841Y020374D01*
X028832Y02037D01*
X028827Y020361D01*
X028791Y020325D01*
X028787Y020316D01*
X028663Y020192D01*
X028654Y020187D01*
X028559Y020092D01*
X02855Y020088D01*
X028539Y020072D01*
X028525Y020063D01*
X028521Y020054D01*
X028491Y020025D01*
X028482Y02002D01*
X028473Y020002D01*
X028464Y019998D01*
X028457Y019991D01*
X02846Y019984D01*
X028478Y019989D01*
X028509Y020007D01*
X028518Y02002D01*
X028527Y020025D01*
X028545Y020043D01*
X028554Y020047D01*
X028564Y020061D01*
X028577Y020065D01*
X028658Y020147D01*
X028667Y020151D01*
X028681Y020165D01*
X02869Y020169D01*
X028701Y020185D01*
X028715Y020194D01*
X028719Y020203D01*
X028746Y020221D01*
X028773Y020248D01*
X028778Y020257D01*
X028789Y020273D01*
X028798Y020277D01*
X028805Y020284D01*
X028809Y020293D01*
X028823Y020302D01*
X028827Y020311D01*
X028834Y020318D01*
X028843Y020322D01*
X028854Y020338D01*
X028863Y020347D01*
X028868Y020356D01*
X0289Y020388D01*
X028911Y020408D01*
X02892Y020413D01*
X028927Y020419D01*
X028931Y020428D01*
X028938Y020435D01*
X028945Y020437D01*
X028949Y020447D01*
X02896Y020458D01*
X028974Y020462D01*
X028979Y020444D01*
X028988Y020449D01*
X029008Y02046D01*
X029012Y020469D01*
X029039Y020492D01*
X029076Y020528D01*
X02908Y020537D01*
X029103Y020559D01*
X029107Y020568D01*
X029139Y0206D01*
X029143Y020609D01*
X02917Y020636D01*
X029175Y020645D01*
X029191Y020656D01*
X029218Y020692D01*
X029224Y020695D01*
X029229Y020704D01*
X02924Y020715D01*
X029247Y020717D01*
X02926Y02074D01*
X029274Y020753D01*
X029279Y020762D01*
X029285Y020769D01*
X029292Y020771D01*
X029301Y020794D01*
X029297Y020816D01*
X029294Y020819D01*
X029272Y020805D01*
X029263Y020787D01*
X029254Y020783D01*
X029242Y020771D01*
X029238Y020762D01*
X029197Y020722D01*
X029193Y020713D01*
X029166Y020686D01*
X029161Y020677D01*
X029152Y020668D01*
X029148Y020659D01*
X029116Y020627D01*
X029112Y020618D01*
X029094Y0206D01*
X029089Y020591D01*
X029073Y02058D01*
X029062Y020564D01*
X029053Y020555D01*
X029046Y020539D01*
X029037Y020534D01*
X029024Y020521D01*
X029017Y020523D01*
X029021Y020532D01*
X02903Y020541D01*
X029042Y020562D01*
X029051Y020566D01*
X02906Y020584D01*
X029069Y020589D01*
X029087Y020616D01*
X029098Y020627D01*
X029103Y020636D01*
X029121Y020654D01*
X029134Y020677D01*
X029143Y020686D01*
X029148Y020695D01*
X029166Y020713D01*
X029175Y02074D01*
X029166Y020758D01*
X029179Y020789D01*
X029175Y020798D01*
X029168Y020805D01*
X029136Y020801D01*
X029118Y020783D01*
X029087Y020769D01*
X029028Y020742D01*
X028992Y020733D01*
X02896Y020719D01*
X02883Y020656D01*
X028807Y020643D01*
X028798Y020634D01*
X028771Y020629D01*
X028753Y020611D01*
X028717Y020607D01*
X028676Y020589D01*
X028654Y020575D01*
X028631Y020566D01*
X028609Y020553D01*
X028577Y02053D01*
X028545Y020512D01*
X028536Y020503D01*
X028514Y020498D01*
X028482Y020476D01*
X028473Y020471D01*
X028464Y020462D01*
X028435Y020451D01*
X028428Y020444D01*
X028397Y020426D01*
X028347Y020399D01*
X028333Y020395D01*
X02832Y020399D01*
X028318Y020406D01*
X028324Y020413D01*
X028333Y020417D01*
X028342Y020426D01*
X028361Y020431D01*
X028383Y020444D01*
X028424Y020467D01*
X028451Y020485D01*
X02846Y020489D01*
X028467Y020496D01*
X028462Y020519D01*
X028451Y020521D01*
X028428Y020507D01*
X02841Y020503D01*
X028397Y020498D01*
X028388Y020489D01*
X028365Y02048D01*
X028338Y020476D01*
X028329Y020467D01*
X028297Y020458D01*
X028275Y020449D01*
X028245Y020437D01*
X028223Y020433D01*
X028207Y020422D01*
X028194Y020417D01*
X028176Y020413D01*
X028162Y020408D01*
X028153Y020399D01*
X028135Y020395D01*
X028112Y02039D01*
X028072Y020372D01*
X028042Y020365D01*
X02802Y020356D01*
X027995Y02035D01*
X027954Y020345D01*
X027923Y020331D01*
X02786Y020322D01*
X027837Y020318D01*
X027824Y020313D01*
X027752Y020309D01*
X02772Y020313D01*
X027711Y020322D01*
X027679Y020336D01*
X027643Y02034D01*
X02763Y020345D01*
X027562Y02035D01*
X027548Y020345D01*
X027535Y02035D01*
X027485Y020354D01*
X027454Y020368D01*
X027409Y020363D01*
X027406Y020347D01*
X02742Y020334D01*
X027433Y020311D01*
X027447Y020298D01*
X027452Y020289D01*
X027458Y020282D01*
X027481Y020273D01*
X027494Y020259D01*
X027515Y020248D01*
X027519Y020239D01*
X027524Y020225D01*
X027512Y020223D01*
X027481Y020246D01*
X027472Y02025D01*
X027458Y020264D01*
X027449Y020268D01*
X027436Y020282D01*
X027413Y020295D01*
X027409Y020304D01*
X0274Y020309D01*
X027393Y020316D01*
X027388Y020325D01*
X027382Y020331D01*
X027373Y020336D01*
X027357Y020361D01*
X027339Y020379D01*
X027321Y020424D01*
X027327Y020431D01*
X027345Y020426D01*
X027359Y020422D01*
X027366Y020442D01*
X027377Y020471D01*
X027384Y020478D01*
X027395Y020507D01*
X02742Y020546D01*
X027429Y020555D01*
X027447Y020586D01*
X027467Y020611D01*
X027479Y020622D01*
X027483Y020631D01*
X027585Y020733D01*
X027594Y020737D01*
X02763Y020774D01*
X027652Y020787D01*
X027684Y020819D01*
X027706Y020832D01*
X027715Y020841D01*
X027724Y020846D01*
X027742Y020864D01*
X027765Y020877D01*
X027792Y020904D01*
X027815Y020918D01*
X027824Y020927D01*
X027833Y020931D01*
X027873Y020972D01*
X027896Y020986D01*
X027905Y020995D01*
X027921Y021001D01*
X027923Y021008D01*
X027932Y021013D01*
X027948Y021024D01*
X027952Y021033D01*
X027959Y02104D01*
X027968Y021044D01*
X027973Y021053D01*
X027995Y021067D01*
X028004Y021076D01*
X028027Y021089D01*
X028058Y021121D01*
X028079Y021132D01*
X028083Y021141D01*
X028103Y021162D01*
X028126Y021175D01*
X028157Y021207D01*
X02818Y02122D01*
X028212Y021252D01*
X028221Y021256D01*
X028239Y021274D01*
X028261Y021288D01*
X028288Y021315D01*
X028311Y021328D01*
X02832Y021337D01*
X028329Y021342D01*
X028347Y02136D01*
X02837Y021374D01*
X028379Y021383D01*
X028401Y021396D01*
X02841Y021405D01*
X028419Y02141D01*
X028455Y021446D01*
X028478Y021459D01*
X028487Y021468D01*
X028503Y021475D01*
X028505Y021482D01*
X028514Y021486D01*
X028539Y021507D01*
X028568Y021536D01*
X028577Y02154D01*
X028613Y021577D01*
X028636Y02159D01*
X02869Y021644D01*
X028699Y021649D01*
X02871Y02166D01*
X028712Y021667D01*
X028721Y021671D01*
X028728Y021678D01*
X028733Y021687D01*
X028769Y021723D01*
X028773Y021732D01*
X028791Y021741D01*
X028796Y02175D01*
X028803Y021757D01*
X028809Y021755D01*
X028805Y021746D01*
X028791Y021732D01*
X028778Y02171D01*
X028746Y021678D01*
X028744Y021671D01*
X028735Y021667D01*
X028728Y02166D01*
X028724Y021651D01*
X028701Y021633D01*
X028697Y021624D01*
X028658Y021586D01*
X028649Y021581D01*
X028496Y021428D01*
X028489Y021425D01*
X028476Y021403D01*
X028464Y021392D01*
X028455Y021387D01*
X028439Y021371D01*
X028435Y021362D01*
X028379Y021306D01*
X02837Y021301D01*
X028329Y021261D01*
X02832Y021256D01*
X028313Y021249D01*
X028311Y021243D01*
X028302Y021238D01*
X028245Y021195D01*
X028225Y021175D01*
X028216Y021171D01*
X028198Y021153D01*
X028176Y021139D01*
X028167Y02113D01*
X02816Y021128D01*
X028155Y021119D01*
X028142Y021096D01*
X028144Y021085D01*
X028155Y021083D01*
X028185Y021098D01*
X028194Y021103D01*
X028212Y021121D01*
X02823Y021125D01*
X028248Y021143D01*
X02827Y021157D01*
X028282Y021168D01*
X028286Y021177D01*
X028302Y021189D01*
X028311Y021202D01*
X028331Y021213D01*
X028333Y02122D01*
X028342Y021225D01*
X028351Y021234D01*
X028358Y021236D01*
X028363Y021245D01*
X02837Y021252D01*
X028379Y021256D01*
X02839Y021272D01*
X028415Y021288D01*
X028435Y021299D01*
X028439Y021308D01*
X028446Y021315D01*
X028455Y021319D01*
X028464Y021333D01*
X028473Y021337D01*
X028489Y021349D01*
X028494Y021358D01*
X0285Y021365D01*
X028509Y021369D01*
X028514Y021378D01*
X028536Y021392D01*
X028545Y021401D01*
X028568Y021414D01*
X0286Y021446D01*
X028615Y021452D01*
X02862Y021462D01*
X028627Y021468D01*
X028649Y021482D01*
X028658Y021491D01*
X028665Y021493D01*
X02867Y021502D01*
X028676Y021509D01*
X028699Y021522D01*
X028708Y021531D01*
X028717Y021536D01*
X028757Y021577D01*
X028767Y021581D01*
X028778Y021592D01*
X02878Y021599D01*
X028803Y021613D01*
X028814Y021624D01*
X028827Y021646D01*
X028841Y02166D01*
X028845Y021669D01*
X028882Y021705D01*
X028897Y021734D01*
X028906Y021739D01*
X028918Y02175D01*
X028938Y021798D01*
X028956Y021793D01*
D02*
G37*
G36*
X027961Y020834D02*
X027959Y020832D01*
X027957Y020834D01*
X027959Y020841D01*
X027961Y020834D01*
D02*
G37*
G36*
X027939Y020816D02*
X027934Y020812D01*
X027932Y02081D01*
X02793Y020816D01*
X027936Y020819D01*
X027939Y020816D01*
D02*
G37*
G36*
X027916Y020794D02*
X027912Y020785D01*
X027896Y020774D01*
X027891Y020765D01*
X027882Y02076D01*
X027871Y020749D01*
X027867Y02074D01*
X027844Y020726D01*
X027839Y020717D01*
X027824Y020706D01*
X027812Y02069D01*
X027797Y020683D01*
X027788Y020674D01*
X027785Y020681D01*
X027794Y02069D01*
X027806Y02071D01*
X027815Y020715D01*
X027821Y020722D01*
Y020726D01*
X027824Y020728D01*
X027833Y020737D01*
X027839Y02074D01*
X027844Y020749D01*
X027851Y020756D01*
X027873Y020769D01*
X027878Y020778D01*
X027887Y020783D01*
X0279Y020796D01*
X027916Y020794D01*
D02*
G37*
G36*
X029062Y02064D02*
X02906Y020638D01*
X029057Y02064D01*
X02906Y020643D01*
X029062Y02064D01*
D02*
G37*
G36*
X028999Y020487D02*
X028979Y020467D01*
X028976Y020474D01*
X028988Y020489D01*
X02899Y020492D01*
X028997Y020498D01*
X028999Y020487D01*
D02*
G37*
G36*
X028275Y020381D02*
X028277Y020379D01*
X028266Y020368D01*
X028261D01*
X028221Y02035D01*
X028196Y020343D01*
X028185Y020331D01*
X028148Y020318D01*
X028139Y020309D01*
X028121Y020304D01*
X02811Y020311D01*
X028115Y02032D01*
X028142Y020329D01*
X028146Y020338D01*
X028153Y020345D01*
X02818Y02035D01*
X028198Y020368D01*
X02823Y020372D01*
X028252Y020386D01*
X028275Y020381D01*
D02*
G37*
G36*
X028097Y020302D02*
X028092Y020289D01*
X028085Y020282D01*
X028067Y020277D01*
X028045Y020264D01*
X028015Y020257D01*
X028009Y020246D01*
X027991Y020241D01*
X027959D01*
X027957Y020239D01*
X027932Y020232D01*
X027833Y020228D01*
X027799Y02023D01*
X027839Y020234D01*
X02786Y020241D01*
X027869Y020237D01*
X027909Y020255D01*
X027964Y020259D01*
X027977Y020264D01*
X027995Y020268D01*
X028018Y020277D01*
X028047Y020289D01*
X028067Y0203D01*
X028085Y020304D01*
X028097Y020302D01*
D02*
G37*
G36*
X02779Y020225D02*
X027765Y020223D01*
X027761D01*
X02774Y020225D01*
X027788Y020228D01*
X02779Y020225D01*
D02*
G37*
G36*
X027682Y020216D02*
X027679Y020205D01*
X027621D01*
X027562Y02021D01*
X02756Y020212D01*
X027567Y020219D01*
X027598Y02021D01*
X027652Y020214D01*
X027666Y020219D01*
X027682Y020216D01*
D02*
G37*
G36*
X028133Y019598D02*
X02813Y019596D01*
X028124Y019598D01*
X028128Y019607D01*
X02813Y01961D01*
X028133Y019598D01*
D02*
G37*
G36*
X02811Y01958D02*
X028103Y019574D01*
X028101Y01958D01*
X028103Y019583D01*
X02811Y01958D01*
D02*
G37*
G36*
X027993Y0194D02*
X027984Y019391D01*
X027979Y019382D01*
X027968Y019371D01*
X027952Y019364D01*
X027948Y019355D01*
X027941Y019348D01*
X027932Y019344D01*
X027918Y01933D01*
X027909Y019325D01*
X027903Y019319D01*
X027898Y01931D01*
X027878Y019303D01*
X027876Y019305D01*
X027887Y019325D01*
X027894Y019328D01*
X027896Y01933D01*
X027936Y019371D01*
X027945Y019375D01*
X027968Y019398D01*
X027977Y019402D01*
X027991Y019407D01*
X027993Y0194D01*
D02*
G37*
G36*
X029062Y019319D02*
X029048Y019305D01*
X029044Y019292D01*
X029037Y019285D01*
X028988Y019258D01*
X028974Y019244D01*
X028965Y01924D01*
X028956Y019231D01*
X028947Y019226D01*
X028933Y019222D01*
X028927Y019224D01*
X028931Y019242D01*
X028947Y019253D01*
X028956Y019262D01*
X028963Y019265D01*
X028965Y019267D01*
X028992Y019285D01*
X029006Y019289D01*
X029024Y019307D01*
X029048Y019314D01*
X029055Y019321D01*
X029062Y019319D01*
D02*
G37*
G36*
X028656Y01908D02*
X028654Y019077D01*
X028651Y01908D01*
X028654Y019082D01*
X028656Y01908D01*
D02*
G37*
G36*
X028629Y019057D02*
X028622Y019055D01*
X02862Y019057D01*
X028622Y019059D01*
X028627Y019064D01*
X028629Y019057D01*
D02*
G37*
G36*
X028593Y019035D02*
X028591Y019032D01*
X028586D01*
X028584Y019035D01*
X028591Y019037D01*
X028593Y019035D01*
D02*
G37*
G36*
X027916Y01889D02*
Y018886D01*
X027914Y018883D01*
X027896Y018879D01*
X027894Y018886D01*
X0279Y018892D01*
X027916Y01889D01*
D02*
G37*
G36*
X02726Y018586D02*
X027264D01*
X027267Y018583D01*
X027242Y018581D01*
X027235Y018588D01*
X027242Y018595D01*
X02726Y018586D01*
D02*
G37*
G36*
X027312Y018579D02*
X027305Y018577D01*
X0273D01*
X027289Y018583D01*
X027305Y018586D01*
X027312Y018579D01*
D02*
G37*
G36*
X026834Y020118D02*
X02624D01*
Y022465D01*
X026834D01*
Y020118D01*
D02*
G37*
G36*
X02671Y019863D02*
X026364D01*
Y019969D01*
X02671D01*
Y019863D01*
D02*
G37*
G36*
Y01956D02*
X026364D01*
Y019821D01*
X026447D01*
Y019664D01*
X026503D01*
Y019791D01*
X02658D01*
Y019664D01*
X026631D01*
Y019821D01*
X02671D01*
Y01956D01*
D02*
G37*
G36*
Y01936D02*
X026526Y019312D01*
X02671Y019262D01*
Y019123D01*
X026364D01*
Y019203D01*
X026612D01*
X026364Y019269D01*
Y019336D01*
X026612Y019401D01*
X026364D01*
Y0195D01*
X02671D01*
Y01936D01*
D02*
G37*
G36*
Y018976D02*
X026607D01*
X02659Y018977D01*
X026573Y018977D01*
X026558Y018978D01*
X026544Y01898D01*
X026538Y01898D01*
X026533Y018982D01*
X026528Y018982D01*
X026524Y018983D01*
X026521Y018983D01*
X026519D01*
X026517Y018984D01*
X026517D01*
X026528Y018979D01*
X026539Y018973D01*
X02655Y018967D01*
X026561Y018961D01*
X02657Y018956D01*
X026573Y018954D01*
X026577Y018952D01*
X026579Y01895D01*
X026582Y018949D01*
X026583Y018948D01*
X026583Y018948D01*
X02671Y018867D01*
Y018766D01*
X026364D01*
Y018853D01*
X026531D01*
X026541Y018852D01*
X02655Y018852D01*
X02656Y01885D01*
X026568Y018848D01*
X026576Y018847D01*
X026583Y018846D01*
X026585Y018845D01*
X026586Y018845D01*
X026588Y018844D01*
X026588D01*
X026573Y018851D01*
X026559Y018858D01*
X026547Y018864D01*
X026537Y018869D01*
X026528Y018874D01*
X026525Y018876D01*
X026522Y018877D01*
X02652Y018879D01*
X026518Y01888D01*
X026517Y018881D01*
X026517D01*
X026364Y018976D01*
Y019063D01*
X02671D01*
Y018976D01*
D02*
G37*
G36*
Y018626D02*
X026507D01*
X026496D01*
X026488Y018626D01*
X026481Y018625D01*
X026475D01*
X026471Y018624D01*
X026469Y018624D01*
X026467Y018623D01*
X026466D01*
X026463Y018622D01*
X026459Y01862D01*
X026453Y018615D01*
X026451Y018613D01*
X026449Y018611D01*
X026448Y018609D01*
X026448Y018609D01*
X026445Y018604D01*
X026443Y018599D01*
X026442Y018593D01*
X026441Y018588D01*
X02644Y018584D01*
X02644Y01858D01*
Y018577D01*
X02644Y018569D01*
X026441Y018562D01*
X026443Y018556D01*
X026445Y018552D01*
X026447Y018548D01*
X026449Y018546D01*
X02645Y018544D01*
X026451Y018544D01*
X026455Y01854D01*
X026461Y018538D01*
X026467Y018536D01*
X026473Y018534D01*
X026478Y018534D01*
X026483Y018533D01*
X026486D01*
X026487D01*
X02671D01*
Y018425D01*
X026475D01*
X026464Y018426D01*
X026453Y018427D01*
X026444Y018429D01*
X026435Y018431D01*
X026427Y018434D01*
X026419Y018438D01*
X026413Y018441D01*
X026407Y018445D01*
X026402Y018449D01*
X026398Y018452D01*
X026394Y018455D01*
X026391Y018458D01*
X026388Y018461D01*
X026387Y018463D01*
X026386Y018464D01*
X026386Y018465D01*
X026381Y018472D01*
X026377Y01848D01*
X026373Y018489D01*
X02637Y018498D01*
X026365Y018515D01*
X026362Y018532D01*
X02636Y01854D01*
X02636Y018547D01*
X026359Y018554D01*
X026359Y018559D01*
X026358Y018563D01*
Y01857D01*
X026359Y018581D01*
X026359Y018592D01*
X026361Y018602D01*
X026363Y018612D01*
X026365Y018621D01*
X026367Y018629D01*
X02637Y018637D01*
X026372Y018644D01*
X026375Y01865D01*
X026378Y018656D01*
X02638Y01866D01*
X026382Y018664D01*
X026384Y018667D01*
X026386Y018669D01*
X026386Y01867D01*
X026387Y018671D01*
X026393Y018678D01*
X026399Y018683D01*
X026406Y018689D01*
X026413Y018693D01*
X026421Y018697D01*
X026429Y0187D01*
X026437Y018703D01*
X026445Y018705D01*
X026452Y018706D01*
X026458Y018707D01*
X026465Y018709D01*
X02647Y018709D01*
X026475Y01871D01*
X026478D01*
X02648D01*
X026481D01*
X02671D01*
Y018626D01*
D02*
G37*
G36*
X025945Y023359D02*
Y017586D01*
X025313D01*
Y023359D01*
X025945D01*
D02*
G37*
%LPC*%
G36*
X028257Y021685D02*
X028243Y02168D01*
X028241Y021678D01*
X028252Y021671D01*
X028261Y021676D01*
X028264Y021678D01*
X028257Y021685D01*
D02*
G37*
G36*
X027941Y021595D02*
X027939Y021592D01*
X027945Y02159D01*
X027948Y021592D01*
X027941Y021595D01*
D02*
G37*
G36*
X028207Y02168D02*
X028189Y021676D01*
X028167Y021667D01*
X028157Y021662D01*
X028151Y021655D01*
X028148Y021649D01*
X028144D01*
X028085Y021644D01*
X028054Y021631D01*
X028002Y021624D01*
X027986Y021617D01*
X027961Y021597D01*
X027957Y021592D01*
X027964Y021586D01*
X027982Y021581D01*
X028036Y021586D01*
X028058Y021595D01*
X028076Y021599D01*
X028099Y021604D01*
X028112Y021617D01*
X028137Y021624D01*
X028153Y021635D01*
X028162Y021644D01*
X028212Y021649D01*
X028218Y021655D01*
X028227Y021674D01*
X028207Y02168D01*
D02*
G37*
G36*
X028866Y021617D02*
X028863Y021615D01*
X028866Y021613D01*
X028868Y021615D01*
X028866Y021617D01*
D02*
G37*
G36*
X029299Y020904D02*
X029281Y0209D01*
X029274Y020893D01*
Y02088D01*
X029276Y020877D01*
X029285Y020882D01*
X029301Y020898D01*
X029299Y020904D01*
D02*
G37*
G36*
X028356Y019939D02*
X028333Y019934D01*
X0283Y01991D01*
X028297Y019907D01*
X028261Y019871D01*
X028252Y019867D01*
X028241Y019851D01*
X028232Y019842D01*
X028227Y019828D01*
X028248Y019826D01*
X028261Y01984D01*
X028284Y019853D01*
X028324Y019885D01*
X02834Y019896D01*
X028345Y019905D01*
X028351Y019912D01*
X028361Y019916D01*
X028363Y019932D01*
X028356Y019939D01*
D02*
G37*
G36*
X028221Y019817D02*
X028218Y019815D01*
X028221Y019813D01*
X028223Y019815D01*
X028221Y019817D01*
D02*
G37*
G36*
X027806Y019344D02*
X027803Y019341D01*
X027806Y019339D01*
X027808Y019341D01*
X027806Y019344D01*
D02*
G37*
G36*
X027783Y019321D02*
X027781Y019319D01*
X027783Y019316D01*
X027785Y019319D01*
X027783Y019321D01*
D02*
G37*
G36*
X028577Y019177D02*
X028566Y01917D01*
Y019165D01*
X028573Y019159D01*
X028582Y019163D01*
X028588Y01917D01*
X028577Y019177D01*
D02*
G37*
G36*
X028523Y019127D02*
X028521Y019125D01*
X028523Y019122D01*
X028525Y019125D01*
X028523Y019127D01*
D02*
G37*
G36*
X028031Y018933D02*
X028024Y018926D01*
X028042Y018922D01*
X028047Y018926D01*
X028045Y018929D01*
X028042Y018931D01*
X028031Y018933D01*
D02*
G37*
G36*
X027571Y018753D02*
X027564Y018746D01*
X027567Y018735D01*
X027571D01*
X027573Y01875D01*
X027571Y018753D01*
D02*
G37*
G36*
X026716Y022347D02*
X026358D01*
Y022043D01*
Y022197D01*
X026359Y022194D01*
Y022189D01*
X02636Y022183D01*
X026361Y022176D01*
X026362Y022168D01*
X026364Y02216D01*
X026366Y02215D01*
X02637Y022142D01*
X026374Y022132D01*
X026378Y022123D01*
X026383Y022113D01*
X026389Y022104D01*
X026396Y022095D01*
X026405Y022087D01*
X026405Y022086D01*
X026407Y022085D01*
X02641Y022083D01*
X026413Y02208D01*
X026418Y022077D01*
X026424Y022073D01*
X026431Y022069D01*
X026439Y022065D01*
X026447Y022061D01*
X026457Y022057D01*
X026467Y022053D01*
X026479Y02205D01*
X026491Y022047D01*
X026505Y022045D01*
X026519Y022044D01*
X026534Y022043D01*
X026716D01*
X026538D01*
X026542Y022044D01*
X026548D01*
X026554Y022045D01*
X026562Y022046D01*
X026571Y022047D01*
X026581Y022048D01*
X026591Y022051D01*
X026602Y022053D01*
X026613Y022057D01*
X026624Y022061D01*
X026635Y022065D01*
X026645Y022071D01*
X026656Y022077D01*
X026666Y022084D01*
X026666Y022085D01*
X026668Y022087D01*
X026671Y022089D01*
X026673Y022092D01*
X026677Y022096D01*
X026681Y022101D01*
X026686Y022107D01*
X026691Y022114D01*
X026696Y022122D01*
X0267Y02213D01*
X026704Y02214D01*
X026708Y02215D01*
X026712Y022161D01*
X026714Y022173D01*
X026715Y022185D01*
X026716Y022199D01*
Y022206D01*
X026715Y022211D01*
X026715Y022216D01*
X026714Y022223D01*
X026713Y02223D01*
X026711Y022238D01*
X026709Y022247D01*
X026707Y022255D01*
X026703Y022264D01*
X0267Y022273D01*
X026695Y022281D01*
X02669Y02229D01*
X026684Y022297D01*
X026678Y022304D01*
X026677Y022305D01*
X026676Y022306D01*
X026674Y022308D01*
X026671Y02231D01*
X026667Y022313D01*
X026662Y022316D01*
X026657Y02232D01*
X026651Y022324D01*
X026644Y022327D01*
X026636Y022331D01*
X026628Y022334D01*
X026619Y022338D01*
X026609Y022341D01*
X026599Y022343D01*
X026588Y022345D01*
X026577Y022347D01*
X026572Y022247D01*
X026572D01*
X026573D01*
X026575D01*
X026577D01*
X026583Y022247D01*
X026591Y022246D01*
X026599Y022244D01*
X026607Y022241D01*
X026615Y022238D01*
X026621Y022233D01*
X026622Y022233D01*
X026624Y022231D01*
X026626Y022229D01*
X02663Y022225D01*
X026632Y02222D01*
X026635Y022215D01*
X026637Y022209D01*
X026637Y022202D01*
Y0222D01*
X026637Y022198D01*
X026636Y022195D01*
X026634Y022191D01*
X026632Y022187D01*
X026629Y022182D01*
X026625Y022178D01*
X026619Y022173D01*
X026613Y022169D01*
X026605Y022164D01*
X026595Y02216D01*
X026583Y022157D01*
X026569Y022155D01*
X026562Y022154D01*
X026554Y022153D01*
X026545Y022153D01*
X026536D01*
X026535D01*
X026533D01*
X02653D01*
X026526D01*
X026522Y022153D01*
X026517D01*
X026505Y022154D01*
X026492Y022156D01*
X026479Y022158D01*
X026473Y022159D01*
X026468Y022161D01*
X026463Y022163D01*
X026459Y022165D01*
X026458Y022166D01*
X026455Y022167D01*
X026452Y022171D01*
X026449Y022175D01*
X026445Y02218D01*
X026442Y022186D01*
X02644Y022194D01*
X026439Y022202D01*
Y022203D01*
X026439Y022206D01*
X02644Y022208D01*
X026442Y022215D01*
X026443Y022219D01*
X026446Y022224D01*
X026449Y022227D01*
X026453Y022232D01*
X026457Y022236D01*
X026463Y022239D01*
X026469Y022243D01*
X026477Y022246D01*
X026486Y022248D01*
X026496Y022249D01*
X02649Y022347D01*
X026716D01*
D02*
G37*
G36*
X02671Y021999D02*
X026364D01*
Y021892D01*
X02671D01*
Y021999D01*
D02*
G37*
G36*
Y021863D02*
X026364D01*
X026627D01*
Y021791D01*
X026364D01*
Y02169D01*
X026627D01*
Y021618D01*
X02671D01*
Y021863D01*
D02*
G37*
G36*
X02654Y021603D02*
X026358D01*
Y021273D01*
D01*
Y021435D01*
X026359Y021431D01*
Y021426D01*
X02636Y021419D01*
X026361Y021412D01*
X026362Y021404D01*
X026364Y021396D01*
X026367Y021387D01*
X02637Y021377D01*
X026374Y021367D01*
X026378Y021357D01*
X026384Y021347D01*
X02639Y021337D01*
X026398Y021328D01*
X026406Y021319D01*
X026407Y021318D01*
X026409Y021317D01*
X026411Y021315D01*
X026415Y021312D01*
X02642Y021309D01*
X026426Y021304D01*
X026433Y0213D01*
X026441Y021296D01*
X026449Y021292D01*
X026459Y021288D01*
X02647Y021284D01*
X026482Y02128D01*
X026494Y021277D01*
X026507Y021275D01*
X026522Y021274D01*
X026536Y021273D01*
X02654D01*
X026544Y021274D01*
X026549D01*
X026556Y021274D01*
X026564Y021275D01*
X026572Y021277D01*
X026582Y021279D01*
X026591Y021281D01*
X026602Y021284D01*
X026613Y021287D01*
X026624Y021292D01*
X026635Y021297D01*
X026645Y021303D01*
X026655Y021309D01*
X026665Y021317D01*
X026666Y021317D01*
X026667Y021319D01*
X02667Y021321D01*
X026673Y021325D01*
X026677Y021329D01*
X026681Y021335D01*
X026686Y021341D01*
X026691Y021348D01*
X026695Y021357D01*
X0267Y021366D01*
X026704Y021376D01*
X026708Y021387D01*
X026711Y021399D01*
X026714Y021411D01*
X026715Y021425D01*
X026716Y021439D01*
Y021442D01*
X026715Y021446D01*
Y021451D01*
X026714Y021457D01*
X026713Y021464D01*
X026712Y021472D01*
X02671Y021481D01*
X026707Y02149D01*
X026704Y0215D01*
X0267Y021509D01*
X026696Y021519D01*
X02669Y021529D01*
X026684Y021539D01*
X026677Y021548D01*
X026668Y021557D01*
X026667Y021558D01*
X026666Y021559D01*
X026663Y021561D01*
X026659Y021564D01*
X026654Y021568D01*
X026648Y021572D01*
X026642Y021576D01*
X026634Y02158D01*
X026625Y021584D01*
X026615Y021588D01*
X026605Y021592D01*
X026594Y021596D01*
X026582Y021598D01*
X026568Y021601D01*
X026555Y021602D01*
X02654Y021603D01*
D02*
G37*
G36*
X026463Y021245D02*
X026364D01*
Y020954D01*
X02671D01*
Y021135D01*
X02671Y021139D01*
X026709Y021144D01*
X026709Y021149D01*
X026707Y021161D01*
X026704Y021174D01*
X026699Y021187D01*
X026696Y021193D01*
X026692Y021199D01*
X026688Y021205D01*
X026683Y02121D01*
X026682Y02121D01*
X026681Y021211D01*
X02668Y021212D01*
X026678Y021214D01*
X026672Y021218D01*
X026664Y021223D01*
X026655Y021227D01*
X026644Y021232D01*
X026632Y021234D01*
X026626Y021235D01*
X026619D01*
X026619D01*
X026618D01*
X026615D01*
X02661Y021235D01*
X026604Y021234D01*
X026596Y021232D01*
X026589Y021229D01*
X02658Y021226D01*
X026572Y021221D01*
X026571Y02122D01*
X026569Y021218D01*
X026565Y021215D01*
X026561Y02121D01*
X026556Y021204D01*
X026552Y021196D01*
X026547Y021187D01*
X026544Y021177D01*
Y021178D01*
X026543Y02118D01*
X026542Y021183D01*
X026541Y021187D01*
X026538Y021193D01*
X026535Y021198D01*
X026532Y021204D01*
X026528Y021211D01*
X026523Y021217D01*
X026517Y021223D01*
X026511Y021229D01*
X026503Y021234D01*
X026495Y021239D01*
X026485Y021242D01*
X026475Y021244D01*
X026463Y021245D01*
D02*
G37*
G36*
X02654Y020909D02*
X026358D01*
X026536D01*
X026532Y020909D01*
X026526D01*
X026519Y020908D01*
X026511Y020907D01*
X026502Y020906D01*
X026493Y020903D01*
X026482Y020901D01*
X026472Y020898D01*
X02646Y020894D01*
X026449Y02089D01*
X026439Y020884D01*
X026428Y020878D01*
X026418Y020871D01*
X026408Y020863D01*
X026407Y020862D01*
X026406Y020861D01*
X026404Y020858D01*
X0264Y020855D01*
X026396Y02085D01*
X026392Y020844D01*
X026388Y020838D01*
X026383Y020831D01*
X026378Y020823D01*
X026374Y020814D01*
X02637Y020804D01*
X026366Y020794D01*
X026363Y020782D01*
X02636Y020771D01*
X026359Y020758D01*
X026358Y020745D01*
Y020741D01*
X026359Y020737D01*
Y020733D01*
X02636Y020726D01*
X026361Y020719D01*
X026362Y020711D01*
X026364Y020703D01*
X026367Y020693D01*
X02637Y020683D01*
X026374Y020674D01*
X026378Y020664D01*
X026384Y020653D01*
X02639Y020644D01*
X026398Y020634D01*
X026406Y020626D01*
X026407Y020625D01*
X026409Y020623D01*
X026411Y020621D01*
X026415Y020618D01*
X02642Y020615D01*
X026426Y020611D01*
X026433Y020607D01*
X026441Y020603D01*
X026449Y020598D01*
X026459Y020594D01*
X02647Y020591D01*
X026482Y020587D01*
X026494Y020584D01*
X026507Y020582D01*
X026522Y02058D01*
X026536Y02058D01*
X02654D01*
X026544Y02058D01*
X026549D01*
X026556Y020581D01*
X026564Y020582D01*
X026572Y020583D01*
X026582Y020585D01*
X026591Y020587D01*
X026602Y020591D01*
X026613Y020594D01*
X026624Y020598D01*
X026635Y020603D01*
X026645Y020609D01*
X026655Y020616D01*
X026665Y020623D01*
X026666Y020624D01*
X026667Y020626D01*
X02667Y020628D01*
X026673Y020632D01*
X026677Y020636D01*
X026681Y020641D01*
X026686Y020648D01*
X026691Y020655D01*
X026695Y020664D01*
X0267Y020672D01*
X026704Y020683D01*
X026708Y020694D01*
X026711Y020705D01*
X026714Y020718D01*
X026715Y020731D01*
X026716Y020746D01*
Y020749D01*
X026715Y020753D01*
Y020758D01*
X026714Y020764D01*
X026713Y020771D01*
X026712Y020779D01*
X02671Y020788D01*
X026707Y020797D01*
X026704Y020806D01*
X0267Y020816D01*
X026696Y020826D01*
X02669Y020836D01*
X026684Y020846D01*
X026677Y020855D01*
X026668Y020864D01*
X026667Y020864D01*
X026666Y020866D01*
X026663Y020868D01*
X026659Y020871D01*
X026654Y020874D01*
X026648Y020878D01*
X026642Y020882D01*
X026634Y020887D01*
X026625Y020891D01*
X026615Y020895D01*
X026605Y020899D01*
X026594Y020902D01*
X026582Y020905D01*
X026568Y020907D01*
X026555Y020909D01*
X02654Y020909D01*
D02*
G37*
G36*
X026364Y020545D02*
Y020427D01*
X026496Y020375D01*
Y020343D01*
X026364D01*
Y020236D01*
X02671D01*
Y020426D01*
Y020423D01*
X02671Y020427D01*
X026709Y020432D01*
X026709Y020438D01*
X026708Y020444D01*
X026707Y020451D01*
X026703Y020466D01*
X026698Y020482D01*
X026695Y02049D01*
X026691Y020497D01*
X026687Y020504D01*
X026682Y02051D01*
X026681Y020511D01*
X026681Y020512D01*
X026679Y020514D01*
X026677Y020516D01*
X026674Y020518D01*
X026671Y020521D01*
X026667Y020524D01*
X026662Y020527D01*
X026651Y020533D01*
X026639Y020539D01*
X026632Y02054D01*
X026624Y020542D01*
X026617Y020543D01*
X026608Y020544D01*
X026607D01*
X026607D01*
X026605D01*
X026603D01*
X026597Y020543D01*
X02659Y020542D01*
X026582Y02054D01*
X026573Y020538D01*
X026564Y020535D01*
X026555Y020531D01*
X026554Y020531D01*
X026551Y020529D01*
X026547Y020525D01*
X026541Y020521D01*
X026535Y020514D01*
X026528Y020505D01*
X026525Y0205D01*
X026521Y020494D01*
X026518Y020488D01*
X026514Y020482D01*
X026364Y020545D01*
D02*
G37*
%LPD*%
G36*
X026487Y022346D02*
X026484Y022345D01*
X026479Y022345D01*
X026474Y022344D01*
X026468Y022342D01*
X026461Y022341D01*
X026454Y022338D01*
X026446Y022335D01*
X026438Y022332D01*
X02643Y022328D01*
X026422Y022324D01*
X026414Y022319D01*
X026406Y022313D01*
X026399Y022306D01*
X026392Y022299D01*
X026392Y022298D01*
X02639Y022297D01*
X026389Y022295D01*
X026387Y022292D01*
X026384Y022288D01*
X026381Y022283D01*
X026378Y022278D01*
X026375Y022272D01*
X026372Y022265D01*
X026369Y022258D01*
X026366Y022249D01*
X026364Y022241D01*
X026362Y022231D01*
X02636Y022221D01*
X026359Y022211D01*
X026358Y0222D01*
Y022347D01*
X026489D01*
X026487Y022346D01*
D02*
G37*
G36*
X026532Y021602D02*
X026526D01*
X026519Y021601D01*
X026511Y021601D01*
X026502Y021599D01*
X026493Y021597D01*
X026482Y021595D01*
X026472Y021591D01*
X02646Y021588D01*
X026449Y021583D01*
X026439Y021578D01*
X026428Y021572D01*
X026418Y021565D01*
X026408Y021556D01*
X026407Y021556D01*
X026406Y021554D01*
X026404Y021552D01*
X0264Y021548D01*
X026396Y021543D01*
X026392Y021538D01*
X026388Y021532D01*
X026383Y021524D01*
X026378Y021517D01*
X026374Y021507D01*
X02637Y021497D01*
X026366Y021487D01*
X026363Y021476D01*
X02636Y021464D01*
X026359Y021451D01*
X026358Y021438D01*
Y021603D01*
X026536D01*
X026532Y021602D01*
D02*
G37*
G36*
X026554Y021488D02*
X02656D01*
X026567Y021487D01*
X026575Y021485D01*
X026583Y021484D01*
X026592Y021482D01*
X0266Y021479D01*
X026608Y021476D01*
X026616Y021472D01*
X026623Y021467D01*
X026629Y021462D01*
X026633Y021455D01*
X026636Y021448D01*
X026637Y02144D01*
Y021437D01*
X026637Y021435D01*
X026636Y021431D01*
X026634Y021428D01*
X026632Y021423D01*
X026629Y021418D01*
X026624Y021414D01*
X026619Y021409D01*
X026612Y021404D01*
X026603Y0214D01*
X026594Y021396D01*
X026582Y021393D01*
X026568Y02139D01*
X02656Y021389D01*
X026552Y021388D01*
X026543Y021388D01*
X026534D01*
X026532D01*
X026529D01*
X026525Y021388D01*
X026518D01*
X026511Y021389D01*
X026503Y02139D01*
X026494Y021392D01*
X026485Y021394D01*
X026476Y021396D01*
X026467Y0214D01*
X026459Y021404D01*
X026452Y021408D01*
X026446Y021414D01*
X026441Y021421D01*
X026438Y021429D01*
X026437Y021433D01*
X026437Y021437D01*
Y021439D01*
X026437Y021442D01*
X026438Y021447D01*
X02644Y021452D01*
X026443Y021459D01*
X026447Y021465D01*
X026453Y021471D01*
X026456Y021474D01*
X02646Y021476D01*
X026461D01*
X026461Y021477D01*
X026463Y021477D01*
X026465Y021478D01*
X026467Y021479D01*
X026471Y02148D01*
X026475Y021481D01*
X02648Y021482D01*
X026485Y021483D01*
X026491Y021484D01*
X026499Y021485D01*
X026506Y021487D01*
X026515Y021487D01*
X026525Y021488D01*
X026535Y021488D01*
X026546D01*
X026547D01*
X02655D01*
X026554Y021488D01*
D02*
G37*
G36*
X026457Y021244D02*
X026453D01*
X026449Y021244D01*
X02644Y021242D01*
X026429Y021239D01*
X026418Y021234D01*
X026406Y021229D01*
X0264Y021225D01*
X026394Y021221D01*
X026393D01*
X026393Y02122D01*
X026391Y021218D01*
X026389Y021216D01*
X026387Y021212D01*
X026384Y021209D01*
X026382Y021204D01*
X026379Y021199D01*
X026376Y021193D01*
X026373Y021185D01*
X026371Y021177D01*
X026369Y021168D01*
X026366Y021157D01*
X026365Y021146D01*
X026364Y021133D01*
X026364Y021119D01*
Y021245D01*
X026459D01*
X026457Y021244D01*
D02*
G37*
G36*
X026611Y021135D02*
X026616Y021134D01*
X026621Y021131D01*
X026627Y021127D01*
X02663Y021124D01*
X026632Y02112D01*
X026633Y021116D01*
X026635Y021111D01*
X026636Y021106D01*
X026636Y021099D01*
Y021052D01*
X026578D01*
Y021104D01*
X026578Y021108D01*
X026579Y021111D01*
X02658Y021116D01*
X026582Y02112D01*
X026584Y021124D01*
X026587Y021127D01*
X026588Y021128D01*
X026589Y021128D01*
X02659Y02113D01*
X026593Y021132D01*
X026599Y021134D01*
X026603Y021135D01*
X026607Y021135D01*
X026607D01*
X026608D01*
X026611Y021135D01*
D02*
G37*
G36*
X026476Y021141D02*
X026479Y02114D01*
X026482Y021139D01*
X026486Y021138D01*
X02649Y021135D01*
X026494Y021132D01*
X026494Y021132D01*
X026495Y021131D01*
X026497Y021128D01*
X026499Y021125D01*
X026501Y021121D01*
X026502Y021115D01*
X026504Y021108D01*
X026504Y0211D01*
Y021052D01*
X026441D01*
Y021107D01*
X026441Y02111D01*
X026442Y021115D01*
X026443Y021119D01*
X026445Y021124D01*
X026447Y021128D01*
X02645Y021132D01*
X026451Y021133D01*
X026452Y021134D01*
X026454Y021135D01*
X026457Y021137D01*
X02646Y021139D01*
X026464Y02114D01*
X026467Y021141D01*
X026472Y021141D01*
X026472D01*
X026474D01*
X026476Y021141D01*
D02*
G37*
G36*
X026554Y020794D02*
X02656D01*
X026567Y020793D01*
X026575Y020792D01*
X026583Y020791D01*
X026592Y020789D01*
X0266Y020786D01*
X026608Y020783D01*
X026616Y020779D01*
X026623Y020774D01*
X026629Y020769D01*
X026633Y020762D01*
X026636Y020755D01*
X026637Y020746D01*
Y020744D01*
X026637Y020741D01*
X026636Y020738D01*
X026634Y020734D01*
X026632Y02073D01*
X026629Y020725D01*
X026624Y020721D01*
X026619Y020716D01*
X026612Y020711D01*
X026603Y020706D01*
X026594Y020703D01*
X026582Y020699D01*
X026568Y020696D01*
X02656Y020695D01*
X026552Y020695D01*
X026543Y020694D01*
X026534D01*
X026532D01*
X026529D01*
X026525Y020695D01*
X026518D01*
X026511Y020696D01*
X026503Y020697D01*
X026494Y020699D01*
X026485Y0207D01*
X026476Y020703D01*
X026467Y020706D01*
X026459Y020711D01*
X026452Y020715D01*
X026446Y020721D01*
X026441Y020728D01*
X026438Y020735D01*
X026437Y02074D01*
X026437Y020744D01*
Y020745D01*
X026437Y020748D01*
X026438Y020753D01*
X02644Y020759D01*
X026443Y020765D01*
X026447Y020772D01*
X026453Y020778D01*
X026456Y020781D01*
X02646Y020783D01*
X026461D01*
X026461Y020783D01*
X026463Y020784D01*
X026465Y020784D01*
X026467Y020786D01*
X026471Y020787D01*
X026475Y020788D01*
X02648Y020789D01*
X026485Y02079D01*
X026491Y020791D01*
X026499Y020792D01*
X026506Y020793D01*
X026515Y020794D01*
X026525Y020794D01*
X026535Y020795D01*
X026546D01*
X026547D01*
X02655D01*
X026554Y020794D01*
D02*
G37*
G36*
X026608Y020432D02*
X026614Y020431D01*
X02662Y020428D01*
X026623Y020426D01*
X026626Y020422D01*
X026629Y020419D01*
X026631Y020415D01*
X026633Y02041D01*
X026635Y020405D01*
X026636Y020398D01*
X026637Y020391D01*
Y020343D01*
X02657D01*
Y020391D01*
X026571Y020395D01*
X026571Y020399D01*
X026572Y020405D01*
X026573Y02041D01*
X026576Y020415D01*
X026578Y02042D01*
X026579Y020421D01*
X02658Y020422D01*
X026582Y020424D01*
X026584Y020427D01*
X026588Y020429D01*
X026592Y020431D01*
X026597Y020432D01*
X026603Y020433D01*
X026603D01*
X026605D01*
X026606D01*
X026608Y020432D01*
D02*
G37*
%LPC*%
G36*
X025748Y023162D02*
Y023107D01*
X025565D01*
Y023162D01*
X025748D01*
X025513D01*
Y022984D01*
X025565D01*
Y023041D01*
X025675D01*
Y023041D01*
X025674Y02304D01*
X025673Y023038D01*
X025672Y023036D01*
X025671Y023033D01*
X02567Y02303D01*
X025667Y023023D01*
X025664Y023014D01*
X025661Y023006D01*
X025659Y022998D01*
X025658Y02299D01*
X02571D01*
Y022991D01*
X02571Y022992D01*
X025711Y022995D01*
X025712Y022998D01*
X025713Y023002D01*
X025715Y023007D01*
X025716Y023012D01*
X025719Y023017D01*
X025724Y023028D01*
X025731Y023039D01*
X025734Y023044D01*
X025739Y023049D01*
X025743Y023054D01*
X025748Y023057D01*
Y023012D01*
Y023162D01*
D02*
G37*
G36*
X025744Y022961D02*
X025513Y022889D01*
Y022742D01*
D01*
Y022817D01*
X025744Y022742D01*
Y022817D01*
X025618Y022853D01*
X025618D01*
X025617Y022854D01*
X025614Y022855D01*
X025612Y022856D01*
X025608Y022857D01*
X025605Y022858D01*
X025597Y02286D01*
X025744Y022903D01*
Y022961D01*
D02*
G37*
G36*
X02563Y022644D02*
X025628D01*
D01*
D01*
D01*
X025513D01*
X025628D01*
X025625Y022644D01*
X025621D01*
X025617Y022643D01*
X025612Y022643D01*
X025606Y022642D01*
X0256Y02264D01*
X025593Y022639D01*
X025586Y022637D01*
X02558Y022634D01*
X025573Y022631D01*
X025565Y022628D01*
X025559Y022623D01*
X025552Y022619D01*
X025546Y022613D01*
X025545Y022613D01*
X025544Y022612D01*
X025543Y02261D01*
X025541Y022608D01*
X025538Y022604D01*
X025535Y022601D01*
X025533Y022596D01*
X02553Y022591D01*
X025526Y022586D01*
X025523Y02258D01*
X025521Y022573D01*
X025518Y022566D01*
X025516Y022558D01*
X025515Y02255D01*
X025514Y022541D01*
X025513Y022532D01*
Y022644D01*
D01*
Y022439D01*
X025744D01*
Y022531D01*
X025744Y022533D01*
Y022537D01*
X025743Y022543D01*
X025743Y022548D01*
X025741Y022554D01*
X02574Y022561D01*
X025738Y022568D01*
X025736Y022575D01*
X025733Y022582D01*
X02573Y022589D01*
X025726Y022596D01*
X025721Y022603D01*
X025716Y022609D01*
X02571Y022615D01*
X025709Y022616D01*
X025708Y022616D01*
X025706Y022618D01*
X025704Y02262D01*
X0257Y022622D01*
X025696Y022624D01*
X025692Y022627D01*
X025687Y02263D01*
X025681Y022632D01*
X025675Y022635D01*
X025668Y022638D01*
X025661Y02264D01*
X025654Y022642D01*
X025646Y022643D01*
X025638Y022644D01*
X02563Y022644D01*
D02*
G37*
G36*
X025744Y022405D02*
X025513D01*
Y0222D01*
X025744D01*
Y022324D01*
X025744Y022327D01*
X025744Y02233D01*
X025743Y022334D01*
X025743Y022338D01*
X025742Y022343D01*
X02574Y022353D01*
X025736Y022363D01*
X025734Y022369D01*
X025732Y022373D01*
X025729Y022378D01*
X025725Y022382D01*
X025725Y022383D01*
X025725Y022383D01*
X025724Y022385D01*
X025722Y022386D01*
X02572Y022387D01*
X025718Y022389D01*
X025715Y022391D01*
X025712Y022394D01*
X025705Y022398D01*
X025697Y022401D01*
X025692Y022402D01*
X025687Y022403D01*
X025682Y022404D01*
X025676Y022405D01*
X025676D01*
X025675D01*
X025674D01*
X025673D01*
X025669Y022404D01*
X025664Y022403D01*
X025659Y022402D01*
X025653Y022401D01*
X025647Y022399D01*
X025641Y022396D01*
X02564Y022396D01*
X025638Y022395D01*
X025635Y022392D01*
X025632Y022389D01*
X025628Y022385D01*
X025623Y022379D01*
X025621Y022376D01*
X025618Y022372D01*
X025616Y022368D01*
X025614Y022363D01*
X025513Y022405D01*
X025744D01*
D02*
G37*
G36*
Y022179D02*
X025513D01*
Y021959D01*
D01*
X025744Y022031D01*
Y022106D01*
X025513Y022179D01*
X025744D01*
D02*
G37*
G36*
X025748Y021949D02*
Y021842D01*
X025748Y021844D01*
Y021848D01*
X025747Y021852D01*
X025746Y021856D01*
X025745Y021862D01*
X025744Y021868D01*
X025742Y021874D01*
X02574Y02188D01*
X025737Y021887D01*
X025735Y021893D01*
X025731Y0219D01*
X025727Y021906D01*
X025722Y021912D01*
X025716Y021918D01*
X025716Y021919D01*
X025715Y02192D01*
X025713Y021921D01*
X02571Y021923D01*
X025707Y021926D01*
X025703Y021928D01*
X025699Y021931D01*
X025693Y021934D01*
X025688Y021936D01*
X025681Y021939D01*
X025674Y021942D01*
X025666Y021944D01*
X025658Y021946D01*
X02565Y021947D01*
X025641Y021948D01*
X025631Y021949D01*
X025748D01*
X025628D01*
X025625Y021948D01*
X025622D01*
X025617Y021948D01*
X025612Y021947D01*
X025606Y021946D01*
X025599Y021945D01*
X025592Y021943D01*
X025585Y021941D01*
X025578Y021939D01*
X02557Y021936D01*
X025563Y021932D01*
X025556Y021928D01*
X025549Y021923D01*
X025543Y021918D01*
X025542Y021918D01*
X025541Y021916D01*
X02554Y021915D01*
X025538Y021912D01*
X025535Y021909D01*
X025532Y021906D01*
X025529Y021902D01*
X025526Y021896D01*
X025523Y021891D01*
X02552Y021885D01*
X025517Y021879D01*
X025515Y021872D01*
X025513Y021864D01*
X025511Y021856D01*
X02551Y021848D01*
X02551Y021839D01*
Y021837D01*
X02551Y021834D01*
Y021831D01*
X025511Y021827D01*
X025511Y021822D01*
X025512Y021816D01*
X025514Y021811D01*
X025515Y021805D01*
X025518Y021798D01*
X02552Y021792D01*
X025523Y021785D01*
X025527Y021778D01*
X025531Y021772D01*
X025536Y021765D01*
X025542Y02176D01*
X025542Y021759D01*
X025543Y021758D01*
X025545Y021757D01*
X025547Y021755D01*
X025551Y021753D01*
X025555Y02175D01*
X025559Y021747D01*
X025565Y021744D01*
X02557Y021741D01*
X025577Y021739D01*
X025584Y021736D01*
X025592Y021734D01*
X0256Y021732D01*
X025609Y02173D01*
X025618Y021729D01*
X025628Y021729D01*
X02551D01*
X025748D01*
Y021949D01*
D02*
G37*
G36*
X02558Y02171D02*
X025577D01*
X025575Y02171D01*
X025573D01*
X02557Y021709D01*
X025564Y021708D01*
X025557Y021706D01*
X025549Y021703D01*
X025541Y021699D01*
X025537Y021697D01*
X025533Y021694D01*
X025533D01*
X025533Y021693D01*
X025531Y021692D01*
X02553Y021691D01*
X025529Y021689D01*
X025527Y021686D01*
X025525Y021683D01*
X025523Y021679D01*
X025521Y021675D01*
X025519Y02167D01*
X025518Y021665D01*
X025517Y021659D01*
X025515Y021652D01*
X025514Y021644D01*
X025514Y021636D01*
X025513Y021626D01*
Y021516D01*
X025744D01*
Y021637D01*
X025744Y021639D01*
X025744Y021643D01*
X025743Y021646D01*
X025742Y021654D01*
X02574Y021663D01*
X025737Y021671D01*
X025735Y021675D01*
X025732Y02168D01*
X025729Y021683D01*
X025726Y021687D01*
X025725Y021687D01*
X025725Y021687D01*
X025724Y021688D01*
X025723Y021689D01*
X025719Y021692D01*
X025713Y021695D01*
X025707Y021698D01*
X0257Y021701D01*
X025692Y021703D01*
X025688Y021704D01*
X025684D01*
X025683D01*
X025683D01*
X025681D01*
X025677Y021703D01*
X025673Y021703D01*
X025668Y021701D01*
X025663Y0217D01*
X025658Y021697D01*
X025652Y021694D01*
X025652Y021694D01*
X02565Y021692D01*
X025648Y02169D01*
X025645Y021687D01*
X025642Y021683D01*
X025638Y021678D01*
X025636Y021672D01*
X025633Y021665D01*
Y021665D01*
X025633Y021667D01*
X025632Y021669D01*
X025631Y021672D01*
X025629Y021675D01*
X025628Y021679D01*
X025625Y021683D01*
X025622Y021687D01*
X025619Y021692D01*
X025616Y021696D01*
X025611Y021699D01*
X025606Y021703D01*
X025601Y021706D01*
X025594Y021708D01*
X025587Y02171D01*
X02558Y02171D01*
D02*
G37*
G36*
X025744Y021409D02*
X025513Y021337D01*
Y021189D01*
D01*
Y021265D01*
X025744Y021189D01*
Y021264D01*
X025618Y021301D01*
X025618D01*
X025617Y021302D01*
X025614Y021302D01*
X025612Y021303D01*
X025608Y021304D01*
X025605Y021305D01*
X025597Y021307D01*
X025744Y02135D01*
Y021409D01*
D02*
G37*
G36*
Y02118D02*
X025691D01*
Y021076D01*
X025657D01*
Y02116D01*
X025606D01*
Y021076D01*
X025569D01*
Y02118D01*
X025649D01*
X025513D01*
Y021006D01*
X025744D01*
Y02118D01*
D02*
G37*
G36*
X02563Y020977D02*
X025628D01*
X025625Y020976D01*
X025621D01*
X025617Y020975D01*
X025612Y020975D01*
X025606Y020974D01*
X0256Y020973D01*
X025593Y020971D01*
X025586Y020969D01*
X02558Y020966D01*
X025573Y020963D01*
X025565Y02096D01*
X025559Y020955D01*
X025552Y020951D01*
X025546Y020945D01*
X025545Y020945D01*
X025544Y020944D01*
X025543Y020942D01*
X025541Y02094D01*
X025538Y020937D01*
X025535Y020933D01*
X025533Y020929D01*
X02553Y020923D01*
X025526Y020918D01*
X025523Y020912D01*
X025521Y020905D01*
X025518Y020898D01*
X025516Y02089D01*
X025515Y020882D01*
X025514Y020874D01*
X025513Y020864D01*
Y020771D01*
X025744D01*
Y020863D01*
X025744Y020866D01*
Y02087D01*
X025743Y020875D01*
X025743Y02088D01*
X025741Y020886D01*
X02574Y020893D01*
X025738Y0209D01*
X025736Y020907D01*
X025733Y020914D01*
X02573Y020922D01*
X025726Y020929D01*
X025721Y020935D01*
X025716Y020942D01*
X02571Y020947D01*
X025709Y020948D01*
X025708Y020949D01*
X025706Y02095D01*
X025704Y020952D01*
X0257Y020954D01*
X025696Y020957D01*
X025692Y020959D01*
X025687Y020962D01*
X025681Y020965D01*
X025675Y020967D01*
X025668Y02097D01*
X025661Y020972D01*
X025654Y020974D01*
X025646Y020975D01*
X025638Y020976D01*
X02563Y020977D01*
D02*
G37*
G36*
Y020654D02*
X025628D01*
X025625Y020654D01*
X025621D01*
X025617Y020653D01*
X025612Y020653D01*
X025606Y020652D01*
X0256Y02065D01*
X025593Y020649D01*
X025586Y020647D01*
X02558Y020644D01*
X025573Y020641D01*
X025565Y020638D01*
X025559Y020633D01*
X025552Y020629D01*
X025546Y020623D01*
X025545Y020623D01*
X025544Y020622D01*
X025543Y02062D01*
X025541Y020618D01*
X025538Y020614D01*
X025535Y020611D01*
X025533Y020606D01*
X02553Y020601D01*
X025526Y020596D01*
X025523Y02059D01*
X025521Y020583D01*
X025518Y020576D01*
X025516Y020568D01*
X025515Y02056D01*
X025514Y020551D01*
X025513Y020542D01*
Y020449D01*
X025744D01*
Y020541D01*
X025744Y020543D01*
Y020547D01*
X025743Y020553D01*
X025743Y020558D01*
X025741Y020564D01*
X02574Y020571D01*
X025738Y020578D01*
X025736Y020585D01*
X025733Y020592D01*
X02573Y020599D01*
X025726Y020606D01*
X025721Y020613D01*
X025716Y020619D01*
X02571Y020625D01*
X025709Y020626D01*
X025708Y020626D01*
X025706Y020628D01*
X025704Y02063D01*
X0257Y020632D01*
X025696Y020634D01*
X025692Y020637D01*
X025687Y02064D01*
X025681Y020642D01*
X025675Y020645D01*
X025668Y020648D01*
X025661Y02065D01*
X025654Y020652D01*
X025646Y020653D01*
X025638Y020654D01*
X02563Y020654D01*
D02*
G37*
G36*
X025744Y020409D02*
X025513D01*
Y020211D01*
X025744D01*
Y020278D01*
X02566Y020332D01*
X025659Y020332D01*
X025658Y020333D01*
X025657Y020333D01*
X025655Y020334D01*
X025653Y020336D01*
X02565Y020337D01*
X025645Y020341D01*
X025637Y020345D01*
X02563Y020349D01*
X025622Y020353D01*
X025615Y020356D01*
X025616D01*
X025617Y020356D01*
X025618D01*
X02562Y020355D01*
X025623Y020355D01*
X025626Y020354D01*
X02563Y020354D01*
X025634Y020353D01*
X025643Y020352D01*
X025653Y020352D01*
X025664Y020351D01*
X025676Y020351D01*
X025744D01*
Y020409D01*
D02*
G37*
G36*
Y02019D02*
X025513D01*
Y019971D01*
D01*
X025744Y020042D01*
Y020117D01*
X025513Y02019D01*
X025744D01*
D02*
G37*
G36*
X02558Y019961D02*
X025577D01*
X025575Y019961D01*
X025573D01*
X02557Y01996D01*
X025564Y019959D01*
X025557Y019957D01*
X025549Y019954D01*
X025541Y01995D01*
X025537Y019948D01*
X025533Y019945D01*
X025533D01*
X025533Y019944D01*
X025531Y019943D01*
X02553Y019942D01*
X025529Y01994D01*
X025527Y019937D01*
X025525Y019934D01*
X025523Y01993D01*
X025521Y019926D01*
X025519Y019921D01*
X025518Y019916D01*
X025517Y01991D01*
X025515Y019903D01*
X025514Y019895D01*
X025514Y019887D01*
X025513Y019877D01*
Y019961D01*
D01*
Y019767D01*
X025744D01*
Y019888D01*
X025744Y01989D01*
X025744Y019894D01*
X025743Y019897D01*
X025742Y019905D01*
X02574Y019914D01*
X025737Y019922D01*
X025735Y019926D01*
X025732Y019931D01*
X025729Y019934D01*
X025726Y019938D01*
X025725Y019938D01*
X025725Y019938D01*
X025724Y019939D01*
X025723Y01994D01*
X025719Y019943D01*
X025713Y019946D01*
X025707Y019949D01*
X0257Y019952D01*
X025692Y019954D01*
X025688Y019955D01*
X025684D01*
X025683D01*
X025683D01*
X025681D01*
X025677Y019954D01*
X025673Y019954D01*
X025668Y019952D01*
X025663Y019951D01*
X025658Y019948D01*
X025652Y019945D01*
X025652Y019945D01*
X02565Y019943D01*
X025648Y019941D01*
X025645Y019938D01*
X025642Y019934D01*
X025638Y019929D01*
X025636Y019923D01*
X025633Y019916D01*
Y019916D01*
X025633Y019918D01*
X025632Y01992D01*
X025631Y019923D01*
X025629Y019926D01*
X025628Y01993D01*
X025625Y019934D01*
X025622Y019938D01*
X025619Y019943D01*
X025616Y019947D01*
X025611Y01995D01*
X025606Y019954D01*
X025601Y019957D01*
X025594Y019959D01*
X025587Y019961D01*
X02558Y019961D01*
D02*
G37*
G36*
X025744Y019739D02*
X025691D01*
Y019635D01*
X025657D01*
Y019719D01*
X025606D01*
Y019635D01*
X025569D01*
Y019739D01*
X025649D01*
X025513D01*
Y019565D01*
X025744D01*
Y019739D01*
D02*
G37*
G36*
X02563Y019535D02*
X025628D01*
D01*
X025513D01*
X025628D01*
X025625Y019535D01*
X025621D01*
X025617Y019534D01*
X025612Y019534D01*
X025606Y019533D01*
X0256Y019532D01*
X025593Y01953D01*
X025586Y019528D01*
X02558Y019525D01*
X025573Y019522D01*
X025565Y019519D01*
X025559Y019514D01*
X025552Y01951D01*
X025546Y019504D01*
X025545Y019504D01*
X025544Y019503D01*
X025543Y019501D01*
X025541Y019499D01*
X025538Y019495D01*
X025535Y019492D01*
X025533Y019487D01*
X02553Y019482D01*
X025526Y019477D01*
X025523Y019471D01*
X025521Y019464D01*
X025518Y019457D01*
X025516Y019449D01*
X025515Y019441D01*
X025514Y019432D01*
X025513Y019423D01*
Y01933D01*
X025744D01*
Y019422D01*
X025744Y019424D01*
Y019428D01*
X025743Y019434D01*
X025743Y019439D01*
X025741Y019445D01*
X02574Y019452D01*
X025738Y019459D01*
X025736Y019466D01*
X025733Y019473D01*
X02573Y019481D01*
X025726Y019487D01*
X025721Y019494D01*
X025716Y019501D01*
X02571Y019506D01*
X025709Y019507D01*
X025708Y019507D01*
X025706Y019509D01*
X025704Y019511D01*
X0257Y019513D01*
X025696Y019515D01*
X025692Y019518D01*
X025687Y019521D01*
X025681Y019523D01*
X025675Y019526D01*
X025668Y019529D01*
X025661Y019531D01*
X025654Y019533D01*
X025646Y019534D01*
X025638Y019535D01*
X02563Y019535D01*
D02*
G37*
G36*
X025744Y01929D02*
X025513D01*
Y019219D01*
X025744D01*
Y01929D01*
D02*
G37*
G36*
Y019197D02*
X025513Y019135D01*
Y019197D01*
X025744D01*
X025513D01*
Y018889D01*
D01*
Y018951D01*
X025744Y018889D01*
Y018956D01*
X025612Y018988D01*
X025744Y01902D01*
Y019075D01*
X025612Y01911D01*
X025744Y019142D01*
Y019197D01*
D02*
G37*
G36*
Y018799D02*
X025513D01*
Y01858D01*
D01*
X025744Y018651D01*
Y018726D01*
X025513Y018799D01*
X025744D01*
D02*
G37*
G36*
X025513Y018566D02*
Y018487D01*
X025602Y018453D01*
Y018431D01*
X025513D01*
Y01836D01*
X025744D01*
Y018485D01*
X025744Y018487D01*
X025744Y01849D01*
X025743Y018494D01*
X025743Y018499D01*
X025742Y018504D01*
X02574Y018513D01*
X025736Y018524D01*
X025734Y018529D01*
X025732Y018534D01*
X025729Y018539D01*
X025725Y018543D01*
X025725Y018543D01*
X025725Y018544D01*
X025724Y018545D01*
X025722Y018547D01*
X02572Y018548D01*
X025718Y01855D01*
X025715Y018552D01*
X025712Y018554D01*
X025705Y018558D01*
X025697Y018562D01*
X025692Y018563D01*
X025687Y018564D01*
X025682Y018565D01*
X025676Y018565D01*
X025676D01*
X025675D01*
X025674D01*
X025673D01*
X025669Y018565D01*
X025664Y018564D01*
X025659Y018563D01*
X025653Y018561D01*
X025647Y01856D01*
X025641Y018557D01*
X02564Y018556D01*
X025638Y018555D01*
X025635Y018553D01*
X025632Y01855D01*
X025628Y018545D01*
X025623Y01854D01*
X025621Y018536D01*
X025618Y018532D01*
X025616Y018528D01*
X025614Y018524D01*
X025513Y018566D01*
D02*
G37*
G36*
X025744Y01834D02*
X025689D01*
Y018292D01*
X025513D01*
Y018225D01*
X025689D01*
Y018177D01*
X025513D01*
X025744D01*
Y01834D01*
D02*
G37*
G36*
Y018172D02*
Y018081D01*
X02557D01*
Y018172D01*
X025513D01*
Y01801D01*
X025744D01*
Y018172D01*
D02*
G37*
G36*
Y017972D02*
X025587D01*
X025584Y017972D01*
X025581Y017972D01*
X025576Y017971D01*
X025572Y01797D01*
X025567Y017969D01*
X025562Y017968D01*
X025557Y017966D01*
X025551Y017964D01*
X025546Y017962D01*
X025541Y017959D01*
X025537Y017955D01*
X025533Y017951D01*
X025529Y017947D01*
X025528Y017946D01*
X025528Y017946D01*
X025527Y017944D01*
X025526Y017942D01*
X025524Y017939D01*
X025523Y017936D01*
X025521Y017933D01*
X025519Y017928D01*
X025517Y017924D01*
X025515Y017919D01*
X025514Y017913D01*
X025513Y017907D01*
X025511Y017901D01*
X02551Y017894D01*
X02551Y017887D01*
X02551Y017879D01*
Y017875D01*
X02551Y017872D01*
X02551Y017868D01*
X025511Y017864D01*
X025511Y017859D01*
X025512Y017854D01*
X025514Y017843D01*
X025517Y017831D01*
X025519Y017825D01*
X025522Y01782D01*
X025525Y017814D01*
X025528Y017809D01*
X025528Y017809D01*
X025529Y017808D01*
X02553Y017807D01*
X025531Y017805D01*
X025533Y017803D01*
X025536Y017801D01*
X025539Y017799D01*
X025542Y017796D01*
X025546Y017793D01*
X02555Y017791D01*
X025555Y017789D01*
X025561Y017787D01*
X025567Y017785D01*
X025573Y017784D01*
X02558Y017783D01*
X025588Y017783D01*
X02551D01*
X025744D01*
Y017972D01*
D02*
G37*
%LPD*%
G36*
X025637Y02257D02*
X025639Y022569D01*
X025645Y022569D01*
X025652Y022568D01*
X025659Y022565D01*
X025666Y022563D01*
X025673Y022559D01*
X025674D01*
X025674Y022559D01*
X025676Y022557D01*
X025679Y022555D01*
X025683Y022551D01*
X025686Y022547D01*
X025689Y022541D01*
X025691Y022535D01*
X025692Y022532D01*
X025692Y022528D01*
Y02251D01*
X025566D01*
Y022529D01*
X025567Y022531D01*
X025567Y022534D01*
X025569Y022538D01*
X025571Y022543D01*
X025574Y022548D01*
X025578Y022553D01*
X025581Y022556D01*
X025584Y022558D01*
X025584D01*
X025584Y022558D01*
X025585Y022559D01*
X025587Y02256D01*
X025588Y022561D01*
X02559Y022562D01*
X025596Y022564D01*
X025602Y022566D01*
X02561Y022568D01*
X02562Y02257D01*
X02563Y02257D01*
X02563D01*
X025631D01*
X025633D01*
X025634D01*
X025637Y02257D01*
D02*
G37*
G36*
X025676Y02233D02*
X02568Y022329D01*
X025684Y022327D01*
X025686Y022326D01*
X025688Y022324D01*
X02569Y022322D01*
X025692Y022319D01*
X025693Y022316D01*
X025694Y022312D01*
X025695Y022308D01*
X025695Y022303D01*
Y022271D01*
X025651D01*
Y022303D01*
X025651Y022306D01*
X025652Y022308D01*
X025652Y022312D01*
X025653Y022316D01*
X025654Y022319D01*
X025656Y022322D01*
X025657Y022323D01*
X025657Y022324D01*
X025658Y022325D01*
X02566Y022327D01*
X025663Y022328D01*
X025665Y022329D01*
X025669Y02233D01*
X025673Y022331D01*
X025673D01*
X025674D01*
X025675D01*
X025676Y02233D01*
D02*
G37*
G36*
X025602Y022292D02*
Y022271D01*
X025513D01*
Y022327D01*
X025602Y022292D01*
D02*
G37*
G36*
X025675Y022062D02*
X025609Y022043D01*
Y02208D01*
X025675Y022062D01*
D02*
G37*
G36*
X025559Y022093D02*
Y022031D01*
X025513Y022017D01*
Y022106D01*
X025559Y022093D01*
D02*
G37*
G36*
X02564Y021872D02*
X025644D01*
X025649Y021871D01*
X025654Y021871D01*
X02566Y02187D01*
X025665Y021868D01*
X025671Y021867D01*
X025676Y021864D01*
X025681Y021862D01*
X025686Y021859D01*
X02569Y021855D01*
X025693Y021851D01*
X025695Y021846D01*
X025696Y02184D01*
Y021839D01*
X025695Y021837D01*
X025695Y021835D01*
X025693Y021832D01*
X025692Y021829D01*
X02569Y021826D01*
X025687Y021823D01*
X025683Y02182D01*
X025679Y021816D01*
X025673Y021813D01*
X025666Y021811D01*
X025658Y021809D01*
X025649Y021807D01*
X025644Y021806D01*
X025638Y021806D01*
X025633Y021805D01*
X025626D01*
X025626D01*
X025624D01*
X025621Y021806D01*
X025616D01*
X025612Y021806D01*
X025606Y021807D01*
X0256Y021808D01*
X025594Y021809D01*
X025588Y021811D01*
X025582Y021813D01*
X025577Y021816D01*
X025572Y021819D01*
X025568Y021823D01*
X025565Y021828D01*
X025563Y021833D01*
X025562Y021836D01*
X025562Y021839D01*
Y021839D01*
X025562Y021841D01*
X025563Y021845D01*
X025564Y021848D01*
X025566Y021853D01*
X025569Y021857D01*
X025573Y021861D01*
X025575Y021863D01*
X025578Y021864D01*
X025578D01*
X025578Y021865D01*
X02558Y021865D01*
X025581Y021865D01*
X025582Y021866D01*
X025585Y021867D01*
X025588Y021868D01*
X025591Y021868D01*
X025594Y021869D01*
X025598Y02187D01*
X025603Y021871D01*
X025608Y021871D01*
X025614Y021872D01*
X025621Y021872D01*
X025627Y021872D01*
X025635D01*
X025636D01*
X025637D01*
X02564Y021872D01*
D02*
G37*
G36*
X025748Y021729D02*
X02563D01*
X025633Y021729D01*
X025637D01*
X025641Y02173D01*
X025646Y02173D01*
X025652Y021732D01*
X025658Y021733D01*
X025665Y021734D01*
X025672Y021736D01*
X025679Y021738D01*
X025687Y021741D01*
X025694Y021745D01*
X025701Y021749D01*
X025708Y021753D01*
X025714Y021758D01*
X025715Y021758D01*
X025716Y02176D01*
X025717Y021761D01*
X02572Y021764D01*
X025722Y021766D01*
X025725Y02177D01*
X025728Y021774D01*
X025731Y021779D01*
X025734Y021785D01*
X025737Y021791D01*
X02574Y021798D01*
X025743Y021805D01*
X025745Y021813D01*
X025747Y021821D01*
X025748Y02183D01*
X025748Y02184D01*
Y021729D01*
D02*
G37*
G36*
X025678Y021637D02*
X025681Y021636D01*
X025685Y021634D01*
X025689Y021631D01*
X025691Y02163D01*
X025692Y021627D01*
X025693Y021625D01*
X025694Y021621D01*
X025695Y021618D01*
X025695Y021613D01*
Y021582D01*
X025656D01*
Y021616D01*
X025656Y021619D01*
X025657Y021621D01*
X025657Y021624D01*
X025658Y021627D01*
X02566Y02163D01*
X025662Y021632D01*
X025662Y021632D01*
X025663Y021633D01*
X025664Y021634D01*
X025666Y021635D01*
X02567Y021637D01*
X025673Y021637D01*
X025675Y021637D01*
X025676D01*
X025676D01*
X025678Y021637D01*
D02*
G37*
G36*
X025588Y021641D02*
X02559Y021641D01*
X025592Y02164D01*
X025595Y021639D01*
X025597Y021637D01*
X0256Y021635D01*
X0256Y021635D01*
X025601Y021634D01*
X025602Y021633D01*
X025604Y02163D01*
X025605Y021627D01*
X025606Y021623D01*
X025606Y021619D01*
X025607Y021614D01*
Y021582D01*
X025565D01*
Y021618D01*
X025565Y021621D01*
X025565Y021623D01*
X025566Y021626D01*
X025567Y02163D01*
X025569Y021633D01*
X025571Y021635D01*
X025571Y021635D01*
X025572Y021636D01*
X025573Y021637D01*
X025575Y021638D01*
X025577Y021639D01*
X02558Y02164D01*
X025582Y021641D01*
X025585Y021641D01*
X025586D01*
X025587D01*
X025588Y021641D01*
D02*
G37*
G36*
X025637Y020902D02*
X025639Y020902D01*
X025645Y020901D01*
X025652Y0209D01*
X025659Y020898D01*
X025666Y020895D01*
X025673Y020891D01*
X025674D01*
X025674Y020891D01*
X025676Y020889D01*
X025679Y020887D01*
X025683Y020883D01*
X025686Y020879D01*
X025689Y020874D01*
X025691Y020867D01*
X025692Y020864D01*
X025692Y02086D01*
Y020842D01*
X025566D01*
Y020861D01*
X025567Y020863D01*
X025567Y020866D01*
X025569Y020871D01*
X025571Y020875D01*
X025574Y02088D01*
X025578Y020885D01*
X025581Y020888D01*
X025584Y02089D01*
X025584D01*
X025584Y02089D01*
X025585Y020891D01*
X025587Y020892D01*
X025588Y020893D01*
X02559Y020894D01*
X025596Y020896D01*
X025602Y020898D01*
X02561Y0209D01*
X02562Y020902D01*
X02563Y020902D01*
X02563D01*
X025631D01*
X025633D01*
X025634D01*
X025637Y020902D01*
D02*
G37*
G36*
Y02058D02*
X025639Y020579D01*
X025645Y020579D01*
X025652Y020578D01*
X025659Y020575D01*
X025666Y020573D01*
X025673Y020569D01*
X025674D01*
X025674Y020569D01*
X025676Y020567D01*
X025679Y020565D01*
X025683Y020561D01*
X025686Y020557D01*
X025689Y020551D01*
X025691Y020545D01*
X025692Y020542D01*
X025692Y020538D01*
Y02052D01*
X025566D01*
Y020539D01*
X025567Y020541D01*
X025567Y020544D01*
X025569Y020549D01*
X025571Y020553D01*
X025574Y020558D01*
X025578Y020563D01*
X025581Y020566D01*
X025584Y020568D01*
X025584D01*
X025584Y020568D01*
X025585Y020569D01*
X025587Y02057D01*
X025588Y020571D01*
X02559Y020572D01*
X025596Y020574D01*
X025602Y020576D01*
X02561Y020578D01*
X02562Y02058D01*
X02563Y02058D01*
X02563D01*
X025631D01*
X025633D01*
X025634D01*
X025637Y02058D01*
D02*
G37*
G36*
X025615Y020287D02*
X025616D01*
X025616Y020287D01*
X025617Y020286D01*
X025619Y020285D01*
X025621Y020284D01*
X025623Y020283D01*
X025629Y02028D01*
X025636Y020276D01*
X025644Y020272D01*
X025653Y020268D01*
X025663Y020263D01*
X025662D01*
X025662Y020263D01*
X025661Y020264D01*
X025659Y020264D01*
X025655Y020265D01*
X02565Y020266D01*
X025644Y020267D01*
X025637Y020268D01*
X025631Y020268D01*
X025625Y020269D01*
X025513D01*
Y020351D01*
X025615Y020287D01*
D02*
G37*
G36*
X025675Y020073D02*
X025609Y020055D01*
Y020092D01*
X025675Y020073D01*
D02*
G37*
G36*
X025559Y020105D02*
Y020042D01*
X025513Y020028D01*
Y020118D01*
X025559Y020105D01*
D02*
G37*
G36*
X025678Y019888D02*
X025681Y019887D01*
X025685Y019885D01*
X025689Y019882D01*
X025691Y019881D01*
X025692Y019878D01*
X025693Y019875D01*
X025694Y019872D01*
X025695Y019869D01*
X025695Y019864D01*
Y019833D01*
X025656D01*
Y019867D01*
X025656Y01987D01*
X025657Y019872D01*
X025657Y019875D01*
X025658Y019878D01*
X02566Y019881D01*
X025662Y019883D01*
X025662Y019883D01*
X025663Y019883D01*
X025664Y019885D01*
X025666Y019886D01*
X02567Y019887D01*
X025673Y019888D01*
X025675Y019888D01*
X025676D01*
X025676D01*
X025678Y019888D01*
D02*
G37*
G36*
X025588Y019892D02*
X02559Y019892D01*
X025592Y019891D01*
X025595Y01989D01*
X025597Y019888D01*
X0256Y019886D01*
X0256Y019886D01*
X025601Y019885D01*
X025602Y019883D01*
X025604Y019881D01*
X025605Y019878D01*
X025606Y019874D01*
X025606Y01987D01*
X025607Y019865D01*
Y019833D01*
X025565D01*
Y019869D01*
X025565Y019871D01*
X025565Y019874D01*
X025566Y019877D01*
X025567Y019881D01*
X025569Y019883D01*
X025571Y019886D01*
X025571Y019886D01*
X025572Y019887D01*
X025573Y019888D01*
X025575Y019889D01*
X025577Y01989D01*
X02558Y019891D01*
X025582Y019892D01*
X025585Y019892D01*
X025586D01*
X025587D01*
X025588Y019892D01*
D02*
G37*
G36*
X025637Y019461D02*
X025639Y019461D01*
X025645Y01946D01*
X025652Y019459D01*
X025659Y019457D01*
X025666Y019454D01*
X025673Y01945D01*
X025674D01*
X025674Y01945D01*
X025676Y019448D01*
X025679Y019446D01*
X025683Y019442D01*
X025686Y019438D01*
X025689Y019432D01*
X025691Y019426D01*
X025692Y019423D01*
X025692Y019419D01*
Y019401D01*
X025566D01*
Y01942D01*
X025567Y019422D01*
X025567Y019425D01*
X025569Y01943D01*
X025571Y019434D01*
X025574Y019439D01*
X025578Y019444D01*
X025581Y019447D01*
X025584Y019449D01*
X025584D01*
X025584Y019449D01*
X025585Y01945D01*
X025587Y019451D01*
X025588Y019452D01*
X02559Y019453D01*
X025596Y019455D01*
X025602Y019457D01*
X02561Y019459D01*
X02562Y019461D01*
X02563Y019461D01*
X02563D01*
X025631D01*
X025633D01*
X025634D01*
X025637Y019461D01*
D02*
G37*
G36*
X025641Y019043D02*
X025513Y019012D01*
Y019076D01*
X025641Y019043D01*
D02*
G37*
G36*
X025675Y018682D02*
X025609Y018664D01*
Y018701D01*
X025675Y018682D01*
D02*
G37*
G36*
X025559Y018714D02*
Y018651D01*
X025513Y018638D01*
Y018727D01*
X025559Y018714D01*
D02*
G37*
G36*
X025676Y018491D02*
X02568Y01849D01*
X025684Y018488D01*
X025686Y018486D01*
X025688Y018484D01*
X02569Y018482D01*
X025692Y01848D01*
X025693Y018476D01*
X025694Y018473D01*
X025695Y018468D01*
X025695Y018464D01*
Y018431D01*
X025651D01*
Y018464D01*
X025651Y018466D01*
X025652Y018469D01*
X025652Y018473D01*
X025653Y018476D01*
X025654Y01848D01*
X025656Y018483D01*
X025657Y018483D01*
X025657Y018484D01*
X025658Y018485D01*
X02566Y018487D01*
X025663Y018489D01*
X025665Y01849D01*
X025669Y018491D01*
X025673Y018491D01*
X025673D01*
X025674D01*
X025675D01*
X025676Y018491D01*
D02*
G37*
G36*
X025744Y017855D02*
X025596D01*
X025595D01*
X025593D01*
X02559Y017855D01*
X025586Y017856D01*
X025582Y017857D01*
X025578Y017858D01*
X025574Y01786D01*
X025571Y017862D01*
X025571Y017862D01*
X02557Y017863D01*
X025569Y017865D01*
X025567Y017867D01*
X025566Y01787D01*
X025565Y017874D01*
X025564Y017879D01*
X025564Y017884D01*
Y017886D01*
X025564Y017889D01*
X025565Y017892D01*
X025565Y017895D01*
X025566Y017899D01*
X025567Y017902D01*
X025569Y017905D01*
X02557Y017906D01*
X02557Y017907D01*
X025571Y017908D01*
X025573Y01791D01*
X025577Y017913D01*
X025579Y017914D01*
X025582Y017915D01*
X025582D01*
X025583Y017915D01*
X025585Y017916D01*
X025588Y017916D01*
X025591D01*
X025596Y017916D01*
X025602Y017917D01*
X025609D01*
X025744D01*
Y017855D01*
D02*
G37*
D11*
X010974Y016831D02*
X012175D01*
X010974Y01624D02*
Y016831D01*
Y01624D02*
X012175D01*
Y016831D01*
X011014Y019468D02*
X012215D01*
X011014Y018878D02*
Y019468D01*
Y018878D02*
X012215D01*
Y019468D01*
X014518Y018169D02*
X015718D01*
X014518Y017579D02*
Y018169D01*
Y017579D02*
X015718D01*
Y018169D01*
X019744Y021368D02*
Y022569D01*
X019154D02*
X019744D01*
X019154Y021368D02*
Y022569D01*
Y021368D02*
X019744D01*
X011053Y021555D02*
X012254D01*
X011053Y020965D02*
Y021555D01*
Y020965D02*
X012254D01*
Y021555D01*
X011014Y023445D02*
X012215D01*
X011014Y022854D02*
Y023445D01*
Y022854D02*
X012215D01*
Y023445D01*
X027598Y010197D02*
Y010433D01*
Y010197D02*
X030551D01*
Y010453D01*
Y011457D02*
Y012756D01*
X029921D02*
X030551D01*
X027598D02*
X028228D01*
X027598Y011457D02*
Y012756D01*
X023406Y010157D02*
Y010394D01*
Y010157D02*
X026358D01*
Y010413D01*
Y011417D02*
Y012717D01*
X025728D02*
X026358D01*
X023406D02*
X024035D01*
X023406Y011417D02*
Y012717D01*
X03185Y010157D02*
Y010394D01*
Y010157D02*
X034803D01*
Y010413D01*
Y011417D02*
Y012717D01*
X034173D02*
X034803D01*
X03185D02*
X03248D01*
X03185Y011417D02*
Y012717D01*
X01685Y017756D02*
Y01815D01*
Y017953D01*
X017113D01*
Y017756D01*
Y01815D01*
X020157Y017756D02*
Y01815D01*
Y017953D01*
X02042D01*
Y017756D01*
Y01815D01*
X01689Y015827D02*
Y01622D01*
X017152D01*
X020197Y015827D02*
Y01622D01*
X020459D01*
X020197Y016772D02*
Y017165D01*
X020394D01*
X020459Y0171D01*
Y017034D01*
X020394Y016969D01*
X020197D01*
X020394D01*
X020459Y016903D01*
Y016837D01*
X020394Y016772D01*
X020197D01*
X02059Y017165D02*
X020722D01*
X020656D01*
Y016772D01*
X02059Y016837D01*
X01689Y016772D02*
Y017165D01*
X017087D01*
X017152Y0171D01*
Y017034D01*
X017087Y016969D01*
X01689D01*
X017087D01*
X017152Y016903D01*
Y016837D01*
X017087Y016772D01*
X01689D01*
X017283Y016837D02*
X017349Y016772D01*
X01748D01*
X017546Y016837D01*
Y0171D01*
X01748Y017165D01*
X017349D01*
X017283Y0171D01*
Y016837D01*
X032651Y028373D02*
X032716Y028307D01*
Y028176D01*
X032651Y02811D01*
X032585D01*
X03252Y028176D01*
Y028307D01*
X032454Y028373D01*
X032388D01*
X032323Y028307D01*
Y028176D01*
X032388Y02811D01*
X032651Y028766D02*
X032716Y028701D01*
Y028569D01*
X032651Y028504D01*
X032388D01*
X032323Y028569D01*
Y028701D01*
X032388Y028766D01*
X032716Y028897D02*
X032323D01*
X032454D01*
X032716Y02916D01*
X03252Y028963D01*
X032323Y02916D01*
X029291Y02815D02*
X029685D01*
X029554Y028281D01*
X029685Y028412D01*
X029291D01*
X029685Y02874D02*
Y028609D01*
X029619Y028543D01*
X029357D01*
X029291Y028609D01*
Y02874D01*
X029357Y028806D01*
X029619D01*
X029685Y02874D01*
X029619Y029199D02*
X029685Y029134D01*
Y029002D01*
X029619Y028937D01*
X029554D01*
X029488Y029002D01*
Y029134D01*
X029423Y029199D01*
X029357D01*
X029291Y029134D01*
Y029002D01*
X029357Y028937D01*
X029685Y02933D02*
Y029462D01*
Y029396D01*
X029291D01*
Y02933D01*
Y029462D01*
X033898Y02815D02*
X034291D01*
X033898Y028412D01*
X034291D01*
X034226Y028806D02*
X034291Y02874D01*
Y028609D01*
X034226Y028543D01*
X03416D01*
X034094Y028609D01*
Y02874D01*
X034029Y028806D01*
X033963D01*
X033898Y02874D01*
Y028609D01*
X033963Y028543D01*
X034226Y029199D02*
X034291Y029134D01*
Y029002D01*
X034226Y028937D01*
X03416D01*
X034094Y029002D01*
Y029134D01*
X034029Y029199D01*
X033963D01*
X033898Y029134D01*
Y029002D01*
X033963Y028937D01*
X030866Y02811D02*
X03126D01*
X031129Y028241D01*
X03126Y028373D01*
X030866D01*
X03126Y028504D02*
Y028635D01*
Y028569D01*
X030866D01*
Y028504D01*
Y028635D01*
X031194Y029094D02*
X03126Y029029D01*
Y028897D01*
X031194Y028832D01*
X031129D01*
X031063Y028897D01*
Y029029D01*
X030997Y029094D01*
X030932D01*
X030866Y029029D01*
Y028897D01*
X030932Y028832D01*
X03126Y029422D02*
Y029291D01*
X031194Y029225D01*
X030932D01*
X030866Y029291D01*
Y029422D01*
X030932Y029488D01*
X031194D01*
X03126Y029422D01*
X024646Y02815D02*
Y028412D01*
Y028281D01*
X024252D01*
X024646Y028543D02*
Y028674D01*
Y028609D01*
X024252D01*
Y028543D01*
Y028674D01*
Y028871D02*
X024646D01*
X024514Y029002D01*
X024646Y029134D01*
X024252D01*
X02458Y029265D02*
X024646Y02933D01*
Y029462D01*
X02458Y029527D01*
X024514D01*
X024449Y029462D01*
Y029396D01*
Y029462D01*
X024383Y029527D01*
X024318D01*
X024252Y029462D01*
Y02933D01*
X024318Y029265D01*
X023189Y02815D02*
Y028412D01*
Y028281D01*
X022795D01*
X023189Y028543D02*
Y028674D01*
Y028609D01*
X022795D01*
Y028543D01*
Y028674D01*
Y028871D02*
X023189D01*
X023058Y029002D01*
X023189Y029134D01*
X022795D01*
Y029462D02*
X023189D01*
X022992Y029265D01*
Y029527D01*
X026142Y02815D02*
Y028412D01*
Y028281D01*
X025748D01*
X026142Y028543D02*
Y028674D01*
Y028609D01*
X025748D01*
Y028543D01*
Y028674D01*
Y028871D02*
X026142D01*
X02601Y029002D01*
X026142Y029134D01*
X025748D01*
Y029527D02*
Y029265D01*
X02601Y029527D01*
X026076D01*
X026142Y029462D01*
Y02933D01*
X026076Y029265D01*
X027677Y02815D02*
Y028412D01*
Y028281D01*
X027283D01*
X027677Y028543D02*
Y028674D01*
Y028609D01*
X027283D01*
Y028543D01*
Y028674D01*
Y028871D02*
X027677D01*
X027546Y029002D01*
X027677Y029134D01*
X027283D01*
Y029265D02*
Y029396D01*
Y02933D01*
X027677D01*
X027611Y029265D01*
X016142Y028189D02*
X016535D01*
Y028386D01*
X01647Y028451D01*
X016339D01*
X016273Y028386D01*
Y028189D01*
Y02832D02*
X016142Y028451D01*
X016535Y028845D02*
Y028583D01*
X016142D01*
Y028845D01*
X016339Y028583D02*
Y028714D01*
X016535Y028976D02*
X016142D01*
Y029239D01*
Y02937D02*
X016404D01*
X016535Y029501D01*
X016404Y029632D01*
X016142D01*
X016339D01*
Y02937D01*
X016535Y029763D02*
X01647D01*
X016339Y029894D01*
X01647Y030026D01*
X016535D01*
X016339Y029894D02*
X016142D01*
X017966Y028451D02*
X018031Y028386D01*
Y028255D01*
X017966Y028189D01*
X017703D01*
X017638Y028255D01*
Y028386D01*
X017703Y028451D01*
X017835D01*
Y02832D01*
X017638Y028583D02*
X018031D01*
X017638Y028845D01*
X018031D01*
Y028976D02*
X017638D01*
Y029173D01*
X017703Y029239D01*
X017966D01*
X018031Y029173D01*
Y028976D01*
X019567Y028491D02*
Y028228D01*
X01937D01*
X019436Y02836D01*
Y028425D01*
X01937Y028491D01*
X019239D01*
X019173Y028425D01*
Y028294D01*
X019239Y028228D01*
X019567Y028622D02*
X019304D01*
X019173Y028753D01*
X019304Y028884D01*
X019567D01*
X020997Y028189D02*
X021063Y028255D01*
Y028386D01*
X020997Y028451D01*
X020932D01*
X020866Y028386D01*
Y02832D01*
Y028386D01*
X0208Y028451D01*
X020735D01*
X020669Y028386D01*
Y028255D01*
X020735Y028189D01*
X021063Y028583D02*
X0208D01*
X020669Y028714D01*
X0208Y028845D01*
X021063D01*
X020997Y028976D02*
X021063Y029042D01*
Y029173D01*
X020997Y029239D01*
X020932D01*
X020866Y029173D01*
Y029107D01*
Y029173D01*
X0208Y029239D01*
X020735D01*
X020669Y029173D01*
Y029042D01*
X020735Y028976D01*
D13*
X02626Y018425D02*
Y019961D01*
X026811Y018425D02*
Y019961D01*
D70*
X010827Y024173D02*
Y026929D01*
Y027047D01*
X012402D01*
Y023976D02*
Y027047D01*
X010827Y023976D02*
X012402D01*
X010827D02*
Y024173D01*
M02*
