G04*
G04 #@! TF.GenerationSoftware,Altium Limited,Altium Designer,21.2.2 (38)*
G04*
G04 Layer_Color=128*
%FSTAX24Y24*%
%MOIN*%
G70*
G04*
G04 #@! TF.SameCoordinates,CF9AC677-4E03-495D-8773-30470D0FCF73*
G04*
G04*
G04 #@! TF.FilePolarity,Positive*
G04*
G01*
G75*
%ADD21R,0.0394X0.0374*%
%ADD27R,0.0433X0.0787*%
%ADD28R,0.0276X0.1142*%
%ADD29R,0.0374X0.0394*%
%ADD87R,0.1299X0.0787*%
D21*
X019449Y021654D02*
D03*
Y022283D02*
D03*
D27*
X027677Y010945D02*
D03*
X030472D02*
D03*
X023484Y010906D02*
D03*
X02628D02*
D03*
X031929D02*
D03*
X034724D02*
D03*
D28*
X028484Y012402D02*
D03*
X029075Y012402D02*
D03*
X029665D02*
D03*
X024291Y012362D02*
D03*
X024882Y012362D02*
D03*
X025472D02*
D03*
X032736Y012362D02*
D03*
X033327Y012362D02*
D03*
X033917D02*
D03*
D29*
X01189Y016535D02*
D03*
X01126D02*
D03*
X011929Y019173D02*
D03*
X011299D02*
D03*
X015433Y017874D02*
D03*
X014803D02*
D03*
X011968Y02126D02*
D03*
X011339D02*
D03*
X011929Y02315D02*
D03*
X011299D02*
D03*
D87*
X011614Y026476D02*
D03*
Y024547D02*
D03*
M02*
