G04*
G04 #@! TF.GenerationSoftware,Altium Limited,Altium Designer,21.2.2 (38)*
G04*
G04 Layer_Physical_Order=1*
G04 Layer_Color=255*
%FSTAX24Y24*%
%MOIN*%
G70*
G04*
G04 #@! TF.SameCoordinates,CF9AC677-4E03-495D-8773-30470D0FCF73*
G04*
G04*
G04 #@! TF.FilePolarity,Positive*
G04*
G01*
G75*
%ADD11C,0.0079*%
%ADD12C,0.0315*%
%ADD14R,0.0217X0.0630*%
%ADD15O,0.0217X0.0630*%
%ADD18R,0.0787X0.1260*%
%ADD19R,0.0787X0.1378*%
%ADD20R,0.0787X0.0394*%
%ADD21R,0.0394X0.0374*%
%ADD22R,0.0335X0.0256*%
%ADD23R,0.0110X0.0531*%
%ADD24R,0.0531X0.0110*%
%ADD25R,0.0571X0.0394*%
%ADD26R,0.0256X0.0335*%
%ADD27R,0.0433X0.0787*%
%ADD28R,0.0276X0.1142*%
%ADD29R,0.0374X0.0394*%
%ADD30R,0.0276X0.0236*%
%ADD31R,0.0276X0.0394*%
%ADD32R,0.0394X0.1024*%
%ADD33R,0.1335X0.0772*%
%ADD34R,0.0394X0.0571*%
%ADD68R,0.3280X0.2752*%
%ADD69R,0.0421X0.0850*%
%ADD70C,0.0118*%
%ADD71C,0.0197*%
%ADD72C,0.0059*%
%ADD73C,0.0315*%
%ADD74R,0.0551X0.0551*%
%ADD75C,0.0551*%
%ADD76C,0.0650*%
%ADD77C,0.1102*%
%ADD78C,0.2362*%
%ADD79C,0.0866*%
%ADD80C,0.1575*%
%ADD81C,0.0591*%
%ADD82C,0.0630*%
%ADD83R,0.0630X0.0630*%
%ADD84C,0.1654*%
%ADD85R,0.0650X0.0650*%
%ADD86C,0.0197*%
G36*
X037836Y030218D02*
X038109Y030163D01*
X038372Y030074D01*
X038622Y029951D01*
X038853Y029797D01*
X039062Y029613D01*
X039245Y029404D01*
X0394Y029173D01*
X039523Y028924D01*
X039612Y02866D01*
X039666Y028388D01*
X039684Y028126D01*
X03968Y02811D01*
Y025035D01*
X039602Y025014D01*
X039559Y025087D01*
X039473Y025173D01*
X039368Y025234D01*
X039288Y025256D01*
X039246Y025283D01*
X039231Y025344D01*
X039236Y025368D01*
Y025709D01*
X039478D01*
Y026378D01*
X038632D01*
Y025709D01*
X038874D01*
Y025443D01*
X038555Y025124D01*
X038526Y025121D01*
X038473Y025173D01*
X038368Y025234D01*
X03825Y025266D01*
X038128D01*
X03801Y025234D01*
X037945Y025197D01*
X037867Y025242D01*
Y025709D01*
X038415D01*
Y026378D01*
X037569D01*
Y025964D01*
X037558Y025953D01*
X037519Y025895D01*
X037505Y025826D01*
Y025246D01*
X037427Y0252D01*
X037368Y025234D01*
X03725Y025266D01*
X037128D01*
X03711Y02528D01*
Y025709D01*
X037352D01*
Y026378D01*
X036506D01*
Y025709D01*
X036748D01*
Y025317D01*
X036555Y025124D01*
X036526Y025121D01*
X036473Y025173D01*
X036368Y025234D01*
X03625Y025266D01*
X036128D01*
X036109Y025261D01*
X036047Y025309D01*
Y025709D01*
X036289D01*
Y026378D01*
X035443D01*
Y025709D01*
X035686D01*
Y025254D01*
X035555Y025124D01*
X035526Y025121D01*
X035473Y025173D01*
X035368Y025234D01*
X03525Y025266D01*
X035128D01*
X03501Y025234D01*
X034905Y025173D01*
X034819Y025087D01*
X034758Y024982D01*
X034726Y024864D01*
X034652D01*
X03462Y024982D01*
X034559Y025087D01*
X034473Y025173D01*
X034368Y025234D01*
X03425Y025266D01*
X034128D01*
X03401Y025234D01*
X033905Y025173D01*
X033819Y025087D01*
X033758Y024982D01*
X033726Y024864D01*
X033652D01*
X03362Y024982D01*
X033559Y025087D01*
X033473Y025173D01*
X033368Y025234D01*
X03325Y025266D01*
X033128D01*
X03301Y025234D01*
X032905Y025173D01*
X032819Y025087D01*
X032758Y024982D01*
X032726Y024864D01*
Y024742D01*
X032758Y024625D01*
X032819Y024519D01*
X032854Y024483D01*
X032862Y024472D01*
X032895Y024439D01*
X03295Y024378D01*
X032969Y024353D01*
X032985Y024331D01*
X032997Y024312D01*
X033004Y024297D01*
X033008Y024287D01*
X033008Y024285D01*
Y021378D01*
X033022Y021309D01*
X033061Y02125D01*
X033494Y020817D01*
X033553Y020778D01*
X033622Y020764D01*
X033829D01*
Y02064D01*
X03436D01*
Y02125D01*
X033829D01*
Y021126D01*
X033697D01*
X03337Y021453D01*
Y024285D01*
X03337Y024287D01*
X033374Y024297D01*
X033381Y024312D01*
X033393Y024331D01*
X033407Y024351D01*
X033484Y02444D01*
X033516Y024472D01*
X033524Y024483D01*
X033559Y024519D01*
X03362Y024625D01*
X033652Y024742D01*
X033726D01*
X033758Y024625D01*
X033819Y024519D01*
X033854Y024483D01*
X033862Y024472D01*
X033895Y024439D01*
X03395Y024378D01*
X033969Y024353D01*
X033985Y024331D01*
X033997Y024312D01*
X034004Y024297D01*
X034008Y024287D01*
X034008Y024285D01*
Y024264D01*
X033513Y023768D01*
X033474Y02371D01*
X03346Y023641D01*
Y022218D01*
X033474Y022149D01*
X033513Y02209D01*
X033723Y02188D01*
X033782Y021841D01*
X033789Y021839D01*
Y021703D01*
X034321D01*
Y022313D01*
X033821D01*
Y022726D01*
X034321D01*
Y023337D01*
X034236D01*
Y023468D01*
X035027Y02426D01*
X035035Y024263D01*
X035259Y02434D01*
X035313Y024355D01*
X035313Y024355D01*
X035313Y024355D01*
X035325Y024361D01*
X035368Y024372D01*
X035424Y024404D01*
X035502Y024359D01*
Y023605D01*
X035237Y02334D01*
X034774D01*
X034756Y023337D01*
X034419D01*
Y022726D01*
X034951D01*
Y022979D01*
X035312D01*
X035381Y022993D01*
X03544Y023032D01*
X035811Y023403D01*
X03585Y023462D01*
X035864Y023531D01*
Y024367D01*
X035942Y024411D01*
X03601Y024372D01*
X036128Y024341D01*
X03625D01*
X036368Y024372D01*
X036424Y024404D01*
X036502Y024359D01*
Y023231D01*
X035588Y022316D01*
X034774D01*
X034756Y022313D01*
X034419D01*
Y021703D01*
X034951D01*
Y021955D01*
X035663D01*
X035732Y021969D01*
X03579Y022008D01*
X036811Y023029D01*
X03685Y023087D01*
X036864Y023156D01*
Y024367D01*
X036942Y024411D01*
X03701Y024372D01*
X037128Y024341D01*
X03725D01*
X037368Y024372D01*
X037427Y024406D01*
X037505Y024361D01*
Y0231D01*
X035531Y021126D01*
X03499D01*
Y02125D01*
X034459D01*
Y02064D01*
X03499D01*
Y020764D01*
X035606D01*
X035675Y020778D01*
X035734Y020817D01*
X037814Y022897D01*
X037853Y022956D01*
X037867Y023025D01*
Y024364D01*
X037945Y02441D01*
X03801Y024372D01*
X038128Y024341D01*
X03825D01*
X038368Y024372D01*
X038424Y024404D01*
X038502Y024359D01*
Y023029D01*
X035575Y020102D01*
X03499D01*
Y020187D01*
X034459D01*
Y019577D01*
X03499D01*
Y019741D01*
X03565D01*
X035719Y019754D01*
X035777Y019794D01*
X038811Y022827D01*
X03885Y022885D01*
X038864Y022955D01*
Y024367D01*
X038942Y024411D01*
X03901Y024372D01*
X039128Y024341D01*
X03925D01*
X039368Y024372D01*
X039473Y024433D01*
X039559Y024519D01*
X039602Y024593D01*
X03968Y024572D01*
Y012362D01*
X039684Y012346D01*
X039666Y012085D01*
X039612Y011812D01*
X039523Y011549D01*
X0394Y011299D01*
X039245Y011068D01*
X039062Y010859D01*
X038853Y010676D01*
X038622Y010521D01*
X038372Y010398D01*
X038109Y010309D01*
X037836Y010255D01*
X037575Y010238D01*
X037559Y010241D01*
X012441D01*
X012441Y010241D01*
X012362Y010241D01*
X012284Y010242D01*
X012085Y010255D01*
X011812Y010309D01*
X011549Y010398D01*
X011299Y010521D01*
X011068Y010676D01*
X010859Y010859D01*
X010676Y011068D01*
X010521Y011299D01*
X010398Y011549D01*
X010309Y011812D01*
X010255Y012085D01*
X010238Y012346D01*
X010241Y012362D01*
Y020901D01*
X010236Y020906D01*
X010236Y021732D01*
X010241Y021737D01*
Y028031D01*
X010241Y028032D01*
X010241Y02811D01*
X010242Y028189D01*
X010255Y028388D01*
X010309Y02866D01*
X010398Y028924D01*
X010521Y029173D01*
X010676Y029404D01*
X010859Y029613D01*
X011068Y029797D01*
X011299Y029951D01*
X011549Y030074D01*
X011812Y030163D01*
X012085Y030218D01*
X012346Y030235D01*
X012362Y030232D01*
X037559D01*
X037575Y030235D01*
X037836Y030218D01*
D02*
G37*
G36*
X039126Y025847D02*
X03912Y025845D01*
X039114Y025841D01*
X039109Y025835D01*
X039104Y025828D01*
X039101Y025819D01*
X039098Y025809D01*
X039096Y025797D01*
X039095Y025784D01*
X039094Y025769D01*
X039016D01*
X039015Y025784D01*
X039014Y025797D01*
X039012Y025809D01*
X039009Y025819D01*
X039006Y025828D01*
X039002Y025835D01*
X038996Y025841D01*
X038991Y025845D01*
X038984Y025847D01*
X038976Y025848D01*
X039134D01*
X039126Y025847D01*
D02*
G37*
G36*
X037D02*
X036994Y025845D01*
X036988Y025841D01*
X036983Y025835D01*
X036978Y025828D01*
X036975Y025819D01*
X036972Y025809D01*
X03697Y025797D01*
X036969Y025784D01*
X036969Y025769D01*
X03689D01*
X036889Y025784D01*
X036888Y025797D01*
X036886Y025809D01*
X036883Y025819D01*
X03688Y025828D01*
X036876Y025835D01*
X03687Y025841D01*
X036865Y025845D01*
X036858Y025847D01*
X03685Y025848D01*
X037008D01*
X037Y025847D01*
D02*
G37*
G36*
X035937D02*
X035931Y025845D01*
X035925Y025841D01*
X03592Y025835D01*
X035915Y025828D01*
X035912Y025819D01*
X035909Y025809D01*
X035907Y025797D01*
X035906Y025784D01*
X035906Y025769D01*
X035827D01*
X035826Y025784D01*
X035825Y025797D01*
X035823Y025809D01*
X03582Y025819D01*
X035817Y025828D01*
X035813Y025835D01*
X035807Y025841D01*
X035802Y025845D01*
X035795Y025847D01*
X035787Y025848D01*
X035945D01*
X035937Y025847D01*
D02*
G37*
G36*
X035275Y02449D02*
X035218Y024474D01*
X034981Y024393D01*
X034959Y024383D01*
X034942Y024373D01*
X034931Y024364D01*
X034859Y024403D01*
X034875Y024421D01*
X034887Y024443D01*
X034896Y024466D01*
X034903Y024493D01*
X034906Y024522D01*
X034906Y024554D01*
X034904Y024589D01*
X034898Y024627D01*
X034889Y024668D01*
X034878Y024711D01*
X035275Y02449D01*
D02*
G37*
G36*
X034381Y024535D02*
X034296Y024437D01*
X034275Y024408D01*
X034258Y02438D01*
X034245Y024354D01*
X034236Y02433D01*
X03423Y024307D01*
X034228Y024286D01*
X03415D01*
X034148Y024307D01*
X034142Y02433D01*
X034133Y024354D01*
X03412Y02438D01*
X034103Y024408D01*
X034082Y024437D01*
X034057Y024468D01*
X033997Y024535D01*
X033962Y024571D01*
X034416D01*
X034381Y024535D01*
D02*
G37*
G36*
X033381D02*
X033296Y024437D01*
X033275Y024408D01*
X033258Y02438D01*
X033245Y024354D01*
X033236Y02433D01*
X03323Y024307D01*
X033228Y024286D01*
X03315D01*
X033148Y024307D01*
X033142Y02433D01*
X033133Y024354D01*
X03312Y02438D01*
X033103Y024408D01*
X033082Y024437D01*
X033057Y024468D01*
X032997Y024535D01*
X032962Y024571D01*
X033416D01*
X033381Y024535D01*
D02*
G37*
G36*
X034095Y023261D02*
X034096Y023248D01*
X034098Y023236D01*
X034101Y023225D01*
X034104Y023216D01*
X034109Y023209D01*
X034114Y023204D01*
X03412Y0232D01*
X034126Y023197D01*
X034134Y023196D01*
X033976D01*
X033984Y023197D01*
X033991Y0232D01*
X033996Y023204D01*
X034002Y023209D01*
X034006Y023216D01*
X034009Y023225D01*
X034012Y023236D01*
X034014Y023248D01*
X034015Y023261D01*
X034016Y023276D01*
X034094D01*
X034095Y023261D01*
D02*
G37*
G36*
X034891Y02312D02*
X034876Y02312D01*
X034862Y023119D01*
X03485Y023117D01*
X03484Y023114D01*
X034831Y02311D01*
X034824Y023106D01*
X034819Y023101D01*
X034815Y023095D01*
X034813Y023088D01*
X034812Y023081D01*
Y023198D01*
X034813Y023198D01*
X034815Y023198D01*
X034831Y023199D01*
X034891Y023199D01*
Y02312D01*
D02*
G37*
G36*
Y022096D02*
X034876Y022096D01*
X034862Y022095D01*
X03485Y022093D01*
X03484Y02209D01*
X034831Y022087D01*
X034824Y022082D01*
X034819Y022077D01*
X034815Y022071D01*
X034813Y022065D01*
X034812Y022057D01*
Y022174D01*
X034813Y022174D01*
X034815Y022174D01*
X034831Y022175D01*
X034891Y022175D01*
Y022096D01*
D02*
G37*
G36*
X03393Y02193D02*
X033929Y021937D01*
X033926Y021944D01*
X033922Y02195D01*
X033917Y021955D01*
X03391Y021959D01*
X033901Y021962D01*
X033891Y021965D01*
X033879Y021967D01*
X033866Y021968D01*
X033851Y021969D01*
Y022047D01*
X033866Y022048D01*
X033879Y022049D01*
X033891Y022051D01*
X033901Y022053D01*
X03391Y022057D01*
X033917Y022061D01*
X033922Y022066D01*
X033926Y022072D01*
X033929Y022078D01*
X03393Y022086D01*
Y02193D01*
D02*
G37*
G36*
X034852Y021016D02*
X034854Y021009D01*
X034858Y021004D01*
X034864Y020998D01*
X034871Y020994D01*
X03488Y020991D01*
X03489Y020988D01*
X034902Y020986D01*
X034915Y020985D01*
X03493Y020984D01*
Y020906D01*
X034915Y020905D01*
X034902Y020904D01*
X03489Y020902D01*
X03488Y020899D01*
X034871Y020896D01*
X034864Y020891D01*
X034858Y020886D01*
X034854Y02088D01*
X034852Y020874D01*
X034851Y020866D01*
Y021024D01*
X034852Y021016D01*
D02*
G37*
G36*
X033969Y020866D02*
X033968Y020874D01*
X033966Y02088D01*
X033962Y020886D01*
X033956Y020891D01*
X033949Y020896D01*
X03394Y020899D01*
X03393Y020902D01*
X033918Y020904D01*
X033904Y020905D01*
X033889Y020906D01*
Y020984D01*
X033904Y020985D01*
X033918Y020986D01*
X03393Y020988D01*
X03394Y020991D01*
X033949Y020994D01*
X033956Y020998D01*
X033962Y021004D01*
X033966Y021009D01*
X033968Y021016D01*
X033969Y021024D01*
Y020866D01*
D02*
G37*
G36*
X034852Y019993D02*
X034854Y019986D01*
X034858Y01998D01*
X034864Y019975D01*
X034871Y01997D01*
X03488Y019967D01*
X03489Y019964D01*
X034902Y019962D01*
X034915Y019961D01*
X03493Y019961D01*
Y019882D01*
X034915Y019882D01*
X034902Y01988D01*
X03489Y019878D01*
X03488Y019876D01*
X034871Y019872D01*
X034864Y019868D01*
X034858Y019863D01*
X034854Y019857D01*
X034852Y01985D01*
X034851Y019843D01*
Y02D01*
X034852Y019993D01*
D02*
G37*
%LPC*%
G36*
X013756Y029587D02*
X013566D01*
X01338Y02955D01*
X013205Y029477D01*
X013047Y029371D01*
X012912Y029237D01*
X012807Y029079D01*
X012734Y028903D01*
X012697Y028717D01*
Y028527D01*
X012734Y028341D01*
X012807Y028165D01*
X012912Y028007D01*
X013047Y027873D01*
X013205Y027767D01*
X01338Y027695D01*
X013566Y027657D01*
X013756D01*
X013943Y027695D01*
X014118Y027767D01*
X014276Y027873D01*
X014411Y028007D01*
X014516Y028165D01*
X014589Y028341D01*
X014626Y028527D01*
Y028717D01*
X014589Y028903D01*
X014516Y029079D01*
X014411Y029237D01*
X014276Y029371D01*
X014118Y029477D01*
X013943Y02955D01*
X013756Y029587D01*
D02*
G37*
G36*
X037663Y029823D02*
X037455D01*
X03725Y02979D01*
X037053Y029726D01*
X036868Y029632D01*
X0367Y02951D01*
X036553Y029363D01*
X036431Y029195D01*
X036337Y02901D01*
X036273Y028813D01*
X03624Y028608D01*
Y0284D01*
X036273Y028195D01*
X036337Y027998D01*
X036431Y027813D01*
X036553Y027645D01*
X0367Y027498D01*
X036868Y027376D01*
X037053Y027282D01*
X03725Y027218D01*
X037455Y027185D01*
X037663D01*
X037868Y027218D01*
X038065Y027282D01*
X03825Y027376D01*
X038418Y027498D01*
X038565Y027645D01*
X038687Y027813D01*
X038781Y027998D01*
X038845Y028195D01*
X038878Y0284D01*
Y028608D01*
X038845Y028813D01*
X038781Y02901D01*
X038687Y029195D01*
X038565Y029363D01*
X038418Y02951D01*
X03825Y029632D01*
X038065Y029726D01*
X037868Y02979D01*
X037663Y029823D01*
D02*
G37*
G36*
X02062Y028645D02*
X017093D01*
X017024Y028631D01*
X016966Y028592D01*
X016364Y02799D01*
X016325Y027933D01*
X016295D01*
X01615Y027894D01*
X01602Y027819D01*
X015913Y027713D01*
X015838Y027583D01*
X015799Y027437D01*
Y027287D01*
X015838Y027142D01*
X015913Y027012D01*
X01602Y026905D01*
X01615Y02683D01*
X016295Y026791D01*
X016445D01*
X01659Y02683D01*
X016721Y026905D01*
X016827Y027012D01*
X016902Y027142D01*
X016941Y027287D01*
Y027437D01*
X016902Y027583D01*
X016827Y027713D01*
X016721Y027819D01*
X016719Y027834D01*
X017168Y028284D01*
X020545D01*
X020824Y028004D01*
X020816Y027983D01*
X020787Y027931D01*
X02065Y027894D01*
X02052Y027819D01*
X020413Y027713D01*
X020338Y027583D01*
X020299Y027437D01*
Y027287D01*
X020338Y027142D01*
X020413Y027012D01*
X020459Y026966D01*
X020465Y026956D01*
X020489Y026931D01*
X020507Y026909D01*
X020522Y026887D01*
X020535Y026864D01*
X020546Y02684D01*
X020555Y026814D01*
X020562Y026788D01*
X020568Y02676D01*
X020571Y02673D01*
X020572Y026694D01*
X020572Y026694D01*
Y026387D01*
X02038Y026195D01*
X020333Y026133D01*
X020315Y026091D01*
Y022835D01*
X020293Y022812D01*
Y022621D01*
X020293Y022621D01*
X020291Y022565D01*
X020287Y022521D01*
X020281Y022485D01*
X020274Y022459D01*
X020268Y022443D01*
X020267Y022441D01*
X020265Y022441D01*
X020059D01*
Y021939D01*
X020059Y021938D01*
X020057Y021937D01*
X020041Y02193D01*
X020015Y021923D01*
X019979Y021917D01*
X019935Y021914D01*
X019879Y021912D01*
X019879Y021912D01*
X019531D01*
X019473Y02192D01*
X019415Y021912D01*
X018979D01*
X018978Y021912D01*
X018822Y021915D01*
X018799Y021917D01*
Y021949D01*
X018668D01*
X01866Y02195D01*
X018659Y02195D01*
X018658Y02195D01*
X018651Y021949D01*
X017818D01*
Y023052D01*
X017893Y023127D01*
X019409D01*
X019463Y023138D01*
X019509Y023168D01*
X019588Y023247D01*
X019618Y023293D01*
X019629Y023346D01*
Y024567D01*
X019618Y024621D01*
X019588Y024666D01*
X019509Y024745D01*
X019463Y024775D01*
X019409Y024786D01*
X018684D01*
Y026333D01*
X019056Y026706D01*
X019056Y026706D01*
X019083Y026731D01*
X019105Y026748D01*
X019128Y026763D01*
X019149Y026774D01*
X019171Y026783D01*
X019193Y02679D01*
X019216Y026794D01*
X019239Y026797D01*
X019264Y026797D01*
X019282Y026795D01*
X019295Y026791D01*
X019445D01*
X01959Y02683D01*
X019721Y026905D01*
X019827Y027012D01*
X019902Y027142D01*
X019941Y027287D01*
Y027437D01*
X019902Y027583D01*
X019827Y027713D01*
X019721Y027819D01*
X01959Y027894D01*
X019445Y027933D01*
X019295D01*
X01915Y027894D01*
X01902Y027819D01*
X018913Y027713D01*
X018838Y027583D01*
X018799Y027437D01*
Y027422D01*
X018796Y027399D01*
X018789Y027369D01*
X018781Y02734D01*
X018771Y027312D01*
X018759Y027285D01*
X018745Y027259D01*
X018729Y027234D01*
X018712Y027209D01*
X018692Y027185D01*
X018667Y027159D01*
X018666Y027159D01*
X018175Y026667D01*
X018128Y026606D01*
X018098Y026534D01*
X018088Y026457D01*
Y024786D01*
X01748D01*
X017427Y024775D01*
X017381Y024745D01*
X017066Y02443D01*
X017036Y024384D01*
X017025Y024331D01*
X017025Y020906D01*
Y018921D01*
X016758Y018684D01*
X016712D01*
X016479Y018916D01*
X016479Y02122D01*
X016468Y021274D01*
X016438Y02132D01*
X016359Y021399D01*
X016314Y021429D01*
X01626Y02144D01*
X015866D01*
X015812Y021429D01*
X015767Y021399D01*
X015688Y02132D01*
X015658Y021274D01*
X015647Y02122D01*
X015647Y018075D01*
X015566D01*
X01548Y01811D01*
X015386D01*
X015299Y018074D01*
X015233Y018008D01*
X015219Y017975D01*
X01514Y017991D01*
X015141Y020354D01*
Y021575D01*
X01514Y022638D01*
X01513Y022692D01*
X015099Y022737D01*
X014824Y023013D01*
X014778Y023043D01*
X014724Y023054D01*
X012814D01*
X01266Y023208D01*
Y023386D01*
X012649Y02344D01*
X012619Y023485D01*
X012422Y023682D01*
X012394Y023701D01*
X012377Y023768D01*
X012377Y023793D01*
X01254Y023956D01*
X012571Y024001D01*
X012581Y024055D01*
Y025276D01*
X012571Y025329D01*
X01254Y025375D01*
X012383Y025532D01*
X012337Y025563D01*
X012283Y025574D01*
X010945D01*
X010891Y025563D01*
X010846Y025532D01*
X010649Y025336D01*
X010618Y02529D01*
X010608Y025236D01*
Y024055D01*
X010618Y024001D01*
X010649Y023956D01*
X010846Y023759D01*
X010874Y02374D01*
X010891Y023673D01*
X010891Y023648D01*
X010649Y023406D01*
X010618Y023361D01*
X010608Y023307D01*
Y022677D01*
Y022441D01*
X010618Y022387D01*
X010649Y022342D01*
X010885Y022105D01*
X01093Y022075D01*
X010984Y022064D01*
X012755D01*
X012808Y021985D01*
X012803Y021975D01*
X012445Y021616D01*
X012402Y021551D01*
X012402Y02155D01*
Y020906D01*
X012387Y020891D01*
Y018659D01*
X012333Y018602D01*
X012308Y018602D01*
X011782D01*
Y018448D01*
X011447D01*
Y018602D01*
X010896D01*
Y017933D01*
X011447D01*
Y018087D01*
X011782D01*
Y017933D01*
X012308D01*
X012333Y017933D01*
X012387Y017877D01*
Y01562D01*
X012362Y015602D01*
X012283Y015642D01*
Y015965D01*
X011732D01*
Y015811D01*
X011398D01*
Y015965D01*
X010846D01*
Y015295D01*
X011398D01*
Y015449D01*
X011732D01*
Y015295D01*
X012001D01*
X012031Y015223D01*
X011931Y015122D01*
X011024D01*
X010947Y015107D01*
X010882Y015063D01*
X010561Y014742D01*
X010518Y014677D01*
X010502Y014601D01*
Y012565D01*
X010518Y012488D01*
X010561Y012423D01*
X01093Y012054D01*
X010947Y012035D01*
X010955Y012026D01*
Y012014D01*
X010953Y012007D01*
X010955Y011999D01*
Y011703D01*
X011486D01*
Y012313D01*
X011268D01*
X011261Y012314D01*
X011253Y012313D01*
X011242D01*
X011218Y012333D01*
X010935Y012616D01*
X010976Y012687D01*
X011486D01*
Y013297D01*
X011486Y013297D01*
X011486D01*
X011521Y013362D01*
X011866Y013707D01*
X01187Y013711D01*
X01228D01*
Y013233D01*
X01224Y013193D01*
X012116D01*
Y013297D01*
X011585D01*
Y012687D01*
X012116D01*
Y012791D01*
X012323D01*
X0124Y012807D01*
X012465Y01285D01*
X012622Y013008D01*
X012666Y013073D01*
X012681Y01315D01*
Y014123D01*
X01276Y014155D01*
X012813Y014102D01*
X012912Y014045D01*
X013022Y014016D01*
X013136D01*
X013246Y014045D01*
X013345Y014102D01*
X013425Y014183D01*
X013482Y014282D01*
X013512Y014392D01*
Y014506D01*
X013482Y014616D01*
X013425Y014715D01*
X013345Y014795D01*
X013246Y014852D01*
X013136Y014882D01*
X013022D01*
X012912Y014852D01*
X012813Y014795D01*
X01276Y014742D01*
X012681Y014775D01*
Y014886D01*
X013802Y016006D01*
X013855Y016001D01*
X013902Y015922D01*
X013898Y015913D01*
Y015819D01*
X013934Y015732D01*
X014Y015666D01*
X014087Y01563D01*
X014115D01*
X014518Y015227D01*
X014577Y015187D01*
X014646Y015174D01*
X018154D01*
X018888Y014439D01*
X018947Y0144D01*
X019016Y014386D01*
X022405D01*
X022438Y014308D01*
X021644Y013514D01*
X021605Y013455D01*
X021591Y013386D01*
Y012486D01*
X021589Y01248D01*
X021584Y012469D01*
X021575Y012455D01*
X021563Y012437D01*
X021549Y012419D01*
X021505Y01237D01*
X021479Y012343D01*
X021471Y012332D01*
X021441Y012301D01*
X021386Y012207D01*
X021358Y012102D01*
Y011993D01*
X021386Y011888D01*
X021401Y011862D01*
X021356Y011783D01*
X020745D01*
X020635Y011893D01*
X020618Y011911D01*
X02061Y011921D01*
Y011932D01*
X020612Y01194D01*
X02061Y011947D01*
Y012461D01*
X019783D01*
Y011634D01*
X020297D01*
X020304Y011632D01*
X020312Y011634D01*
X020323D01*
X020347Y011614D01*
X020519Y011441D01*
X020585Y011397D01*
X020661Y011382D01*
X023071D01*
X023074Y011383D01*
X023103Y01137D01*
X023197D01*
X023284Y011406D01*
X02335Y011473D01*
X023386Y01156D01*
Y011654D01*
X02335Y01174D01*
X023284Y011807D01*
X023197Y011843D01*
X023103D01*
X023016Y011807D01*
X022993Y011783D01*
X022188D01*
X022142Y011862D01*
X022157Y011888D01*
X022185Y011993D01*
Y012102D01*
X022157Y012207D01*
X022102Y012301D01*
X022072Y012332D01*
X022064Y012343D01*
X022038Y01237D01*
X021995Y012419D01*
X02198Y012437D01*
X021968Y012455D01*
X02196Y012469D01*
X021955Y01248D01*
X021952Y012486D01*
Y013311D01*
X023323Y014682D01*
X023543D01*
Y014606D01*
X024094D01*
Y014865D01*
X024158Y014907D01*
X024252D01*
X024339Y014943D01*
X024405Y01501D01*
X024441Y015097D01*
Y015191D01*
X024405Y015278D01*
X024339Y015344D01*
X024252Y01538D01*
X024158D01*
X024071Y015344D01*
X024051Y015324D01*
X023018D01*
X022949Y015311D01*
X02289Y015271D01*
X022366Y014748D01*
X022251D01*
X022218Y014826D01*
X022267Y014876D01*
X022343Y014989D01*
X022395Y015114D01*
X022421Y015247D01*
Y015383D01*
X022395Y015516D01*
X022343Y015641D01*
X022267Y015754D01*
X022171Y01585D01*
X022059Y015926D01*
X021933Y015977D01*
X0218Y016004D01*
X021664D01*
X021531Y015977D01*
X021406Y015926D01*
X021293Y01585D01*
X021197Y015754D01*
X021122Y015641D01*
X02107Y015516D01*
X021043Y015383D01*
Y015247D01*
X02107Y015114D01*
X021122Y014989D01*
X021197Y014876D01*
X021247Y014826D01*
X021214Y014748D01*
X019091D01*
X018356Y015482D01*
X018297Y015521D01*
X018228Y015535D01*
X01472D01*
X01437Y015885D01*
Y015913D01*
X01435Y015961D01*
X014397Y016039D01*
X0156D01*
X015677Y016055D01*
X015742Y016098D01*
X016472Y016828D01*
X017323D01*
X017377Y016839D01*
X017422Y016869D01*
X017658Y017105D01*
X017689Y017151D01*
X0177Y017205D01*
Y018268D01*
Y018898D01*
Y020139D01*
X017853Y020293D01*
X018661D01*
X018715Y020303D01*
X018761Y020334D01*
X0188Y020373D01*
X018831Y020419D01*
X018841Y020472D01*
Y020945D01*
X018831Y020999D01*
X0188Y021044D01*
X018721Y021123D01*
X018676Y021153D01*
X018622Y021164D01*
X017922D01*
X017894Y021201D01*
X017933Y02128D01*
X018651D01*
X018658Y021278D01*
X018659Y021278D01*
X01866Y021278D01*
X018668Y02128D01*
X018799D01*
Y021308D01*
X01892Y021316D01*
X018976Y021316D01*
X018977Y021316D01*
X019466D01*
X019473Y021317D01*
X019481Y021316D01*
X019879D01*
X019879Y021316D01*
X019935Y021315D01*
X019979Y021311D01*
X020015Y021305D01*
X020041Y021298D01*
X020057Y021291D01*
X020059Y02129D01*
X020059Y021289D01*
Y020787D01*
X020265D01*
X020267Y020787D01*
X020268Y020785D01*
X020274Y020769D01*
X020281Y020743D01*
X020287Y020708D01*
X020291Y020664D01*
X020293Y020608D01*
X020293Y020607D01*
Y01865D01*
X01998Y018337D01*
X019902Y01837D01*
Y018406D01*
X01977D01*
X019763Y018407D01*
X019755Y018406D01*
X019751D01*
X019745Y018406D01*
X019744Y018406D01*
X019153D01*
X019151Y018406D01*
X019143Y018406D01*
X019142D01*
X019135Y018407D01*
X019127Y018406D01*
X018996D01*
Y018284D01*
X018996Y018282D01*
X018979Y018276D01*
X018952Y018269D01*
X018917Y018264D01*
X018879Y01826D01*
X01884Y018264D01*
X018804Y01827D01*
X018779Y018277D01*
X018762Y018283D01*
X01876Y018285D01*
X01876Y018286D01*
Y018421D01*
X017854D01*
Y017516D01*
X018603D01*
X018605Y017515D01*
X018613Y017516D01*
X018614D01*
X018621Y017514D01*
X018629Y017516D01*
X01876D01*
Y017637D01*
X01876Y017639D01*
X018777Y017645D01*
X018803Y017652D01*
X018839Y017658D01*
X018877Y017661D01*
X018916Y017657D01*
X018951Y017651D01*
X018977Y017645D01*
X018994Y017638D01*
X018996Y017637D01*
X018996Y017635D01*
Y0175D01*
X018996D01*
X019014Y017458D01*
X018783Y017227D01*
X018766Y01722D01*
X018745Y017218D01*
X018678Y017233D01*
X018675Y017238D01*
X018669Y017247D01*
X018585Y017331D01*
X018482Y01739D01*
X018367Y017421D01*
X018247D01*
X018132Y01739D01*
X018029Y017331D01*
X017945Y017247D01*
X017885Y017143D01*
X017854Y017028D01*
Y016909D01*
X017885Y016794D01*
X017945Y016691D01*
X018029Y016606D01*
X018132Y016547D01*
X018247Y016516D01*
X018367D01*
X018482Y016547D01*
X018585Y016606D01*
X018669Y016691D01*
X018675Y0167D01*
X018693Y016724D01*
X018708Y016742D01*
X018723Y016756D01*
X018736Y016767D01*
X018747Y016776D01*
X018756Y016782D01*
X018764Y016785D01*
X01877Y016787D01*
X018774Y016788D01*
X01878D01*
X018783Y016789D01*
X018789Y016789D01*
X0188Y016792D01*
X018849Y016802D01*
X018907Y016841D01*
X018924Y016857D01*
X019012Y016834D01*
X019027Y016778D01*
X019087Y016675D01*
X019171Y01659D01*
X019274Y016531D01*
X019389Y0165D01*
X019508D01*
X019624Y016531D01*
X019727Y01659D01*
X019811Y016675D01*
X019871Y016778D01*
X019902Y016893D01*
Y017012D01*
X019871Y017128D01*
X019824Y017209D01*
X019856Y017288D01*
X021118D01*
X02125Y017156D01*
X021239Y017087D01*
X021232Y017077D01*
X020994D01*
Y016467D01*
X021526D01*
Y016863D01*
X021545Y016873D01*
X021624Y016826D01*
Y016467D01*
X022156D01*
Y016607D01*
X023177D01*
X023691Y016093D01*
X02375Y016054D01*
X023819Y01604D01*
X023907D01*
Y015955D01*
X024518D01*
Y01604D01*
X024774D01*
Y015955D01*
X025384D01*
Y01604D01*
X026319D01*
Y015659D01*
X026988D01*
Y015804D01*
X027421D01*
Y015659D01*
X028091D01*
Y016D01*
X028107Y016011D01*
X028186Y015969D01*
Y015435D01*
X028107Y015387D01*
X02806Y015407D01*
X027966D01*
X02788Y015371D01*
X02786Y015351D01*
X025013D01*
X024944Y015337D01*
X024885Y015298D01*
X024479Y014892D01*
X024439Y014833D01*
X024426Y014764D01*
Y014744D01*
X024331D01*
Y014232D01*
X024818D01*
Y013972D01*
X024739Y013957D01*
X024737Y013961D01*
X024671Y014028D01*
X024584Y014064D01*
X02449D01*
X024403Y014028D01*
X024337Y013961D01*
X024301Y013875D01*
Y013781D01*
X024324Y013724D01*
X024282Y013645D01*
X023579D01*
X023559Y013665D01*
X023472Y013701D01*
X023378D01*
X023291Y013665D01*
X023225Y013598D01*
X023189Y013512D01*
Y013418D01*
X023225Y013331D01*
X023291Y013264D01*
X023378Y013228D01*
X023472D01*
X023559Y013264D01*
X023579Y013284D01*
X024334D01*
X024349Y013269D01*
Y013232D01*
X024385Y013145D01*
X024451Y013078D01*
X024538Y013042D01*
X024587D01*
Y011654D01*
X025138D01*
Y011654D01*
X025177Y011654D01*
Y011654D01*
X025217Y011654D01*
X025728D01*
Y013071D01*
X025633D01*
Y01376D01*
X02562Y013829D01*
X02558Y013888D01*
X025472Y013996D01*
Y014023D01*
X025436Y01411D01*
X02537Y014177D01*
X025283Y014213D01*
X025189D01*
X025179Y014219D01*
Y01434D01*
X025186Y014343D01*
X025253Y01441D01*
X025289Y014497D01*
Y01459D01*
X025253Y014677D01*
X025186Y014744D01*
X0251Y01478D01*
X025006D01*
X024977Y014768D01*
X024933Y014835D01*
X025088Y01499D01*
X02786D01*
X02788Y01497D01*
X027966Y014934D01*
X02806D01*
X028107Y014953D01*
X028186Y014906D01*
Y014783D01*
X028199Y014714D01*
X028238Y014656D01*
X028472Y014422D01*
X028434Y014349D01*
X028429Y01435D01*
X026496D01*
X026472Y014373D01*
X026386Y014409D01*
X026292D01*
X026205Y014373D01*
X026138Y014307D01*
X026102Y01422D01*
Y014126D01*
X026138Y014039D01*
X026205Y013973D01*
X026292Y013937D01*
X026386D01*
X026472Y013973D01*
X026488Y013989D01*
X027795D01*
X027828Y01391D01*
X027792Y013874D01*
X027756Y013787D01*
Y013693D01*
X027791Y013607D01*
Y013524D01*
X027807Y013447D01*
X02785Y013382D01*
X02846Y012772D01*
X028477Y012754D01*
X028484Y012745D01*
Y012727D01*
X028484Y012725D01*
X028484Y012724D01*
Y011614D01*
X029035D01*
Y011614D01*
X029075Y011614D01*
Y011614D01*
X029626D01*
Y011614D01*
X029665D01*
Y011614D01*
X030217D01*
Y013032D01*
X030122D01*
Y013366D01*
X030108Y013435D01*
X030069Y013494D01*
X029695Y013868D01*
X029636Y013907D01*
X029567Y013921D01*
X02938D01*
X029327Y014D01*
X029331Y014008D01*
Y014102D01*
X029295Y014189D01*
X029228Y014255D01*
X029141Y014291D01*
X029114D01*
X028547Y014858D01*
Y015718D01*
X028709D01*
X028733Y015709D01*
X028827D01*
X02885Y015718D01*
X029085D01*
Y01625D01*
X028547D01*
Y016348D01*
X029085D01*
Y016809D01*
X029085Y016848D01*
X029163Y016881D01*
X029203Y016841D01*
X029262Y016802D01*
X029331Y016788D01*
X029774D01*
Y016427D01*
X030384D01*
Y016788D01*
X031264D01*
X031738Y016314D01*
Y015844D01*
X031659Y015811D01*
X03162Y01585D01*
X031507Y015926D01*
X031382Y015977D01*
X031249Y016004D01*
X031113D01*
X03098Y015977D01*
X030855Y015926D01*
X030742Y01585D01*
X030646Y015754D01*
X030571Y015641D01*
X030519Y015516D01*
X030492Y015383D01*
Y015247D01*
X030519Y015114D01*
X030571Y014989D01*
X030646Y014876D01*
X030742Y01478D01*
X030855Y014704D01*
X03098Y014652D01*
X031113Y014626D01*
X031249D01*
X031382Y014652D01*
X031507Y014704D01*
X03162Y01478D01*
X031659Y014819D01*
X031738Y014786D01*
Y01442D01*
X031752Y014351D01*
X031791Y014292D01*
X033071Y013012D01*
Y011654D01*
X033622D01*
Y011654D01*
X033661Y011654D01*
Y011654D01*
X034213D01*
Y013071D01*
X034118D01*
Y013228D01*
X034104Y013297D01*
X034065Y013356D01*
X033789Y013632D01*
X033731Y013671D01*
X033661Y013685D01*
X033166D01*
X03256Y01429D01*
X03257Y014369D01*
X032577Y014374D01*
X032659Y014345D01*
X03267Y014318D01*
X032737Y014252D01*
X032824Y014216D01*
X032918D01*
X033004Y014252D01*
X033021Y014268D01*
X035246D01*
Y014183D01*
X035765D01*
X035793Y014151D01*
X03581Y014104D01*
X035799Y014085D01*
X035246D01*
Y013553D01*
X035856D01*
Y013642D01*
X035906Y013652D01*
X035964Y013691D01*
X036443Y01417D01*
X036447Y014173D01*
X037037D01*
Y014643D01*
X037116Y014676D01*
X037329Y014462D01*
X037333Y014459D01*
Y014183D01*
X037818D01*
X03786Y014104D01*
X037847Y014085D01*
X037333D01*
Y013553D01*
X037943D01*
Y013648D01*
X037963Y013652D01*
X038021Y013691D01*
X038464Y014134D01*
X038491Y014173D01*
X039006D01*
Y014843D01*
X038159D01*
Y014368D01*
X038156Y01435D01*
Y014337D01*
X038022Y014202D01*
X037943Y014235D01*
Y014715D01*
X037588D01*
X037587Y014716D01*
X037293Y01501D01*
X037234Y015049D01*
X037165Y015063D01*
X032967D01*
X032938Y015091D01*
X032851Y015127D01*
X032757D01*
X03267Y015091D01*
X032604Y015025D01*
X032568Y014938D01*
Y014855D01*
X03255Y014837D01*
X0325Y014834D01*
X032432Y014899D01*
Y01666D01*
X032467Y016746D01*
Y01684D01*
X032431Y016926D01*
X032394Y016964D01*
X032427Y017042D01*
X03286D01*
X03382Y016082D01*
X03382Y016081D01*
X03382Y016075D01*
X033819Y016064D01*
X033815Y016048D01*
X033808Y016028D01*
X033798Y016004D01*
X033781Y015972D01*
X033778Y015961D01*
X033758Y015927D01*
X033726Y015809D01*
X033652D01*
X03362Y015927D01*
X033559Y016032D01*
X033473Y016118D01*
X033368Y016179D01*
X03325Y016211D01*
X033128D01*
X03301Y016179D01*
X032905Y016118D01*
X032819Y016032D01*
X032758Y015927D01*
X032726Y015809D01*
Y015687D01*
X032758Y015569D01*
X032819Y015464D01*
X032905Y015378D01*
X03301Y015317D01*
X033128Y015285D01*
X03325D01*
X033368Y015317D01*
X033473Y015378D01*
X033559Y015464D01*
X03362Y015569D01*
X033652Y015687D01*
X033726D01*
X033758Y015569D01*
X033819Y015464D01*
X033905Y015378D01*
X03401Y015317D01*
X034128Y015285D01*
X03425D01*
X034368Y015317D01*
X034473Y015378D01*
X034559Y015464D01*
X03462Y015569D01*
X034652Y015687D01*
X034726D01*
X034758Y015569D01*
X034819Y015464D01*
X034905Y015378D01*
X03501Y015317D01*
X035128Y015285D01*
X03525D01*
X035368Y015317D01*
X035473Y015378D01*
X035559Y015464D01*
X03562Y015569D01*
X035652Y015687D01*
X035726D01*
X035758Y015569D01*
X035819Y015464D01*
X035905Y015378D01*
X03601Y015317D01*
X036128Y015285D01*
X03625D01*
X036368Y015317D01*
X036473Y015378D01*
X036559Y015464D01*
X03662Y015569D01*
X036652Y015687D01*
X036726D01*
X036758Y015569D01*
X036819Y015464D01*
X036905Y015378D01*
X03701Y015317D01*
X037128Y015285D01*
X03725D01*
X037368Y015317D01*
X037473Y015378D01*
X037559Y015464D01*
X03762Y015569D01*
X037652Y015687D01*
X037726D01*
X037758Y015569D01*
X037819Y015464D01*
X037905Y015378D01*
X03801Y015317D01*
X038128Y015285D01*
X03825D01*
X038368Y015317D01*
X038473Y015378D01*
X038559Y015464D01*
X03862Y015569D01*
X038652Y015687D01*
Y015809D01*
X03862Y015927D01*
X038559Y016032D01*
X038473Y016118D01*
X038368Y016179D01*
X03825Y016211D01*
X038128D01*
X03801Y016179D01*
X037905Y016118D01*
X037819Y016032D01*
X037758Y015927D01*
X037726Y015809D01*
X037652D01*
X03762Y015927D01*
X037559Y016032D01*
X037473Y016118D01*
X037368Y016179D01*
X03725Y016211D01*
X037128D01*
X03701Y016179D01*
X036905Y016118D01*
X036819Y016032D01*
X036758Y015927D01*
X036726Y015809D01*
X036652D01*
X03662Y015927D01*
X036559Y016032D01*
X036473Y016118D01*
X036368Y016179D01*
X03625Y016211D01*
X036128D01*
X03601Y016179D01*
X035905Y016118D01*
X035819Y016032D01*
X035758Y015927D01*
X035726Y015809D01*
X035652D01*
X03562Y015927D01*
X035559Y016032D01*
X035473Y016118D01*
X035368Y016179D01*
X03525Y016211D01*
X0352D01*
X035186Y016213D01*
X035139Y016214D01*
X035057Y016218D01*
X035026Y016222D01*
X034999Y016226D01*
X034977Y016232D01*
X034962Y016237D01*
X034952Y016241D01*
X03495Y016242D01*
X034766Y016427D01*
X034707Y016466D01*
X034638Y01648D01*
X034283D01*
X034224Y016549D01*
X034228Y016571D01*
X034295Y016638D01*
X034331Y016725D01*
Y016819D01*
X034295Y016905D01*
X034228Y016972D01*
X034141Y017008D01*
X034114D01*
X034049Y017073D01*
X034079Y017146D01*
X034419D01*
Y017656D01*
X034419Y017657D01*
X034419Y01766D01*
Y017668D01*
X034421Y017676D01*
X034419Y017684D01*
Y017815D01*
X0344D01*
X034393Y017936D01*
X034392Y017992D01*
X034392Y017992D01*
Y018227D01*
X034392Y018228D01*
X034394Y018339D01*
X034397Y018406D01*
X034419D01*
Y018537D01*
X034421Y018545D01*
X034419Y018552D01*
Y018561D01*
X034419Y018564D01*
X034419Y018564D01*
Y019075D01*
X03377D01*
Y018564D01*
X03377Y018564D01*
X03377Y018561D01*
Y018552D01*
X033768Y018545D01*
X03377Y018537D01*
Y018406D01*
X033789D01*
X033796Y018285D01*
X033797Y018229D01*
X033797Y018228D01*
Y017993D01*
X033797Y017992D01*
X033795Y017882D01*
X033792Y017815D01*
X03377D01*
Y017684D01*
X033768Y017676D01*
X03377Y017668D01*
Y01766D01*
X03377Y017657D01*
X03377Y017656D01*
Y017455D01*
X033697Y017425D01*
X033645Y017476D01*
Y018075D01*
X033665Y018095D01*
X033701Y018181D01*
Y018275D01*
X033665Y018362D01*
X033645Y018382D01*
Y019138D01*
X034081Y019574D01*
X034084Y019577D01*
X03436D01*
Y020187D01*
X033829D01*
Y019832D01*
X033828Y019831D01*
X033367Y019371D01*
X03334Y019376D01*
X033274Y019442D01*
X033187Y019478D01*
X033093D01*
X033006Y019442D01*
X032986Y019423D01*
X03192D01*
X031875Y019502D01*
X031907Y019558D01*
X031939Y019675D01*
Y019797D01*
X031907Y019915D01*
X031847Y02002D01*
X03176Y020106D01*
X031655Y020167D01*
X031537Y020199D01*
Y020274D01*
X031655Y020305D01*
X03176Y020366D01*
X031847Y020452D01*
X031907Y020558D01*
X031939Y020675D01*
Y020797D01*
X031907Y020915D01*
X031847Y02102D01*
X03176Y021106D01*
X031655Y021167D01*
X031537Y021199D01*
X031415D01*
X031298Y021167D01*
X031192Y021106D01*
X031106Y02102D01*
X031045Y020915D01*
X031014Y020797D01*
Y020756D01*
X031009Y020752D01*
X030935Y020728D01*
X030803Y02086D01*
X030833Y020937D01*
X03092Y020973D01*
X030987Y02104D01*
X031023Y021127D01*
Y021221D01*
X030987Y021307D01*
X03092Y021374D01*
X030833Y02141D01*
X030739D01*
X030725Y021404D01*
X030659Y021448D01*
Y021486D01*
X03022D01*
X03019Y021559D01*
X030482Y021851D01*
X030521Y02191D01*
X030523Y021919D01*
X030689D01*
Y021968D01*
X030768Y022021D01*
X030792Y022011D01*
X030886D01*
X030973Y022047D01*
X031039Y022113D01*
X031075Y0222D01*
Y022294D01*
X031039Y022381D01*
X030973Y022447D01*
X030886Y022483D01*
X030792D01*
X030768Y022473D01*
X030689Y022526D01*
Y022569D01*
X03002D01*
Y021919D01*
X03002Y021919D01*
X03002D01*
X029979Y021859D01*
X029659Y021539D01*
X029547D01*
Y021551D01*
X028756D01*
Y022343D01*
X028744D01*
Y023019D01*
X029087Y023363D01*
X029126Y023421D01*
X02914Y02349D01*
Y023809D01*
X029705D01*
Y024459D01*
X02914D01*
Y025302D01*
X029739Y0259D01*
X030981D01*
X030989Y025822D01*
X03098Y02582D01*
X030855Y025768D01*
X030742Y025693D01*
X030646Y025597D01*
X030571Y025484D01*
X030519Y025358D01*
X030492Y025225D01*
Y02509D01*
X030519Y024957D01*
X030571Y024831D01*
X030646Y024718D01*
X030742Y024622D01*
X030855Y024547D01*
X03098Y024495D01*
X031113Y024469D01*
X031249D01*
X031382Y024495D01*
X031507Y024547D01*
X03162Y024622D01*
X031716Y024718D01*
X031792Y024831D01*
X031844Y024957D01*
X03187Y02509D01*
Y025225D01*
X031844Y025358D01*
X031792Y025484D01*
X031716Y025597D01*
X03162Y025693D01*
X031507Y025768D01*
X031382Y02582D01*
X031373Y025822D01*
X031381Y0259D01*
X032786D01*
X032855Y025914D01*
X032914Y025953D01*
X033706Y026746D01*
X033714Y02675D01*
X033731Y026757D01*
X033756Y026765D01*
X033789Y026772D01*
X033827Y026778D01*
X033996Y026788D01*
X034063Y026789D01*
X034076Y026791D01*
X034142D01*
X034287Y02683D01*
X034417Y026905D01*
X034524Y027012D01*
X034599Y027142D01*
X034638Y027287D01*
Y027437D01*
X034599Y027583D01*
X034524Y027713D01*
X034417Y027819D01*
X034287Y027894D01*
X034142Y027933D01*
X033992D01*
X033847Y027894D01*
X033716Y027819D01*
X03361Y027713D01*
X033535Y027583D01*
X033496Y027437D01*
Y027372D01*
X033493Y02736D01*
X033491Y027228D01*
X033483Y027124D01*
X033477Y027085D01*
X033469Y027051D01*
X033462Y027026D01*
X033455Y027009D01*
X033451Y027001D01*
X032711Y026262D01*
X031825D01*
X031795Y026334D01*
X032206Y026746D01*
X032214Y02675D01*
X032231Y026757D01*
X032256Y026765D01*
X032289Y026772D01*
X032327Y026778D01*
X032496Y026788D01*
X032563Y026789D01*
X032576Y026791D01*
X032642D01*
X032787Y02683D01*
X032917Y026905D01*
X033024Y027012D01*
X033099Y027142D01*
X033138Y027287D01*
Y027437D01*
X033099Y027583D01*
X033024Y027713D01*
X032917Y027819D01*
X032787Y027894D01*
X032642Y027933D01*
X032492D01*
X032347Y027894D01*
X032216Y027819D01*
X03211Y027713D01*
X032035Y027583D01*
X031996Y027437D01*
Y027372D01*
X031993Y02736D01*
X031991Y027228D01*
X031983Y027124D01*
X031977Y027085D01*
X031969Y027051D01*
X031962Y027026D01*
X031955Y027009D01*
X031951Y027001D01*
X03134Y02639D01*
X030292D01*
X030262Y026463D01*
X03063Y026831D01*
X030631Y026832D01*
X030637Y026836D01*
X030649Y02684D01*
X030667Y026844D01*
X030692Y026846D01*
X030724Y026846D01*
X03076Y026842D01*
X030857Y026824D01*
X030913Y02681D01*
X030926Y026809D01*
X030992Y026791D01*
X031142D01*
X031287Y02683D01*
X031417Y026905D01*
X031524Y027012D01*
X031599Y027142D01*
X031638Y027287D01*
Y027437D01*
X031599Y027583D01*
X031524Y027713D01*
X031417Y027819D01*
X031287Y027894D01*
X031142Y027933D01*
X030992D01*
X030847Y027894D01*
X030716Y027819D01*
X03061Y027713D01*
X030535Y027583D01*
X030519Y027521D01*
X030513Y027509D01*
X030513Y027509D01*
X030512Y027509D01*
X030471Y027357D01*
X030419Y027188D01*
X030393Y027117D01*
X030385Y027098D01*
X030383Y027095D01*
X029807Y026519D01*
X029724D01*
X029706Y026563D01*
X029698Y026598D01*
X029734Y026652D01*
X029743Y0267D01*
X029746Y026711D01*
X029747Y026717D01*
X029748Y026721D01*
Y026727D01*
X029748Y02673D01*
X02975Y02674D01*
X029754Y026752D01*
X029761Y026766D01*
X029772Y026782D01*
X029786Y0268D01*
X029805Y02682D01*
X029828Y026842D01*
X029856Y026864D01*
X029892Y02689D01*
X029894Y026892D01*
X029917Y026905D01*
X030024Y027012D01*
X030099Y027142D01*
X030138Y027287D01*
Y027437D01*
X030099Y027583D01*
X030024Y027713D01*
X029917Y027819D01*
X029787Y027894D01*
X029642Y027933D01*
X029492D01*
X029347Y027894D01*
X029216Y027819D01*
X02911Y027713D01*
X029035Y027583D01*
X028996Y027437D01*
Y027287D01*
X029035Y027142D01*
X02911Y027012D01*
X029216Y026905D01*
X02924Y026892D01*
X029242Y02689D01*
X029278Y026864D01*
X029306Y026842D01*
X029315Y026833D01*
X029332Y026742D01*
X028405Y025814D01*
X028366Y025756D01*
X028352Y025687D01*
Y024459D01*
X027956D01*
Y025098D01*
X027942Y025168D01*
X027903Y025226D01*
X027633Y025496D01*
Y026671D01*
X027636Y02668D01*
X027643Y026696D01*
X027655Y02672D01*
X027674Y026748D01*
X027697Y02678D01*
X027808Y026907D01*
X027855Y026954D01*
X027863Y026965D01*
X02791Y027012D01*
X027985Y027142D01*
X028024Y027287D01*
Y027437D01*
X027985Y027583D01*
X02791Y027713D01*
X027803Y027819D01*
X027673Y027894D01*
X027528Y027933D01*
X027378D01*
X027232Y027894D01*
X027102Y027819D01*
X026996Y027713D01*
X026921Y027583D01*
X026882Y027437D01*
Y027287D01*
X026921Y027142D01*
X026996Y027012D01*
X027042Y026966D01*
X027049Y026955D01*
X02714Y026861D01*
X027208Y026781D01*
X027232Y026748D01*
X02725Y02672D01*
X027263Y026696D01*
X02727Y02668D01*
X027272Y026671D01*
Y025606D01*
X027199Y025576D01*
X026133Y026642D01*
Y026671D01*
X026136Y02668D01*
X026143Y026696D01*
X026155Y02672D01*
X026174Y026748D01*
X026197Y02678D01*
X026308Y026907D01*
X026355Y026954D01*
X026363Y026965D01*
X02641Y027012D01*
X026485Y027142D01*
X026524Y027287D01*
Y027437D01*
X026485Y027583D01*
X02641Y027713D01*
X026303Y027819D01*
X026173Y027894D01*
X026028Y027933D01*
X025878D01*
X025732Y027894D01*
X025602Y027819D01*
X025496Y027713D01*
X025421Y027583D01*
X025382Y027437D01*
Y027287D01*
X025421Y027142D01*
X025496Y027012D01*
X025542Y026966D01*
X025549Y026955D01*
X02564Y026861D01*
X025708Y026781D01*
X025732Y026748D01*
X02575Y02672D01*
X025763Y026696D01*
X02577Y02668D01*
X025772Y026671D01*
Y026567D01*
X025786Y026498D01*
X025825Y026439D01*
X027398Y024866D01*
Y024531D01*
X027382Y024459D01*
X027319Y024459D01*
X026716D01*
X026713Y024459D01*
X026637Y024467D01*
Y025079D01*
X026624Y025148D01*
X026584Y025206D01*
X025482Y026309D01*
X025423Y026348D01*
X025354Y026362D01*
X024878D01*
X024633Y026606D01*
Y026671D01*
X024636Y02668D01*
X024643Y026696D01*
X024655Y02672D01*
X024674Y026748D01*
X024697Y02678D01*
X024808Y026907D01*
X024855Y026954D01*
X024863Y026965D01*
X02491Y027012D01*
X024985Y027142D01*
X025024Y027287D01*
Y027437D01*
X024985Y027583D01*
X02491Y027713D01*
X024803Y027819D01*
X024673Y027894D01*
X024528Y027933D01*
X024378D01*
X024232Y027894D01*
X024102Y027819D01*
X023996Y027713D01*
X023921Y027583D01*
X023882Y027437D01*
Y027287D01*
X023921Y027142D01*
X023996Y027012D01*
X024042Y026966D01*
X024049Y026955D01*
X02414Y026861D01*
X024208Y026781D01*
X024232Y026748D01*
X02425Y02672D01*
X024263Y026696D01*
X02427Y02668D01*
X024272Y026671D01*
Y026532D01*
X024286Y026462D01*
X024325Y026404D01*
X024675Y026053D01*
X024685Y026047D01*
X024661Y025968D01*
X023264D01*
X023133Y026098D01*
Y026671D01*
X023136Y02668D01*
X023143Y026696D01*
X023155Y02672D01*
X023174Y026748D01*
X023197Y02678D01*
X023308Y026907D01*
X023355Y026954D01*
X023363Y026965D01*
X02341Y027012D01*
X023485Y027142D01*
X023524Y027287D01*
Y027437D01*
X023485Y027583D01*
X02341Y027713D01*
X023303Y027819D01*
X023173Y027894D01*
X023028Y027933D01*
X022878D01*
X022732Y027894D01*
X022602Y027819D01*
X022496Y027713D01*
X022421Y027583D01*
X022382Y027437D01*
Y027287D01*
X022421Y027142D01*
X022496Y027012D01*
X022542Y026966D01*
X022549Y026955D01*
X02264Y026861D01*
X022708Y026781D01*
X022732Y026748D01*
X02275Y02672D01*
X022763Y026696D01*
X02277Y02668D01*
X022772Y026671D01*
Y026024D01*
X022786Y025954D01*
X022825Y025896D01*
X023061Y02566D01*
X02312Y025621D01*
X023189Y025607D01*
X025398D01*
X025863Y025142D01*
X025833Y025069D01*
X025522D01*
Y024537D01*
X026079D01*
Y024439D01*
X025522D01*
Y024398D01*
X02548Y02437D01*
X025386D01*
X025385Y02437D01*
X025316Y024426D01*
X025304Y024486D01*
X02526Y024551D01*
X025054Y024758D01*
X025037Y024776D01*
X02503Y024785D01*
Y024803D01*
X02503Y024804D01*
X02503Y024806D01*
Y02503D01*
X024419D01*
Y02461D01*
X024346Y024572D01*
X02426Y024608D01*
X024166D01*
X024079Y024572D01*
X024012Y024505D01*
X024Y024477D01*
X023908Y024458D01*
X022226Y02614D01*
Y027039D01*
X022212Y027108D01*
X022173Y027166D01*
X020747Y028592D01*
X020689Y028631D01*
X02062Y028645D01*
D02*
G37*
G36*
X019459Y019793D02*
X019337D01*
X019219Y019762D01*
X019114Y019701D01*
X019027Y019615D01*
X018967Y019509D01*
X018939Y019406D01*
X01886Y019417D01*
Y019793D01*
X017935D01*
Y018868D01*
X01886D01*
Y019245D01*
X018939Y019255D01*
X018967Y019152D01*
X019027Y019047D01*
X019114Y018961D01*
X019219Y0189D01*
X019337Y018868D01*
X019459D01*
X019576Y0189D01*
X019682Y018961D01*
X019768Y019047D01*
X019829Y019152D01*
X01986Y01927D01*
Y019392D01*
X019829Y019509D01*
X019768Y019615D01*
X019682Y019701D01*
X019576Y019762D01*
X019459Y019793D01*
D02*
G37*
G36*
X018136Y014882D02*
X018022D01*
X017912Y014852D01*
X017813Y014795D01*
X017732Y014715D01*
X017675Y014616D01*
X017646Y014506D01*
Y014392D01*
X017675Y014282D01*
X017732Y014183D01*
X017813Y014102D01*
X017912Y014045D01*
X018022Y014016D01*
X018136D01*
X018246Y014045D01*
X018345Y014102D01*
X018425Y014183D01*
X018482Y014282D01*
X018512Y014392D01*
Y014506D01*
X018482Y014616D01*
X018425Y014715D01*
X018345Y014795D01*
X018246Y014852D01*
X018136Y014882D01*
D02*
G37*
G36*
X016136D02*
X016022D01*
X015912Y014852D01*
X015813Y014795D01*
X015732Y014715D01*
X015675Y014616D01*
X015646Y014506D01*
Y014392D01*
X015675Y014282D01*
X015732Y014183D01*
X015813Y014102D01*
X015912Y014045D01*
X016022Y014016D01*
X016136D01*
X016246Y014045D01*
X016345Y014102D01*
X016425Y014183D01*
X016482Y014282D01*
X016512Y014392D01*
Y014506D01*
X016482Y014616D01*
X016425Y014715D01*
X016345Y014795D01*
X016246Y014852D01*
X016136Y014882D01*
D02*
G37*
G36*
X015136D02*
X015022D01*
X014912Y014852D01*
X014813Y014795D01*
X014732Y014715D01*
X014675Y014616D01*
X014646Y014506D01*
Y014392D01*
X014675Y014282D01*
X014732Y014183D01*
X014813Y014102D01*
X014912Y014045D01*
X015022Y014016D01*
X015136D01*
X015246Y014045D01*
X015345Y014102D01*
X015425Y014183D01*
X015482Y014282D01*
X015512Y014392D01*
Y014506D01*
X015482Y014616D01*
X015425Y014715D01*
X015345Y014795D01*
X015246Y014852D01*
X015136Y014882D01*
D02*
G37*
G36*
X014136D02*
X014022D01*
X013912Y014852D01*
X013813Y014795D01*
X013732Y014715D01*
X013675Y014616D01*
X013646Y014506D01*
Y014392D01*
X013675Y014282D01*
X013732Y014183D01*
X013813Y014102D01*
X013912Y014045D01*
X014022Y014016D01*
X014136D01*
X014246Y014045D01*
X014345Y014102D01*
X014425Y014183D01*
X014482Y014282D01*
X014512Y014392D01*
Y014506D01*
X014482Y014616D01*
X014425Y014715D01*
X014345Y014795D01*
X014246Y014852D01*
X014136Y014882D01*
D02*
G37*
G36*
X012116Y012313D02*
X011585D01*
Y011703D01*
X01167D01*
Y011368D01*
X011585D01*
Y010758D01*
X012116D01*
Y011368D01*
X012031D01*
Y011703D01*
X012116D01*
Y012313D01*
D02*
G37*
G36*
X037663Y013287D02*
X037455D01*
X03725Y013255D01*
X037053Y013191D01*
X036868Y013097D01*
X0367Y012974D01*
X036553Y012828D01*
X036431Y01266D01*
X036337Y012475D01*
X036273Y012277D01*
X03624Y012072D01*
Y011865D01*
X036273Y01166D01*
X036337Y011462D01*
X036431Y011277D01*
X036553Y011109D01*
X0367Y010963D01*
X036868Y01084D01*
X037053Y010746D01*
X03725Y010682D01*
X037455Y01065D01*
X037663D01*
X037868Y010682D01*
X038065Y010746D01*
X03825Y01084D01*
X038418Y010963D01*
X038565Y011109D01*
X038687Y011277D01*
X038781Y011462D01*
X038845Y01166D01*
X038878Y011865D01*
Y012072D01*
X038845Y012277D01*
X038781Y012475D01*
X038687Y01266D01*
X038565Y012828D01*
X038418Y012974D01*
X03825Y013097D01*
X038065Y013191D01*
X037868Y013255D01*
X037663Y013287D01*
D02*
G37*
G36*
X017638Y012343D02*
X017456D01*
X017277Y012307D01*
X017109Y012237D01*
X016957Y012136D01*
X016829Y012007D01*
X016727Y011856D01*
X016658Y011687D01*
X016622Y011508D01*
Y011326D01*
X016658Y011147D01*
X016727Y010979D01*
X016829Y010828D01*
X016957Y010699D01*
X017109Y010597D01*
X017277Y010528D01*
X017456Y010492D01*
X017638D01*
X017817Y010528D01*
X017985Y010597D01*
X018137Y010699D01*
X018266Y010828D01*
X018367Y010979D01*
X018437Y011147D01*
X018472Y011326D01*
Y011508D01*
X018437Y011687D01*
X018367Y011856D01*
X018266Y012007D01*
X018137Y012136D01*
X017985Y012237D01*
X017817Y012307D01*
X017638Y012343D01*
D02*
G37*
G36*
X013701D02*
X013519D01*
X01334Y012307D01*
X013172Y012237D01*
X01302Y012136D01*
X012892Y012007D01*
X01279Y011856D01*
X012721Y011687D01*
X012685Y011508D01*
Y011326D01*
X012721Y011147D01*
X01279Y010979D01*
X012892Y010828D01*
X01302Y010699D01*
X013172Y010597D01*
X01334Y010528D01*
X013519Y010492D01*
X013701D01*
X01388Y010528D01*
X014048Y010597D01*
X0142Y010699D01*
X014329Y010828D01*
X01443Y010979D01*
X0145Y011147D01*
X014535Y011326D01*
Y011508D01*
X0145Y011687D01*
X01443Y011856D01*
X014329Y012007D01*
X0142Y012136D01*
X014048Y012237D01*
X01388Y012307D01*
X013701Y012343D01*
D02*
G37*
%LPD*%
G36*
X016531Y027845D02*
X016533Y027828D01*
X016536Y027812D01*
X016539Y027798D01*
X016544Y027785D01*
X01655Y027773D01*
X016557Y027763D01*
X016564Y027754D01*
X016573Y027746D01*
X016583Y027739D01*
X016393Y027795D01*
X016404Y027795D01*
X016415Y027796D01*
X016423Y027799D01*
X016431Y027804D01*
X016437Y02781D01*
X016443Y027818D01*
X016447Y027827D01*
X01645Y027837D01*
X016452Y027849D01*
X016452Y027863D01*
X016531D01*
X016531Y027845D01*
D02*
G37*
G36*
X030949Y026946D02*
X030888Y026962D01*
X030779Y026982D01*
X03073Y026986D01*
X030686Y026986D01*
X030646Y026983D01*
X030611Y026975D01*
X030579Y026964D01*
X030552Y026949D01*
X030529Y02693D01*
X030488Y027001D01*
X030499Y027014D01*
X03051Y027035D01*
X030523Y027064D01*
X030553Y027143D01*
X030606Y027318D01*
X030648Y027472D01*
X030949Y026946D01*
D02*
G37*
G36*
X01931Y026933D02*
X019271Y026937D01*
X019233Y026937D01*
X019196Y026934D01*
X019159Y026927D01*
X019124Y026916D01*
X01909Y026902D01*
X019056Y026884D01*
X019023Y026862D01*
X018992Y026837D01*
X018961Y026809D01*
X018769Y027063D01*
X018797Y027093D01*
X018823Y027124D01*
X018846Y027156D01*
X018867Y027189D01*
X018885Y027224D01*
X018901Y027259D01*
X018914Y027296D01*
X018925Y027334D01*
X018934Y027373D01*
X01894Y027414D01*
X01931Y026933D01*
D02*
G37*
G36*
X034063Y026929D02*
X033992Y026929D01*
X033812Y026918D01*
X033764Y02691D01*
X033721Y026901D01*
X033684Y02689D01*
X033652Y026877D01*
X033626Y026862D01*
X033606Y026846D01*
X03355Y026901D01*
X033567Y026922D01*
X033582Y026948D01*
X033595Y026979D01*
X033606Y027016D01*
X033615Y027059D01*
X033622Y027108D01*
X033632Y027221D01*
X033634Y027358D01*
X034063Y026929D01*
D02*
G37*
G36*
X032563D02*
X032492Y026929D01*
X032312Y026918D01*
X032264Y02691D01*
X032221Y026901D01*
X032184Y02689D01*
X032152Y026877D01*
X032126Y026862D01*
X032106Y026846D01*
X03205Y026901D01*
X032067Y026922D01*
X032082Y026948D01*
X032095Y026979D01*
X032106Y027016D01*
X032115Y027059D01*
X032122Y027108D01*
X032132Y027221D01*
X032134Y027358D01*
X032563Y026929D01*
D02*
G37*
G36*
X029771Y026976D02*
X029737Y026948D01*
X029706Y02692D01*
X02968Y026892D01*
X029657Y026864D01*
X029639Y026836D01*
X029625Y026807D01*
X029614Y026778D01*
X029608Y02675D01*
X029606Y026721D01*
X029528D01*
X029526Y02675D01*
X029519Y026778D01*
X029509Y026807D01*
X029495Y026836D01*
X029477Y026864D01*
X029454Y026892D01*
X029428Y02692D01*
X029397Y026948D01*
X029363Y026976D01*
X029324Y027004D01*
X02981D01*
X029771Y026976D01*
D02*
G37*
G36*
X021146Y027024D02*
X021121Y026993D01*
X021099Y026961D01*
X02108Y026928D01*
X021064Y026893D01*
X021051Y026857D01*
X021041Y02682D01*
X021033Y026781D01*
X021029Y026741D01*
X021028Y026699D01*
X020713D01*
X020711Y026741D01*
X020707Y026781D01*
X020699Y02682D01*
X020689Y026857D01*
X020676Y026893D01*
X02066Y026928D01*
X020641Y026961D01*
X020619Y026993D01*
X020595Y027024D01*
X020567Y027053D01*
X021173D01*
X021146Y027024D01*
D02*
G37*
G36*
X027706Y027003D02*
X027587Y026868D01*
X027558Y026828D01*
X027534Y026791D01*
X027516Y026757D01*
X027503Y026726D01*
X027495Y026697D01*
X027492Y026671D01*
X027413D01*
X027411Y026697D01*
X027403Y026726D01*
X02739Y026757D01*
X027371Y026791D01*
X027347Y026828D01*
X027318Y026868D01*
X027245Y026955D01*
X02715Y027053D01*
X027756D01*
X027706Y027003D01*
D02*
G37*
G36*
X026206D02*
X026087Y026868D01*
X026058Y026828D01*
X026034Y026791D01*
X026016Y026757D01*
X026003Y026726D01*
X025995Y026697D01*
X025992Y026671D01*
X025913D01*
X025911Y026697D01*
X025903Y026726D01*
X02589Y026757D01*
X025871Y026791D01*
X025847Y026828D01*
X025818Y026868D01*
X025745Y026955D01*
X02565Y027053D01*
X026256D01*
X026206Y027003D01*
D02*
G37*
G36*
X024706D02*
X024587Y026868D01*
X024558Y026828D01*
X024534Y026791D01*
X024516Y026757D01*
X024503Y026726D01*
X024495Y026697D01*
X024492Y026671D01*
X024413D01*
X024411Y026697D01*
X024403Y026726D01*
X02439Y026757D01*
X024371Y026791D01*
X024347Y026828D01*
X024318Y026868D01*
X024245Y026955D01*
X02415Y027053D01*
X024756D01*
X024706Y027003D01*
D02*
G37*
G36*
X023206D02*
X023087Y026868D01*
X023058Y026828D01*
X023034Y026791D01*
X023016Y026757D01*
X023003Y026726D01*
X022995Y026697D01*
X022992Y026671D01*
X022913D01*
X022911Y026697D01*
X022903Y026726D01*
X02289Y026757D01*
X022871Y026791D01*
X022847Y026828D01*
X022818Y026868D01*
X022745Y026955D01*
X02265Y027053D01*
X023256D01*
X023206Y027003D01*
D02*
G37*
G36*
X021865Y026964D02*
Y026065D01*
X021879Y025996D01*
X021918Y025937D01*
X021962Y025893D01*
X021943Y025846D01*
X021921Y025822D01*
X0218Y025846D01*
X021664D01*
X021531Y02582D01*
X021406Y025768D01*
X021293Y025693D01*
X021197Y025597D01*
X021122Y025484D01*
X02107Y025358D01*
X021043Y025225D01*
Y02509D01*
X02107Y024957D01*
X021122Y024831D01*
X021197Y024718D01*
X021293Y024622D01*
X021406Y024547D01*
X021531Y024495D01*
X021664Y024469D01*
X0218D01*
X021933Y024495D01*
X022059Y024547D01*
X022171Y024622D01*
X022267Y024718D01*
X022343Y024831D01*
X022395Y024957D01*
X022421Y02509D01*
Y025225D01*
X022397Y025346D01*
X022421Y025369D01*
X022468Y025387D01*
X024454Y023401D01*
X024454Y023401D01*
X024524Y023331D01*
X024494Y023258D01*
X024144D01*
Y022699D01*
X024135Y022687D01*
X024065Y022653D01*
X024045Y022665D01*
Y023258D01*
X023514D01*
Y022648D01*
X023601D01*
Y022645D01*
X023615Y022576D01*
X023654Y022517D01*
X023914Y022257D01*
X023973Y022218D01*
X024042Y022204D01*
X024406D01*
X0245Y02211D01*
X024469Y022037D01*
X024144D01*
Y021427D01*
X024443D01*
X024445Y021426D01*
X024454Y021427D01*
X02486Y021021D01*
X02483Y020948D01*
X024547D01*
X024478Y020935D01*
X02442Y020896D01*
X024144D01*
Y020285D01*
X024297D01*
X024327Y020213D01*
X024242Y020128D01*
X024203Y020069D01*
X024189Y02D01*
Y019911D01*
X024104D01*
Y019301D01*
X024276D01*
X024291Y019222D01*
X024276Y019216D01*
X024209Y01915D01*
X024173Y019063D01*
Y018969D01*
X024209Y018882D01*
X024276Y018815D01*
X024362Y01878D01*
X024366D01*
X02438Y01877D01*
X024431Y01876D01*
X024456Y018686D01*
X024408Y018612D01*
X024104D01*
Y018002D01*
X024636D01*
Y018133D01*
X024671Y01814D01*
X024729Y018179D01*
X024791Y018241D01*
X024864Y018211D01*
Y017384D01*
X024791Y017354D01*
X024537Y017608D01*
X024479Y017647D01*
X024409Y017661D01*
X023579D01*
X023546Y01774D01*
X023547Y01774D01*
X023583Y017827D01*
Y017921D01*
X023576Y017937D01*
X02362Y018002D01*
X024006D01*
Y018612D01*
X023965D01*
X023937Y018654D01*
Y018748D01*
X023901Y018835D01*
X023835Y018901D01*
X023748Y018937D01*
X023654D01*
X023606Y018917D01*
X023527Y018964D01*
Y019301D01*
X024006D01*
Y019911D01*
X02361D01*
X023583Y019953D01*
Y020047D01*
X023547Y020134D01*
X02348Y0202D01*
X023393Y020236D01*
X023299D01*
X023292Y020233D01*
X023226Y020277D01*
Y02065D01*
X023161D01*
Y02123D01*
X023297D01*
Y021762D01*
X022687D01*
Y02123D01*
X0228D01*
Y020689D01*
X022764Y020668D01*
X022731Y020654D01*
X02265Y020683D01*
X022647Y020699D01*
X022608Y020758D01*
X022425Y020941D01*
Y02123D01*
X022589D01*
Y021762D01*
X022354D01*
X02233Y021772D01*
X022236D01*
X022213Y021762D01*
X021978D01*
Y02123D01*
X022063D01*
Y020866D01*
X022077Y020797D01*
X022116Y020738D01*
X022233Y020622D01*
X02223Y020615D01*
X022211Y020606D01*
X022137Y020595D01*
X022076Y020635D01*
X021986Y020653D01*
X021755Y020884D01*
Y02123D01*
X02188D01*
Y021762D01*
X02127D01*
Y02123D01*
X021394D01*
Y020809D01*
X021408Y02074D01*
X021447Y020681D01*
X021729Y020399D01*
Y01999D01*
X021749Y019894D01*
X021803Y019813D01*
X021884Y019758D01*
X02198Y019739D01*
X022076Y019758D01*
X022158Y019813D01*
X022183Y019851D01*
X022278D01*
X022303Y019813D01*
X022384Y019758D01*
X02248Y019739D01*
X022576Y019758D01*
X022656Y019811D01*
X022669Y019809D01*
X022734Y019786D01*
Y019744D01*
X0228D01*
Y019315D01*
X022427Y018942D01*
X022263D01*
X022243Y018962D01*
X022156Y018998D01*
X022062D01*
X021976Y018962D01*
X021909Y018896D01*
X021873Y018809D01*
Y018715D01*
X021909Y018628D01*
X021976Y018561D01*
X022062Y018526D01*
X022156D01*
X022243Y018561D01*
X022263Y018581D01*
X022502D01*
X022559Y018592D01*
X022586Y018587D01*
X022648Y018551D01*
X022674Y018488D01*
X02274Y018422D01*
X022747Y018419D01*
X022772Y018324D01*
X022749Y01829D01*
X022729Y018194D01*
Y01778D01*
X022738Y01774D01*
X022677Y017661D01*
X022284D01*
X022223Y01774D01*
X022231Y01778D01*
Y018194D01*
X022212Y01829D01*
X022158Y018371D01*
X022076Y018425D01*
X02198Y018445D01*
X021884Y018425D01*
X021803Y018371D01*
X021778Y018333D01*
X021683D01*
X021658Y018371D01*
X021576Y018425D01*
X02148Y018445D01*
X021384Y018425D01*
X021303Y018371D01*
X021299Y018366D01*
X02122Y018389D01*
Y018393D01*
X021185Y01848D01*
X021165Y0185D01*
Y019571D01*
X021185Y019591D01*
X02122Y019677D01*
Y019771D01*
X021185Y019858D01*
X021118Y019925D01*
X021031Y019961D01*
X020937D01*
X020888Y019993D01*
Y020607D01*
X020888Y020608D01*
X02089Y020664D01*
X020894Y020708D01*
X0209Y020743D01*
X020907Y020769D01*
X020913Y020785D01*
X020915Y020787D01*
X020916Y020787D01*
X021122D01*
Y022405D01*
X021122Y022405D01*
X021177Y022452D01*
X021236Y022477D01*
X021303Y022543D01*
X021339Y02263D01*
Y022658D01*
X021374Y022693D01*
X022445D01*
X022465Y022674D01*
X022551Y022638D01*
X022645D01*
X022732Y022674D01*
X022799Y02274D01*
X022835Y022827D01*
Y022921D01*
X022799Y023008D01*
X022732Y023074D01*
X022645Y02311D01*
X022551D01*
X022465Y023074D01*
X022445Y023055D01*
X021917D01*
X02187Y023133D01*
X02189Y023181D01*
Y023209D01*
X02224Y02356D01*
X022484D01*
X022504Y02354D01*
X022591Y023504D01*
X022685D01*
X022772Y02354D01*
X022838Y023606D01*
X022874Y023693D01*
Y023787D01*
X022838Y023874D01*
X022772Y02394D01*
X022685Y023976D01*
X022591D01*
X022504Y02394D01*
X022484Y023921D01*
X022165D01*
X022096Y023907D01*
X022038Y023868D01*
X021634Y023465D01*
X021607D01*
X02152Y023429D01*
X021453Y023362D01*
X021417Y023275D01*
Y023181D01*
X021437Y023133D01*
X02139Y023055D01*
X021299D01*
X02123Y023041D01*
X021171Y023002D01*
X021083Y022913D01*
X021055D01*
X020969Y022877D01*
X020967Y022876D01*
X020888Y022909D01*
Y025861D01*
X021081Y026053D01*
X021081Y026053D01*
X021128Y026115D01*
X021158Y026187D01*
X021168Y026264D01*
Y026694D01*
X021168Y026694D01*
X021169Y02673D01*
X021172Y02676D01*
X021178Y026788D01*
X021185Y026814D01*
X021194Y02684D01*
X021205Y026864D01*
X021218Y026887D01*
X021234Y026909D01*
X021251Y026931D01*
X021275Y026956D01*
X021282Y026966D01*
X021327Y027012D01*
X021402Y027142D01*
X021439Y027279D01*
X021491Y027308D01*
X021512Y027317D01*
X021865Y026964D01*
D02*
G37*
G36*
X024883Y024795D02*
X02488Y024784D01*
X02488Y024772D01*
X024883Y024758D01*
X02489Y024742D01*
X0249Y024724D01*
X024914Y024705D01*
X02493Y024684D01*
X024974Y024637D01*
X024891Y024554D01*
X024866Y024577D01*
X024823Y024614D01*
X024803Y024627D01*
X024786Y024638D01*
X02477Y024644D01*
X024756Y024648D01*
X024743Y024648D01*
X024733Y024645D01*
X024723Y024638D01*
X024889Y024804D01*
X024883Y024795D01*
D02*
G37*
G36*
X024311Y024361D02*
X024312Y024353D01*
X024314Y024345D01*
X024316Y024337D01*
X024319Y02433D01*
X024323Y024322D01*
X024328Y024315D01*
X024333Y024307D01*
X024339Y0243D01*
X024346Y024293D01*
X024289Y024238D01*
X024282Y024245D01*
X024275Y024251D01*
X024267Y024256D01*
X02426Y02426D01*
X024252Y024264D01*
X024245Y024268D01*
X024237Y02427D01*
X024229Y024272D01*
X024221Y024273D01*
X024212Y024273D01*
X024311Y02437D01*
X024311Y024361D01*
D02*
G37*
G36*
X025662Y024055D02*
X025661Y024063D01*
X025659Y024069D01*
X025655Y024075D01*
X025649Y02408D01*
X025642Y024085D01*
X025633Y024088D01*
X025623Y024091D01*
X025611Y024093D01*
X025597Y024094D01*
X025582Y024094D01*
X025573Y024094D01*
X025563Y024093D01*
X025554Y024092D01*
X025546Y02409D01*
X025538Y024087D01*
X02553Y024084D01*
X025523Y02408D01*
X025516Y024076D01*
X025509Y024071D01*
X025503Y024065D01*
Y024203D01*
X025509Y024197D01*
X025516Y024192D01*
X025523Y024188D01*
X02553Y024184D01*
X025538Y024181D01*
X025546Y024178D01*
X025554Y024176D01*
X025563Y024174D01*
X025573Y024174D01*
X025582Y024173D01*
X025597Y024174D01*
X025611Y024175D01*
X025623Y024177D01*
X025633Y02418D01*
X025642Y024183D01*
X025649Y024187D01*
X025655Y024193D01*
X025659Y024198D01*
X025661Y024205D01*
X025662Y024213D01*
Y024055D01*
D02*
G37*
G36*
X024559Y024055D02*
X024559Y024063D01*
X024556Y024069D01*
X024552Y024075D01*
X024547Y02408D01*
X024539Y024085D01*
X024531Y024088D01*
X02452Y024091D01*
X024508Y024093D01*
X024495Y024094D01*
X02448Y024094D01*
Y024173D01*
X024495Y024174D01*
X024508Y024175D01*
X02452Y024177D01*
X024531Y02418D01*
X024539Y024183D01*
X024547Y024187D01*
X024552Y024193D01*
X024556Y024198D01*
X024559Y024205D01*
X024559Y024213D01*
Y024055D01*
D02*
G37*
G36*
X012441Y025276D02*
Y024055D01*
X012244Y023858D01*
X010945D01*
X010748Y024055D01*
Y025236D01*
X010945Y025433D01*
X012283D01*
X012441Y025276D01*
D02*
G37*
G36*
X022568Y023671D02*
X022562Y023677D01*
X022555Y023682D01*
X022548Y023686D01*
X022541Y02369D01*
X022533Y023693D01*
X022525Y023696D01*
X022517Y023698D01*
X022508Y0237D01*
X022498Y0237D01*
X022489Y023701D01*
Y02378D01*
X022498Y02378D01*
X022508Y023781D01*
X022517Y023782D01*
X022525Y023784D01*
X022533Y023787D01*
X022541Y02379D01*
X022548Y023794D01*
X022555Y023798D01*
X022562Y023803D01*
X022568Y023809D01*
Y023671D01*
D02*
G37*
G36*
X025177Y023709D02*
X02518Y023675D01*
X025181Y023668D01*
X025182Y023663D01*
X025183Y023659D01*
X025185Y023655D01*
X025187Y023653D01*
X025049D01*
X025051Y023655D01*
X025053Y023659D01*
X025054Y023663D01*
X025056Y023668D01*
X025057Y023675D01*
X025058Y02369D01*
X025059Y023709D01*
X025059Y02372D01*
X025177D01*
X025177Y023709D01*
D02*
G37*
G36*
X021787Y023306D02*
X02178Y023299D01*
X021774Y023292D01*
X021769Y023284D01*
X021764Y023277D01*
X02176Y023269D01*
X021757Y023261D01*
X021755Y023254D01*
X021753Y023246D01*
X021752Y023238D01*
X021752Y023229D01*
X021655Y023327D01*
X021663Y023327D01*
X021671Y023328D01*
X021679Y02333D01*
X021687Y023332D01*
X021694Y023335D01*
X021702Y023339D01*
X021709Y023344D01*
X021717Y023349D01*
X021724Y023355D01*
X021731Y023362D01*
X021787Y023306D01*
D02*
G37*
G36*
X024536Y023024D02*
X024538Y023017D01*
X024542Y023011D01*
X024548Y023006D01*
X024555Y023002D01*
X024564Y022998D01*
X024574Y022996D01*
X024586Y022994D01*
X0246Y022993D01*
X024615Y022992D01*
Y022913D01*
X0246Y022913D01*
X024586Y022912D01*
X024574Y02291D01*
X024564Y022907D01*
X024555Y022904D01*
X024548Y022899D01*
X024542Y022894D01*
X024538Y022888D01*
X024536Y022881D01*
X024535Y022874D01*
Y023031D01*
X024536Y023024D01*
D02*
G37*
G36*
X024791Y02295D02*
X024798Y022944D01*
X024805Y022939D01*
X024813Y022935D01*
X02482Y022932D01*
X024828Y02293D01*
X024835Y022929D01*
X024843Y022928D01*
X024851Y022929D01*
X024858Y02293D01*
X024786Y022813D01*
X024784Y022821D01*
X024781Y022828D01*
X024778Y022836D01*
X024775Y022843D01*
X024771Y022851D01*
X024766Y022858D01*
X024761Y022865D01*
X024749Y02288D01*
X024742Y022887D01*
X024783Y022957D01*
X024791Y02295D01*
D02*
G37*
G36*
X022528Y022805D02*
X022522Y022811D01*
X022516Y022816D01*
X022509Y02282D01*
X022502Y022824D01*
X022494Y022827D01*
X022486Y02283D01*
X022477Y022832D01*
X022468Y022833D01*
X022459Y022834D01*
X022449Y022835D01*
Y022913D01*
X022459Y022914D01*
X022468Y022915D01*
X022477Y022916D01*
X022486Y022918D01*
X022494Y022921D01*
X022502Y022924D01*
X022509Y022928D01*
X022516Y022932D01*
X022522Y022937D01*
X022528Y022943D01*
Y022805D01*
D02*
G37*
G36*
X023845Y022878D02*
X02384Y022872D01*
X023835Y022865D01*
X023832Y022857D01*
X023829Y022849D01*
X023826Y022841D01*
X023824Y022833D01*
X023823Y022824D01*
X023822Y022814D01*
X023821Y022805D01*
X023743Y022802D01*
X023742Y022812D01*
X023741Y022822D01*
X02374Y022831D01*
X023738Y022839D01*
X023735Y022847D01*
X023732Y022855D01*
X023728Y022862D01*
X023723Y022869D01*
X023718Y022875D01*
X023712Y022881D01*
X02385Y022884D01*
X023845Y022878D01*
D02*
G37*
G36*
X024483Y022787D02*
X024477Y022785D01*
X024472Y022781D01*
X024468Y022776D01*
X024464Y022769D01*
X024461Y022761D01*
X024459Y022751D01*
X024457Y02274D01*
X024456Y022728D01*
X024456Y022713D01*
X024377D01*
X024377Y022728D01*
X024376Y02274D01*
X024374Y022751D01*
X024372Y022761D01*
X024369Y022769D01*
X024365Y022776D01*
X02436Y022781D01*
X024355Y022785D01*
X02435Y022787D01*
X024343Y022788D01*
X02449D01*
X024483Y022787D01*
D02*
G37*
G36*
X023853Y022787D02*
X023847Y022785D01*
X023841Y022781D01*
X023836Y022775D01*
X023831Y022768D01*
X023828Y022759D01*
X023825Y022749D01*
X023823Y022737D01*
X023822Y022723D01*
X023821Y022708D01*
X023743D01*
X023742Y022723D01*
X023741Y022737D01*
X023739Y022749D01*
X023736Y022759D01*
X023733Y022768D01*
X023728Y022775D01*
X023723Y022781D01*
X023717Y022785D01*
X023711Y022787D01*
X023703Y022788D01*
X023861D01*
X023853Y022787D01*
D02*
G37*
G36*
X021236Y022755D02*
X021229Y022748D01*
X021223Y02274D01*
X021218Y022733D01*
X021213Y022726D01*
X021209Y022718D01*
X021206Y02271D01*
X021204Y022702D01*
X021202Y022694D01*
X021201Y022686D01*
X021201Y022678D01*
X021103Y022776D01*
X021112Y022776D01*
X02112Y022777D01*
X021128Y022779D01*
X021135Y022781D01*
X021143Y022784D01*
X021151Y022788D01*
X021158Y022793D01*
X021166Y022798D01*
X021173Y022804D01*
X02118Y022811D01*
X021236Y022755D01*
D02*
G37*
G36*
X026772Y022421D02*
X026739Y022343D01*
X026599D01*
X026545Y022399D01*
X026525Y022428D01*
X026383Y02257D01*
X026324Y022609D01*
X026255Y022623D01*
X025116D01*
X025082Y022701D01*
X025118Y022788D01*
Y022882D01*
X025124Y02289D01*
X026303D01*
X026772Y022421D01*
D02*
G37*
G36*
X02075Y022557D02*
X020754Y022503D01*
X020762Y022456D01*
X020773Y022415D01*
X020787Y02238D01*
X020805Y022351D01*
X020825Y022329D01*
X020849Y022313D01*
X020876Y022304D01*
X020906Y022301D01*
X020276D01*
X020306Y022304D01*
X020332Y022313D01*
X020356Y022329D01*
X020376Y022351D01*
X020394Y02238D01*
X020408Y022415D01*
X020419Y022456D01*
X020427Y022503D01*
X020431Y022557D01*
X020433Y022617D01*
X020748D01*
X02075Y022557D01*
D02*
G37*
G36*
X030768Y022178D02*
X030766Y02218D01*
X030763Y022182D01*
X030758Y022183D01*
X030753Y022184D01*
X030747Y022185D01*
X030731Y022187D01*
X030712Y022188D01*
X030701Y022188D01*
Y022306D01*
X030712Y022306D01*
X030747Y022308D01*
X030753Y022309D01*
X030758Y022311D01*
X030763Y022312D01*
X030766Y022314D01*
X030768Y022316D01*
Y022178D01*
D02*
G37*
G36*
X030551Y022354D02*
X030555Y022344D01*
X030561Y022335D01*
X030569Y022327D01*
X03058Y022321D01*
X030593Y022315D01*
X030608Y022311D01*
X030626Y022308D01*
X030646Y022307D01*
X030668Y022306D01*
Y022188D01*
X030646Y022187D01*
X030626Y022185D01*
X030608Y022183D01*
X030593Y022178D01*
X03058Y022173D01*
X030569Y022167D01*
X030561Y022159D01*
X030555Y02215D01*
X030551Y02214D01*
X03055Y022129D01*
Y022365D01*
X030551Y022354D01*
D02*
G37*
G36*
X030396Y022201D02*
X030395Y022197D01*
X030395Y022182D01*
X030394Y022082D01*
X030315D01*
X030313Y022202D01*
X030396D01*
X030396Y022201D01*
D02*
G37*
G36*
X030426Y022059D02*
X030419Y022056D01*
X030413Y022052D01*
X030408Y022047D01*
X030404Y022039D01*
X0304Y022031D01*
X030397Y02202D01*
X030395Y022008D01*
X030394Y021995D01*
X030394Y02198D01*
X030315D01*
X030315Y021995D01*
X030313Y022008D01*
X030311Y02202D01*
X030309Y022031D01*
X030305Y022039D01*
X030301Y022047D01*
X030296Y022052D01*
X03029Y022056D01*
X030283Y022059D01*
X030276Y022059D01*
X030433D01*
X030426Y022059D01*
D02*
G37*
G36*
X013038Y021828D02*
X013035Y021828D01*
X013032Y021826D01*
X013028Y021824D01*
X013023Y021822D01*
X013018Y021818D01*
X013006Y021808D01*
X012991Y021795D01*
X012984Y021787D01*
X0129Y021871D01*
X012908Y021879D01*
X012931Y021905D01*
X012934Y02191D01*
X012937Y021915D01*
X012939Y021919D01*
X01294Y021922D01*
X012941Y021926D01*
X013038Y021828D01*
D02*
G37*
G36*
X024534Y021704D02*
X024533Y021694D01*
X024536Y021684D01*
X02454Y021672D01*
X024547Y021659D01*
X024557Y021644D01*
X024569Y021628D01*
X0246Y021592D01*
X02462Y021572D01*
X02457Y02151D01*
X024553Y021528D01*
X024522Y021554D01*
X024508Y021564D01*
X024496Y02157D01*
X024486Y021575D01*
X024477Y021576D01*
X02447Y021576D01*
X024464Y021572D01*
X024459Y021566D01*
X024536Y021712D01*
X024534Y021704D01*
D02*
G37*
G36*
X018663Y021803D02*
X018673Y021796D01*
X018689Y02179D01*
X018711Y021785D01*
X018739Y021781D01*
X018815Y021775D01*
X018975Y021772D01*
Y021457D01*
X018915Y021456D01*
X018711Y021443D01*
X018689Y021438D01*
X018673Y021432D01*
X018663Y021426D01*
X01866Y021419D01*
Y02181D01*
X018663Y021803D01*
D02*
G37*
G36*
X025227Y021523D02*
X025228Y021515D01*
X02523Y021507D01*
X025233Y021499D01*
X025237Y021491D01*
X025241Y021484D01*
X025245Y021476D01*
X025251Y021469D01*
X025257Y021462D01*
X025263Y021454D01*
X025211Y021396D01*
X025204Y021402D01*
X025196Y021408D01*
X025189Y021413D01*
X025182Y021418D01*
X025174Y021422D01*
X025166Y021424D01*
X025158Y021427D01*
X02515Y021428D01*
X025142Y021429D01*
X025134Y021428D01*
X025226Y021531D01*
X025227Y021523D01*
D02*
G37*
G36*
X022318Y021443D02*
X022312Y02144D01*
X022306Y021437D01*
X022301Y021432D01*
X022296Y021427D01*
X022292Y02142D01*
X022289Y021413D01*
X022287Y021406D01*
X022285Y021397D01*
X022284Y021388D01*
X022283Y021378D01*
X022205Y021386D01*
X022205Y021402D01*
X0222Y021466D01*
X022199Y021475D01*
X022195Y021492D01*
X022192Y021498D01*
X022318Y021443D01*
D02*
G37*
G36*
X020199Y021299D02*
X020196Y021329D01*
X020187Y021356D01*
X020171Y02138D01*
X020149Y0214D01*
X02012Y021417D01*
X020085Y021432D01*
X020044Y021443D01*
X019997Y02145D01*
X019943Y021455D01*
X019883Y021457D01*
Y021772D01*
X019943Y021773D01*
X019997Y021778D01*
X020044Y021786D01*
X020085Y021797D01*
X02012Y021811D01*
X020149Y021828D01*
X020171Y021849D01*
X020187Y021872D01*
X020196Y021899D01*
X020199Y021929D01*
Y021299D01*
D02*
G37*
G36*
X023052Y021369D02*
X023045Y021366D01*
X023039Y021362D01*
X023034Y021357D01*
X02303Y02135D01*
X023026Y021341D01*
X023023Y021331D01*
X023021Y021319D01*
X02302Y021306D01*
X02302Y021291D01*
X022941D01*
X022941Y021306D01*
X022939Y021319D01*
X022937Y021331D01*
X022935Y021341D01*
X022931Y02135D01*
X022927Y021357D01*
X022922Y021362D01*
X022916Y021366D01*
X022909Y021369D01*
X022902Y021369D01*
X023059D01*
X023052Y021369D01*
D02*
G37*
G36*
X022315D02*
X022309Y021366D01*
X022303Y021362D01*
X022298Y021357D01*
X022293Y02135D01*
X02229Y021341D01*
X022287Y021331D01*
X022285Y021319D01*
X022284Y021306D01*
X022283Y021291D01*
X022205D01*
X022204Y021306D01*
X022203Y021319D01*
X022201Y021331D01*
X022198Y021341D01*
X022195Y02135D01*
X022191Y021357D01*
X022185Y021362D01*
X02218Y021366D01*
X022173Y021369D01*
X022165Y021369D01*
X022323D01*
X022315Y021369D01*
D02*
G37*
G36*
X021638Y02142D02*
X021633Y021413D01*
X021629Y021407D01*
X021625Y021399D01*
X021622Y021392D01*
X021619Y021383D01*
X021617Y021375D01*
X021616Y021369D01*
X021654D01*
X021646Y021369D01*
X021639Y021366D01*
X021633Y021362D01*
X021628Y021357D01*
X021624Y02135D01*
X02162Y021341D01*
X021618Y021331D01*
X021616Y021319D01*
X021615Y021306D01*
X021614Y021291D01*
X021535D01*
X021535Y021306D01*
X021534Y021319D01*
X021532Y021331D01*
X021529Y021341D01*
X021526Y02135D01*
X021521Y021357D01*
X021516Y021362D01*
X02151Y021366D01*
X021504Y021369D01*
X021496Y021369D01*
X021534D01*
X021533Y021375D01*
X021531Y021383D01*
X021528Y021392D01*
X021525Y021399D01*
X021521Y021407D01*
X021517Y021413D01*
X021512Y02142D01*
X021506Y021426D01*
X021644D01*
X021638Y02142D01*
D02*
G37*
G36*
X026868Y021332D02*
X026875Y021326D01*
X026883Y02132D01*
X02689Y021316D01*
X026898Y021312D01*
X026905Y021309D01*
X026913Y021306D01*
X026921Y021305D01*
X026929Y021304D01*
X026937Y021303D01*
X02684Y021206D01*
X02684Y021214D01*
X026839Y021222D01*
X026837Y02123D01*
X026835Y021238D01*
X026832Y021246D01*
X026828Y021253D01*
X026823Y021261D01*
X026818Y021268D01*
X026812Y021275D01*
X026805Y021283D01*
X026861Y021338D01*
X026868Y021332D01*
D02*
G37*
G36*
X030785Y021075D02*
X030777Y021075D01*
X030769Y021074D01*
X030761Y021072D01*
X030753Y02107D01*
X030746Y021067D01*
X030738Y021063D01*
X03073Y021058D01*
X030723Y021053D01*
X030716Y021047D01*
X030709Y02104D01*
X030653Y021096D01*
X03066Y021103D01*
X030666Y02111D01*
X030671Y021118D01*
X030676Y021125D01*
X030679Y021133D01*
X030683Y02114D01*
X030685Y021148D01*
X030687Y021156D01*
X030688Y021164D01*
X030688Y021173D01*
X030785Y021075D01*
D02*
G37*
G36*
X020876Y020924D02*
X020849Y020915D01*
X020825Y020899D01*
X020805Y020877D01*
X020787Y020849D01*
X020773Y020814D01*
X020762Y020773D01*
X020754Y020725D01*
X02075Y020672D01*
X020748Y020611D01*
X020433D01*
X020431Y020672D01*
X020427Y020725D01*
X020419Y020773D01*
X020408Y020814D01*
X020394Y020849D01*
X020376Y020877D01*
X020356Y020899D01*
X020332Y020915D01*
X020306Y020924D01*
X020276Y020928D01*
X020906D01*
X020876Y020924D01*
D02*
G37*
G36*
X02302Y020574D02*
X023021Y020561D01*
X023023Y020549D01*
X023026Y020538D01*
X02303Y020529D01*
X023034Y020522D01*
X023039Y020517D01*
X023045Y020513D01*
X023052Y02051D01*
X023059Y020509D01*
X022902D01*
X022909Y02051D01*
X022916Y020513D01*
X022922Y020517D01*
X022927Y020522D01*
X022931Y020529D01*
X022935Y020538D01*
X022937Y020549D01*
X022939Y020561D01*
X022941Y020574D01*
X022941Y020589D01*
X02302D01*
X02302Y020574D01*
D02*
G37*
G36*
X030189Y020492D02*
X030189Y0205D01*
X030186Y020506D01*
X030182Y020512D01*
X030177Y020517D01*
X030169Y020522D01*
X030161Y020525D01*
X03015Y020528D01*
X030138Y02053D01*
X030125Y020531D01*
X030109Y020531D01*
Y02061D01*
X030125Y020611D01*
X030138Y020612D01*
X03015Y020614D01*
X030161Y020617D01*
X030169Y02062D01*
X030177Y020624D01*
X030182Y02063D01*
X030186Y020635D01*
X030189Y020642D01*
X030189Y02065D01*
Y020492D01*
D02*
G37*
G36*
X02252Y020562D02*
X022523Y020528D01*
X022526Y020514D01*
X022529Y020503D01*
X022534Y020493D01*
X022539Y020486D01*
X022544Y02048D01*
X022551Y020477D01*
X022558Y020476D01*
X022403D01*
X02241Y020477D01*
X022416Y02048D01*
X022422Y020486D01*
X022427Y020493D01*
X022431Y020503D01*
X022435Y020514D01*
X022437Y020528D01*
X022439Y020544D01*
X022441Y020562D01*
X022441Y020582D01*
X02252D01*
X02252Y020562D01*
D02*
G37*
G36*
X021897Y020544D02*
X021923Y020522D01*
X021934Y020514D01*
X021945Y020508D01*
X021955Y020504D01*
X021963Y020503D01*
X021971Y020503D01*
X021978Y020505D01*
X021984Y02051D01*
X021874Y0204D01*
X021878Y020406D01*
X02188Y020413D01*
X021881Y020421D01*
X021879Y020429D01*
X021875Y020439D01*
X02187Y02045D01*
X021862Y020461D01*
X021852Y020474D01*
X02184Y020487D01*
X021826Y020502D01*
X021882Y020557D01*
X021897Y020544D01*
D02*
G37*
G36*
X030866Y020381D02*
X030867Y020372D01*
X030868Y020363D01*
X03087Y020355D01*
X030873Y020346D01*
X030876Y020339D01*
X03088Y020331D01*
X030884Y020325D01*
X030889Y020318D01*
X030895Y020312D01*
X030757D01*
X030763Y020318D01*
X030768Y020325D01*
X030772Y020331D01*
X030776Y020339D01*
X030779Y020346D01*
X030782Y020355D01*
X030784Y020363D01*
X030785Y020372D01*
X030786Y020381D01*
X030787Y020391D01*
X030865D01*
X030866Y020381D01*
D02*
G37*
G36*
X014213Y021693D02*
X014331Y021575D01*
Y020354D01*
X014252Y020276D01*
X01374D01*
X013583Y020433D01*
X013583Y021575D01*
X013701Y021693D01*
X014213Y021693D01*
D02*
G37*
G36*
X030204Y020009D02*
X030233Y019985D01*
X030246Y019976D01*
X030258Y019969D01*
X030268Y019965D01*
X030278Y019963D01*
X030286D01*
X030293Y019965D01*
X0303Y019969D01*
X030188Y019858D01*
X030193Y019864D01*
X030195Y019871D01*
Y01988D01*
X030193Y019889D01*
X030188Y0199D01*
X030182Y019911D01*
X030173Y019924D01*
X030161Y019938D01*
X030133Y019969D01*
X030188Y020025D01*
X030204Y020009D01*
D02*
G37*
G36*
X02341Y019924D02*
X023405Y019917D01*
X0234Y01991D01*
X023396Y019903D01*
X023393Y019895D01*
X023391Y019887D01*
X023388Y019879D01*
X023387Y01987D01*
X023386Y019861D01*
X023386Y019851D01*
X023307D01*
X023307Y019861D01*
X023306Y01987D01*
X023304Y019879D01*
X023302Y019887D01*
X0233Y019895D01*
X023296Y019903D01*
X023293Y01991D01*
X023288Y019917D01*
X023283Y019924D01*
X023278Y01993D01*
X023415D01*
X02341Y019924D01*
D02*
G37*
G36*
X028012Y01968D02*
X027933Y019585D01*
X027933Y019601D01*
X027931Y019616D01*
X027928Y01963D01*
X027924Y019645D01*
X027919Y019658D01*
X027913Y019671D01*
X027906Y019684D01*
X027897Y019697D01*
X027888Y019708D01*
X027877Y01972D01*
Y019831D01*
X027888Y019821D01*
X027897Y019814D01*
X027906Y01981D01*
X027913Y019808D01*
X027919Y019809D01*
X027924Y019813D01*
X027928Y019819D01*
X027931Y019828D01*
X027933Y01984D01*
X027933Y019854D01*
X028012Y01968D01*
D02*
G37*
G36*
X023052Y019883D02*
X023045Y019881D01*
X023039Y019877D01*
X023034Y019871D01*
X02303Y019864D01*
X023026Y019856D01*
X023023Y019845D01*
X023021Y019833D01*
X02302Y01982D01*
X02302Y019804D01*
X022941D01*
X022941Y01982D01*
X022939Y019833D01*
X022937Y019845D01*
X022935Y019856D01*
X022931Y019864D01*
X022927Y019871D01*
X022922Y019877D01*
X022916Y019881D01*
X022909Y019883D01*
X022902Y019884D01*
X023059D01*
X023052Y019883D01*
D02*
G37*
G36*
X02441Y019836D02*
X024411Y019822D01*
X024413Y01981D01*
X024416Y0198D01*
X024419Y019791D01*
X024424Y019784D01*
X024429Y019778D01*
X024435Y019774D01*
X024441Y019772D01*
X024449Y019771D01*
X024291D01*
X024299Y019772D01*
X024306Y019774D01*
X024311Y019778D01*
X024317Y019784D01*
X024321Y019791D01*
X024324Y0198D01*
X024327Y01981D01*
X024329Y019822D01*
X02433Y019836D01*
X024331Y019851D01*
X024409D01*
X02441Y019836D01*
D02*
G37*
G36*
X034079Y019717D02*
X034073Y019721D01*
X034066Y019723D01*
X034058Y019723D01*
X034048Y019721D01*
X034038Y019716D01*
X034026Y01971D01*
X034013Y019701D01*
X033999Y019689D01*
X033968Y01966D01*
X033912Y019716D01*
X033928Y019732D01*
X033953Y019761D01*
X033962Y019774D01*
X033968Y019786D01*
X033973Y019796D01*
X033975Y019806D01*
X033975Y019814D01*
X033973Y019821D01*
X033969Y019827D01*
X034079Y019717D01*
D02*
G37*
G36*
X026852Y019753D02*
X026847Y019747D01*
X026843Y01974D01*
X026839Y019733D01*
X026836Y019725D01*
X026833Y019717D01*
X026831Y019709D01*
X02683Y0197D01*
X026829Y01969D01*
X026828Y01968D01*
X02675Y01968D01*
X026749Y01969D01*
X026748Y019699D01*
X026747Y019708D01*
X026745Y019717D01*
X026742Y019725D01*
X026739Y019733D01*
X026735Y01974D01*
X026731Y019747D01*
X026726Y019753D01*
X02672Y019759D01*
X026858Y019759D01*
X026852Y019753D01*
D02*
G37*
G36*
X021048Y019648D02*
X021043Y019642D01*
X021038Y019635D01*
X021034Y019628D01*
X021031Y01962D01*
X021028Y019612D01*
X021026Y019603D01*
X021025Y019594D01*
X021024Y019585D01*
X021024Y019575D01*
X020945D01*
X020945Y019585D01*
X020944Y019594D01*
X020942Y019603D01*
X02094Y019612D01*
X020938Y01962D01*
X020934Y019628D01*
X02093Y019635D01*
X020926Y019642D01*
X020921Y019648D01*
X020915Y019654D01*
X021053D01*
X021048Y019648D01*
D02*
G37*
G36*
X028306Y019311D02*
X028298Y019311D01*
X02829Y01931D01*
X028282Y019308D01*
X028274Y019306D01*
X028266Y019302D01*
X028259Y019299D01*
X028251Y019294D01*
X028244Y019289D01*
X028237Y019283D01*
X028229Y019276D01*
X028174Y019332D01*
X02818Y019339D01*
X028186Y019346D01*
X028192Y019354D01*
X028196Y019361D01*
X0282Y019369D01*
X028203Y019376D01*
X028206Y019384D01*
X028207Y019392D01*
X028208Y0194D01*
X028209Y019408D01*
X028306Y019311D01*
D02*
G37*
G36*
X026829Y01932D02*
X02683Y01931D01*
X026831Y019301D01*
X026833Y019293D01*
X026836Y019285D01*
X026839Y019277D01*
X026843Y01927D01*
X026847Y019263D01*
X026852Y019256D01*
X026858Y01925D01*
X02672Y01925D01*
X026726Y019256D01*
X026731Y019262D01*
X026735Y019269D01*
X026739Y019277D01*
X026742Y019284D01*
X026745Y019292D01*
X026747Y019301D01*
X026748Y01931D01*
X026749Y019319D01*
X02675Y019329D01*
X026828Y019329D01*
X026829Y01932D01*
D02*
G37*
G36*
X033069Y019173D02*
X033063Y019179D01*
X033057Y019184D01*
X03305Y019188D01*
X033043Y019192D01*
X033035Y019195D01*
X033027Y019198D01*
X033019Y0192D01*
X03301Y019202D01*
X033Y019202D01*
X032991Y019203D01*
Y019282D01*
X033Y019282D01*
X03301Y019283D01*
X033019Y019284D01*
X033027Y019286D01*
X033035Y019289D01*
X033043Y019292D01*
X03305Y019296D01*
X033057Y0193D01*
X033063Y019305D01*
X033069Y019311D01*
Y019173D01*
D02*
G37*
G36*
X024575Y019007D02*
X02448Y018947D01*
X024493Y019067D01*
X024545Y019088D01*
X024575Y019007D01*
D02*
G37*
G36*
X022186Y018825D02*
X022192Y01882D01*
X022199Y018816D01*
X022206Y018812D01*
X022214Y018809D01*
X022222Y018806D01*
X022231Y018804D01*
X022239Y018802D01*
X022249Y018801D01*
X022259Y018801D01*
Y018722D01*
X022249Y018722D01*
X022239Y018721D01*
X022231Y01872D01*
X022222Y018718D01*
X022214Y018715D01*
X022206Y018712D01*
X022199Y018708D01*
X022192Y018703D01*
X022186Y018698D01*
X02218Y018693D01*
Y018831D01*
X022186Y018825D01*
D02*
G37*
G36*
X019488Y024567D02*
Y023346D01*
X019409Y023268D01*
X017835D01*
X017677Y02311D01*
Y021181D01*
X017835Y021024D01*
X018622D01*
X018701Y020945D01*
Y020472D01*
X018661Y020433D01*
X017795D01*
X017559Y020197D01*
Y018898D01*
Y018268D01*
Y017205D01*
X017323Y016968D01*
X016024D01*
X015787Y017205D01*
X015787Y02122D01*
X015866Y021299D01*
X01626D01*
X016339Y02122D01*
X016339Y018858D01*
X016654Y018543D01*
X016811D01*
X017165Y018858D01*
Y020906D01*
X017165Y024331D01*
X01748Y024646D01*
X019409D01*
X019488Y024567D01*
D02*
G37*
G36*
X022971Y018605D02*
X022972Y018599D01*
X022974Y018593D01*
X022976Y018587D01*
X022979Y01858D01*
X022983Y018574D01*
X022988Y018567D01*
X022994Y018559D01*
X023007Y018544D01*
X022952Y018489D01*
X022944Y018496D01*
X022929Y018508D01*
X022922Y018513D01*
X022916Y018517D01*
X022909Y01852D01*
X022903Y018523D01*
X022897Y018524D01*
X022892Y018525D01*
X022886Y018524D01*
X022972Y01861D01*
X022971Y018605D01*
D02*
G37*
G36*
X023764Y018625D02*
X023759Y018618D01*
X023755Y018611D01*
X023751Y018604D01*
X023748Y018596D01*
X023745Y018588D01*
X023743Y01858D01*
X023741Y018571D01*
X02374Y018561D01*
X02374Y018552D01*
X023741Y018537D01*
X023742Y018523D01*
X023744Y018511D01*
X023746Y018501D01*
X02375Y018492D01*
X023754Y018485D01*
X023759Y018479D01*
X023765Y018475D01*
X023772Y018473D01*
X02378Y018472D01*
X023622D01*
X02363Y018473D01*
X023636Y018475D01*
X023642Y018479D01*
X023647Y018485D01*
X023652Y018492D01*
X023655Y018501D01*
X023658Y018511D01*
X02366Y018523D01*
X023661Y018537D01*
X023661Y018552D01*
X023661Y018561D01*
X02366Y018571D01*
X023659Y01858D01*
X023657Y018588D01*
X023654Y018596D01*
X023651Y018604D01*
X023647Y018611D01*
X023643Y018618D01*
X023637Y018625D01*
X023632Y01863D01*
X02377D01*
X023764Y018625D01*
D02*
G37*
G36*
X030686Y019098D02*
Y018497D01*
X03069Y018476D01*
X030617Y018438D01*
X030368Y018687D01*
X030368Y018687D01*
X03025Y018805D01*
Y019301D01*
X030247Y019316D01*
X030307Y019395D01*
X030389D01*
X030686Y019098D01*
D02*
G37*
G36*
X021024Y018486D02*
X021025Y018477D01*
X021026Y018468D01*
X021028Y018459D01*
X021031Y018451D01*
X021034Y018443D01*
X021038Y018436D01*
X021043Y018429D01*
X021048Y018423D01*
X021053Y018417D01*
X020915D01*
X020921Y018423D01*
X020926Y018429D01*
X02093Y018436D01*
X020934Y018443D01*
X020938Y018451D01*
X02094Y018459D01*
X020942Y018468D01*
X020944Y018477D01*
X020945Y018486D01*
X020945Y018496D01*
X021024D01*
X021024Y018486D01*
D02*
G37*
G36*
X033504Y018368D02*
X033505Y018358D01*
X033507Y018349D01*
X033509Y018341D01*
X033511Y018333D01*
X033515Y018325D01*
X033518Y018318D01*
X033523Y018311D01*
X033528Y018305D01*
X033533Y018299D01*
X033396D01*
X033401Y018305D01*
X033406Y018311D01*
X033411Y018318D01*
X033415Y018325D01*
X033418Y018333D01*
X03342Y018341D01*
X033423Y018349D01*
X033424Y018358D01*
X033425Y018368D01*
X033425Y018378D01*
X033504D01*
X033504Y018368D01*
D02*
G37*
G36*
X02302Y018352D02*
X023023Y018318D01*
X023026Y018304D01*
X023029Y018293D01*
X023034Y018283D01*
X023039Y018276D01*
X023044Y01827D01*
X023051Y018267D01*
X023058Y018266D01*
X022903D01*
X02291Y018267D01*
X022916Y01827D01*
X022922Y018276D01*
X022927Y018283D01*
X022931Y018293D01*
X022935Y018304D01*
X022937Y018318D01*
X022939Y018334D01*
X022941Y018352D01*
X022941Y018372D01*
X02302D01*
X02302Y018352D01*
D02*
G37*
G36*
X034275Y018541D02*
X03427Y018532D01*
X034266Y018516D01*
X034262Y018494D01*
X034259Y018466D01*
X034253Y018343D01*
X034252Y01823D01*
X033937D01*
X033937Y018289D01*
X033923Y018516D01*
X033919Y018532D01*
X033914Y018541D01*
X033909Y018545D01*
X03428D01*
X034275Y018541D01*
D02*
G37*
G36*
X024498Y018378D02*
X0245Y018372D01*
X024504Y018366D01*
X024509Y018361D01*
X024517Y018356D01*
X024525Y018353D01*
X024535Y01835D01*
X024547Y018348D01*
X024561Y018347D01*
X024576Y018346D01*
Y018268D01*
X024561Y018267D01*
X024547Y018266D01*
X024535Y018264D01*
X024525Y018261D01*
X024517Y018258D01*
X024509Y018254D01*
X024504Y018248D01*
X0245Y018243D01*
X024498Y018236D01*
X024497Y018228D01*
Y018386D01*
X024498Y018378D01*
D02*
G37*
G36*
X011922Y018309D02*
X011926Y01831D01*
X011935Y018312D01*
X011943Y018314D01*
X01195Y018318D01*
X011958Y018322D01*
X011965Y018326D01*
X011971Y018331D01*
X011977Y018337D01*
X011977Y018199D01*
X011971Y018204D01*
X011965Y018209D01*
X011958Y018214D01*
X01195Y018218D01*
X011943Y018221D01*
X011935Y018224D01*
X011926Y018226D01*
X011922Y018226D01*
Y018189D01*
X011921Y018196D01*
X011918Y018203D01*
X011914Y018209D01*
X011909Y018214D01*
X011902Y018218D01*
X011893Y018222D01*
X011883Y018225D01*
X011871Y018227D01*
X011857Y018228D01*
X011842Y018228D01*
Y018307D01*
X011857Y018307D01*
X011871Y018309D01*
X011883Y018311D01*
X011893Y018313D01*
X011902Y018317D01*
X011909Y018321D01*
X011914Y018326D01*
X011918Y018332D01*
X011921Y018339D01*
X011922Y018346D01*
Y018309D01*
D02*
G37*
G36*
X011309Y018339D02*
X011311Y018332D01*
X011315Y018326D01*
X01132Y018321D01*
X011328Y018317D01*
X011336Y018313D01*
X011346Y018311D01*
X011358Y018309D01*
X011372Y018307D01*
X011387Y018307D01*
Y018228D01*
X011372Y018228D01*
X011358Y018227D01*
X011346Y018225D01*
X011336Y018222D01*
X011328Y018218D01*
X01132Y018214D01*
X011315Y018209D01*
X011311Y018203D01*
X011309Y018196D01*
X011308Y018189D01*
Y018346D01*
X011309Y018339D01*
D02*
G37*
G36*
X033528Y018152D02*
X033523Y018146D01*
X033518Y018139D01*
X033515Y018132D01*
X033511Y018124D01*
X033509Y018116D01*
X033507Y018107D01*
X033505Y018098D01*
X033504Y018089D01*
X033504Y018079D01*
X033425D01*
X033425Y018089D01*
X033424Y018098D01*
X033423Y018107D01*
X03342Y018116D01*
X033418Y018124D01*
X033415Y018132D01*
X033411Y018139D01*
X033406Y018146D01*
X033401Y018152D01*
X033396Y018158D01*
X033533D01*
X033528Y018152D01*
D02*
G37*
G36*
X027607Y017984D02*
X0276Y017977D01*
X027582Y017956D01*
X027579Y017952D01*
X027577Y017948D01*
X027575Y017945D01*
X027575Y017943D01*
X027575Y017941D01*
X027508Y018008D01*
X02751Y018008D01*
X027512Y018008D01*
X027515Y01801D01*
X027519Y018012D01*
X027523Y018015D01*
X027528Y018018D01*
X027538Y018027D01*
X027551Y01804D01*
X027607Y017984D01*
D02*
G37*
G36*
X023386Y018013D02*
X023387Y018004D01*
X023388Y017995D01*
X023391Y017987D01*
X023393Y017979D01*
X023396Y017971D01*
X0234Y017964D01*
X023405Y017957D01*
X02341Y01795D01*
X023415Y017944D01*
X023278D01*
X023283Y01795D01*
X023288Y017957D01*
X023293Y017964D01*
X023296Y017971D01*
X0233Y017979D01*
X023302Y017987D01*
X023304Y017995D01*
X023306Y018004D01*
X023307Y018013D01*
X023307Y018023D01*
X023386D01*
X023386Y018013D01*
D02*
G37*
G36*
X021374Y017908D02*
X021373Y017916D01*
X02137Y017922D01*
X021366Y017928D01*
X021361Y017933D01*
X021354Y017938D01*
X021345Y017941D01*
X021334Y017944D01*
X021322Y017946D01*
X021309Y017947D01*
X021294Y017948D01*
Y018026D01*
X021309Y018027D01*
X021322Y018028D01*
X021334Y01803D01*
X021345Y018033D01*
X021354Y018036D01*
X021361Y018041D01*
X021366Y018046D01*
X02137Y018052D01*
X021373Y018058D01*
X021374Y018066D01*
Y017908D01*
D02*
G37*
G36*
X015506Y017941D02*
X015509Y017939D01*
X015513Y017938D01*
X015519Y017937D01*
X015525Y017936D01*
X01554Y017934D01*
X01556Y017933D01*
X015571Y017933D01*
Y017815D01*
X01556Y017815D01*
X015525Y017812D01*
X015519Y017811D01*
X015513Y01781D01*
X015509Y017809D01*
X015506Y017807D01*
X015503Y017805D01*
Y017943D01*
X015506Y017941D01*
D02*
G37*
G36*
X020645Y017834D02*
X020638Y017826D01*
X020632Y017819D01*
X020627Y017812D01*
X020623Y017804D01*
X020619Y017797D01*
X020616Y017789D01*
X020613Y017781D01*
X020612Y017773D01*
X020611Y017765D01*
X02061Y017757D01*
X020513Y017854D01*
X020521Y017855D01*
X020529Y017856D01*
X020537Y017857D01*
X020545Y01786D01*
X020553Y017863D01*
X02056Y017867D01*
X020568Y017871D01*
X020575Y017877D01*
X020582Y017883D01*
X02059Y017889D01*
X020645Y017834D01*
D02*
G37*
G36*
X03002Y017865D02*
X030021Y017857D01*
X030023Y017849D01*
X030025Y017841D01*
X030028Y017833D01*
X030032Y017826D01*
X030037Y017818D01*
X030042Y017811D01*
X030048Y017803D01*
X030055Y017796D01*
X029999Y017741D01*
X029992Y017747D01*
X029985Y017753D01*
X029977Y017759D01*
X02997Y017763D01*
X029962Y017767D01*
X029954Y01777D01*
X029947Y017773D01*
X029939Y017774D01*
X02993Y017775D01*
X029922Y017776D01*
X03002Y017873D01*
X03002Y017865D01*
D02*
G37*
G36*
X019765Y018243D02*
X019774Y018223D01*
X019789Y018205D01*
X019809Y018189D01*
X019835Y018176D01*
X019867Y018165D01*
X019904Y018156D01*
X019948Y01815D01*
X019997Y018146D01*
X020052Y018145D01*
Y01783D01*
X019997Y017829D01*
X019947Y017825D01*
X019904Y017818D01*
X019866Y017809D01*
X019834Y017797D01*
X019808Y017783D01*
X019788Y017766D01*
X019773Y017746D01*
X019764Y017724D01*
X019761Y017699D01*
X019763Y018267D01*
X019765Y018243D01*
D02*
G37*
G36*
X027096Y017803D02*
X027103Y017797D01*
X027111Y017791D01*
X027118Y017787D01*
X027126Y017783D01*
X027133Y01778D01*
X027141Y017777D01*
X027149Y017775D01*
X027157Y017774D01*
X027165Y017774D01*
X027067Y017678D01*
X027067Y017686D01*
X027066Y017694D01*
X027064Y017702D01*
X027062Y01771D01*
X027059Y017718D01*
X027055Y017725D01*
X02705Y017733D01*
X027045Y01774D01*
X027039Y017747D01*
X027032Y017754D01*
X027089Y017809D01*
X027096Y017803D01*
D02*
G37*
G36*
X034252Y017931D02*
X034266Y017704D01*
X03427Y017689D01*
X034275Y017679D01*
X03428Y017676D01*
X033909D01*
X033914Y017679D01*
X033919Y017689D01*
X033923Y017704D01*
X033927Y017726D01*
X03393Y017755D01*
X033936Y017878D01*
X033937Y017991D01*
X034252D01*
X034252Y017931D01*
D02*
G37*
G36*
X018623Y018246D02*
X018632Y018219D01*
X018648Y018195D01*
X01867Y018175D01*
X018699Y018157D01*
X018734Y018143D01*
X018775Y018132D01*
X018822Y018124D01*
X018876Y01812D01*
X01888Y01812D01*
X01888Y01812D01*
X018933Y018124D01*
X018981Y018131D01*
X019022Y018142D01*
X019056Y018155D01*
X019085Y018172D01*
X019107Y018191D01*
X019122Y018213D01*
X019132Y018238D01*
X019135Y018267D01*
X019136Y017646D01*
X019133Y017676D01*
X019124Y017702D01*
X019108Y017726D01*
X019086Y017746D01*
X019057Y017764D01*
X019022Y017778D01*
X018981Y017789D01*
X018934Y017797D01*
X01888Y017802D01*
X018876Y017802D01*
X018876Y017802D01*
X018822Y017797D01*
X018775Y01779D01*
X018734Y017779D01*
X0187Y017766D01*
X018671Y01775D01*
X018649Y01773D01*
X018633Y017708D01*
X018624Y017683D01*
X018621Y017655D01*
X01862Y018276D01*
X018623Y018246D01*
D02*
G37*
G36*
X031074Y017641D02*
X031069Y017647D01*
X031064Y017652D01*
X031058Y017657D01*
X031051Y017662D01*
X031044Y017665D01*
X031036Y017668D01*
X031028Y017671D01*
X031019Y017672D01*
X03101Y017673D01*
X031Y017674D01*
X031013Y017752D01*
X031022Y017753D01*
X031032Y017753D01*
X031041Y017755D01*
X031049Y017756D01*
X031058Y017758D01*
X031066Y017761D01*
X031074Y017764D01*
X031081Y017768D01*
X031088Y017772D01*
X031095Y017777D01*
X031074Y017641D01*
D02*
G37*
G36*
X025343Y017763D02*
X02535Y017757D01*
X025357Y017752D01*
X025365Y017747D01*
X025372Y017743D01*
X02538Y01774D01*
X025388Y017738D01*
X025396Y017736D01*
X025404Y017735D01*
X025412Y017735D01*
X025315Y017637D01*
X025314Y017645D01*
X025313Y017654D01*
X025312Y017661D01*
X025309Y017669D01*
X025306Y017677D01*
X025302Y017685D01*
X025298Y017692D01*
X025292Y0177D01*
X025286Y017707D01*
X02528Y017714D01*
X025335Y01777D01*
X025343Y017763D01*
D02*
G37*
G36*
X022051Y017707D02*
X022044Y017704D01*
X022039Y017698D01*
X022034Y017691D01*
X022029Y017681D01*
X022026Y01767D01*
X022023Y017656D01*
X022021Y01764D01*
X02202Y017622D01*
X02202Y017602D01*
X021941D01*
X021941Y017622D01*
X021937Y017656D01*
X021935Y01767D01*
X021931Y017681D01*
X021927Y017691D01*
X021922Y017698D01*
X021916Y017704D01*
X02191Y017707D01*
X021903Y017708D01*
X022058D01*
X022051Y017707D01*
D02*
G37*
G36*
X021551D02*
X021544Y017704D01*
X021539Y017698D01*
X021534Y017691D01*
X021529Y017681D01*
X021526Y01767D01*
X021523Y017656D01*
X021521Y01764D01*
X02152Y017622D01*
X02152Y017602D01*
X021441D01*
X021441Y017622D01*
X021437Y017656D01*
X021435Y01767D01*
X021431Y017681D01*
X021427Y017691D01*
X021422Y017698D01*
X021416Y017704D01*
X02141Y017707D01*
X021403Y017708D01*
X021558D01*
X021551Y017707D01*
D02*
G37*
G36*
X031841Y017587D02*
X031849Y017581D01*
X031856Y017576D01*
X031863Y017572D01*
X031871Y017568D01*
X031879Y017565D01*
X031887Y017562D01*
X031895Y01756D01*
X031903Y017559D01*
X031911Y017559D01*
X031813Y017462D01*
X031813Y01747D01*
X031812Y017478D01*
X031811Y017486D01*
X031808Y017494D01*
X031805Y017502D01*
X031801Y017509D01*
X031797Y017517D01*
X031791Y017524D01*
X031785Y017531D01*
X031779Y017538D01*
X031834Y017594D01*
X031841Y017587D01*
D02*
G37*
G36*
X030119Y017513D02*
X03012Y0175D01*
X030122Y017488D01*
X030124Y017478D01*
X030128Y017469D01*
X030132Y017462D01*
X030137Y017457D01*
X030143Y017453D01*
X03015Y01745D01*
X030157Y01745D01*
X03D01*
X030007Y01745D01*
X030014Y017453D01*
X03002Y017457D01*
X030025Y017462D01*
X03003Y017469D01*
X030033Y017478D01*
X030036Y017488D01*
X030038Y0175D01*
X030039Y017513D01*
X030039Y017528D01*
X030118D01*
X030119Y017513D01*
D02*
G37*
G36*
X026629Y017521D02*
X02665Y017503D01*
X026654Y0175D01*
X026658Y017498D01*
X026661Y017497D01*
X026664Y017496D01*
X026666Y017496D01*
X026598Y017429D01*
X026598Y017431D01*
X026598Y017433D01*
X026597Y017437D01*
X026595Y01744D01*
X026592Y017444D01*
X026588Y017449D01*
X026579Y017459D01*
X026567Y017472D01*
X026622Y017528D01*
X026629Y017521D01*
D02*
G37*
G36*
X032741Y017476D02*
X032711Y017404D01*
X032155D01*
X032148Y017414D01*
Y017508D01*
X032112Y017595D01*
X032046Y017661D01*
X031959Y017697D01*
X031931D01*
X031871Y017757D01*
X031871Y017757D01*
X031643Y017986D01*
X031673Y018058D01*
X032159D01*
X032741Y017476D01*
D02*
G37*
G36*
X021425Y017292D02*
X021433Y017286D01*
X02144Y017281D01*
X021448Y017276D01*
X021455Y017272D01*
X021463Y017269D01*
X021471Y017267D01*
X021479Y017265D01*
X021487Y017264D01*
X021495Y017264D01*
X021398Y017166D01*
X021397Y017175D01*
X021396Y017183D01*
X021395Y017191D01*
X021392Y017198D01*
X021389Y017206D01*
X021385Y017214D01*
X021381Y017221D01*
X021375Y017229D01*
X021369Y017236D01*
X021363Y017243D01*
X021418Y017299D01*
X021425Y017292D01*
D02*
G37*
G36*
X024238Y017166D02*
X024233Y01716D01*
X024229Y017153D01*
X024225Y017146D01*
X024222Y017138D01*
X024219Y01713D01*
X024217Y017121D01*
X024215Y017112D01*
X024214Y017103D01*
X024214Y017093D01*
X024135D01*
X024135Y017103D01*
X024134Y017112D01*
X024133Y017121D01*
X024131Y01713D01*
X024128Y017138D01*
X024125Y017146D01*
X024121Y017153D01*
X024117Y01716D01*
X024112Y017166D01*
X024106Y017172D01*
X024244D01*
X024238Y017166D01*
D02*
G37*
G36*
X027212Y017144D02*
X027213Y017134D01*
X027214Y017125D01*
X027216Y017117D01*
X027219Y017109D01*
X027222Y017101D01*
X027226Y017094D01*
X027231Y017087D01*
X027236Y01708D01*
X027241Y017074D01*
X027103D01*
X027109Y01708D01*
X027114Y017087D01*
X027118Y017094D01*
X027122Y017101D01*
X027125Y017109D01*
X027128Y017117D01*
X02713Y017125D01*
X027132Y017134D01*
X027133Y017144D01*
X027133Y017153D01*
X027212D01*
X027212Y017144D01*
D02*
G37*
G36*
X026205Y018209D02*
X026414D01*
Y0175D01*
X026428Y017431D01*
X026457Y017387D01*
Y017355D01*
X026493Y017268D01*
X026559Y017201D01*
X026646Y017165D01*
X02674D01*
X026827Y017201D01*
X026893Y017268D01*
X026905Y01727D01*
X026992Y017184D01*
Y017158D01*
X026972Y017138D01*
X026936Y017051D01*
Y016957D01*
X026972Y01687D01*
X027038Y016804D01*
X027125Y016768D01*
X027219D01*
X027306Y016804D01*
X027373Y01687D01*
X027408Y016957D01*
Y017051D01*
X027373Y017138D01*
X027353Y017158D01*
Y017259D01*
X027339Y017328D01*
X0273Y017386D01*
X027285Y017402D01*
X027299Y017475D01*
X027366Y017542D01*
X027402Y017629D01*
Y017656D01*
X027433Y017677D01*
X027527D01*
X027614Y017713D01*
X027681Y01778D01*
X027717Y017866D01*
X027792Y017858D01*
Y017657D01*
X027806Y017588D01*
X027845Y01753D01*
X027969Y017405D01*
Y016443D01*
X027839Y016313D01*
X027835Y01631D01*
X027833Y016309D01*
X027421D01*
Y016165D01*
X026988D01*
Y016309D01*
X026574D01*
X026574Y016309D01*
X026535Y016348D01*
X026477Y016387D01*
X026407Y016401D01*
X025915D01*
X025863Y01648D01*
X025866Y016488D01*
Y016582D01*
X02583Y016669D01*
X025764Y016736D01*
X025677Y016772D01*
X025583D01*
X025496Y016736D01*
X025476Y016716D01*
X025384D01*
Y017116D01*
X025225D01*
Y017387D01*
X025304Y017426D01*
X025366Y0174D01*
X025379D01*
X025446Y017355D01*
X025446Y017327D01*
Y017261D01*
X025482Y017174D01*
X025548Y017108D01*
X025635Y017072D01*
X025729D01*
X025816Y017108D01*
X025883Y017174D01*
X025919Y017261D01*
Y017355D01*
X025883Y017442D01*
X025816Y017509D01*
X025729Y017544D01*
X025716D01*
X025649Y017589D01*
X025649Y017617D01*
Y017683D01*
X025613Y01777D01*
X025547Y017836D01*
X02546Y017872D01*
X025432D01*
X025354Y017951D01*
Y018954D01*
X025413Y019D01*
X026205D01*
Y018209D01*
D02*
G37*
G36*
X024215Y017041D02*
X024216Y017027D01*
X024218Y017015D01*
X02422Y017005D01*
X024224Y016996D01*
X024228Y016989D01*
X024233Y016983D01*
X024239Y016979D01*
X024246Y016977D01*
X024254Y016976D01*
X024158D01*
X024048Y016866D01*
X024052Y016872D01*
X024054Y016879D01*
X024054Y016887D01*
X024052Y016897D01*
X024047Y016907D01*
X02404Y016919D01*
X024031Y016932D01*
X02402Y016946D01*
X023991Y016977D01*
X024046Y017033D01*
X024063Y017017D01*
X024092Y016992D01*
X024105Y016983D01*
X024111Y01698D01*
X024116Y016983D01*
X024121Y016989D01*
X024126Y016996D01*
X024129Y017005D01*
X024132Y017015D01*
X024134Y017027D01*
X024135Y017041D01*
X024135Y017056D01*
X024214D01*
X024215Y017041D01*
D02*
G37*
G36*
X025084D02*
X025085Y017027D01*
X025087Y017015D01*
X02509Y017005D01*
X025094Y016996D01*
X025098Y016989D01*
X025103Y016983D01*
X025109Y016979D01*
X025116Y016977D01*
X025123Y016976D01*
X025024D01*
X024914Y016866D01*
X024918Y016872D01*
X02492Y016879D01*
X02492Y016887D01*
X024918Y016897D01*
X024913Y016907D01*
X024906Y016919D01*
X024897Y016932D01*
X024886Y016946D01*
X024857Y016977D01*
X024913Y017033D01*
X024929Y017017D01*
X024958Y016992D01*
X024971Y016983D01*
X024979Y016979D01*
X02498Y016979D01*
X024986Y016983D01*
X024991Y016989D01*
X024995Y016996D01*
X024999Y017005D01*
X025002Y017015D01*
X025004Y017027D01*
X025005Y017041D01*
X025005Y017056D01*
X025084D01*
X025084Y017041D01*
D02*
G37*
G36*
X025084Y016958D02*
X025085Y016949D01*
X025087Y016941D01*
X02509Y016933D01*
X025093Y016926D01*
X025097Y016919D01*
X025101Y016914D01*
X025106Y016909D01*
X025112Y016904D01*
X025119Y016901D01*
X02504Y016872D01*
X02498Y016812D01*
X02498Y01682D01*
X024979Y016828D01*
X024977Y016836D01*
X024975Y016844D01*
X024972Y016852D01*
X024968Y016859D01*
X024963Y016867D01*
X024958Y016874D01*
X024952Y016882D01*
X024945Y016889D01*
X025001Y016944D01*
X025008Y016938D01*
X025009Y016937D01*
X025084Y016968D01*
X025084Y016958D01*
D02*
G37*
G36*
X01252Y023386D02*
Y02315D01*
X012756Y022913D01*
X014724D01*
X015Y022638D01*
X015Y021575D01*
Y020354D01*
X015Y017165D01*
X014764Y016929D01*
X012913D01*
X012756Y017087D01*
X012756Y018346D01*
X012913Y018504D01*
X014134D01*
X014449Y018819D01*
Y020354D01*
Y021575D01*
Y021969D01*
X014213Y022205D01*
X010984D01*
X010748Y022441D01*
Y022677D01*
Y023307D01*
X011024Y023583D01*
X012323D01*
X01252Y023386D01*
D02*
G37*
G36*
X022017Y016858D02*
X02202Y016852D01*
X022024Y016846D01*
X022029Y016841D01*
X022036Y016836D01*
X022045Y016833D01*
X022055Y01683D01*
X022067Y016828D01*
X02208Y016827D01*
X022095Y016827D01*
Y016748D01*
X02208Y016747D01*
X022067Y016746D01*
X022055Y016744D01*
X022045Y016742D01*
X022036Y016738D01*
X022029Y016734D01*
X022024Y016729D01*
X02202Y016723D01*
X022017Y016716D01*
X022017Y016708D01*
Y016746D01*
X02201Y016745D01*
X022002Y016743D01*
X021994Y01674D01*
X021986Y016737D01*
X021979Y016733D01*
X021972Y016729D01*
X021966Y016724D01*
X02196Y016718D01*
Y016856D01*
X021966Y01685D01*
X021972Y016845D01*
X021979Y016841D01*
X021986Y016837D01*
X021994Y016834D01*
X022002Y016831D01*
X02201Y016829D01*
X022017Y016828D01*
Y016866D01*
X022017Y016858D01*
D02*
G37*
G36*
X018584Y017125D02*
X018605Y0171D01*
X018626Y017079D01*
X018647Y01706D01*
X018669Y017044D01*
X018691Y017031D01*
X018713Y017021D01*
X018735Y017014D01*
X018757Y017009D01*
X01878Y017008D01*
Y016929D01*
X018757Y016928D01*
X018735Y016923D01*
X018713Y016916D01*
X018691Y016906D01*
X018669Y016893D01*
X018647Y016877D01*
X018626Y016858D01*
X018605Y016837D01*
X018584Y016812D01*
X018563Y016785D01*
Y017152D01*
X018584Y017125D01*
D02*
G37*
G36*
X034024Y016898D02*
X034031Y016892D01*
X034039Y016887D01*
X034046Y016882D01*
X034054Y016879D01*
X034061Y016875D01*
X034069Y016873D01*
X034077Y016871D01*
X034085Y01687D01*
X034093Y01687D01*
X033996Y016773D01*
X033996Y016781D01*
X033995Y016789D01*
X033993Y016797D01*
X033991Y016805D01*
X033988Y016812D01*
X033984Y01682D01*
X033979Y016828D01*
X033974Y016835D01*
X033968Y016842D01*
X033961Y016849D01*
X034017Y016905D01*
X034024Y016898D01*
D02*
G37*
G36*
X028819Y016804D02*
X02882Y016791D01*
X028822Y016779D01*
X028825Y016769D01*
X028829Y01676D01*
X028833Y016753D01*
X028838Y016747D01*
X028844Y016743D01*
X028851Y016741D01*
X028858Y01674D01*
X028701D01*
X028708Y016741D01*
X028715Y016743D01*
X028721Y016747D01*
X028726Y016753D01*
X02873Y01676D01*
X028734Y016769D01*
X028737Y016779D01*
X028739Y016791D01*
X02874Y016804D01*
X02874Y01682D01*
X028819D01*
X028819Y016804D01*
D02*
G37*
G36*
X024374Y016829D02*
X024372Y016822D01*
Y016813D01*
X024374Y016804D01*
X024379Y016793D01*
X024385Y016782D01*
X024394Y016769D01*
X024405Y016755D01*
X024434Y016724D01*
X024379Y016668D01*
X024363Y016684D01*
X024334Y016708D01*
X024321Y016717D01*
X024309Y016724D01*
X024299Y016728D01*
X024289Y01673D01*
X024281D01*
X024273Y016728D01*
X024267Y016724D01*
X024379Y016835D01*
X024374Y016829D01*
D02*
G37*
G36*
X032298Y01672D02*
X032297Y016717D01*
X032295Y016712D01*
X032294Y016707D01*
X032293Y016701D01*
X032291Y016685D01*
X03229Y016666D01*
X03229Y016655D01*
X032172D01*
X032172Y016666D01*
X03217Y016701D01*
X032169Y016707D01*
X032167Y016712D01*
X032166Y016717D01*
X032164Y01672D01*
X032162Y016722D01*
X0323D01*
X032298Y01672D01*
D02*
G37*
G36*
X02556Y016467D02*
X025554Y016472D01*
X025547Y016477D01*
X02554Y016482D01*
X025533Y016485D01*
X025525Y016489D01*
X025517Y016491D01*
X025509Y016493D01*
X0255Y016495D01*
X02549Y016496D01*
X025481Y016496D01*
Y016575D01*
X02549Y016575D01*
X0255Y016576D01*
X025509Y016577D01*
X025517Y01658D01*
X025525Y016582D01*
X025533Y016585D01*
X02554Y016589D01*
X025547Y016594D01*
X025554Y016599D01*
X02556Y016604D01*
Y016467D01*
D02*
G37*
G36*
X028007Y01617D02*
X027992Y016154D01*
X027967Y016125D01*
X027958Y016112D01*
X027952Y0161D01*
X027947Y01609D01*
X027945Y01608D01*
Y016072D01*
X027947Y016065D01*
X027952Y016059D01*
X02784Y01617D01*
X027846Y016166D01*
X027854Y016163D01*
X027862D01*
X027871Y016166D01*
X027882Y01617D01*
X027894Y016177D01*
X027906Y016186D01*
X02792Y016197D01*
X027952Y016226D01*
X028007Y01617D01*
D02*
G37*
G36*
X025244Y016292D02*
X025247Y016285D01*
X025251Y016279D01*
X025256Y016274D01*
X025264Y01627D01*
X025272Y016266D01*
X025283Y016263D01*
X025295Y016261D01*
X025308Y01626D01*
X025324Y01626D01*
Y016181D01*
X025308Y016181D01*
X025295Y01618D01*
X025283Y016178D01*
X025272Y016175D01*
X025264Y016171D01*
X025256Y016167D01*
X025251Y016162D01*
X025247Y016156D01*
X025244Y016149D01*
X025244Y016142D01*
Y016299D01*
X025244Y016292D01*
D02*
G37*
G36*
X024914Y016142D02*
X024913Y016149D01*
X024911Y016156D01*
X024907Y016162D01*
X024901Y016167D01*
X024894Y016171D01*
X024885Y016175D01*
X024875Y016178D01*
X024863Y01618D01*
X024849Y016181D01*
X024834Y016181D01*
Y01626D01*
X024849Y01626D01*
X024863Y016261D01*
X024875Y016263D01*
X024885Y016266D01*
X024894Y01627D01*
X024901Y016274D01*
X024907Y016279D01*
X024911Y016285D01*
X024913Y016292D01*
X024914Y016299D01*
Y016142D01*
D02*
G37*
G36*
X024378Y016292D02*
X024381Y016285D01*
X024385Y016279D01*
X02439Y016274D01*
X024398Y01627D01*
X024406Y016266D01*
X024417Y016263D01*
X024429Y016261D01*
X024442Y01626D01*
X024457Y01626D01*
Y016181D01*
X024442Y016181D01*
X024429Y01618D01*
X024417Y016178D01*
X024406Y016175D01*
X024398Y016171D01*
X02439Y016167D01*
X024385Y016162D01*
X024381Y016156D01*
X024378Y016149D01*
X024378Y016142D01*
Y016299D01*
X024378Y016292D01*
D02*
G37*
G36*
X024048Y016142D02*
X024047Y016149D01*
X024044Y016156D01*
X02404Y016162D01*
X024035Y016167D01*
X024028Y016171D01*
X024019Y016175D01*
X024009Y016178D01*
X023997Y01618D01*
X023983Y016181D01*
X023968Y016181D01*
Y01626D01*
X023983Y01626D01*
X023997Y016261D01*
X024009Y016263D01*
X024019Y016266D01*
X024028Y01627D01*
X024035Y016274D01*
X02404Y016279D01*
X024044Y016285D01*
X024047Y016292D01*
X024048Y016299D01*
Y016142D01*
D02*
G37*
G36*
X027892Y016055D02*
X027885Y016048D01*
X027879Y01604D01*
X027874Y016033D01*
X027869Y016026D01*
X027865Y016018D01*
X027861Y01601D01*
X027859Y016002D01*
X027856Y015995D01*
X027855Y015986D01*
X027854Y015978D01*
X027764Y016082D01*
X027772Y016082D01*
X02778Y016083D01*
X027788Y016084D01*
X027796Y016086D01*
X027804Y016089D01*
X027811Y016092D01*
X027819Y016097D01*
X027826Y016102D01*
X027833Y016108D01*
X02784Y016115D01*
X027892Y016055D01*
D02*
G37*
G36*
X026473Y016211D02*
X0265Y016187D01*
X026512Y016179D01*
X026523Y016172D01*
X026532Y016167D01*
X02654Y016165D01*
X026548Y016164D01*
X026554Y016165D01*
X026559Y016169D01*
X026459Y016069D01*
X026462Y016074D01*
X026464Y01608D01*
X026463Y016088D01*
X026461Y016096D01*
X026456Y016105D01*
X026449Y016116D01*
X02644Y016128D01*
X02643Y016141D01*
X026402Y01617D01*
X026458Y016226D01*
X026473Y016211D01*
D02*
G37*
G36*
X027686Y015915D02*
X02768Y015921D01*
X027673Y015926D01*
X027666Y01593D01*
X027659Y015934D01*
X027651Y015938D01*
X027643Y01594D01*
X027635Y015942D01*
X027626Y015944D01*
X027616Y015945D01*
X027607Y015945D01*
Y016024D01*
X027616Y016024D01*
X027626Y016025D01*
X027635Y016026D01*
X027643Y016028D01*
X027651Y016031D01*
X027659Y016034D01*
X027666Y016038D01*
X027673Y016043D01*
X02768Y016048D01*
X027686Y016053D01*
Y015915D01*
D02*
G37*
G36*
X034012Y016203D02*
X034024Y016195D01*
X034095Y016157D01*
X034331Y01604D01*
X033906Y015907D01*
X033924Y015943D01*
X033939Y015977D01*
X03395Y01601D01*
X033958Y01604D01*
X033961Y016068D01*
X03396Y016095D01*
X033956Y01612D01*
X033948Y016143D01*
X033935Y016164D01*
X033919Y016183D01*
X034006Y016207D01*
X034012Y016203D01*
D02*
G37*
G36*
X027561Y015906D02*
X027561Y015913D01*
X027558Y01592D01*
X027554Y015926D01*
X027549Y015931D01*
X027541Y015935D01*
X027533Y015939D01*
X027522Y015941D01*
X02751Y015943D01*
X027497Y015944D01*
X027482Y015945D01*
Y016024D01*
X027497Y016024D01*
X02751Y016025D01*
X027522Y016027D01*
X027533Y01603D01*
X027541Y016033D01*
X027549Y016038D01*
X027554Y016043D01*
X027558Y016049D01*
X027561Y016056D01*
X027561Y016063D01*
Y015906D01*
D02*
G37*
G36*
X02685Y016056D02*
X026852Y016049D01*
X026856Y016043D01*
X026862Y016038D01*
X026869Y016033D01*
X026878Y01603D01*
X026888Y016027D01*
X0269Y016025D01*
X026913Y016024D01*
X026928Y016024D01*
Y015945D01*
X026913Y015944D01*
X0269Y015943D01*
X026888Y015941D01*
X026878Y015939D01*
X026869Y015935D01*
X026862Y015931D01*
X026856Y015926D01*
X026852Y01592D01*
X02685Y015913D01*
X026849Y015906D01*
Y016063D01*
X02685Y016056D01*
D02*
G37*
G36*
X034867Y016128D02*
X034887Y016116D01*
X034911Y016105D01*
X034939Y016096D01*
X03497Y016089D01*
X035006Y016083D01*
X035045Y016078D01*
X035135Y016073D01*
X035186Y016073D01*
X034864Y015751D01*
X034864Y015802D01*
X034854Y015931D01*
X034848Y015967D01*
X034841Y015998D01*
X034832Y016026D01*
X034821Y01605D01*
X034809Y01607D01*
X034795Y016086D01*
X034851Y016142D01*
X034867Y016128D01*
D02*
G37*
G36*
X014233Y015857D02*
X014234Y015849D01*
X014235Y015841D01*
X014238Y015833D01*
X014241Y015825D01*
X014245Y015818D01*
X014249Y01581D01*
X014255Y015803D01*
X014261Y015796D01*
X014267Y015788D01*
X014212Y015733D01*
X014204Y015739D01*
X014197Y015745D01*
X01419Y015751D01*
X014182Y015755D01*
X014175Y015759D01*
X014167Y015762D01*
X014159Y015765D01*
X014151Y015766D01*
X014143Y015767D01*
X014135Y015768D01*
X014232Y015865D01*
X014233Y015857D01*
D02*
G37*
G36*
X011872Y015671D02*
X011878Y015672D01*
X011886Y015675D01*
X011893Y015678D01*
X011899Y015682D01*
X011904Y015686D01*
X011909Y015692D01*
X011913Y015698D01*
X011916Y015704D01*
X011971Y015578D01*
X011964Y015581D01*
X011958Y015583D01*
X011943Y015586D01*
X011935Y015587D01*
X011918Y015589D01*
X0119Y01559D01*
X01189Y015591D01*
X011872Y015625D01*
Y015551D01*
X011872Y015559D01*
X011869Y015565D01*
X011865Y015571D01*
X01186Y015576D01*
X011852Y015581D01*
X011844Y015584D01*
X011833Y015587D01*
X011821Y015589D01*
X011808Y01559D01*
X011793Y015591D01*
Y015669D01*
X011808Y01567D01*
X011821Y015671D01*
X011833Y015673D01*
X011844Y015676D01*
X011852Y015679D01*
X01186Y015683D01*
X011865Y015689D01*
X011869Y015694D01*
X011872Y015701D01*
X011872Y015709D01*
Y015671D01*
D02*
G37*
G36*
X011259Y015701D02*
X011262Y015694D01*
X011266Y015689D01*
X011271Y015683D01*
X011278Y015679D01*
X011287Y015676D01*
X011297Y015673D01*
X011309Y015671D01*
X011322Y01567D01*
X011337Y015669D01*
Y015591D01*
X011322Y01559D01*
X011309Y015589D01*
X011297Y015587D01*
X011287Y015584D01*
X011278Y015581D01*
X011271Y015576D01*
X011266Y015571D01*
X011262Y015565D01*
X011259Y015559D01*
X011259Y015551D01*
Y015709D01*
X011259Y015701D01*
D02*
G37*
G36*
X027943Y015101D02*
X027937Y015107D01*
X027931Y015112D01*
X027924Y015117D01*
X027917Y01512D01*
X027909Y015124D01*
X027901Y015126D01*
X027892Y015128D01*
X027883Y01513D01*
X027874Y015131D01*
X027864Y015131D01*
Y01521D01*
X027874Y01521D01*
X027883Y015211D01*
X027892Y015212D01*
X027901Y015214D01*
X027909Y015217D01*
X027917Y01522D01*
X027924Y015224D01*
X027931Y015229D01*
X027937Y015234D01*
X027943Y015239D01*
Y015101D01*
D02*
G37*
G36*
X024134Y015075D02*
X024128Y01508D01*
X024122Y015085D01*
X024115Y01509D01*
X024108Y015094D01*
X0241Y015097D01*
X024092Y0151D01*
X024084Y015102D01*
X024075Y015103D01*
X024065Y015104D01*
X024055Y015104D01*
Y015183D01*
X024065Y015183D01*
X024075Y015184D01*
X024084Y015186D01*
X024092Y015188D01*
X0241Y01519D01*
X024108Y015194D01*
X024115Y015198D01*
X024122Y015202D01*
X024128Y015207D01*
X024134Y015213D01*
Y015075D01*
D02*
G37*
G36*
X032886Y014947D02*
X032892Y014942D01*
X032898Y014937D01*
X032905Y014933D01*
X032913Y014929D01*
X03292Y014926D01*
X032929Y014924D01*
X032938Y014923D01*
X032947Y014922D01*
X032957Y014921D01*
X032949Y014843D01*
X032939Y014842D01*
X03293Y014841D01*
X032921Y01484D01*
X032912Y014838D01*
X032904Y014836D01*
X032896Y014833D01*
X032888Y014829D01*
X032881Y014825D01*
X032874Y014821D01*
X032868Y014816D01*
X03288Y014953D01*
X032886Y014947D01*
D02*
G37*
G36*
X023684Y014783D02*
X023683Y014791D01*
X02368Y014798D01*
X023676Y014804D01*
X023671Y014809D01*
X023664Y014813D01*
X023655Y014817D01*
X023644Y014819D01*
X023632Y014821D01*
X023619Y014822D01*
X023604Y014823D01*
Y014902D01*
X023619Y014902D01*
X023632Y014903D01*
X023644Y014905D01*
X023655Y014908D01*
X023664Y014911D01*
X023671Y014916D01*
X023676Y014921D01*
X02368Y014927D01*
X023683Y014933D01*
X023684Y014941D01*
Y014783D01*
D02*
G37*
G36*
X024646Y014669D02*
X024647Y014655D01*
X024649Y014643D01*
X024652Y014633D01*
X024656Y014624D01*
X02466Y014617D01*
X024665Y014611D01*
X024671Y014607D01*
X024678Y014605D01*
X024685Y014604D01*
X024528D01*
X024535Y014605D01*
X024542Y014607D01*
X024548Y014611D01*
X024553Y014617D01*
X024557Y014624D01*
X024561Y014633D01*
X024563Y014643D01*
X024565Y014655D01*
X024567Y014669D01*
X024567Y014684D01*
X024646D01*
X024646Y014669D01*
D02*
G37*
G36*
X032374Y014717D02*
X032411Y014685D01*
X032413Y014683D01*
X032415Y014683D01*
X032304Y014601D01*
X032304Y014605D01*
X032303Y014609D01*
X032302Y014613D01*
X032299Y014618D01*
X032296Y014623D01*
X032291Y014629D01*
X03228Y014643D01*
X032274Y01465D01*
X032266Y014658D01*
X032366Y014725D01*
X032374Y014717D01*
D02*
G37*
G36*
X037488Y014616D02*
X037517Y014591D01*
X03753Y014582D01*
X037542Y014575D01*
X037552Y01457D01*
X037562Y014568D01*
X03757Y014568D01*
X037577Y01457D01*
X037583Y014574D01*
X037473Y014464D01*
X037477Y01447D01*
X037479Y014477D01*
X037479Y014486D01*
X037477Y014495D01*
X037472Y014506D01*
X037465Y014517D01*
X037456Y01453D01*
X037445Y014544D01*
X037416Y014576D01*
X037472Y014631D01*
X037488Y014616D01*
D02*
G37*
G36*
X032949Y014513D02*
X032955Y014508D01*
X032962Y014503D01*
X032969Y014499D01*
X032976Y014496D01*
X032984Y014493D01*
X032993Y014491D01*
X033002Y014489D01*
X033011Y014488D01*
X033021Y014488D01*
X033019Y014409D01*
X033009Y014409D01*
X032999Y014408D01*
X03299Y014407D01*
X032982Y014405D01*
X032974Y014402D01*
X032966Y014399D01*
X032958Y014395D01*
X032952Y014391D01*
X032945Y014386D01*
X032939Y014381D01*
X032943Y014519D01*
X032949Y014513D01*
D02*
G37*
G36*
X035386Y01437D02*
X035385Y014378D01*
X035383Y014384D01*
X035379Y01439D01*
X035373Y014395D01*
X035366Y0144D01*
X035357Y014403D01*
X035347Y014406D01*
X035335Y014408D01*
X035322Y014409D01*
X035306Y014409D01*
Y014488D01*
X035322Y014489D01*
X035335Y01449D01*
X035347Y014492D01*
X035357Y014494D01*
X035366Y014498D01*
X035373Y014502D01*
X035379Y014507D01*
X035383Y014513D01*
X035385Y01452D01*
X035386Y014528D01*
Y01437D01*
D02*
G37*
G36*
X036441Y014313D02*
X036435Y014318D01*
X036428Y01432D01*
X03642Y01432D01*
X03641Y014317D01*
X0364Y014313D01*
X036388Y014306D01*
X036375Y014297D01*
X036361Y014286D01*
X03633Y014257D01*
X036274Y014312D01*
X03629Y014328D01*
X036315Y014358D01*
X036324Y01437D01*
X036331Y014382D01*
X036335Y014393D01*
X036337Y014402D01*
X036338Y01441D01*
X036335Y014418D01*
X036331Y014424D01*
X036441Y014313D01*
D02*
G37*
G36*
X038385Y014313D02*
X038383Y014311D01*
X038381Y014309D01*
X03838Y014305D01*
X038379Y0143D01*
X038378Y014295D01*
X038377Y014288D01*
X038376Y014272D01*
X038376Y014262D01*
X038297D01*
X038298Y014312D01*
X038387Y014313D01*
X038385Y014313D01*
D02*
G37*
G36*
X026417Y014234D02*
X026423Y014228D01*
X02643Y014224D01*
X026437Y01422D01*
X026445Y014217D01*
X026453Y014214D01*
X026461Y014212D01*
X02647Y01421D01*
X02648Y014209D01*
X026489Y014209D01*
X026486Y01413D01*
X026476Y01413D01*
X026467Y014129D01*
X026458Y014128D01*
X026449Y014126D01*
X026441Y014123D01*
X026433Y01412D01*
X026426Y014116D01*
X026419Y014112D01*
X026412Y014107D01*
X026406Y014102D01*
X026411Y014239D01*
X026417Y014234D01*
D02*
G37*
G36*
X029024Y014182D02*
X029031Y014176D01*
X029039Y014171D01*
X029046Y014166D01*
X029054Y014162D01*
X029061Y014159D01*
X029069Y014157D01*
X029077Y014155D01*
X029085Y014154D01*
X029093Y014154D01*
X028996Y014056D01*
X028996Y014064D01*
X028995Y014072D01*
X028993Y01408D01*
X028991Y014088D01*
X028988Y014096D01*
X028984Y014104D01*
X028979Y014111D01*
X028974Y014118D01*
X028968Y014126D01*
X028961Y014133D01*
X029017Y014188D01*
X029024Y014182D01*
D02*
G37*
G36*
X011865Y013851D02*
X011859Y013855D01*
X011851Y013857D01*
X011843Y013857D01*
X011834Y013855D01*
X011823Y01385D01*
X011811Y013843D01*
X011799Y013834D01*
X011785Y013823D01*
X011753Y013794D01*
X011697Y01385D01*
X011713Y013866D01*
X011738Y013895D01*
X011747Y013908D01*
X011754Y01392D01*
X011758Y01393D01*
X011761Y01394D01*
X011761Y013948D01*
X011759Y013955D01*
X011754Y013961D01*
X011865Y013851D01*
D02*
G37*
G36*
X025335Y013967D02*
X025336Y013959D01*
X025338Y013951D01*
X02534Y013943D01*
X025343Y013936D01*
X025347Y013928D01*
X025352Y01392D01*
X025357Y013913D01*
X025363Y013906D01*
X02537Y013899D01*
X025314Y013843D01*
X025307Y01385D01*
X0253Y013856D01*
X025292Y013861D01*
X025285Y013866D01*
X025277Y013869D01*
X025269Y013873D01*
X025261Y013875D01*
X025254Y013877D01*
X025245Y013878D01*
X025237Y013878D01*
X025335Y013975D01*
X025335Y013967D01*
D02*
G37*
G36*
X037804Y01389D02*
X037806Y013883D01*
X03781Y013878D01*
X037816Y013872D01*
X037823Y013868D01*
X037831Y013865D01*
X037842Y013862D01*
X037854Y01386D01*
X037867Y013859D01*
X037883Y013858D01*
Y01378D01*
X037867Y013779D01*
X037854Y013778D01*
X037842Y013776D01*
X037831Y013773D01*
X037823Y01377D01*
X037816Y013765D01*
X03781Y01376D01*
X037806Y013754D01*
X037804Y013748D01*
X037803Y01374D01*
Y013898D01*
X037804Y01389D01*
D02*
G37*
G36*
X035717D02*
X035719Y013883D01*
X035723Y013878D01*
X035729Y013872D01*
X035736Y013868D01*
X035745Y013865D01*
X035755Y013862D01*
X035767Y01386D01*
X035781Y013859D01*
X035796Y013858D01*
Y01378D01*
X035781Y013779D01*
X035767Y013778D01*
X035755Y013776D01*
X035745Y013773D01*
X035736Y01377D01*
X035729Y013765D01*
X035723Y01376D01*
X035719Y013754D01*
X035717Y013748D01*
X035716Y01374D01*
Y013898D01*
X035717Y01389D01*
D02*
G37*
G36*
X024636Y013818D02*
X024637Y01381D01*
X024638Y013802D01*
X024641Y013795D01*
X024644Y013787D01*
X024648Y013779D01*
X024652Y013772D01*
X024657Y013764D01*
X024664Y013757D01*
X02467Y01375D01*
X024615Y013694D01*
X024607Y013701D01*
X0246Y013707D01*
X024593Y013712D01*
X024585Y013717D01*
X024578Y013721D01*
X02457Y013724D01*
X024562Y013726D01*
X024554Y013728D01*
X024546Y013729D01*
X024538Y013729D01*
X024635Y013827D01*
X024636Y013818D01*
D02*
G37*
G36*
X028059Y013667D02*
X028057Y013664D01*
X028056Y01366D01*
X028055Y013654D01*
X028054Y013648D01*
X028052Y013633D01*
X028051Y013613D01*
X028051Y013602D01*
X027933D01*
X027933Y013613D01*
X027931Y013648D01*
X02793Y013654D01*
X027928Y01366D01*
X027927Y013664D01*
X027925Y013667D01*
X027923Y01367D01*
X028061D01*
X028059Y013667D01*
D02*
G37*
G36*
X028485Y013652D02*
X028486Y013644D01*
X028487Y013636D01*
X02849Y013628D01*
X028493Y013621D01*
X028497Y013613D01*
X028501Y013605D01*
X028506Y013598D01*
X028512Y013591D01*
X028519Y013584D01*
X028464Y013528D01*
X028456Y013535D01*
X028449Y013541D01*
X028442Y013546D01*
X028434Y013551D01*
X028427Y013554D01*
X028419Y013558D01*
X028411Y01356D01*
X028403Y013562D01*
X028395Y013563D01*
X028387Y013563D01*
X028484Y01366D01*
X028485Y013652D01*
D02*
G37*
G36*
X023501Y013528D02*
X023508Y013523D01*
X023515Y013518D01*
X023522Y013515D01*
X02353Y013511D01*
X023538Y013509D01*
X023546Y013507D01*
X023555Y013505D01*
X023565Y013504D01*
X023574Y013504D01*
Y013425D01*
X023565Y013425D01*
X023555Y013424D01*
X023546Y013423D01*
X023538Y01342D01*
X02353Y013418D01*
X023522Y013415D01*
X023515Y013411D01*
X023508Y013406D01*
X023501Y013401D01*
X023495Y013396D01*
Y013533D01*
X023501Y013528D01*
D02*
G37*
G36*
X01228Y0148D02*
Y014557D01*
X011614D01*
Y013966D01*
X011613Y013965D01*
X011093Y013445D01*
X011054Y013386D01*
X01104Y013317D01*
Y013297D01*
X010955D01*
X010904Y013355D01*
Y014517D01*
X011107Y014721D01*
X012014D01*
X01209Y014736D01*
X012156Y014779D01*
X012207Y014831D01*
X01228Y0148D01*
D02*
G37*
G36*
X024522Y013408D02*
X024529Y013402D01*
X024536Y013396D01*
X024544Y013392D01*
X024551Y013388D01*
X024559Y013384D01*
X024567Y013381D01*
X024575Y013379D01*
X024583Y013378D01*
X024591Y013377D01*
X024487Y013287D01*
X024487Y013295D01*
X024486Y013303D01*
X024485Y013311D01*
X024483Y013319D01*
X02448Y013326D01*
X024477Y013334D01*
X024472Y013341D01*
X024467Y013349D01*
X024461Y013356D01*
X024454Y013363D01*
X024514Y013415D01*
X024522Y013408D01*
D02*
G37*
G36*
X025123Y013353D02*
X02513Y013347D01*
X025137Y013342D01*
X025145Y013338D01*
X025153Y013334D01*
X02516Y013331D01*
X025168Y013328D01*
X025176Y013326D01*
X025184Y013325D01*
X025192Y013325D01*
X025095Y013228D01*
X025095Y013236D01*
X025094Y013244D01*
X025092Y013252D01*
X02509Y01326D01*
X025086Y013268D01*
X025083Y013275D01*
X025078Y013283D01*
X025073Y01329D01*
X025067Y013297D01*
X02506Y013304D01*
X025116Y01336D01*
X025123Y013353D01*
D02*
G37*
G36*
X01126Y013222D02*
X011261Y013208D01*
X011263Y013196D01*
X011266Y013186D01*
X01127Y013177D01*
X011274Y01317D01*
X011279Y013164D01*
X011285Y01316D01*
X011292Y013158D01*
X011299Y013157D01*
X011142D01*
X011149Y013158D01*
X011156Y01316D01*
X011162Y013164D01*
X011167Y01317D01*
X011171Y013177D01*
X011175Y013186D01*
X011178Y013196D01*
X01118Y013208D01*
X011181Y013222D01*
X011181Y013237D01*
X01126D01*
X01126Y013222D01*
D02*
G37*
G36*
X033977Y012995D02*
X033978Y012982D01*
X03398Y01297D01*
X033983Y012959D01*
X033986Y012951D01*
X033991Y012943D01*
X033996Y012938D01*
X034002Y012934D01*
X034008Y012931D01*
X034016Y012931D01*
X033858D01*
X033866Y012931D01*
X033872Y012934D01*
X033878Y012938D01*
X033883Y012943D01*
X033888Y012951D01*
X033891Y012959D01*
X033894Y01297D01*
X033896Y012982D01*
X033897Y012995D01*
X033898Y013011D01*
X033976D01*
X033977Y012995D01*
D02*
G37*
G36*
X025493D02*
X025494Y012982D01*
X025496Y01297D01*
X025498Y012959D01*
X025502Y012951D01*
X025506Y012943D01*
X025511Y012938D01*
X025517Y012934D01*
X025524Y012931D01*
X025531Y012931D01*
X025374D01*
X025381Y012931D01*
X025388Y012934D01*
X025394Y012938D01*
X025399Y012943D01*
X025404Y012951D01*
X025407Y012959D01*
X02541Y01297D01*
X025412Y012982D01*
X025413Y012995D01*
X025413Y013011D01*
X025492D01*
X025493Y012995D01*
D02*
G37*
G36*
X033373Y012991D02*
X033374Y012978D01*
X033376Y012967D01*
X033378Y012957D01*
X033381Y012949D01*
X033385Y012943D01*
X033389Y012937D01*
X033395Y012934D01*
X0334Y012931D01*
X033407Y012931D01*
X03326D01*
X033267Y012931D01*
X033273Y012934D01*
X033278Y012937D01*
X033282Y012943D01*
X033286Y012949D01*
X033289Y012957D01*
X033291Y012967D01*
X033293Y012978D01*
X033294Y012991D01*
X033294Y013005D01*
X033373D01*
X033373Y012991D01*
D02*
G37*
G36*
X024902Y012995D02*
X024903Y012982D01*
X024905Y01297D01*
X024908Y012959D01*
X024911Y012951D01*
X024916Y012943D01*
X024921Y012938D01*
X024927Y012934D01*
X024933Y012931D01*
X024941Y012931D01*
X024783D01*
X024791Y012931D01*
X024798Y012934D01*
X024804Y012938D01*
X024809Y012943D01*
X024813Y012951D01*
X024817Y012959D01*
X024819Y01297D01*
X024821Y012982D01*
X024822Y012995D01*
X024823Y013011D01*
X024902D01*
X024902Y012995D01*
D02*
G37*
G36*
X029981Y012956D02*
X029982Y012942D01*
X029984Y01293D01*
X029987Y01292D01*
X02999Y012911D01*
X029994Y012904D01*
X03Y012898D01*
X030006Y012895D01*
X030012Y012892D01*
X03002Y012891D01*
X029862D01*
X02987Y012892D01*
X029876Y012895D01*
X029882Y012898D01*
X029887Y012904D01*
X029892Y012911D01*
X029895Y01292D01*
X029898Y01293D01*
X0299Y012942D01*
X029901Y012956D01*
X029902Y012971D01*
X02998D01*
X029981Y012956D01*
D02*
G37*
G36*
X02939D02*
X029391Y012942D01*
X029393Y01293D01*
X029396Y01292D01*
X0294Y012911D01*
X029404Y012904D01*
X029409Y012898D01*
X029415Y012895D01*
X029422Y012892D01*
X029429Y012891D01*
X029272D01*
X029279Y012892D01*
X029286Y012895D01*
X029292Y012898D01*
X029297Y012904D01*
X029301Y012911D01*
X029305Y01292D01*
X029307Y01293D01*
X029309Y012942D01*
X029311Y012956D01*
X029311Y012971D01*
X02939D01*
X02939Y012956D01*
D02*
G37*
G36*
X011978Y013099D02*
X011982Y013089D01*
X011988Y01308D01*
X011996Y013072D01*
X012007Y013066D01*
X01202Y013061D01*
X012035Y013056D01*
X012053Y013054D01*
X012073Y013052D01*
X012095Y013051D01*
Y012933D01*
X012073Y012932D01*
X012053Y012931D01*
X012035Y012928D01*
X01202Y012924D01*
X012007Y012918D01*
X011996Y012912D01*
X011988Y012904D01*
X011982Y012895D01*
X011978Y012885D01*
X011977Y012874D01*
Y012967D01*
X011949Y012933D01*
X011927Y01294D01*
X011977Y013056D01*
Y01311D01*
X011978Y013099D01*
D02*
G37*
G36*
X028648Y012953D02*
X028691Y012916D01*
X02871Y012902D01*
X028728Y012892D01*
X028744Y012885D01*
X028758Y012882D01*
X02877Y012882D01*
X028781Y012885D01*
X02879Y012891D01*
X028624Y012725D01*
X028631Y012735D01*
X028634Y012745D01*
X028634Y012758D01*
X028631Y012772D01*
X028624Y012788D01*
X028614Y012805D01*
X0286Y012825D01*
X028583Y012846D01*
X02854Y012893D01*
X028623Y012976D01*
X028648Y012953D01*
D02*
G37*
G36*
X021813Y012467D02*
X021817Y012447D01*
X021825Y012426D01*
X021836Y012403D01*
X021849Y01238D01*
X021866Y012355D01*
X021886Y012329D01*
X021935Y012274D01*
X021965Y012244D01*
X021579Y012244D01*
X021608Y012274D01*
X021657Y012329D01*
X021677Y012355D01*
X021694Y01238D01*
X021708Y012403D01*
X021718Y012426D01*
X021726Y012447D01*
X021731Y012467D01*
X021732Y012485D01*
X021811D01*
X021813Y012467D01*
D02*
G37*
G36*
X011118Y012234D02*
X011161Y012197D01*
X011181Y012184D01*
X011198Y012174D01*
X011214Y012167D01*
X011228Y012164D01*
X011241D01*
X011252Y012167D01*
X011261Y012174D01*
X011094Y012007D01*
X0111Y012016D01*
X011104Y012027D01*
Y01204D01*
X0111Y012054D01*
X011094Y01207D01*
X011084Y012087D01*
X01107Y012106D01*
X011054Y012127D01*
X01101Y012174D01*
X011094Y012258D01*
X011118Y012234D01*
D02*
G37*
G36*
X020465Y011931D02*
X020461Y01192D01*
Y011907D01*
X020465Y011893D01*
X020471Y011877D01*
X020481Y01186D01*
X020495Y01184D01*
X020511Y01182D01*
X020555Y011773D01*
X020471Y011689D01*
X020447Y011713D01*
X020404Y011749D01*
X020384Y011763D01*
X020367Y011773D01*
X020351Y01178D01*
X020337Y011783D01*
X020324D01*
X020313Y01178D01*
X020304Y011773D01*
X020471Y01194D01*
X020465Y011931D01*
D02*
G37*
G36*
X023099Y011523D02*
X023097Y011523D01*
X023094Y011523D01*
X022996Y011524D01*
X022999Y011642D01*
X02301Y011642D01*
X023037Y011644D01*
X023044Y011645D01*
X023051Y011647D01*
X023056Y011649D01*
X02306Y011651D01*
X023063Y011654D01*
X023065Y011656D01*
X023099Y011523D01*
D02*
G37*
%LPC*%
G36*
X024045Y022037D02*
X023514D01*
Y021427D01*
X024045D01*
Y022037D01*
D02*
G37*
G36*
Y020896D02*
X023514D01*
Y020285D01*
X024045D01*
Y020896D01*
D02*
G37*
G36*
X024158Y016976D02*
X024118D01*
X024127Y016972D01*
X024136Y01697D01*
X024145Y01697D01*
X024152Y016972D01*
X024158Y016976D01*
D02*
G37*
G36*
X025024D02*
X024984D01*
X024993Y016972D01*
X025003Y01697D01*
X025011Y01697D01*
X025018Y016972D01*
X025024Y016976D01*
D02*
G37*
%LPD*%
G36*
X011922Y011909D02*
X011916Y011904D01*
X011911Y011898D01*
X011906Y011892D01*
X011901Y011885D01*
X011898Y011878D01*
X011895Y01187D01*
X011893Y011862D01*
X011891Y011853D01*
X01189Y011844D01*
X01189Y011843D01*
X011929D01*
X011922Y011842D01*
X011915Y01184D01*
X011909Y011836D01*
X011904Y01183D01*
X0119Y011823D01*
X011896Y011814D01*
X011893Y011804D01*
X011891Y011792D01*
X01189Y011778D01*
X01189Y011763D01*
X011811D01*
X011811Y011778D01*
X011809Y011792D01*
X011807Y011804D01*
X011805Y011814D01*
X011801Y011823D01*
X011797Y01183D01*
X011792Y011836D01*
X011786Y01184D01*
X011779Y011842D01*
X011772Y011843D01*
X01182D01*
X011811Y011844D01*
X011811Y011854D01*
X01181Y011863D01*
X011809Y011872D01*
X011807Y011881D01*
X011805Y011889D01*
X011802Y011897D01*
X011798Y011905D01*
X011795Y011912D01*
X01179Y011919D01*
X011785Y011926D01*
X011922Y011909D01*
D02*
G37*
G36*
X01189Y011293D02*
X011891Y011279D01*
X011893Y011267D01*
X011896Y011257D01*
X0119Y011248D01*
X011904Y011241D01*
X011909Y011235D01*
X011915Y011231D01*
X011922Y011229D01*
X011929Y011228D01*
X011772D01*
X011779Y011229D01*
X011786Y011231D01*
X011792Y011235D01*
X011797Y011241D01*
X011801Y011248D01*
X011805Y011257D01*
X011807Y011267D01*
X011809Y011279D01*
X011811Y011293D01*
X011811Y011308D01*
X01189D01*
X01189Y011293D01*
D02*
G37*
D11*
X033661Y013504D02*
X033937Y013228D01*
X033092Y013504D02*
X033661D01*
X032047Y014548D02*
Y016496D01*
Y014548D02*
X033092Y013504D01*
X032813Y014882D02*
X037165D01*
X033937Y012559D02*
Y013228D01*
X032804Y014891D02*
X032813Y014882D01*
X028366Y014783D02*
Y018612D01*
Y014783D02*
X029094Y014055D01*
X024606Y014764D02*
X025013Y01517D01*
X028013D01*
X024862Y012362D02*
Y013502D01*
X024537Y013828D02*
X024862Y013502D01*
X031444Y01811D02*
X031577Y017978D01*
X032032D01*
X030945Y01811D02*
X031444D01*
X026101Y011065D02*
Y012362D01*
X02626Y010906D02*
Y010946D01*
X026101Y011065D02*
X02624Y010926D01*
X02626Y010946D02*
X026284Y01097D01*
X026101Y012362D02*
Y014573D01*
X02189Y016772D02*
X021905Y016787D01*
X023252D01*
X023819Y01622D01*
X021889Y016772D02*
Y016787D01*
Y016772D02*
X02189Y016772D01*
X033334Y012375D02*
X033346Y012362D01*
X031918Y01442D02*
X033334Y013005D01*
X031918Y01442D02*
Y016389D01*
X033334Y012375D02*
Y013005D01*
X037165Y014882D02*
X037598Y014449D01*
X031287Y017256D02*
X032047Y016496D01*
X031339Y016968D02*
X031918Y016389D01*
X030826Y020242D02*
Y020581D01*
X028386Y013661D02*
X028546Y013501D01*
X011968Y01563D02*
X012008Y015669D01*
X014134Y015866D02*
X014646Y015354D01*
X018228D01*
X019016Y014567D01*
X022441D01*
X023018Y015144D01*
X024205D01*
X024187Y015636D02*
X024587Y015236D01*
X023346Y017874D02*
Y02D01*
X024173Y01689D02*
X024175Y016891D01*
Y017243D01*
X025045Y016845D02*
X025079Y016811D01*
X025045Y016845D02*
Y019466D01*
X027165Y017676D02*
Y017677D01*
X029921Y017874D02*
X030079Y017717D01*
Y017323D02*
Y017717D01*
X02748Y017913D02*
X027579Y018012D01*
Y018612D01*
X011651Y01248D02*
X015591D01*
X011496Y012326D02*
X011651Y01248D01*
X011496Y011267D02*
Y012326D01*
X01122Y011102D02*
X011309Y011191D01*
X01142D02*
X011496Y011267D01*
X01122Y011063D02*
Y011102D01*
X011309Y011191D02*
X01142D01*
X017079Y013968D02*
Y014449D01*
X015591Y01248D02*
X017079Y013968D01*
X01185Y011063D02*
Y012008D01*
X026101Y014573D02*
X026181Y014653D01*
Y014685D01*
X026619Y016614D02*
Y016885D01*
Y016614D02*
X027756D01*
X026614D02*
X026619D01*
X027756D02*
X027756Y016614D01*
X023787Y016035D02*
X024187Y015636D01*
X025793D01*
X026063Y015906D01*
X024606Y014488D02*
Y014764D01*
X028701Y017008D02*
X02878Y016929D01*
Y016614D02*
Y016929D01*
X027172Y017004D02*
Y017259D01*
X026791Y017639D02*
X027172Y017259D01*
X026791Y017639D02*
Y018612D01*
X026988Y017854D02*
X027165Y017677D01*
X026988Y017854D02*
Y018612D01*
X026594Y0175D02*
X026693Y017402D01*
X026594Y0175D02*
Y018612D01*
X019532Y016035D02*
X023787D01*
X024587Y015236D02*
X024606D01*
X019449Y015953D02*
X019532Y016035D01*
X025315Y018189D02*
X026619Y016885D01*
X025315Y018189D02*
Y019179D01*
X025511Y019374D02*
X025801D01*
X025315Y019179D02*
X025511Y019374D01*
X025801D02*
X025817Y01939D01*
X025045Y019466D02*
X025362Y019783D01*
X024916Y018622D02*
Y019581D01*
X025173Y017876D02*
X025413Y017636D01*
X025173Y019296D02*
X025464Y019587D01*
X025173Y017876D02*
Y019296D01*
X024916Y019581D02*
X025315Y01998D01*
X024601Y018307D02*
X024916Y018622D01*
X024678Y018795D02*
X024747Y018864D01*
X024678Y01878D02*
Y018795D01*
X02437Y018307D02*
X024601D01*
X024747Y018864D02*
Y018878D01*
X024754Y018885D02*
Y019695D01*
X024747Y018878D02*
X024754Y018885D01*
Y019695D02*
X025236Y020177D01*
X024449Y018937D02*
X024616Y019104D01*
Y019823D01*
X024616Y019823D02*
Y019888D01*
Y019823D02*
X024616Y019823D01*
X024616Y019888D02*
X025102Y020374D01*
X028563Y018612D02*
X028569Y018606D01*
Y01773D02*
X029331Y016968D01*
X028569Y01773D02*
Y018606D01*
X024998Y013422D02*
Y014457D01*
Y013422D02*
X025193Y013227D01*
X025453Y012362D02*
Y01376D01*
X025236Y013976D02*
X025453Y01376D01*
X024998Y014457D02*
X025053Y014512D01*
Y014543D01*
X024154Y01687D02*
X024173Y01685D01*
X023701Y017323D02*
X024154Y01687D01*
X026789Y01918D02*
Y019829D01*
Y01918D02*
X026789Y01918D01*
X026789Y01983D02*
X026789Y019829D01*
X037598Y014449D02*
X037638D01*
X032874D02*
X035551D01*
X030571Y020837D02*
X030826Y020581D01*
X031503Y02171D02*
X031873D01*
X031476Y021736D02*
X031503Y02171D01*
X031873D02*
X033065Y020518D01*
X0342D01*
X034465Y020252D01*
X034724Y01874D02*
Y01875D01*
X034465Y019009D02*
X034724Y01875D01*
X034465Y019009D02*
Y020252D01*
X033189Y021378D02*
Y024803D01*
Y021378D02*
X033622Y020945D01*
X034094D01*
X026654Y015984D02*
X027756D01*
X026407Y01622D02*
X026644Y015984D01*
X025079Y01622D02*
X026407D01*
X026644Y015984D02*
X026654D01*
X024567Y016535D02*
X02563D01*
X025039Y01685D02*
X025079D01*
X027756Y016614D02*
X027776Y016634D01*
Y017591D02*
X027776Y017591D01*
X027776Y016634D02*
Y017591D01*
X027776Y017591D02*
Y018612D01*
X026339Y014173D02*
X026342Y01417D01*
X028429D01*
X028858Y01374D01*
X029567D01*
X029941Y012323D02*
Y013366D01*
X029567Y01374D02*
X029941Y013366D01*
X029114Y013501D02*
X02935Y013265D01*
X028546Y013501D02*
X029114D01*
X02935Y012323D02*
Y013265D01*
X024252Y01685D02*
X024567Y016535D01*
X024213Y01685D02*
X024252D01*
X024585Y013279D02*
Y013289D01*
X023425Y013465D02*
X024409D01*
X024585Y013289D01*
X024272Y010925D02*
Y012362D01*
X02298Y017987D02*
Y018516D01*
X022874Y018622D02*
X02298Y018516D01*
X020984Y018346D02*
Y019724D01*
X022992Y022165D02*
Y024685D01*
X022874Y024803D02*
X022992Y024685D01*
X021181Y020703D02*
Y021969D01*
X02148Y020197D02*
Y020404D01*
X021181Y020703D02*
X02148Y020404D01*
X021181Y021969D02*
X02126Y022047D01*
X021496D01*
X021575Y022126D01*
X021654Y023228D02*
X022165Y02374D01*
X022638D01*
X024213Y02437D02*
Y024372D01*
Y02437D02*
X024449Y024134D01*
X025787Y024134D02*
X025827Y024173D01*
X025433Y024134D02*
X025787D01*
X025472Y025787D02*
X02626Y025D01*
Y023391D02*
Y025D01*
X027756Y015984D02*
X027766D01*
X02815Y016368D01*
Y01748D01*
X027972Y017657D02*
X02815Y01748D01*
X027972Y017657D02*
Y018612D01*
X024291Y010906D02*
X02626D01*
X023465D02*
X024291D01*
X024272Y010925D02*
X024291Y010906D01*
X02815Y010866D02*
X030748D01*
X027362D02*
X02815D01*
X028169Y010886D02*
Y012323D01*
X02815Y010866D02*
X028169Y010886D01*
X030748Y010866D02*
X031909D01*
X031949Y010906D01*
X027323D02*
X027362Y010866D01*
X02626Y010906D02*
X027323D01*
X025817Y019193D02*
X026194D01*
X026417Y019416D02*
Y021235D01*
X026194Y019193D02*
X026417Y019416D01*
X027264Y020389D02*
X027972Y01968D01*
Y020846D01*
Y018612D02*
Y01968D01*
X027264Y020389D02*
X027264D01*
X026969Y020684D02*
X027264Y020389D01*
X026413Y02124D02*
X026969Y020684D01*
Y020684D02*
Y020684D01*
X026413Y02124D02*
Y021923D01*
X026791Y021352D02*
X026938Y021205D01*
X026791Y021352D02*
Y021939D01*
X022502Y018762D02*
X02298Y01924D01*
X022109Y018762D02*
X022502D01*
X022465Y018003D02*
Y018478D01*
X022419Y018524D02*
X022465Y018478D01*
Y018003D02*
X02248Y017987D01*
X021701Y018524D02*
X022419D01*
X02148Y018744D02*
X021701Y018524D01*
X02148Y018744D02*
Y020197D01*
X02374Y018307D02*
Y018346D01*
X023701D02*
Y018701D01*
X028169Y019272D02*
X028307Y019409D01*
X028169Y018612D02*
Y019272D01*
X020743Y017987D02*
X02148D01*
X020512Y017756D02*
X020743Y017987D01*
X029331Y016968D02*
X031339D01*
X029145Y020966D02*
X030579D01*
X029144Y020965D02*
X029145Y020966D01*
X030579D02*
X030786Y021174D01*
X029951Y020768D02*
X03002Y020837D01*
X030571D01*
X029144Y020768D02*
X029951D01*
X032756Y010906D02*
X034744D01*
X031949D02*
X032756D01*
Y012362D01*
X026398Y021939D02*
X026413Y021923D01*
X025172Y020965D02*
X025817D01*
X024409Y021693D02*
Y021732D01*
X025157Y021161D02*
X025817D01*
X024532Y021604D02*
X025172Y020965D01*
X024764Y021555D02*
X025157Y021161D01*
X025128Y021527D02*
X025135D01*
X024498Y021604D02*
X024532D01*
X024764Y021555D02*
Y022101D01*
X024409Y021693D02*
X024498Y021604D01*
X025135Y021527D02*
X025304Y021358D01*
X025817D01*
X035866Y026791D02*
Y027795D01*
X035236Y028425D02*
X035866Y027795D01*
X027626Y028425D02*
X035236D01*
X024528D02*
X027626D01*
X028189Y027863D01*
Y024764D02*
Y027863D01*
X027024Y024787D02*
Y025023D01*
X025197Y02685D02*
X027024Y025023D01*
Y024787D02*
X027047Y024764D01*
X02189Y028425D02*
X024528D01*
X025197Y027756D01*
Y02685D02*
Y027756D01*
X026457Y023386D02*
Y025079D01*
X024803Y026181D02*
X025354D01*
X026457Y025079D01*
X024453Y026532D02*
X024803Y026181D01*
X021102Y022677D02*
X021299Y022874D01*
X022598D01*
X036368Y01435D02*
X036526Y014508D01*
X036614D01*
X035551Y013819D02*
X035837D01*
X036368Y01435D01*
Y01435D01*
X038494Y01376D02*
X038583D01*
X03666Y013386D02*
X03812D01*
X036614Y013432D02*
X03666Y013386D01*
X036614Y013432D02*
Y01376D01*
X03812Y013386D02*
X038494Y01376D01*
X037894Y013819D02*
X038337Y014262D01*
X038494Y014508D02*
X038583D01*
X037638Y013819D02*
X037894D01*
X038337Y014262D02*
Y01435D01*
X038494Y014508D01*
X039213Y013937D02*
Y015724D01*
X039189Y015748D02*
X039213Y015724D01*
X039035Y01376D02*
X039213Y013937D01*
X038583Y01376D02*
X039035D01*
X024732Y022953D02*
X02485Y022835D01*
X024882D01*
X025734Y022756D02*
X026339D01*
X026594Y0225D01*
X026378Y023071D02*
X026988Y022461D01*
X024582Y023528D02*
X025039Y023071D01*
X026378D01*
X02626Y023391D02*
X027173Y022478D01*
X026594Y021939D02*
Y0225D01*
X024688Y022442D02*
X026255D01*
X026398Y0223D01*
Y021939D02*
Y0223D01*
X024042Y022385D02*
X02448D01*
X023782Y022645D02*
X024042Y022385D01*
X023782Y022645D02*
Y02295D01*
X02378Y022953D02*
X023782Y02295D01*
X02448Y022385D02*
X024764Y022101D01*
X031744Y017629D02*
X031744D01*
X031425Y017948D02*
X031744Y017629D01*
X030851Y017948D02*
X031425D01*
X031744Y017629D02*
X031912Y017461D01*
X029803Y018583D02*
X031001Y017385D01*
X031813Y017223D02*
X032935D01*
X031651Y017385D02*
X031813Y017223D01*
X031001Y017385D02*
X031651D01*
X032935Y017223D02*
X034189Y015969D01*
X030885Y017713D02*
X03114D01*
X031154Y017699D01*
X030866Y018497D02*
X031124Y018239D01*
X032233D01*
X034173Y016299D01*
X030354Y018701D02*
X030945Y01811D01*
X030866Y018497D02*
Y019173D01*
X030354Y018701D02*
Y019213D01*
X03024Y018559D02*
X03024D01*
X030851Y017948D01*
X030069Y01873D02*
X03024Y018559D01*
X030069Y01873D02*
Y019301D01*
X03314Y019242D02*
X03315Y019252D01*
X030994Y019242D02*
X03314D01*
X030394Y019843D02*
X030994Y019242D01*
X030354Y019843D02*
X030394D01*
X033465Y017402D02*
Y018228D01*
Y017402D02*
X034094Y016772D01*
X034638Y016299D02*
X035189Y015748D01*
X034173Y016299D02*
X034638D01*
X030464Y019575D02*
X030866Y019173D01*
X033465Y018228D02*
Y019213D01*
X034094Y019843D01*
Y019882D01*
X034189Y015748D02*
Y015969D01*
X030933Y017256D02*
X031287D01*
X029932Y018666D02*
X030885Y017713D01*
X029664Y018524D02*
X030933Y017256D01*
X029664Y018524D02*
Y019036D01*
X029508Y019193D02*
X029664Y019036D01*
X029144Y019193D02*
X029508D01*
X029803Y018583D02*
Y01919D01*
X029587Y019783D02*
X030069Y019301D01*
X029144Y01939D02*
X029604D01*
X029144Y019587D02*
X029589D01*
X029932Y018666D02*
Y019244D01*
X029604Y01939D02*
X029803Y01919D01*
X029589Y019587D02*
X029932Y019244D01*
X029144Y019783D02*
X029587D01*
X024409Y022953D02*
X024732D01*
X024582Y023528D02*
X024582D01*
X022045Y026065D02*
X024582Y023528D01*
X024449Y024134D02*
X024724D01*
X01122Y012992D02*
Y013317D01*
X011949Y014045D01*
X024213Y01622D02*
X025079D01*
X023819D02*
X024213D01*
X018315Y015961D02*
X019441D01*
X019449Y015953D01*
X018307Y015969D02*
X018315Y015961D01*
X030067Y019575D02*
X030464D01*
X029662Y01998D02*
X030067Y019575D01*
X02998Y020177D02*
X030315Y019843D01*
X011122Y01563D02*
X011968D01*
X028484Y021358D02*
X029144D01*
X027972Y020846D02*
X028484Y021358D01*
X024416Y022713D02*
X024688Y022442D01*
X024416Y022713D02*
Y022946D01*
X024409Y022953D02*
X024416Y022946D01*
X021772Y012047D02*
X021772Y012047D01*
Y013386D01*
X023248Y014862D02*
X023819D01*
X021772Y013386D02*
X023248Y014862D01*
X023701Y018346D02*
X02374Y018307D01*
X021193Y017469D02*
X021496Y017165D01*
X02298Y01924D02*
Y020197D01*
X01928Y017469D02*
X021193D01*
X033641Y022218D02*
Y023641D01*
X034189Y024189D01*
X033641Y022218D02*
X033851Y022008D01*
X034055D01*
X034189Y024189D02*
Y024803D01*
X029144Y01998D02*
X029662D01*
X030315Y019843D02*
X030354D01*
X029144Y020177D02*
X02998D01*
X030335Y020571D02*
X030354Y020591D01*
X029144Y020571D02*
X030335D01*
X029783Y021161D02*
X030358Y021736D01*
X031476D01*
X029144Y021161D02*
X029783D01*
X029144Y021358D02*
X029733D01*
X030354Y021979D01*
Y022244D01*
X028959Y025377D02*
X029664Y026081D01*
X032786D01*
X034067Y027362D01*
X028819Y025479D02*
X02955Y02621D01*
X031415D02*
X032567Y027362D01*
X02955Y02621D02*
X031415D01*
X035683Y023531D02*
Y024996D01*
X034774Y023159D02*
X035312D01*
X035683Y023531D01*
X034685Y023071D02*
X034774Y023159D01*
X034685Y023031D02*
Y023071D01*
X036683Y023156D02*
Y024996D01*
X035663Y022136D02*
X036683Y023156D01*
X034774Y022136D02*
X035663D01*
X034685Y022008D02*
Y022047D01*
X034774Y022136D01*
X035606Y020945D02*
X037686Y023025D01*
Y025826D01*
X034724Y020945D02*
X035606D01*
X034764Y019921D02*
X03565D01*
X038683Y022955D02*
Y024996D01*
X03565Y019921D02*
X038683Y022955D01*
X025464Y019587D02*
X025817D01*
X025362Y019783D02*
X025817D01*
X025315Y01998D02*
X025817D01*
X025236Y020177D02*
X025817D01*
X025102Y020374D02*
X025817D01*
X02062Y028465D02*
X022045Y027039D01*
Y026065D02*
Y027039D01*
X01637Y027362D02*
X016492Y027484D01*
Y027863D02*
X017093Y028465D01*
X016492Y027484D02*
Y027863D01*
X017093Y028465D02*
X02062D01*
X026988Y021939D02*
Y022461D01*
X027173Y021951D02*
Y022478D01*
X01878Y016968D02*
X01928Y017469D01*
X018307Y016968D02*
X01878D01*
X02148Y017575D02*
Y017987D01*
X024173Y01685D02*
X024213D01*
X02148Y017575D02*
X021732Y017323D01*
X024173Y01689D02*
X024213Y01685D01*
X02198Y017526D02*
Y017987D01*
X024409Y01748D02*
X025039Y01685D01*
X022026Y01748D02*
X024409D01*
X02198Y017526D02*
X022026Y01748D01*
X011171Y018268D02*
X012057D01*
X028959Y02349D02*
Y025377D01*
X028563Y021939D02*
Y023094D01*
X028959Y02349D01*
X028661Y023583D02*
Y025551D01*
X029449Y026339D02*
X029882D01*
X028661Y025551D02*
X029449Y026339D01*
X028819Y023543D02*
Y025479D01*
X029882Y026339D02*
X030906Y027362D01*
X031067D01*
X028366Y023091D02*
X028819Y023543D01*
X028169Y023091D02*
X028661Y023583D01*
X028366Y021939D02*
Y023091D01*
X028169Y021939D02*
Y023091D01*
X028533Y023651D02*
Y025687D01*
X029567Y026721D02*
Y027362D01*
X028533Y025687D02*
X029567Y026721D01*
X027972Y023091D02*
X028533Y023651D01*
X027776Y021939D02*
Y025098D01*
X027453Y025421D02*
X027776Y025098D01*
X027972Y021939D02*
Y023091D01*
X027453Y025421D02*
Y027362D01*
X025953Y026567D02*
Y027362D01*
Y026567D02*
X027579Y024941D01*
Y021939D02*
Y024941D01*
X024453Y026532D02*
Y027362D01*
X026457Y023386D02*
X027382Y022461D01*
Y021939D02*
Y022461D01*
X027173Y021951D02*
X027185Y021939D01*
X023189Y025787D02*
X025472D01*
X022953Y026024D02*
X023189Y025787D01*
X022953Y026024D02*
Y027362D01*
X034724Y019882D02*
X034764Y019921D01*
X038683Y024996D02*
X039055Y025368D01*
Y026043D01*
X037686Y025826D02*
X037904Y026043D01*
X037992D01*
X036683Y024996D02*
X036929Y025242D01*
Y026043D01*
X035683Y024996D02*
X035866Y025179D01*
Y026043D01*
X035189Y024677D02*
Y024803D01*
X034055Y023543D02*
X035189Y024677D01*
X034055Y023031D02*
Y023543D01*
X02437Y019606D02*
Y02D01*
X024941Y020571D01*
X025817D01*
X024409Y020591D02*
Y02063D01*
X024547Y020768D02*
X025817D01*
X024409Y02063D02*
X024547Y020768D01*
X021732Y017323D02*
X023701D01*
X02298Y020197D02*
Y021484D01*
X022992Y021496D01*
X022244Y020866D02*
Y021457D01*
X022283Y021496D01*
X022244Y020866D02*
X02248Y02063D01*
Y020197D02*
Y02063D01*
X021575Y021496D02*
X021575Y021496D01*
X021575Y020809D02*
Y021496D01*
X02198Y020197D02*
Y020404D01*
X021575Y020809D02*
X02198Y020404D01*
X011949Y014045D02*
Y014134D01*
D12*
X015394Y023976D02*
D03*
X016496D02*
D03*
X015394Y024975D02*
D03*
X016502Y026042D02*
D03*
X016496Y024961D02*
D03*
X014173Y026024D02*
D03*
Y023976D02*
D03*
X014213Y024961D02*
D03*
X015394Y026024D02*
D03*
X01063Y020109D02*
D03*
D14*
X02298Y020197D02*
D03*
D15*
X02148Y020197D02*
D03*
X02248D02*
D03*
X02198D02*
D03*
X02298Y017987D02*
D03*
X02248D02*
D03*
X02198D02*
D03*
X02148D02*
D03*
D18*
X013248Y017717D02*
D03*
X016909D02*
D03*
D19*
X020591Y021614D02*
D03*
D20*
X018268Y020709D02*
D03*
Y021614D02*
D03*
Y02252D02*
D03*
D21*
X02937Y024134D02*
D03*
Y024764D02*
D03*
X030354Y022244D02*
D03*
Y022874D02*
D03*
X028189Y024134D02*
D03*
Y024764D02*
D03*
X027047Y024134D02*
D03*
Y024764D02*
D03*
X027756Y015984D02*
D03*
Y016614D02*
D03*
X026654Y015984D02*
D03*
Y016614D02*
D03*
D22*
X030079Y017323D02*
D03*
Y016693D02*
D03*
X037638Y013819D02*
D03*
Y014449D02*
D03*
X035551Y013819D02*
D03*
Y014449D02*
D03*
X025827Y024173D02*
D03*
Y024803D02*
D03*
X024724Y024134D02*
D03*
Y024764D02*
D03*
X025079Y01685D02*
D03*
Y01622D02*
D03*
X024213Y01685D02*
D03*
Y01622D02*
D03*
X022992Y022126D02*
D03*
Y021496D02*
D03*
X022283Y022126D02*
D03*
Y021496D02*
D03*
X021575Y022126D02*
D03*
Y021496D02*
D03*
X030354Y019213D02*
D03*
Y019843D02*
D03*
X02878Y016614D02*
D03*
Y015984D02*
D03*
X030354Y02122D02*
D03*
Y020591D02*
D03*
D23*
X026398Y018612D02*
D03*
X026594D02*
D03*
X026791D02*
D03*
X026988D02*
D03*
X027185D02*
D03*
X027382D02*
D03*
X027579D02*
D03*
X027776D02*
D03*
X027972D02*
D03*
X028169D02*
D03*
X028366D02*
D03*
X028563D02*
D03*
Y021939D02*
D03*
X028366D02*
D03*
X028169D02*
D03*
X027972D02*
D03*
X027776D02*
D03*
X027579D02*
D03*
X027382D02*
D03*
X027185D02*
D03*
X026988D02*
D03*
X026791D02*
D03*
X026594D02*
D03*
X026398D02*
D03*
D24*
X029144Y019193D02*
D03*
Y01939D02*
D03*
Y019587D02*
D03*
Y019783D02*
D03*
Y01998D02*
D03*
Y020177D02*
D03*
Y020374D02*
D03*
Y020571D02*
D03*
Y020768D02*
D03*
Y020965D02*
D03*
Y021161D02*
D03*
Y021358D02*
D03*
X025817D02*
D03*
Y021161D02*
D03*
Y020965D02*
D03*
Y020768D02*
D03*
Y020571D02*
D03*
Y020374D02*
D03*
Y020177D02*
D03*
Y01998D02*
D03*
Y019783D02*
D03*
Y019587D02*
D03*
Y01939D02*
D03*
Y019193D02*
D03*
D25*
X038583Y014508D02*
D03*
Y01376D02*
D03*
X036614Y014508D02*
D03*
Y01376D02*
D03*
X035866Y026043D02*
D03*
Y026791D02*
D03*
X036929D02*
D03*
Y026043D02*
D03*
X039055Y026791D02*
D03*
Y026043D02*
D03*
X037992Y026791D02*
D03*
Y026043D02*
D03*
D26*
X02126Y016772D02*
D03*
X02189D02*
D03*
X02374Y019606D02*
D03*
X02437D02*
D03*
X02378Y020591D02*
D03*
X024409D02*
D03*
X02378Y021732D02*
D03*
X024409D02*
D03*
X034055Y023031D02*
D03*
X034685D02*
D03*
X034055Y022008D02*
D03*
X034685D02*
D03*
X034094Y019882D02*
D03*
X034724D02*
D03*
X034094Y020945D02*
D03*
X034724D02*
D03*
X02374Y018307D02*
D03*
X02437D02*
D03*
X024409Y022953D02*
D03*
X02378D02*
D03*
X01185Y012008D02*
D03*
X01122D02*
D03*
Y012992D02*
D03*
X01185D02*
D03*
X01122Y011063D02*
D03*
X01185D02*
D03*
D27*
X023465Y010906D02*
D03*
X02626D02*
D03*
X027362Y010866D02*
D03*
X030748D02*
D03*
X031949Y010906D02*
D03*
X034744D02*
D03*
D28*
X024272Y012362D02*
D03*
X024862D02*
D03*
X025453Y012362D02*
D03*
X02935Y012323D02*
D03*
X02876Y012323D02*
D03*
X028169D02*
D03*
X029941Y012323D02*
D03*
X032756Y012362D02*
D03*
X033346D02*
D03*
X033937Y012362D02*
D03*
D29*
X034724Y01748D02*
D03*
X034094D02*
D03*
X034724Y01874D02*
D03*
X034094D02*
D03*
D30*
X024606Y014488D02*
D03*
Y015236D02*
D03*
X023819Y014862D02*
D03*
D31*
X011122Y01563D02*
D03*
Y017441D02*
D03*
X012008Y01563D02*
D03*
Y017441D02*
D03*
X011171Y018268D02*
D03*
Y020079D02*
D03*
X012057Y018268D02*
D03*
Y020079D02*
D03*
D32*
X011654Y024764D02*
D03*
Y026575D02*
D03*
X019173Y025748D02*
D03*
Y023937D02*
D03*
D33*
X011654Y02126D02*
D03*
Y023071D02*
D03*
D34*
X011949Y014134D02*
D03*
X011201D02*
D03*
D68*
X015394Y024975D02*
D03*
D69*
X016732Y020773D02*
D03*
X016063D02*
D03*
X015396D02*
D03*
X014724D02*
D03*
X014055D02*
D03*
D70*
X032231Y014776D02*
X032401Y014606D01*
X032231Y014776D02*
Y016793D01*
X032401Y014585D02*
Y014606D01*
X01185Y012992D02*
X012323D01*
X01248Y01315D02*
Y014969D01*
X013752Y01624D02*
X0156D01*
X01248Y014969D02*
X013752Y01624D01*
X012587Y015495D02*
Y021475D01*
X012014Y014921D02*
X012587Y015495D01*
X011024Y014921D02*
X012014D01*
X030354Y022244D02*
X030357Y022247D01*
X030839D01*
X023079Y011592D02*
X023135D01*
X020661Y011583D02*
X023071D01*
X023135Y011592D02*
X02315Y011607D01*
X023071Y011583D02*
X023079Y011592D01*
X020197Y012047D02*
X020661Y011583D01*
X027992Y013524D02*
Y01374D01*
X02876Y012323D02*
Y012756D01*
X027992Y013524D02*
X02876Y012756D01*
X010515Y011493D02*
X010945Y011063D01*
X01122D01*
X015433Y017874D02*
X016752D01*
X016909Y017717D01*
X016575Y017146D02*
X016909Y01748D01*
Y017717D01*
X0156Y01624D02*
X016506Y017146D01*
X016575D01*
X012323Y012992D02*
X01248Y01315D01*
X024764Y024764D02*
X025118Y024409D01*
Y023583D02*
Y024409D01*
X024724Y024764D02*
X024764D01*
X011122Y016634D02*
X01126Y016496D01*
X011122Y016634D02*
Y017441D01*
X010515Y011493D02*
Y01709D01*
X010866Y017441D01*
X010703Y012565D02*
Y014601D01*
Y012565D02*
X01122Y012047D01*
X010703Y014601D02*
X011024Y014921D01*
X010866Y017441D02*
X011122D01*
X012587Y021475D02*
X013039Y021927D01*
X01122Y012008D02*
Y012047D01*
X031476Y021736D02*
X031535Y021795D01*
Y022362D01*
X030354Y022874D02*
X031024D01*
X031535Y022362D01*
X030354Y022874D02*
Y024488D01*
X030079Y024764D02*
X030354Y024488D01*
X02937Y024764D02*
X030079D01*
X02937Y025486D02*
X029787Y025903D01*
X02937Y024764D02*
Y025486D01*
X029787Y025903D02*
X034092D01*
X03498Y026791D01*
X035866D01*
D71*
X034724Y01874D02*
X034724Y01874D01*
X034724Y018032D02*
Y01874D01*
Y01748D02*
Y018032D01*
X022283Y022126D02*
X022992D01*
X015395Y019253D02*
X015396Y019254D01*
X015394Y019252D02*
X015395Y019253D01*
X015396Y019254D02*
Y020773D01*
X039189Y015748D02*
Y016717D01*
X038425Y01748D02*
X039189Y016717D01*
X034724Y01748D02*
X038425D01*
X037992Y026791D02*
X039055D01*
X036929D02*
X037992D01*
X035866D02*
X036929D01*
X019173Y025748D02*
X019764D01*
X020197Y026181D01*
Y027835D01*
X020008Y028024D02*
X020197Y027835D01*
X01787Y027362D02*
X018532Y028024D01*
X020008D01*
X011654Y026351D02*
X011752Y026253D01*
X013944D02*
X014173Y026024D01*
X011752Y026253D02*
X013944D01*
X011654Y026351D02*
Y026575D01*
X016502Y026042D02*
X017552D01*
X01787Y02636D02*
Y027362D01*
X017552Y026042D02*
X01787Y02636D01*
X021575Y022126D02*
X022283D01*
X015396Y022008D02*
Y024973D01*
X011122Y017441D02*
X012008D01*
X010645Y020094D02*
X011156D01*
X011171Y020079D01*
X01063Y020109D02*
X010645Y020094D01*
X011171Y020079D02*
X012057D01*
X015396Y020773D02*
Y022008D01*
X016732Y020773D02*
Y02189D01*
X015396Y022008D02*
X016614D01*
X016732Y02189D01*
X015394Y024975D02*
X015396Y024973D01*
D72*
X01185Y012008D02*
X011862Y011996D01*
Y011987D02*
Y011996D01*
X021257Y016754D02*
X02126Y016756D01*
Y016772D01*
X015394Y024975D02*
X01646Y026042D01*
X016502D01*
D73*
X019473Y021622D02*
X019481Y021614D01*
X020591D01*
X019466D02*
X019473Y021622D01*
X018268Y021614D02*
X019466D01*
X019484Y017988D02*
X020052D01*
X020591Y018527D02*
Y021614D01*
X019449Y017953D02*
X019484Y017988D01*
X020052D02*
X020591Y018527D01*
X018315Y017961D02*
X019441D01*
X019449Y017953D01*
X018307Y017968D02*
X018315Y017961D01*
X034094Y01748D02*
Y01874D01*
X034094Y01874D01*
X019134Y024107D02*
X019173Y024067D01*
X01857Y024107D02*
X019134D01*
X018386Y024291D02*
X01857Y024107D01*
X019173Y023937D02*
Y024067D01*
X018386Y024291D02*
Y026457D01*
X019291Y027362D02*
X01937D01*
X018386Y026457D02*
X019291Y027362D01*
X02087Y026264D02*
Y027362D01*
X020591Y025984D02*
X02087Y026264D01*
X020591Y021614D02*
Y025984D01*
D74*
X020197Y012047D02*
D03*
D75*
X021772D02*
D03*
D76*
X033189Y015748D02*
D03*
X034189D02*
D03*
X035189D02*
D03*
X036189D02*
D03*
X037189D02*
D03*
X038189D02*
D03*
X039189D02*
D03*
X033189Y024803D02*
D03*
X034189D02*
D03*
X035189D02*
D03*
X036189D02*
D03*
X037189D02*
D03*
X038189D02*
D03*
X039189D02*
D03*
X031476Y018736D02*
D03*
Y020736D02*
D03*
Y021736D02*
D03*
Y019736D02*
D03*
X019398Y019331D02*
D03*
D77*
X031181Y015315D02*
D03*
X021732D02*
D03*
X031181Y025157D02*
D03*
X021732D02*
D03*
D78*
X037559Y011968D02*
D03*
Y028504D02*
D03*
D79*
X024453Y027362D02*
D03*
X022953D02*
D03*
X027453D02*
D03*
X025953D02*
D03*
X01787D02*
D03*
X01637D02*
D03*
X02087D02*
D03*
X01937D02*
D03*
X031067D02*
D03*
X029567D02*
D03*
X034067D02*
D03*
X032567D02*
D03*
D80*
X017547Y011417D02*
D03*
X01361D02*
D03*
D81*
X015079Y014449D02*
D03*
X016079D02*
D03*
X014079D02*
D03*
X013079D02*
D03*
X017079D02*
D03*
X018079D02*
D03*
D82*
X018307Y016968D02*
D03*
Y015969D02*
D03*
X019449Y016953D02*
D03*
Y015953D02*
D03*
D83*
X018307Y017968D02*
D03*
X019449Y017953D02*
D03*
D84*
X013661Y028622D02*
D03*
X011693D02*
D03*
D85*
X018398Y019331D02*
D03*
D86*
X032401Y014585D02*
D03*
X032804Y014891D02*
D03*
X028013Y01517D02*
D03*
X032032Y017978D02*
D03*
X026284Y01097D02*
D03*
X023465Y010906D02*
D03*
X021889Y016787D02*
D03*
X032231Y016793D02*
D03*
X030826Y020242D02*
D03*
X029094Y014055D02*
D03*
X028386Y013661D02*
D03*
X014134Y015866D02*
D03*
X024205Y015144D02*
D03*
X024537Y013828D02*
D03*
X023346Y017874D02*
D03*
X024175Y017243D02*
D03*
X025682Y017308D02*
D03*
X027165Y017676D02*
D03*
X029921Y017874D02*
D03*
X02748Y017913D02*
D03*
X026102Y012362D02*
D03*
X026181Y014685D02*
D03*
X026614Y016614D02*
D03*
X026063Y015906D02*
D03*
X028701Y017008D02*
D03*
X02878Y015945D02*
D03*
X027172Y017004D02*
D03*
X026693Y017402D02*
D03*
X032871Y014452D02*
D03*
X034055Y01874D02*
D03*
X030839Y022247D02*
D03*
X030079Y016693D02*
D03*
X024678Y01878D02*
D03*
X025193Y013227D02*
D03*
X025236Y013976D02*
D03*
X025053Y014543D02*
D03*
X026789Y01918D02*
D03*
X02315Y011607D02*
D03*
X034724Y018032D02*
D03*
X02563Y016535D02*
D03*
X025079Y016811D02*
D03*
X027756Y015984D02*
D03*
X027992Y01374D02*
D03*
X026339Y014173D02*
D03*
X024585Y013279D02*
D03*
X023425Y013465D02*
D03*
X020591Y019016D02*
D03*
X022874Y018622D02*
D03*
X023346Y02D02*
D03*
X024409Y019016D02*
D03*
X020984Y018346D02*
D03*
Y019724D02*
D03*
X02374Y019647D02*
D03*
X030354Y02122D02*
D03*
X022874Y024803D02*
D03*
X021575Y021496D02*
D03*
X021654Y023228D02*
D03*
X022638Y02374D02*
D03*
X024213Y024372D02*
D03*
X025433Y024134D02*
D03*
X026789Y01983D02*
D03*
X026938Y021205D02*
D03*
X022109Y018762D02*
D03*
X023701Y018701D02*
D03*
X028307Y019409D02*
D03*
X020512Y017756D02*
D03*
X030786Y021174D02*
D03*
X025128Y021527D02*
D03*
X02189Y028425D02*
D03*
X011862Y011987D02*
D03*
X01189Y013032D02*
D03*
X015395Y019253D02*
D03*
X015433Y017874D02*
D03*
X019485Y022645D02*
D03*
X021102Y022677D02*
D03*
X022598Y022874D02*
D03*
X02378Y022953D02*
D03*
X012008Y017441D02*
D03*
X024882Y022835D02*
D03*
X02378Y020591D02*
D03*
Y021732D02*
D03*
X022992Y022165D02*
D03*
X025734Y022756D02*
D03*
X02937Y024134D02*
D03*
X028189D02*
D03*
X027047D02*
D03*
X025827Y024803D02*
D03*
X031912Y017461D02*
D03*
X031154Y017699D02*
D03*
X03314Y019242D02*
D03*
X034094Y016772D02*
D03*
X033465Y018228D02*
D03*
X025118Y023583D02*
D03*
X022283Y021535D02*
D03*
X011181Y014173D02*
D03*
X01126Y016496D02*
D03*
X013039Y021927D02*
D03*
X019473Y021622D02*
D03*
X012008Y015669D02*
D03*
X012047Y018268D02*
D03*
X021496Y017165D02*
D03*
X021257Y016754D02*
D03*
X025413Y017636D02*
D03*
X014055Y020773D02*
D03*
X013819Y021457D02*
D03*
X014134D02*
D03*
X010748Y021063D02*
D03*
Y021378D02*
D03*
Y021693D02*
D03*
X010472Y021063D02*
D03*
Y021378D02*
D03*
Y021693D02*
D03*
X012218Y02411D02*
D03*
X011797D02*
D03*
X011439Y024108D02*
D03*
X011084Y024126D02*
D03*
M02*
