G04*
G04 #@! TF.GenerationSoftware,Altium Limited,Altium Designer,21.2.2 (38)*
G04*
G04 Layer_Color=255*
%FSTAX24Y24*%
%MOIN*%
G70*
G04*
G04 #@! TF.SameCoordinates,CF9AC677-4E03-495D-8773-30470D0FCF73*
G04*
G04*
G04 #@! TF.FilePolarity,Positive*
G04*
G01*
G75*
%ADD21R,0.0394X0.0374*%
%ADD27R,0.0433X0.0787*%
%ADD28R,0.0276X0.1142*%
%ADD29R,0.0374X0.0394*%
%ADD74R,0.0551X0.0551*%
%ADD75C,0.0551*%
%ADD76C,0.0650*%
%ADD77C,0.1102*%
%ADD78C,0.2362*%
%ADD79C,0.0866*%
%ADD80C,0.1575*%
%ADD81C,0.0591*%
%ADD82C,0.0630*%
%ADD83R,0.0630X0.0630*%
%ADD84C,0.1654*%
%ADD85R,0.0650X0.0650*%
%ADD87R,0.1299X0.0787*%
D21*
X019449Y021654D02*
D03*
Y022283D02*
D03*
D27*
X027677Y010945D02*
D03*
X030472D02*
D03*
X023484Y010906D02*
D03*
X02628D02*
D03*
X031929D02*
D03*
X034724D02*
D03*
D28*
X028484Y012402D02*
D03*
X029075Y012402D02*
D03*
X029665D02*
D03*
X024291Y012362D02*
D03*
X024882Y012362D02*
D03*
X025472D02*
D03*
X032736Y012362D02*
D03*
X033327Y012362D02*
D03*
X033917D02*
D03*
D29*
X01189Y016535D02*
D03*
X01126D02*
D03*
X011929Y019173D02*
D03*
X011299D02*
D03*
X015433Y017874D02*
D03*
X014803D02*
D03*
X011968Y02126D02*
D03*
X011339D02*
D03*
X011929Y02315D02*
D03*
X011299D02*
D03*
D74*
X020197Y012047D02*
D03*
D75*
X021772D02*
D03*
D76*
X033189Y015748D02*
D03*
X034189D02*
D03*
X035189D02*
D03*
X036189D02*
D03*
X037189D02*
D03*
X038189D02*
D03*
X039189D02*
D03*
X033189Y024803D02*
D03*
X034189D02*
D03*
X035189D02*
D03*
X036189D02*
D03*
X037189D02*
D03*
X038189D02*
D03*
X039189D02*
D03*
X031476Y018736D02*
D03*
Y020736D02*
D03*
Y021736D02*
D03*
Y019736D02*
D03*
X019398Y019331D02*
D03*
D77*
X031181Y015315D02*
D03*
X021732D02*
D03*
X031181Y025157D02*
D03*
X021732D02*
D03*
D78*
X037559Y011968D02*
D03*
Y028504D02*
D03*
D79*
X024453Y027362D02*
D03*
X022953D02*
D03*
X027453D02*
D03*
X025953D02*
D03*
X01787D02*
D03*
X01637D02*
D03*
X02087D02*
D03*
X01937D02*
D03*
X031067D02*
D03*
X029567D02*
D03*
X034067D02*
D03*
X032567D02*
D03*
D80*
X017547Y011417D02*
D03*
X01361D02*
D03*
D81*
X015079Y014449D02*
D03*
X016079D02*
D03*
X014079D02*
D03*
X013079D02*
D03*
X017079D02*
D03*
X018079D02*
D03*
D82*
X018307Y016968D02*
D03*
Y015969D02*
D03*
X019449Y016953D02*
D03*
Y015953D02*
D03*
D83*
X018307Y017968D02*
D03*
X019449Y017953D02*
D03*
D84*
X013661Y028622D02*
D03*
X011693D02*
D03*
D85*
X018398Y019331D02*
D03*
D87*
X011614Y026476D02*
D03*
Y024547D02*
D03*
M02*
