G04*
G04 #@! TF.GenerationSoftware,Altium Limited,Altium Designer,21.2.2 (38)*
G04*
G04 Layer_Color=32768*
%FSTAX24Y24*%
%MOIN*%
G70*
G04*
G04 #@! TF.SameCoordinates,CF9AC677-4E03-495D-8773-30470D0FCF73*
G04*
G04*
G04 #@! TF.FilePolarity,Positive*
G04*
G01*
G75*
%ADD10C,0.0100*%
%ADD11C,0.0079*%
%ADD13C,0.0039*%
%ADD71C,0.0197*%
D10*
X020984Y012047D02*
X02122D01*
X020984Y011811D02*
Y012047D01*
X020748D02*
X020984D01*
Y012283D01*
D11*
X010669Y028268D02*
G03*
X011417Y02752I000748J0D01*
G01*
X011417Y029724D02*
G03*
X010669Y028976I0J-000748D01*
G01*
X014685Y029449D02*
G03*
X014409Y029724I-000276J-0D01*
G01*
X014449Y02752D02*
G03*
X014685Y027756I0J000236D01*
G01*
X022234Y019117D02*
X02247D01*
X021998D02*
X022234D01*
Y018881D02*
Y019117D01*
Y019353D01*
X015394Y022874D02*
X01563D01*
X015394Y022638D02*
Y022874D01*
Y02311D01*
X015157Y022874D02*
X015394D01*
X015079Y017717D02*
Y01811D01*
Y017717D02*
X015472D01*
X015079Y017323D02*
Y017717D01*
X014685D02*
X015079D01*
X02748Y020079D02*
Y020472D01*
X027283Y020276D02*
X027677D01*
X029082Y010951D02*
X029279D01*
X028878Y010945D02*
X029075D01*
Y010748D02*
Y010945D01*
Y011142D01*
X024889Y010911D02*
X025086D01*
X024685Y010906D02*
X024882D01*
Y010709D02*
Y010906D01*
Y011102D01*
X033334Y010911D02*
X033531D01*
X03313Y010906D02*
X033327D01*
Y010709D02*
Y010906D01*
Y011102D01*
X011603Y025319D02*
Y025516D01*
Y025513D02*
X0118D01*
X011606Y025509D02*
Y025705D01*
X011417Y025512D02*
X011614D01*
X025006Y027362D02*
X025203D01*
Y027559D01*
Y027362D02*
X0254D01*
X025203Y027165D02*
Y027362D01*
X026506D02*
X026703D01*
Y027559D01*
Y027362D02*
X0269D01*
X026703Y027165D02*
Y027362D01*
X015579Y012736D02*
X016091D01*
X015579Y012224D02*
Y012736D01*
X015067D02*
X015579D01*
Y013248D01*
X024862Y010906D02*
Y011102D01*
Y010709D02*
Y010906D01*
X025059D01*
X024658Y010911D02*
X024855D01*
X028851Y01101D02*
X029048D01*
X029055Y011004D02*
X029252D01*
X029055Y010807D02*
Y011004D01*
Y011201D01*
X018423Y027362D02*
X01862D01*
Y027559D01*
Y027362D02*
X018817D01*
X01862Y027165D02*
Y027362D01*
X019923D02*
X02012D01*
Y027559D01*
Y027362D02*
X020317D01*
X02012Y027165D02*
Y027362D01*
X033346Y010906D02*
Y011102D01*
Y010709D02*
Y010906D01*
X033543D01*
X033143Y010911D02*
X03334D01*
X03162Y027362D02*
X031817D01*
Y027559D01*
Y027362D02*
X032014D01*
X031817Y027165D02*
Y027362D01*
X03312D02*
X033317D01*
Y027559D01*
Y027362D02*
X033514D01*
X033317Y027165D02*
Y027362D01*
X018307Y01685D02*
Y017087D01*
X018189Y016968D02*
X018425D01*
X019449Y016835D02*
Y017071D01*
X019331Y016953D02*
X019567D01*
X011329Y016535D02*
X011565D01*
Y016299D02*
Y016535D01*
X011801D01*
X011565D02*
Y016772D01*
X011378Y019173D02*
X011614D01*
Y018937D02*
Y019173D01*
X01185D01*
X011614D02*
Y019409D01*
X012677Y028622D02*
X012913D01*
X012677D02*
Y028858D01*
X012441Y028622D02*
X012677D01*
Y028386D02*
Y028622D01*
X011693Y02752D02*
X014449D01*
X014685Y027756D02*
Y029449D01*
X011693Y029724D02*
X014409D01*
X011417Y02752D02*
X011693D01*
X010669Y028268D02*
Y028976D01*
X011417Y029724D02*
X011693D01*
X011647Y025706D02*
Y025942D01*
Y025709D02*
X011883D01*
X011647Y025473D02*
Y025709D01*
X011417Y025709D02*
X011654D01*
X018937Y024843D02*
X019173D01*
Y024606D02*
Y024843D01*
X019168Y024837D02*
X019404D01*
X019173D02*
Y025074D01*
X011654Y022165D02*
X011811D01*
X011654D02*
Y022323D01*
Y022008D02*
Y022165D01*
X011496D02*
X011654D01*
X018898Y019252D02*
Y019449D01*
X018819Y019331D02*
X018976D01*
D13*
X019528Y021417D02*
Y021811D01*
X019331Y021614D02*
X019724D01*
X02937Y02439D02*
Y024508D01*
X029311Y024449D02*
X029429D01*
X030354Y0225D02*
Y022618D01*
X030295Y022559D02*
X030413D01*
X028189Y02439D02*
Y024508D01*
X02813Y024449D02*
X028248D01*
X027047Y02439D02*
Y024508D01*
X026988Y024449D02*
X027106D01*
X027756Y01624D02*
Y016358D01*
X027697Y016299D02*
X027815D01*
X026654Y01624D02*
Y016358D01*
X026594Y016299D02*
X026713D01*
X011516Y016535D02*
X011634D01*
X011575Y016476D02*
Y016594D01*
X029961Y017008D02*
X030197D01*
X030079Y01689D02*
Y017126D01*
X011555Y019173D02*
X011673D01*
X011614Y019114D02*
Y019232D01*
X03752Y014134D02*
X037756D01*
X037638Y014016D02*
Y014252D01*
X035433Y014134D02*
X035669D01*
X035551Y014016D02*
Y014252D01*
X038425Y014134D02*
X03874D01*
X038583Y013976D02*
Y014291D01*
X036457Y014134D02*
X036772D01*
X036614Y013976D02*
Y014291D01*
X015059Y017874D02*
X015177D01*
X015118Y017815D02*
Y017933D01*
X019449Y021909D02*
Y022028D01*
X01939Y021969D02*
X019508D01*
X011594Y02126D02*
X011713D01*
X011654Y021201D02*
Y021319D01*
X011555Y02315D02*
X011673D01*
X011614Y023091D02*
Y023209D01*
X025827Y02437D02*
Y024606D01*
X025709Y024488D02*
X025945D01*
X024724Y024331D02*
Y024567D01*
X024606Y024449D02*
X024843D01*
X021457Y016772D02*
X021693D01*
X021575Y016654D02*
Y01689D01*
X025079Y016417D02*
Y016654D01*
X024961Y016535D02*
X025197D01*
X024213Y016417D02*
Y016654D01*
X024094Y016535D02*
X024331D01*
X022992Y021693D02*
Y021929D01*
X022874Y021811D02*
X02311D01*
X022283Y021693D02*
Y021929D01*
X022165Y021811D02*
X022402D01*
X021575Y021693D02*
Y021929D01*
X021457Y021811D02*
X021693D01*
X023937Y019606D02*
X024173D01*
X024055Y019488D02*
Y019724D01*
X023976Y020591D02*
X024213D01*
X024094Y020472D02*
Y020709D01*
X023976Y021732D02*
X024213D01*
X024094Y021614D02*
Y02185D01*
X030354Y019409D02*
Y019646D01*
X030236Y019528D02*
X030472D01*
X034409Y017421D02*
Y017539D01*
X03435Y01748D02*
X034469D01*
X034409Y018681D02*
Y018799D01*
X03435Y01874D02*
X034469D01*
X035709Y026417D02*
X036024D01*
X035866Y02626D02*
Y026575D01*
X034252Y023031D02*
X034488D01*
X03437Y022913D02*
Y02315D01*
X034252Y022008D02*
X034488D01*
X03437Y02189D02*
Y022126D01*
X036929Y02626D02*
Y026575D01*
X036772Y026417D02*
X037087D01*
X034291Y019882D02*
X034528D01*
X034409Y019764D02*
Y02D01*
X034291Y020945D02*
X034528D01*
X034409Y020827D02*
Y021063D01*
X039055Y02626D02*
Y026575D01*
X038898Y026417D02*
X039213D01*
X037992Y02626D02*
Y026575D01*
X037835Y026417D02*
X03815D01*
X024215Y014864D02*
Y014943D01*
X024213Y014862D02*
X024291D01*
X024213Y014783D02*
Y014862D01*
X024134D02*
X024213D01*
X02878Y016181D02*
Y016417D01*
X028661Y016299D02*
X028898D01*
X030354Y020787D02*
Y021024D01*
X030236Y020906D02*
X030472D01*
X023937Y018307D02*
X024173D01*
X024055Y018189D02*
Y018425D01*
X023976Y022953D02*
X024213D01*
X024094Y022835D02*
Y023071D01*
X011417Y012008D02*
X011654D01*
X011535Y01189D02*
Y012126D01*
X011417Y012992D02*
X011654D01*
X011535Y012874D02*
Y01311D01*
X011417Y011063D02*
X011654D01*
X011535Y010945D02*
Y011181D01*
X011575Y013976D02*
Y014291D01*
X011417Y014134D02*
X011732D01*
D71*
X036189Y020276D02*
X036583D01*
X036189D02*
Y020669D01*
X035795Y020276D02*
X036189D01*
Y019882D02*
Y020276D01*
X02626Y020236D02*
X027441D01*
X02626D02*
Y021417D01*
X025079Y020236D02*
X02626D01*
Y019055D02*
Y020236D01*
M02*
