G04*
G04 #@! TF.GenerationSoftware,Altium Limited,Altium Designer,21.2.2 (38)*
G04*
G04 Layer_Physical_Order=2*
G04 Layer_Color=16711680*
%FSTAX24Y24*%
%MOIN*%
G70*
G04*
G04 #@! TF.SameCoordinates,CF9AC677-4E03-495D-8773-30470D0FCF73*
G04*
G04*
G04 #@! TF.FilePolarity,Positive*
G04*
G01*
G75*
%ADD11C,0.0079*%
%ADD12C,0.0315*%
%ADD21R,0.0394X0.0374*%
%ADD27R,0.0433X0.0787*%
%ADD28R,0.0276X0.1142*%
%ADD29R,0.0374X0.0394*%
%ADD70C,0.0118*%
%ADD71C,0.0197*%
%ADD72C,0.0059*%
%ADD74R,0.0551X0.0551*%
%ADD75C,0.0551*%
%ADD76C,0.0650*%
%ADD77C,0.1102*%
%ADD78C,0.2362*%
%ADD79C,0.0866*%
%ADD80C,0.1575*%
%ADD81C,0.0591*%
%ADD82C,0.0630*%
%ADD83R,0.0630X0.0630*%
%ADD84C,0.1654*%
%ADD85R,0.0650X0.0650*%
%ADD86C,0.0197*%
%ADD87R,0.1299X0.0787*%
G36*
X037836Y030218D02*
X038109Y030163D01*
X038372Y030074D01*
X038622Y029951D01*
X038853Y029797D01*
X039062Y029613D01*
X039245Y029404D01*
X0394Y029173D01*
X039523Y028924D01*
X039612Y02866D01*
X039666Y028388D01*
X039684Y028126D01*
X03968Y02811D01*
Y025035D01*
X039602Y025014D01*
X039559Y025087D01*
X039473Y025173D01*
X039368Y025234D01*
X03925Y025266D01*
X039128D01*
X03901Y025234D01*
X038905Y025173D01*
X038819Y025087D01*
X038758Y024982D01*
X038726Y024864D01*
X038652D01*
X03862Y024982D01*
X038559Y025087D01*
X038473Y025173D01*
X038368Y025234D01*
X03825Y025266D01*
X038128D01*
X03801Y025234D01*
X037905Y025173D01*
X037819Y025087D01*
X037758Y024982D01*
X037726Y024864D01*
X037652D01*
X03762Y024982D01*
X037559Y025087D01*
X037473Y025173D01*
X037368Y025234D01*
X03725Y025266D01*
X037128D01*
X03701Y025234D01*
X036905Y025173D01*
X036819Y025087D01*
X036758Y024982D01*
X036726Y024864D01*
X036652D01*
X03662Y024982D01*
X036559Y025087D01*
X036473Y025173D01*
X036368Y025234D01*
X03625Y025266D01*
X036128D01*
X03601Y025234D01*
X035905Y025173D01*
X035819Y025087D01*
X035758Y024982D01*
X035726Y024864D01*
X035652D01*
X03562Y024982D01*
X035559Y025087D01*
X035473Y025173D01*
X035368Y025234D01*
X03525Y025266D01*
X035128D01*
X03501Y025234D01*
X034905Y025173D01*
X034819Y025087D01*
X034758Y024982D01*
X034726Y024864D01*
X034652D01*
X03462Y024982D01*
X034559Y025087D01*
X034473Y025173D01*
X034368Y025234D01*
X03425Y025266D01*
X034128D01*
X03401Y025234D01*
X033905Y025173D01*
X033819Y025087D01*
X033758Y024982D01*
X033726Y024864D01*
X033652D01*
X03362Y024982D01*
X033559Y025087D01*
X033473Y025173D01*
X033368Y025234D01*
X03325Y025266D01*
X033128D01*
X03301Y025234D01*
X032905Y025173D01*
X032819Y025087D01*
X032758Y024982D01*
X032726Y024864D01*
Y024742D01*
X032758Y024625D01*
X032819Y024519D01*
X032905Y024433D01*
X032939Y024413D01*
X032918Y024335D01*
X029503D01*
X029417Y02437D01*
X029323D01*
X029237Y024335D01*
X028322D01*
X028236Y02437D01*
X028142D01*
X028056Y024335D01*
X02718D01*
X027094Y02437D01*
X027D01*
X026913Y024334D01*
X026847Y024268D01*
X026811Y024182D01*
X026413Y023783D01*
X026027D01*
Y02467D01*
X026063Y024756D01*
Y02485D01*
X026027Y024937D01*
X025961Y025003D01*
X025874Y025039D01*
X02578D01*
X025693Y025003D01*
X025627Y024937D01*
X025591Y02485D01*
Y024756D01*
X025626Y02467D01*
Y024378D01*
X025547Y024342D01*
X02548Y02437D01*
X025386D01*
X025299Y024334D01*
X02528Y024314D01*
X024456D01*
X024449Y024325D01*
Y024419D01*
X024413Y024505D01*
X024346Y024572D01*
X02426Y024608D01*
X024166D01*
X024079Y024572D01*
X024058Y024551D01*
X022638D01*
X022569Y024537D01*
X02251Y024498D01*
X022116Y024104D01*
X022077Y024046D01*
X022063Y023976D01*
Y021641D01*
X022066Y021628D01*
X022047Y021582D01*
Y021488D01*
X022083Y021402D01*
X02215Y021335D01*
X022236Y021299D01*
X02233D01*
X022417Y021335D01*
X022484Y021402D01*
X02252Y021488D01*
Y021582D01*
X022484Y021669D01*
X022425Y021728D01*
Y022611D01*
X022503Y022658D01*
X022551Y022638D01*
X022645D01*
X022732Y022674D01*
X022799Y02274D01*
X022812Y022772D01*
X023626D01*
X023646Y022752D01*
X023733Y022717D01*
X023827D01*
X023913Y022752D01*
X02398Y022819D01*
X024016Y022906D01*
Y023D01*
X02398Y023087D01*
X023913Y023153D01*
X023827Y023189D01*
X023733D01*
X023646Y023153D01*
X023626Y023133D01*
X022677D01*
X022608Y02312D01*
X022594Y02311D01*
X022551D01*
X022503Y02309D01*
X022425Y023137D01*
Y023508D01*
X022503Y02354D01*
X022504Y02354D01*
X022591Y023504D01*
X022685D01*
X022772Y02354D01*
X022838Y023606D01*
X022874Y023693D01*
Y023721D01*
X023106Y023953D01*
X02528D01*
X025299Y023934D01*
X025386Y023898D01*
X02548D01*
X025547Y023925D01*
X025626Y02389D01*
Y023783D01*
X025251D01*
X025165Y023819D01*
X025071D01*
X024984Y023783D01*
X024918Y023716D01*
X024882Y023631D01*
X02474Y023488D01*
X024696Y023423D01*
X024681Y023346D01*
Y022967D01*
X024646Y022882D01*
Y022788D01*
X024682Y022701D01*
X024748Y022634D01*
X024835Y022598D01*
X024929D01*
X025016Y022634D01*
X025082Y022701D01*
X025118Y022788D01*
Y022882D01*
X025083Y022967D01*
Y023263D01*
X025166Y023347D01*
X025251Y023382D01*
X026496D01*
X026573Y023397D01*
X026638Y023441D01*
X027095Y023898D01*
X02718Y023933D01*
X028056D01*
X028142Y023898D01*
X028236D01*
X028322Y023933D01*
X029237D01*
X029323Y023898D01*
X029417D01*
X029503Y023933D01*
X035945D01*
X036022Y023948D01*
X036087Y023992D01*
X036331Y024236D01*
X036374Y024301D01*
X03639Y024378D01*
Y024385D01*
X036473Y024433D01*
X036559Y024519D01*
X03662Y024625D01*
X036652Y024742D01*
X036726D01*
X036758Y024625D01*
X036819Y024519D01*
X036854Y024483D01*
X036862Y024472D01*
X036895Y024439D01*
X03695Y024378D01*
X036969Y024353D01*
X036985Y024331D01*
X036997Y024312D01*
X037001Y024303D01*
X036382Y023685D01*
X027165D01*
X027096Y023671D01*
X027038Y023632D01*
X025588Y022182D01*
X024048D01*
X023979Y022168D01*
X023921Y022129D01*
X02376Y021969D01*
X023733D01*
X023646Y021933D01*
X023579Y021866D01*
X023543Y021779D01*
Y021685D01*
X023579Y021598D01*
X023646Y021532D01*
X023673Y021521D01*
X023692Y021428D01*
X023219Y020954D01*
X02318Y020896D01*
X023166Y020827D01*
Y020153D01*
X023146Y020134D01*
X02311Y020047D01*
Y019953D01*
X023146Y019866D01*
X023213Y0198D01*
X023299Y019764D01*
X023393D01*
X023459Y019791D01*
X023521Y019741D01*
X023522Y019738D01*
X023504Y019694D01*
Y0196D01*
X023497Y01959D01*
X021374D01*
X02122Y019744D01*
Y019771D01*
X021185Y019858D01*
X021118Y019925D01*
X021031Y019961D01*
X020937D01*
X02085Y019925D01*
X020784Y019858D01*
X020748Y019771D01*
Y019677D01*
X020784Y019591D01*
X020835Y01954D01*
X020813Y019466D01*
X02081Y019461D01*
X019917D01*
X019915Y019462D01*
X019909Y019464D01*
X019898Y019471D01*
X019883Y019481D01*
X019866Y019496D01*
X019848Y019514D01*
X0198Y019569D01*
X019775Y019604D01*
X019774Y019604D01*
X019768Y019615D01*
X019682Y019701D01*
X019576Y019762D01*
X019459Y019793D01*
X019337D01*
X019219Y019762D01*
X019114Y019701D01*
X019027Y019615D01*
X018967Y019509D01*
X018939Y019406D01*
X01886Y019417D01*
Y019793D01*
X017935D01*
Y019511D01*
X016772D01*
X016703Y019498D01*
X016644Y019458D01*
X016053Y018868D01*
X016014Y018809D01*
X016Y01874D01*
Y01661D01*
X015161Y015771D01*
X014402D01*
X01437Y015819D01*
Y015913D01*
X014334Y016D01*
X014268Y016066D01*
X014181Y016102D01*
X014087D01*
X014Y016066D01*
X01398Y016047D01*
X012205D01*
X012149Y016036D01*
X012098Y016062D01*
X01207Y016084D01*
Y016201D01*
X012215D01*
Y01687D01*
X011565D01*
Y016201D01*
X011709D01*
Y015787D01*
X011723Y015718D01*
X011762Y01566D01*
X011772Y01565D01*
Y015622D01*
X011808Y015535D01*
X011874Y015469D01*
X011961Y015433D01*
X012055D01*
X012142Y015469D01*
X012208Y015535D01*
X012244Y015622D01*
Y01565D01*
X01228Y015686D01*
X012453D01*
X012483Y015613D01*
X011486Y014616D01*
X011447Y014557D01*
X011434Y014488D01*
Y012182D01*
X011447Y012112D01*
X011486Y012054D01*
X011633Y011907D01*
X011642Y011901D01*
X011662Y011853D01*
X011728Y011787D01*
X011815Y011751D01*
X011909D01*
X011996Y011787D01*
X012062Y011853D01*
X012098Y01194D01*
Y012034D01*
X012062Y012121D01*
X011996Y012187D01*
X011909Y012223D01*
X011828D01*
X011795Y012256D01*
Y012763D01*
X011843Y012795D01*
X011937D01*
X012022Y012831D01*
X019129D01*
X01976Y012201D01*
X019776Y012183D01*
X019783Y012174D01*
Y012156D01*
X019783Y012155D01*
X019783Y012153D01*
Y011634D01*
X02061D01*
Y012461D01*
X020091D01*
X020089Y012461D01*
X020088Y012461D01*
X020071D01*
X020047Y01248D01*
X019355Y013173D01*
X019307Y013205D01*
X019325Y013284D01*
X023272D01*
X023291Y013264D01*
X023378Y013228D01*
X023472D01*
X023559Y013264D01*
X023625Y013331D01*
X023661Y013418D01*
Y013512D01*
X023625Y013598D01*
X023559Y013665D01*
X023472Y013701D01*
X023378D01*
X023291Y013665D01*
X023272Y013645D01*
X016532D01*
X016259Y013917D01*
Y013978D01*
X016259Y013979D01*
X016262Y013987D01*
X016268Y013999D01*
X016278Y014015D01*
X016292Y014035D01*
X016308Y014056D01*
X016356Y01411D01*
X016385Y014139D01*
X016393Y01415D01*
X016425Y014183D01*
X016482Y014282D01*
X016512Y014392D01*
Y014506D01*
X016482Y014616D01*
X016425Y014715D01*
X016345Y014795D01*
X016246Y014852D01*
X016136Y014882D01*
X016022D01*
X015912Y014852D01*
X015813Y014795D01*
X015732Y014715D01*
X015675Y014616D01*
X015646Y014506D01*
Y014392D01*
X015675Y014282D01*
X015732Y014183D01*
X015765Y01415D01*
X015772Y014139D01*
X015801Y01411D01*
X015849Y014056D01*
X015866Y014035D01*
X015879Y014015D01*
X015889Y013999D01*
X015895Y013987D01*
X015898Y013979D01*
X015898Y013978D01*
Y013843D01*
X015912Y013773D01*
X015951Y013715D01*
X016329Y013337D01*
X016368Y013311D01*
X016344Y013232D01*
X012022D01*
X011937Y013268D01*
X011843D01*
X011795Y0133D01*
Y014413D01*
X012791Y01541D01*
X015012D01*
X015042Y015337D01*
X014951Y015246D01*
X014912Y015187D01*
X014898Y015118D01*
Y014919D01*
X014898Y014919D01*
X014895Y014911D01*
X014889Y014899D01*
X014879Y014883D01*
X014866Y014863D01*
X014849Y014842D01*
X014801Y014788D01*
X014772Y014759D01*
X014765Y014747D01*
X014732Y014715D01*
X014675Y014616D01*
X014646Y014506D01*
Y014392D01*
X014675Y014282D01*
X014732Y014183D01*
X014813Y014102D01*
X014912Y014045D01*
X015022Y014016D01*
X015136D01*
X015246Y014045D01*
X015345Y014102D01*
X015425Y014183D01*
X015482Y014282D01*
X015512Y014392D01*
Y014506D01*
X015482Y014616D01*
X015425Y014715D01*
X015393Y014747D01*
X015385Y014759D01*
X015356Y014788D01*
X015308Y014842D01*
X015292Y014863D01*
X015278Y014883D01*
X015268Y014899D01*
X015262Y014911D01*
X015259Y014919D01*
X015259Y014919D01*
Y015043D01*
X016545Y016329D01*
X016584Y016388D01*
X016598Y016457D01*
Y017633D01*
X017446Y018481D01*
X017808D01*
X017854Y018421D01*
X017854Y018402D01*
Y017516D01*
X018178D01*
X018196Y017502D01*
X018202Y017467D01*
X018164Y017399D01*
X018132Y01739D01*
X018029Y017331D01*
X017945Y017247D01*
X017885Y017143D01*
X017854Y017028D01*
Y016909D01*
X017885Y016794D01*
X017945Y016691D01*
X018029Y016606D01*
X018132Y016547D01*
X018247Y016516D01*
X018367D01*
X018482Y016547D01*
X018532Y016575D01*
X01861Y01653D01*
Y015264D01*
X018261Y014915D01*
X018258Y014913D01*
X018249Y014908D01*
X018236Y014903D01*
X01822Y014898D01*
X0182Y014893D01*
X018178Y01489D01*
X018116Y014885D01*
X01808Y014885D01*
X018068Y014882D01*
X018022D01*
X017912Y014852D01*
X017813Y014795D01*
X017732Y014715D01*
X017675Y014616D01*
X017646Y014506D01*
Y014392D01*
X017675Y014282D01*
X017732Y014183D01*
X017813Y014102D01*
X017912Y014045D01*
X018022Y014016D01*
X018136D01*
X018246Y014045D01*
X018345Y014102D01*
X018376Y014134D01*
X018386Y01414D01*
X018439Y014189D01*
X018459Y014206D01*
X018478Y01422D01*
X018496Y014231D01*
X018511Y014239D01*
X018524Y014244D01*
X018534Y014247D01*
X018538Y014248D01*
X019961D01*
X020037Y014263D01*
X020103Y014307D01*
X020614Y014819D01*
X020658Y014884D01*
X020673Y014961D01*
Y015287D01*
X021043Y015657D01*
X02111Y015613D01*
X02107Y015516D01*
X021043Y015383D01*
Y015247D01*
X02107Y015114D01*
X021122Y014989D01*
X021197Y014876D01*
X021293Y01478D01*
X021406Y014704D01*
X021531Y014652D01*
X021664Y014626D01*
X0218D01*
X021933Y014652D01*
X022059Y014704D01*
X022171Y01478D01*
X022267Y014876D01*
X022343Y014989D01*
X022395Y015114D01*
X022421Y015247D01*
Y015383D01*
X022395Y015516D01*
X022343Y015641D01*
X022267Y015754D01*
X022171Y01585D01*
X022059Y015926D01*
X021933Y015977D01*
X0218Y016004D01*
X021664D01*
X021531Y015977D01*
X021435Y015937D01*
X02139Y016004D01*
X021425Y016039D01*
X021425Y016039D01*
X021937Y016551D01*
X022023Y016587D01*
X022089Y016653D01*
X022125Y01674D01*
Y016834D01*
X022089Y016921D01*
X022023Y016987D01*
X021936Y017023D01*
X021842D01*
X021755Y016987D01*
X021696Y017032D01*
X021732Y017118D01*
Y017212D01*
X021696Y017299D01*
X021677Y017319D01*
Y017602D01*
X022235Y018161D01*
X023216D01*
X023232Y018082D01*
X023213Y018074D01*
X023146Y018008D01*
X02311Y017921D01*
Y017827D01*
X023146Y01774D01*
X023166Y017721D01*
Y014724D01*
X02318Y014655D01*
X023219Y014597D01*
X024111Y013705D01*
Y013071D01*
X024016D01*
Y011807D01*
X023283D01*
X023197Y011843D01*
X023103D01*
X023016Y011807D01*
X02295Y01174D01*
X022914Y011654D01*
Y01156D01*
X02295Y011473D01*
X023016Y011406D01*
X023103Y01137D01*
X023197D01*
X023283Y011406D01*
X0283D01*
X028376Y011421D01*
X028441Y011465D01*
X028606Y01163D01*
X028649Y011693D01*
X02876D01*
Y011693D01*
X028799Y011693D01*
Y011693D01*
X02935D01*
Y01311D01*
X029275D01*
Y013902D01*
X029295Y013921D01*
X029331Y014008D01*
Y014102D01*
X029321Y014124D01*
X029374Y014203D01*
X032198D01*
X032275Y014218D01*
X03234Y014262D01*
X032427Y014349D01*
X032448D01*
X032535Y014385D01*
X032556Y014406D01*
X032579Y014405D01*
X032644Y014382D01*
X03267Y014318D01*
X032737Y014252D01*
X032824Y014216D01*
X032918D01*
X032969Y014181D01*
Y013618D01*
X032608Y013258D01*
X032569Y013199D01*
X032556Y01313D01*
Y013071D01*
X032461D01*
Y011654D01*
X033012D01*
Y011654D01*
X033051Y011654D01*
Y011654D01*
X033602D01*
Y013071D01*
X033507D01*
Y014908D01*
X033494Y014977D01*
X033454Y015035D01*
X033278Y015212D01*
X033302Y015299D01*
X033368Y015317D01*
X033473Y015378D01*
X033559Y015464D01*
X03362Y015569D01*
X033652Y015687D01*
X033726D01*
X033758Y015569D01*
X033819Y015464D01*
X033905Y015378D01*
X03401Y015317D01*
X034128Y015285D01*
X03425D01*
X034368Y015317D01*
X034473Y015378D01*
X034559Y015464D01*
X03462Y015569D01*
X034652Y015687D01*
X034726D01*
X034758Y015569D01*
X034819Y015464D01*
X034905Y015378D01*
X03501Y015317D01*
X035128Y015285D01*
X03525D01*
X035368Y015317D01*
X035473Y015378D01*
X035559Y015464D01*
X03562Y015569D01*
X035652Y015687D01*
X035726D01*
X035758Y015569D01*
X035819Y015464D01*
X035905Y015378D01*
X03601Y015317D01*
X036128Y015285D01*
X03625D01*
X036368Y015317D01*
X036473Y015378D01*
X036559Y015464D01*
X03662Y015569D01*
X036652Y015687D01*
X036726D01*
X036758Y015569D01*
X036819Y015464D01*
X036905Y015378D01*
X03701Y015317D01*
X037128Y015285D01*
X03725D01*
X037368Y015317D01*
X037473Y015378D01*
X037559Y015464D01*
X03762Y015569D01*
X037652Y015687D01*
X037726D01*
X037758Y015569D01*
X037819Y015464D01*
X037905Y015378D01*
X03801Y015317D01*
X038128Y015285D01*
X03825D01*
X038368Y015317D01*
X038473Y015378D01*
X038559Y015464D01*
X03862Y015569D01*
X038652Y015687D01*
Y015809D01*
X03862Y015927D01*
X038559Y016032D01*
X038524Y016068D01*
X038516Y016079D01*
X038483Y016112D01*
X038428Y016174D01*
X038409Y016198D01*
X038393Y016221D01*
X038381Y01624D01*
X038374Y016254D01*
X03837Y016264D01*
X03837Y016266D01*
Y017874D01*
X038356Y017943D01*
X038317Y018002D01*
X036949Y01937D01*
X03689Y019409D01*
X036821Y019423D01*
X033293D01*
X033274Y019442D01*
X033187Y019478D01*
X033093D01*
X033006Y019442D01*
X03294Y019376D01*
X032904Y019289D01*
Y019195D01*
X03294Y019108D01*
X033006Y019042D01*
X03306Y01902D01*
X033044Y018941D01*
X032839D01*
X032524Y019256D01*
Y021969D01*
X032508Y022045D01*
X032465Y02211D01*
X032183Y022392D01*
X032118Y022435D01*
X032041Y022451D01*
X030964D01*
X030886Y022483D01*
X030792D01*
X030705Y022447D01*
X030638Y022381D01*
X030603Y022294D01*
Y0222D01*
X030638Y022113D01*
X030705Y022047D01*
X030792Y022011D01*
X030886D01*
X030973Y022047D01*
X030975Y022049D01*
X031958D01*
X032122Y021885D01*
Y019173D01*
X032137Y019096D01*
X032181Y019031D01*
X032614Y018598D01*
X032679Y018555D01*
X032756Y018539D01*
X033408D01*
X033418Y018465D01*
X033331Y018429D01*
X033264Y018362D01*
X033228Y018275D01*
Y018181D01*
X033264Y018095D01*
X033331Y018028D01*
X033418Y017992D01*
X033512D01*
X033598Y018028D01*
X033665Y018095D01*
X033701Y018181D01*
Y018275D01*
X033665Y018362D01*
X033598Y018429D01*
X033512Y018465D01*
X033521Y018539D01*
X033922D01*
X034008Y018504D01*
X034102D01*
X034189Y01854D01*
X034255Y018606D01*
X034291Y018693D01*
Y018787D01*
X034255Y018874D01*
X034189Y01894D01*
X034102Y018976D01*
X034008D01*
X033922Y018941D01*
X033235D01*
X03322Y01902D01*
X033274Y019042D01*
X033293Y019061D01*
X036746D01*
X038008Y017799D01*
Y016266D01*
X038008Y016264D01*
X038004Y016254D01*
X037997Y01624D01*
X037985Y016221D01*
X037971Y016201D01*
X037894Y016111D01*
X037862Y016079D01*
X037854Y016068D01*
X037819Y016032D01*
X037758Y015927D01*
X037726Y015809D01*
X037652D01*
X03762Y015927D01*
X037559Y016032D01*
X037537Y016054D01*
X037533Y016061D01*
X03747Y016133D01*
X037425Y016192D01*
X037409Y016215D01*
X037398Y016236D01*
X03739Y016252D01*
X037386Y016262D01*
X037385Y016264D01*
Y016654D01*
X037372Y016723D01*
X037332Y016781D01*
X036287Y017826D01*
X036229Y017865D01*
X03616Y017879D01*
X031307D01*
X031288Y017899D01*
X031201Y017935D01*
X031107D01*
X03102Y017899D01*
X030988Y017867D01*
X030909Y017899D01*
Y019576D01*
X030954Y019613D01*
X031037Y019587D01*
X031045Y019558D01*
X031106Y019452D01*
X031192Y019366D01*
X031298Y019305D01*
X031415Y019274D01*
Y019199D01*
X031298Y019167D01*
X031192Y019106D01*
X031106Y01902D01*
X031045Y018915D01*
X031014Y018797D01*
Y018675D01*
X031045Y018558D01*
X031106Y018452D01*
X031192Y018366D01*
X031298Y018305D01*
X031415Y018274D01*
X031537D01*
X031655Y018305D01*
X03176Y018366D01*
X031847Y018452D01*
X031907Y018558D01*
X031939Y018675D01*
Y018797D01*
X031907Y018915D01*
X031847Y01902D01*
X03176Y019106D01*
X031655Y019167D01*
X031537Y019199D01*
Y019274D01*
X031655Y019305D01*
X03176Y019366D01*
X031847Y019452D01*
X031907Y019558D01*
X031939Y019675D01*
Y019797D01*
X031907Y019915D01*
X031847Y02002D01*
X03176Y020106D01*
X031655Y020167D01*
X031537Y020199D01*
Y020274D01*
X031655Y020305D01*
X03176Y020366D01*
X031847Y020452D01*
X031907Y020558D01*
X031939Y020675D01*
Y020797D01*
X031907Y020915D01*
X031847Y02102D01*
X03176Y021106D01*
X031655Y021167D01*
X031537Y021199D01*
X031415D01*
X031298Y021167D01*
X031192Y021106D01*
X031106Y02102D01*
X031045Y020915D01*
X031014Y020797D01*
Y020748D01*
X031011Y020737D01*
X031009Y020654D01*
X031006Y020623D01*
X031002Y020594D01*
X030996Y02057D01*
X030991Y020551D01*
X030985Y020535D01*
X030979Y020525D01*
X030976Y02052D01*
X030942Y020485D01*
X030923Y020457D01*
X030873Y020478D01*
X030779D01*
X030692Y020442D01*
X030626Y020376D01*
X030599Y020312D01*
X030574Y020296D01*
X030496Y02034D01*
X030496Y020341D01*
Y020627D01*
X030806Y020937D01*
X030833D01*
X03092Y020973D01*
X030987Y02104D01*
X031023Y021127D01*
Y021221D01*
X030987Y021307D01*
X03092Y021374D01*
X030833Y02141D01*
X030739D01*
X030653Y021374D01*
X030638Y021359D01*
X030607Y021357D01*
X030535Y021417D01*
X030521Y021486D01*
X030482Y021545D01*
X030246Y021781D01*
X030187Y02182D01*
X030118Y021834D01*
X026563D01*
X026532Y021907D01*
X027476Y022851D01*
X038346D01*
X038416Y022865D01*
X038474Y022904D01*
X039317Y023746D01*
X039356Y023805D01*
X03937Y023874D01*
Y024285D01*
X03937Y024287D01*
X039374Y024297D01*
X039381Y024312D01*
X039393Y024331D01*
X039407Y024351D01*
X039484Y02444D01*
X039516Y024472D01*
X039524Y024483D01*
X039559Y024519D01*
X039602Y024593D01*
X03968Y024572D01*
Y012362D01*
X039684Y012346D01*
X039666Y012085D01*
X039612Y011812D01*
X039523Y011549D01*
X0394Y011299D01*
X039245Y011068D01*
X039062Y010859D01*
X038853Y010676D01*
X038622Y010521D01*
X038372Y010398D01*
X038109Y010309D01*
X037836Y010255D01*
X037575Y010238D01*
X037559Y010241D01*
X012441D01*
X012441Y010241D01*
X012362Y010241D01*
X012284Y010242D01*
X012085Y010255D01*
X011812Y010309D01*
X011549Y010398D01*
X011299Y010521D01*
X011068Y010676D01*
X010859Y010859D01*
X010676Y011068D01*
X010521Y011299D01*
X010398Y011549D01*
X010309Y011812D01*
X010255Y012085D01*
X010238Y012346D01*
X010241Y012362D01*
Y028031D01*
X010241Y028032D01*
X010241Y02811D01*
X010242Y028189D01*
X010255Y028388D01*
X010309Y02866D01*
X010398Y028924D01*
X010521Y029173D01*
X010676Y029404D01*
X010859Y029613D01*
X011068Y029797D01*
X011299Y029951D01*
X011549Y030074D01*
X011812Y030163D01*
X012085Y030218D01*
X012346Y030235D01*
X012362Y030232D01*
X037559D01*
X037575Y030235D01*
X037836Y030218D01*
D02*
G37*
G36*
X025894Y02473D02*
X025892Y024727D01*
X025891Y024723D01*
X025889Y024717D01*
X025888Y024711D01*
X025887Y024696D01*
X025886Y024676D01*
X025886Y024665D01*
X025768D01*
X025768Y024676D01*
X025765Y024711D01*
X025764Y024717D01*
X025763Y024723D01*
X025761Y024727D01*
X02576Y02473D01*
X025758Y024733D01*
X025896D01*
X025894Y02473D01*
D02*
G37*
G36*
X036295Y024495D02*
X036285Y024488D01*
X036276Y02448D01*
X036269Y02447D01*
X036263Y024458D01*
X036257Y024445D01*
X036253Y024431D01*
X03625Y024415D01*
X036249Y024397D01*
X036248Y024378D01*
X03613D01*
X036129Y024397D01*
X036128Y024415D01*
X036125Y024431D01*
X036121Y024445D01*
X036115Y024458D01*
X036109Y02447D01*
X036101Y02448D01*
X036093Y024488D01*
X036083Y024495D01*
X036072Y0245D01*
X036306D01*
X036295Y024495D01*
D02*
G37*
G36*
X024143Y024302D02*
X024137Y024307D01*
X024131Y024312D01*
X024124Y024316D01*
X024117Y02432D01*
X024109Y024323D01*
X024101Y024326D01*
X024092Y024328D01*
X024083Y02433D01*
X024074Y02433D01*
X024064Y024331D01*
X024063Y024409D01*
X024072Y02441D01*
X024082Y024411D01*
X024091Y024412D01*
X024099Y024414D01*
X024107Y024417D01*
X024115Y02442D01*
X024122Y024424D01*
X024129Y024429D01*
X024135Y024434D01*
X024141Y024439D01*
X024143Y024302D01*
D02*
G37*
G36*
X039381Y024535D02*
X039296Y024437D01*
X039275Y024408D01*
X039258Y02438D01*
X039245Y024354D01*
X039236Y02433D01*
X03923Y024307D01*
X039228Y024286D01*
X03915D01*
X039148Y024307D01*
X039142Y02433D01*
X039133Y024354D01*
X03912Y02438D01*
X039103Y024408D01*
X039082Y024437D01*
X039057Y024468D01*
X038997Y024535D01*
X038962Y024571D01*
X039416D01*
X039381Y024535D01*
D02*
G37*
G36*
X038381D02*
X038296Y024437D01*
X038275Y024408D01*
X038258Y02438D01*
X038245Y024354D01*
X038236Y02433D01*
X03823Y024307D01*
X038228Y024286D01*
X03815D01*
X038148Y024307D01*
X038142Y02433D01*
X038133Y024354D01*
X03812Y02438D01*
X038103Y024408D01*
X038082Y024437D01*
X038057Y024468D01*
X037997Y024535D01*
X037962Y024571D01*
X038416D01*
X038381Y024535D01*
D02*
G37*
G36*
X037381D02*
X037296Y024437D01*
X037275Y024408D01*
X037258Y02438D01*
X037245Y024354D01*
X037236Y02433D01*
X03723Y024307D01*
X037228Y024286D01*
X03715D01*
X037148Y024307D01*
X037142Y02433D01*
X037133Y024354D01*
X03712Y02438D01*
X037103Y024408D01*
X037082Y024437D01*
X037057Y024468D01*
X036997Y024535D01*
X036962Y024571D01*
X037416D01*
X037381Y024535D01*
D02*
G37*
G36*
X029443Y024201D02*
X029446Y024199D01*
X029451Y024198D01*
X029456Y024196D01*
X029462Y024195D01*
X029478Y024194D01*
X029497Y024193D01*
X029508Y024193D01*
Y024075D01*
X029497Y024075D01*
X029462Y024072D01*
X029456Y024071D01*
X029451Y02407D01*
X029446Y024069D01*
X029443Y024067D01*
X02944Y024065D01*
Y024203D01*
X029443Y024201D01*
D02*
G37*
G36*
X0293Y024065D02*
X029297Y024067D01*
X029294Y024069D01*
X02929Y02407D01*
X029284Y024071D01*
X029278Y024072D01*
X029263Y024074D01*
X029243Y024075D01*
X029232Y024075D01*
Y024193D01*
X029243Y024193D01*
X029278Y024195D01*
X029284Y024196D01*
X02929Y024198D01*
X029294Y024199D01*
X029297Y024201D01*
X0293Y024203D01*
Y024065D01*
D02*
G37*
G36*
X028262Y024201D02*
X028265Y024199D01*
X028269Y024198D01*
X028275Y024196D01*
X028281Y024195D01*
X028296Y024194D01*
X028316Y024193D01*
X028327Y024193D01*
Y024075D01*
X028316Y024075D01*
X028281Y024072D01*
X028275Y024071D01*
X028269Y02407D01*
X028265Y024069D01*
X028262Y024067D01*
X028259Y024065D01*
Y024203D01*
X028262Y024201D01*
D02*
G37*
G36*
X028119Y024065D02*
X028116Y024067D01*
X028113Y024069D01*
X028109Y02407D01*
X028103Y024071D01*
X028097Y024072D01*
X028082Y024074D01*
X028062Y024075D01*
X028051Y024075D01*
Y024193D01*
X028062Y024193D01*
X028097Y024195D01*
X028103Y024196D01*
X028109Y024198D01*
X028113Y024199D01*
X028116Y024201D01*
X028119Y024203D01*
Y024065D01*
D02*
G37*
G36*
X02712Y024201D02*
X027123Y024199D01*
X027128Y024198D01*
X027133Y024196D01*
X027139Y024195D01*
X027155Y024194D01*
X027174Y024193D01*
X027185Y024193D01*
Y024075D01*
X027174Y024075D01*
X027139Y024072D01*
X027133Y024071D01*
X027128Y02407D01*
X027123Y024069D01*
X02712Y024067D01*
X027118Y024065D01*
Y024203D01*
X02712Y024201D01*
D02*
G37*
G36*
X025363Y024065D02*
X025357Y024071D01*
X02535Y024076D01*
X025344Y02408D01*
X025336Y024084D01*
X025329Y024087D01*
X02532Y02409D01*
X025312Y024092D01*
X025303Y024093D01*
X025294Y024094D01*
X025284Y024094D01*
Y024173D01*
X025294Y024174D01*
X025303Y024174D01*
X025312Y024176D01*
X02532Y024178D01*
X025329Y024181D01*
X025336Y024184D01*
X025344Y024188D01*
X02535Y024192D01*
X025357Y024197D01*
X025363Y024203D01*
Y024065D01*
D02*
G37*
G36*
X027046Y024035D02*
X027043Y024035D01*
X02704Y024034D01*
X027036Y024032D01*
X027031Y024029D01*
X027026Y024025D01*
X027014Y024016D01*
X026999Y024002D01*
X026992Y023995D01*
X026908Y024078D01*
X026916Y024086D01*
X026939Y024112D01*
X026942Y024118D01*
X026945Y024122D01*
X026947Y024126D01*
X026948Y02413D01*
X026949Y024133D01*
X027046Y024035D01*
D02*
G37*
G36*
X022771Y023818D02*
X022764Y023811D01*
X022758Y023803D01*
X022753Y023796D01*
X022749Y023789D01*
X022745Y023781D01*
X022742Y023773D01*
X022739Y023765D01*
X022737Y023757D01*
X022736Y023749D01*
X022736Y023741D01*
X022639Y023839D01*
X022647Y023839D01*
X022655Y02384D01*
X022663Y023842D01*
X022671Y023844D01*
X022679Y023847D01*
X022686Y023851D01*
X022694Y023856D01*
X022701Y023861D01*
X022708Y023867D01*
X022715Y023874D01*
X022771Y023818D01*
D02*
G37*
G36*
X025887Y023737D02*
X025891Y023717D01*
X025896Y0237D01*
X025905Y023684D01*
X025915Y023671D01*
X025928Y023661D01*
X025944Y023652D01*
X025961Y023646D01*
X025982Y023643D01*
X026004Y023642D01*
Y023642D01*
D01*
X026004D01*
X025945Y023524D01*
X025827D01*
X025827Y023524D01*
D01*
X025827D01*
X02565Y023642D01*
X02565D01*
X02565Y023642D01*
X025672Y023643D01*
X025692Y023646D01*
X02571Y023652D01*
X025717Y023656D01*
X025725Y023661D01*
X025736Y023669D01*
X025738Y023671D01*
X025749Y023684D01*
X025757Y0237D01*
X025763Y023717D01*
X025767Y023737D01*
X025768Y02376D01*
X025768D01*
Y02376D01*
X025886D01*
X025887Y023737D01*
D02*
G37*
G36*
X025191Y02365D02*
X025194Y023648D01*
X025199Y023647D01*
X025204Y023645D01*
X02521Y023644D01*
X025226Y023643D01*
X025245Y023642D01*
X025256Y023642D01*
Y023524D01*
X025245Y023524D01*
X02521Y023521D01*
X025204Y02352D01*
X025199Y023519D01*
X025194Y023517D01*
X025191Y023516D01*
X025188Y023514D01*
Y023652D01*
X025191Y02365D01*
D02*
G37*
G36*
X025117Y023484D02*
X025114Y023484D01*
X025111Y023483D01*
X025106Y023481D01*
X025102Y023478D01*
X025097Y023474D01*
X025085Y023464D01*
X02507Y023451D01*
X025062Y023443D01*
X024979Y023527D01*
X024987Y023535D01*
X02501Y023561D01*
X025013Y023566D01*
X025016Y023571D01*
X025018Y023575D01*
X025019Y023579D01*
X02502Y023582D01*
X025117Y023484D01*
D02*
G37*
G36*
X024941Y022961D02*
X024943Y022927D01*
X024944Y02292D01*
X024946Y022915D01*
X024947Y022911D01*
X024949Y022907D01*
X024951Y022905D01*
X024813D01*
X024815Y022907D01*
X024817Y022911D01*
X024818Y022915D01*
X024819Y02292D01*
X02482Y022927D01*
X024822Y022942D01*
X024823Y022961D01*
X024823Y022972D01*
X024941D01*
X024941Y022961D01*
D02*
G37*
G36*
X023709Y022884D02*
X023703Y022889D01*
X023697Y022894D01*
X02369Y022899D01*
X023683Y022903D01*
X023675Y022906D01*
X023667Y022909D01*
X023658Y022911D01*
X023649Y022912D01*
X02364Y022913D01*
X02363Y022913D01*
Y022992D01*
X02364Y022992D01*
X023649Y022993D01*
X023658Y022995D01*
X023667Y022997D01*
X023675Y023D01*
X023683Y023003D01*
X02369Y023007D01*
X023697Y023011D01*
X023703Y023016D01*
X023709Y023022D01*
Y022884D01*
D02*
G37*
G36*
X030909Y022316D02*
X030912Y022315D01*
X030917Y022313D01*
X030922Y022312D01*
X030928Y022311D01*
X030944Y02231D01*
X030963Y022309D01*
X030974Y022309D01*
X030979Y022191D01*
X030968Y022191D01*
X030933Y022188D01*
X030927Y022187D01*
X030921Y022186D01*
X030917Y022184D01*
X030914Y022182D01*
X030911Y02218D01*
X030907Y022318D01*
X030909Y022316D01*
D02*
G37*
G36*
X023913Y02181D02*
X023906Y021803D01*
X0239Y021796D01*
X023895Y021788D01*
X02389Y021781D01*
X023886Y021773D01*
X023883Y021765D01*
X023881Y021758D01*
X023879Y02175D01*
X023878Y021741D01*
X023878Y021733D01*
X023781Y021831D01*
X023789Y021831D01*
X023797Y021832D01*
X023805Y021834D01*
X023813Y021836D01*
X02382Y021839D01*
X023828Y021843D01*
X023835Y021848D01*
X023843Y021853D01*
X02385Y021859D01*
X023857Y021866D01*
X023913Y02181D01*
D02*
G37*
G36*
X025058Y021458D02*
X025052Y021463D01*
X025045Y021468D01*
X025039Y021473D01*
X025031Y021477D01*
X025024Y02148D01*
X025015Y021483D01*
X025007Y021485D01*
X024998Y021486D01*
X024989Y021487D01*
X024979Y021487D01*
Y021566D01*
X024989Y021566D01*
X024998Y021567D01*
X025007Y021569D01*
X025015Y021571D01*
X025024Y021573D01*
X025031Y021577D01*
X025039Y021581D01*
X025045Y021585D01*
X025052Y02159D01*
X025058Y021596D01*
Y021458D01*
D02*
G37*
G36*
X030394Y02136D02*
X030395Y021351D01*
X030396Y021342D01*
X030398Y021333D01*
X030401Y021325D01*
X030404Y021317D01*
X030408Y02131D01*
X030413Y021303D01*
X030418Y021297D01*
X030423Y021291D01*
X030285D01*
X030291Y021297D01*
X030296Y021303D01*
X0303Y02131D01*
X030304Y021317D01*
X030308Y021325D01*
X03031Y021333D01*
X030312Y021342D01*
X030314Y021351D01*
X030315Y02136D01*
X030315Y02137D01*
X030394D01*
X030394Y02136D01*
D02*
G37*
G36*
X026937Y021106D02*
X026929Y021106D01*
X026921Y021105D01*
X026913Y021104D01*
X026905Y021101D01*
X026898Y021098D01*
X02689Y021094D01*
X026883Y02109D01*
X026875Y021084D01*
X026868Y021078D01*
X026861Y021072D01*
X026805Y021127D01*
X026812Y021134D01*
X026818Y021142D01*
X026823Y021149D01*
X026828Y021156D01*
X026832Y021164D01*
X026835Y021172D01*
X026837Y02118D01*
X026839Y021188D01*
X02684Y021196D01*
X02684Y021204D01*
X026937Y021106D01*
D02*
G37*
G36*
X030785Y021075D02*
X030777Y021075D01*
X030769Y021074D01*
X030761Y021072D01*
X030753Y02107D01*
X030746Y021067D01*
X030738Y021063D01*
X03073Y021058D01*
X030723Y021053D01*
X030716Y021047D01*
X030709Y02104D01*
X030653Y021096D01*
X03066Y021103D01*
X030666Y02111D01*
X030671Y021118D01*
X030676Y021125D01*
X030679Y021133D01*
X030683Y02114D01*
X030685Y021148D01*
X030687Y021156D01*
X030688Y021164D01*
X030688Y021173D01*
X030785Y021075D01*
D02*
G37*
G36*
X023856Y020654D02*
X023862Y020649D01*
X023869Y020644D01*
X023876Y020641D01*
X023884Y020637D01*
X023892Y020635D01*
X023901Y020633D01*
X02391Y020631D01*
X023919Y02063D01*
X023929Y02063D01*
Y020551D01*
X023919Y020551D01*
X02391Y02055D01*
X023901Y020549D01*
X023892Y020546D01*
X023884Y020544D01*
X023876Y020541D01*
X023869Y020537D01*
X023862Y020532D01*
X023856Y020527D01*
X02385Y020522D01*
Y020659D01*
X023856Y020654D01*
D02*
G37*
G36*
X031473Y020411D02*
X031428Y020411D01*
X031345Y020405D01*
X031309Y0204D01*
X031276Y020392D01*
X031245Y020384D01*
X031218Y020373D01*
X031194Y020361D01*
X031173Y020347D01*
X031154Y020331D01*
X031071Y020414D01*
X031087Y020432D01*
X031101Y020454D01*
X031113Y020478D01*
X031124Y020505D01*
X031133Y020535D01*
X03114Y020569D01*
X031145Y020605D01*
X031149Y020645D01*
X031152Y020733D01*
X031473Y020411D01*
D02*
G37*
G36*
X030825Y020143D02*
X030817Y020143D01*
X030809Y020142D01*
X030801Y020141D01*
X030793Y020138D01*
X030785Y020135D01*
X030778Y020131D01*
X03077Y020127D01*
X030763Y020121D01*
X030755Y020115D01*
X030748Y020109D01*
X030693Y020164D01*
X030699Y020171D01*
X030705Y020179D01*
X030711Y020186D01*
X030715Y020193D01*
X030719Y020201D01*
X030722Y020209D01*
X030725Y020217D01*
X030726Y020225D01*
X030727Y020233D01*
X030728Y020241D01*
X030825Y020143D01*
D02*
G37*
G36*
X023386Y020139D02*
X023387Y02013D01*
X023388Y020121D01*
X023391Y020113D01*
X023393Y020104D01*
X023396Y020097D01*
X0234Y02009D01*
X023405Y020083D01*
X02341Y020076D01*
X023415Y02007D01*
X023278D01*
X023283Y020076D01*
X023288Y020083D01*
X023293Y02009D01*
X023296Y020097D01*
X0233Y020104D01*
X023302Y020113D01*
X023304Y020121D01*
X023306Y02013D01*
X023307Y020139D01*
X023307Y020149D01*
X023386D01*
X023386Y020139D01*
D02*
G37*
G36*
X026718Y019956D02*
X026725Y01995D01*
X026733Y019945D01*
X02674Y01994D01*
X026748Y019936D01*
X026756Y019933D01*
X026763Y019931D01*
X026771Y019929D01*
X026779Y019928D01*
X026788Y019928D01*
X02669Y01983D01*
X02669Y019839D01*
X026689Y019847D01*
X026687Y019855D01*
X026685Y019863D01*
X026682Y01987D01*
X026678Y019878D01*
X026673Y019885D01*
X026668Y019893D01*
X026662Y0199D01*
X026655Y019907D01*
X026711Y019963D01*
X026718Y019956D01*
D02*
G37*
G36*
X023874Y019725D02*
X023867Y019718D01*
X023861Y019711D01*
X023856Y019703D01*
X023851Y019696D01*
X023847Y019688D01*
X023844Y01968D01*
X023842Y019672D01*
X02384Y019665D01*
X023839Y019656D01*
X023839Y019648D01*
X023741Y019746D01*
X023749Y019746D01*
X023757Y019747D01*
X023765Y019749D01*
X023773Y019751D01*
X023781Y019754D01*
X023789Y019758D01*
X023796Y019763D01*
X023803Y019768D01*
X023811Y019774D01*
X023818Y019781D01*
X023874Y019725D01*
D02*
G37*
G36*
X021083Y019715D02*
X021084Y019707D01*
X021086Y019699D01*
X021088Y019691D01*
X021091Y019684D01*
X021095Y019676D01*
X0211Y019668D01*
X021105Y019661D01*
X021111Y019654D01*
X021118Y019647D01*
X021062Y019591D01*
X021055Y019598D01*
X021048Y019604D01*
X02104Y019609D01*
X021033Y019614D01*
X021025Y019617D01*
X021017Y019621D01*
X02101Y019623D01*
X021002Y019625D01*
X020993Y019626D01*
X020985Y019626D01*
X021083Y019723D01*
X021083Y019715D01*
D02*
G37*
G36*
X028231Y019347D02*
X028226Y019353D01*
X02822Y019358D01*
X028213Y019363D01*
X028206Y019367D01*
X028199Y01937D01*
X028191Y019373D01*
X028183Y019376D01*
X028174Y019377D01*
X028164Y019378D01*
X028155Y019378D01*
X028162Y019457D01*
X028172Y019457D01*
X028181Y019458D01*
X02819Y01946D01*
X028199Y019461D01*
X028207Y019464D01*
X028215Y019467D01*
X028222Y01947D01*
X02823Y019474D01*
X028236Y019479D01*
X028243Y019484D01*
X028231Y019347D01*
D02*
G37*
G36*
X018075Y019252D02*
X018074Y019259D01*
X018072Y019266D01*
X018068Y019272D01*
X018062Y019277D01*
X018055Y019282D01*
X018046Y019285D01*
X018036Y019288D01*
X018024Y01929D01*
X01801Y019291D01*
X017995Y019291D01*
Y01937D01*
X01801Y01937D01*
X018024Y019372D01*
X018036Y019374D01*
X018046Y019376D01*
X018055Y01938D01*
X018062Y019384D01*
X018068Y019389D01*
X018072Y019395D01*
X018074Y019402D01*
X018075Y019409D01*
Y019252D01*
D02*
G37*
G36*
X033216Y019305D02*
X033222Y0193D01*
X033229Y019296D01*
X033237Y019292D01*
X033244Y019289D01*
X033252Y019286D01*
X033261Y019284D01*
X03327Y019283D01*
X033279Y019282D01*
X033289Y019282D01*
Y019203D01*
X033279Y019202D01*
X03327Y019202D01*
X033261Y0192D01*
X033252Y019198D01*
X033244Y019195D01*
X033237Y019192D01*
X033229Y019188D01*
X033222Y019184D01*
X033216Y019179D01*
X03321Y019173D01*
Y019311D01*
X033216Y019305D01*
D02*
G37*
G36*
X01969Y019482D02*
X019745Y019418D01*
X019771Y019392D01*
X019797Y01937D01*
X019822Y019352D01*
X019847Y019338D01*
X019871Y019328D01*
X019894Y019322D01*
X019917Y01932D01*
X019905Y019241D01*
X019887Y01924D01*
X019865Y019234D01*
X019841Y019226D01*
X019815Y019214D01*
X019785Y019199D01*
X019716Y019158D01*
X019636Y019103D01*
X019592Y01907D01*
X019662Y01952D01*
X01969Y019482D01*
D02*
G37*
G36*
X026788Y019082D02*
X02678Y019081D01*
X026772Y01908D01*
X026764Y019079D01*
X026756Y019076D01*
X026748Y019073D01*
X026741Y019069D01*
X026733Y019065D01*
X026726Y019059D01*
X026719Y019053D01*
X026712Y019047D01*
X026656Y019102D01*
X026663Y019109D01*
X026669Y019117D01*
X026674Y019124D01*
X026679Y019132D01*
X026682Y019139D01*
X026686Y019147D01*
X026688Y019155D01*
X02669Y019163D01*
X026691Y019171D01*
X026691Y019179D01*
X026788Y019082D01*
D02*
G37*
G36*
X020667Y019079D02*
X020673Y019074D01*
X02068Y01907D01*
X020687Y019066D01*
X020695Y019062D01*
X020703Y01906D01*
X020712Y019058D01*
X020721Y019056D01*
X02073Y019055D01*
X02074Y019055D01*
Y018976D01*
X02073Y018976D01*
X020721Y018975D01*
X020712Y018974D01*
X020703Y018972D01*
X020695Y018969D01*
X020687Y018966D01*
X02068Y018962D01*
X020673Y018957D01*
X020667Y018952D01*
X020661Y018947D01*
Y019085D01*
X020667Y019079D01*
D02*
G37*
G36*
X024408Y018917D02*
X0244Y018917D01*
X024392Y018916D01*
X024384Y018914D01*
X024376Y018912D01*
X024369Y018909D01*
X024361Y018905D01*
X024354Y0189D01*
X024346Y018895D01*
X024339Y018889D01*
X024332Y018882D01*
X024276Y018938D01*
X024283Y018945D01*
X024289Y018952D01*
X024294Y01896D01*
X024299Y018967D01*
X024302Y018975D01*
X024306Y018983D01*
X024308Y01899D01*
X02431Y018998D01*
X024311Y019007D01*
X024311Y019015D01*
X024408Y018917D01*
D02*
G37*
G36*
X033985Y018671D02*
X033982Y018673D01*
X033979Y018675D01*
X033975Y018676D01*
X033969Y018678D01*
X033963Y018679D01*
X033948Y01868D01*
X033928Y018681D01*
X033917Y018681D01*
Y018799D01*
X033928Y018799D01*
X033963Y018802D01*
X033969Y018803D01*
X033975Y018804D01*
X033979Y018806D01*
X033982Y018807D01*
X033985Y018809D01*
Y018671D01*
D02*
G37*
G36*
X024677Y018681D02*
X024669Y018681D01*
X024661Y01868D01*
X024653Y018678D01*
X024645Y018676D01*
X024637Y018673D01*
X02463Y018669D01*
X024622Y018664D01*
X024615Y018659D01*
X024607Y018653D01*
X0246Y018646D01*
X024545Y018702D01*
X024551Y018709D01*
X024557Y018716D01*
X024563Y018724D01*
X024567Y018731D01*
X024571Y018739D01*
X024574Y018746D01*
X024577Y018754D01*
X024578Y018762D01*
X024579Y01877D01*
X02458Y018779D01*
X024677Y018681D01*
D02*
G37*
G36*
X022803Y018749D02*
X022811Y018743D01*
X022818Y018737D01*
X022826Y018733D01*
X022833Y018729D01*
X022841Y018726D01*
X022849Y018723D01*
X022857Y018722D01*
X022865Y018721D01*
X022873Y01872D01*
X022776Y018623D01*
X022775Y018631D01*
X022774Y018639D01*
X022773Y018647D01*
X02277Y018655D01*
X022767Y018663D01*
X022763Y018671D01*
X022759Y018678D01*
X022753Y018685D01*
X022747Y018693D01*
X022741Y0187D01*
X022796Y018755D01*
X022803Y018749D01*
D02*
G37*
G36*
X0237Y018602D02*
X023692Y018602D01*
X023684Y018601D01*
X023676Y018599D01*
X023668Y018597D01*
X02366Y018594D01*
X023652Y01859D01*
X023645Y018585D01*
X023637Y01858D01*
X02363Y018574D01*
X023623Y018567D01*
X023567Y018623D01*
X023574Y01863D01*
X02358Y018637D01*
X023585Y018645D01*
X02359Y018652D01*
X023594Y01866D01*
X023597Y018668D01*
X023599Y018676D01*
X023601Y018684D01*
X023602Y018692D01*
X023602Y0187D01*
X0237Y018602D01*
D02*
G37*
G36*
X021048Y01827D02*
X021043Y018264D01*
X021038Y018257D01*
X021034Y01825D01*
X021031Y018242D01*
X021028Y018234D01*
X021026Y018225D01*
X021025Y018216D01*
X021024Y018207D01*
X021024Y018197D01*
X020945D01*
X020945Y018207D01*
X020944Y018216D01*
X020942Y018225D01*
X02094Y018234D01*
X020938Y018242D01*
X020934Y01825D01*
X02093Y018257D01*
X020926Y018264D01*
X020921Y01827D01*
X020915Y018276D01*
X021053D01*
X021048Y01827D01*
D02*
G37*
G36*
X027557Y017977D02*
X027563Y017972D01*
X02757Y017967D01*
X027577Y017963D01*
X027585Y01796D01*
X027593Y017957D01*
X027601Y017955D01*
X02761Y017954D01*
X02762Y017953D01*
X02763Y017953D01*
Y017874D01*
X02762Y017874D01*
X02761Y017873D01*
X027601Y017871D01*
X027593Y017869D01*
X027585Y017867D01*
X027577Y017863D01*
X02757Y01786D01*
X027563Y017855D01*
X027557Y01785D01*
X027551Y017844D01*
Y017982D01*
X027557Y017977D01*
D02*
G37*
G36*
X02741Y017844D02*
X027404Y01785D01*
X027398Y017855D01*
X027391Y01786D01*
X027383Y017863D01*
X027376Y017867D01*
X027368Y017869D01*
X027359Y017871D01*
X02735Y017873D01*
X027341Y017874D01*
X027331Y017874D01*
Y017953D01*
X027341Y017953D01*
X02735Y017954D01*
X027359Y017955D01*
X027368Y017957D01*
X027376Y01796D01*
X027383Y017963D01*
X027391Y017967D01*
X027398Y017972D01*
X027404Y017977D01*
X02741Y017982D01*
Y017844D01*
D02*
G37*
G36*
X029829Y017839D02*
X029826Y017846D01*
X029822Y017852D01*
X029818Y017857D01*
X029812Y017861D01*
X029806Y017865D01*
X029799Y017868D01*
X029792Y017871D01*
X029783Y017873D01*
X029774Y017874D01*
X029764Y017874D01*
X029803Y017953D01*
X029813Y017953D01*
X02984Y017955D01*
X029849Y017956D01*
X029864Y017959D01*
X029871Y017961D01*
X029884Y017965D01*
X029829Y017839D01*
D02*
G37*
G36*
X020551Y017895D02*
X020552Y017886D01*
X020554Y017877D01*
X020556Y017869D01*
X020559Y01786D01*
X020562Y017853D01*
X020566Y017845D01*
X02057Y017839D01*
X020575Y017832D01*
X020581Y017826D01*
X020443D01*
X020449Y017832D01*
X020454Y017839D01*
X020458Y017845D01*
X020462Y017853D01*
X020465Y01786D01*
X020468Y017869D01*
X02047Y017877D01*
X020471Y017886D01*
X020472Y017895D01*
X020472Y017905D01*
X020551D01*
X020551Y017895D01*
D02*
G37*
G36*
X02341Y017798D02*
X023405Y017791D01*
X0234Y017784D01*
X023396Y017777D01*
X023393Y01777D01*
X023391Y017761D01*
X023388Y017753D01*
X023387Y017744D01*
X023386Y017735D01*
X023386Y017725D01*
X023307D01*
X023307Y017735D01*
X023306Y017744D01*
X023304Y017753D01*
X023302Y017761D01*
X0233Y01777D01*
X023296Y017777D01*
X023293Y017784D01*
X023288Y017791D01*
X023283Y017798D01*
X023278Y017804D01*
X023415D01*
X02341Y017798D01*
D02*
G37*
G36*
X03123Y017762D02*
X031237Y017757D01*
X031244Y017752D01*
X031251Y017749D01*
X031259Y017745D01*
X031267Y017743D01*
X031275Y017741D01*
X031284Y017739D01*
X031294Y017738D01*
X031303Y017738D01*
Y017659D01*
X031294Y017659D01*
X031284Y017658D01*
X031275Y017657D01*
X031267Y017654D01*
X031259Y017652D01*
X031251Y017649D01*
X031244Y017645D01*
X031237Y01764D01*
X03123Y017635D01*
X031224Y01763D01*
Y017767D01*
X03123Y017762D01*
D02*
G37*
G36*
X025343Y017567D02*
X025337Y017573D01*
X02533Y017578D01*
X025324Y017582D01*
X025316Y017586D01*
X025309Y017589D01*
X0253Y017592D01*
X025292Y017594D01*
X025283Y017596D01*
X025274Y017597D01*
X025264Y017597D01*
Y017676D01*
X025274Y017676D01*
X025283Y017677D01*
X025292Y017678D01*
X0253Y01768D01*
X025309Y017683D01*
X025316Y017686D01*
X025324Y01769D01*
X02533Y017694D01*
X025337Y0177D01*
X025343Y017705D01*
Y017567D01*
D02*
G37*
G36*
X026929Y017723D02*
Y017629D01*
X026942Y017598D01*
X026875Y017554D01*
X026827Y017602D01*
X02674Y017638D01*
X026646D01*
X026559Y017602D01*
X026493Y017535D01*
X026457Y017449D01*
Y017355D01*
X026493Y017268D01*
X026559Y017201D01*
X026646Y017165D01*
X026674D01*
X026683Y017156D01*
X026742Y017117D01*
X026811Y017103D01*
X026901D01*
X026936Y017051D01*
Y016957D01*
X026972Y01687D01*
X027038Y016804D01*
X027125Y016768D01*
X027219D01*
X027306Y016804D01*
X027328Y016825D01*
X028549D01*
X028567Y016808D01*
X028654Y016772D01*
X028748D01*
X028835Y016808D01*
X028901Y016874D01*
X028937Y016961D01*
Y017055D01*
X028969Y017103D01*
X030157D01*
X031177Y016083D01*
X031144Y016004D01*
X031113D01*
X03098Y015977D01*
X030855Y015926D01*
X030742Y01585D01*
X030646Y015754D01*
X030571Y015641D01*
X030519Y015516D01*
X030492Y015383D01*
Y015247D01*
X030519Y015114D01*
X030571Y014989D01*
X030646Y014876D01*
X030742Y01478D01*
X030855Y014704D01*
X030906Y014683D01*
X03089Y014605D01*
X028892D01*
X028815Y014589D01*
X02875Y014546D01*
X028583Y014379D01*
X02854Y014314D01*
X028525Y014237D01*
Y013945D01*
X028446Y013892D01*
X028433Y013898D01*
X028339D01*
X028278Y013873D01*
X028192Y013874D01*
X028126Y01394D01*
X02804Y013976D01*
X027957Y01406D01*
Y014928D01*
X027966Y014934D01*
X02806D01*
X028147Y01497D01*
X028154Y014977D01*
X028504D01*
X028573Y014991D01*
X028632Y01503D01*
X028907Y015305D01*
X028946Y015364D01*
X02896Y015433D01*
Y015791D01*
X02898Y015811D01*
X029016Y015898D01*
Y015992D01*
X028982Y016074D01*
X02898Y016084D01*
X029Y01617D01*
X02904Y016197D01*
X029335Y016492D01*
X029946D01*
X030032Y016457D01*
X030126D01*
X030213Y016493D01*
X030279Y016559D01*
X030315Y016646D01*
Y01674D01*
X030279Y016827D01*
X030213Y016893D01*
X030126Y016929D01*
X030032D01*
X029946Y016894D01*
X029252D01*
X029175Y016878D01*
X02911Y016835D01*
X028814Y016539D01*
X02811D01*
X028033Y016524D01*
X027968Y01648D01*
X027708Y01622D01*
X027622Y016185D01*
X027556Y016118D01*
X02752Y016031D01*
Y015937D01*
X027555Y015852D01*
Y013976D01*
X02757Y0139D01*
X027614Y013834D01*
X027724Y013724D01*
X027692Y013645D01*
X026047D01*
Y013955D01*
X026074Y013977D01*
X026126Y014004D01*
X026181Y013993D01*
X026185D01*
X026205Y013973D01*
X026292Y013937D01*
X026386D01*
X026472Y013973D01*
X026539Y014039D01*
X026575Y014126D01*
Y01422D01*
X026539Y014307D01*
X026472Y014373D01*
X026386Y014409D01*
X026292D01*
X026227Y014383D01*
X026022Y014588D01*
X026022Y014588D01*
X025811Y014799D01*
Y016382D01*
X02583Y016402D01*
X025866Y016488D01*
Y016582D01*
X02583Y016669D01*
X025764Y016736D01*
X025677Y016772D01*
X025583D01*
X025496Y016736D01*
X025453Y016692D01*
X025315Y01683D01*
Y016858D01*
X025279Y016945D01*
X025213Y017011D01*
X025126Y017047D01*
X025032D01*
X024945Y017011D01*
X024878Y016945D01*
X024843Y016858D01*
Y016764D01*
X024878Y016677D01*
X024945Y016611D01*
X025032Y016575D01*
X025059D01*
X025186Y016448D01*
Y014815D01*
X02512Y014771D01*
X0251Y01478D01*
X025006D01*
X024919Y014744D01*
X024899Y014724D01*
X024468D01*
X024324Y014869D01*
X02433Y014899D01*
X024349Y014954D01*
X024405Y01501D01*
X024441Y015097D01*
Y015124D01*
X024498Y015181D01*
X024537Y01524D01*
X024551Y015309D01*
Y016854D01*
X024824Y017128D01*
X025529D01*
X025548Y017108D01*
X025635Y017072D01*
X025729D01*
X025816Y017108D01*
X025883Y017174D01*
X025919Y017261D01*
Y017289D01*
X026362Y017733D01*
X026922D01*
X026929Y017723D01*
D02*
G37*
G36*
X018542Y017654D02*
X018534Y01765D01*
X018526Y017645D01*
X01852Y017637D01*
X018514Y017627D01*
X01851Y017615D01*
X018506Y017601D01*
X018504Y017585D01*
X018502Y017566D01*
X018502Y017546D01*
X018384D01*
X018383Y017566D01*
X018382Y017585D01*
X018379Y017601D01*
X018376Y017615D01*
X018371Y017627D01*
X018366Y017637D01*
X018359Y017645D01*
X018352Y01765D01*
X018343Y017654D01*
X018334Y017655D01*
X018552D01*
X018542Y017654D01*
D02*
G37*
G36*
X027264Y017668D02*
X027265Y017659D01*
X027267Y017651D01*
X027269Y017644D01*
X027273Y017636D01*
X027277Y017628D01*
X027281Y017621D01*
X027286Y017613D01*
X027292Y017606D01*
X027299Y017599D01*
X027244Y017543D01*
X027237Y017549D01*
X02723Y017555D01*
X027222Y017561D01*
X027215Y017565D01*
X027207Y017569D01*
X0272Y017572D01*
X027192Y017574D01*
X027184Y017576D01*
X027176Y017577D01*
X027167Y017577D01*
X027264Y017676D01*
X027264Y017668D01*
D02*
G37*
G36*
X031988Y017524D02*
X031995Y017519D01*
X032001Y017515D01*
X032009Y017511D01*
X032016Y017507D01*
X032025Y017505D01*
X032033Y017503D01*
X032042Y017501D01*
X032051Y0175D01*
X032061Y0175D01*
Y017421D01*
X032051Y017421D01*
X032042Y01742D01*
X032033Y017419D01*
X032025Y017417D01*
X032016Y017414D01*
X032009Y017411D01*
X032001Y017407D01*
X031995Y017402D01*
X031988Y017397D01*
X031982Y017392D01*
Y01753D01*
X031988Y017524D01*
D02*
G37*
G36*
X025816Y017386D02*
X025809Y017379D01*
X025803Y017372D01*
X025798Y017364D01*
X025793Y017357D01*
X025789Y017349D01*
X025786Y017341D01*
X025784Y017334D01*
X025782Y017326D01*
X025781Y017317D01*
X025781Y017309D01*
X025683Y017407D01*
X025691Y017407D01*
X0257Y017408D01*
X025708Y01741D01*
X025715Y017412D01*
X025723Y017415D01*
X025731Y017419D01*
X025738Y017424D01*
X025746Y017429D01*
X025753Y017435D01*
X02576Y017442D01*
X025816Y017386D01*
D02*
G37*
G36*
X026792Y017392D02*
X026793Y017384D01*
X026794Y017376D01*
X026797Y017368D01*
X0268Y017361D01*
X026804Y017353D01*
X026808Y017346D01*
X026814Y017338D01*
X02682Y017331D01*
X026826Y017324D01*
X026771Y017268D01*
X026763Y017275D01*
X026756Y017281D01*
X026749Y017286D01*
X026741Y017291D01*
X026734Y017295D01*
X026726Y017298D01*
X026718Y0173D01*
X02671Y017302D01*
X026702Y017303D01*
X026694Y017303D01*
X026791Y017401D01*
X026792Y017392D01*
D02*
G37*
G36*
X024307Y017322D02*
X024301Y017315D01*
X024295Y017308D01*
X024289Y017301D01*
X024285Y017293D01*
X024281Y017286D01*
X024278Y017278D01*
X024276Y01727D01*
X024274Y017262D01*
X024273Y017254D01*
X024273Y017246D01*
X024174Y017341D01*
X024182Y017341D01*
X02419Y017343D01*
X024198Y017344D01*
X024206Y017347D01*
X024213Y01735D01*
X024221Y017354D01*
X024228Y017359D01*
X024236Y017364D01*
X024243Y01737D01*
X02425Y017377D01*
X024307Y017322D01*
D02*
G37*
G36*
X025612Y017239D02*
X025606Y017245D01*
X0256Y01725D01*
X025593Y017254D01*
X025585Y017258D01*
X025578Y017262D01*
X02557Y017264D01*
X025561Y017266D01*
X025552Y017268D01*
X025543Y017269D01*
X025533Y017269D01*
Y017348D01*
X025543Y017348D01*
X025552Y017349D01*
X025561Y01735D01*
X02557Y017352D01*
X025578Y017355D01*
X025585Y017358D01*
X025593Y017362D01*
X0256Y017367D01*
X025606Y017372D01*
X025612Y017377D01*
Y017239D01*
D02*
G37*
G36*
X021536Y017305D02*
X021537Y017295D01*
X021538Y017286D01*
X02154Y017278D01*
X021543Y01727D01*
X021546Y017262D01*
X02155Y017255D01*
X021554Y017248D01*
X021559Y017242D01*
X021565Y017236D01*
X021427D01*
X021433Y017242D01*
X021438Y017248D01*
X021442Y017255D01*
X021446Y017262D01*
X021449Y01727D01*
X021452Y017278D01*
X021454Y017286D01*
X021456Y017295D01*
X021456Y017305D01*
X021457Y017315D01*
X021535D01*
X021536Y017305D01*
D02*
G37*
G36*
X028632Y016938D02*
X028626Y016943D01*
X028619Y016948D01*
X028612Y016952D01*
X028605Y016956D01*
X028597Y016959D01*
X028589Y016962D01*
X028581Y016964D01*
X028572Y016965D01*
X028562Y016966D01*
X028552Y016967D01*
X028551Y017045D01*
X028561Y017046D01*
X02857Y017047D01*
X028579Y017048D01*
X028587Y01705D01*
X028595Y017053D01*
X028603Y017056D01*
X02861Y01706D01*
X028617Y017065D01*
X028623Y01707D01*
X028629Y017075D01*
X028632Y016938D01*
D02*
G37*
G36*
X027247Y017069D02*
X027254Y017064D01*
X027261Y01706D01*
X027268Y017056D01*
X027276Y017053D01*
X027284Y01705D01*
X027293Y017048D01*
X027301Y017047D01*
X027311Y017046D01*
X027321Y017045D01*
X027322Y016967D01*
X027313Y016966D01*
X027303Y016965D01*
X027294Y016964D01*
X027286Y016962D01*
X027278Y016959D01*
X02727Y016956D01*
X027263Y016952D01*
X027256Y016947D01*
X02725Y016942D01*
X027244Y016937D01*
X027241Y017074D01*
X027247Y017069D01*
D02*
G37*
G36*
X021297Y016893D02*
X021298Y016884D01*
X021299Y016875D01*
X021302Y016866D01*
X021304Y016858D01*
X021307Y01685D01*
X021311Y016843D01*
X021316Y016836D01*
X021321Y01683D01*
X021326Y016824D01*
X021189D01*
X021194Y01683D01*
X021199Y016836D01*
X021204Y016843D01*
X021207Y01685D01*
X021211Y016858D01*
X021213Y016866D01*
X021215Y016875D01*
X021217Y016884D01*
X021218Y016893D01*
X021218Y016903D01*
X021297D01*
X021297Y016893D01*
D02*
G37*
G36*
X019708Y017139D02*
X019803Y017057D01*
X019832Y017037D01*
X019859Y017021D01*
X019884Y017008D01*
X019908Y016999D01*
X01993Y016994D01*
X01995Y016992D01*
Y016913D01*
X01993Y016912D01*
X019908Y016906D01*
X019884Y016897D01*
X019859Y016884D01*
X019832Y016868D01*
X019803Y016848D01*
X019773Y016825D01*
X019708Y016767D01*
X019674Y016732D01*
Y017173D01*
X019708Y017139D01*
D02*
G37*
G36*
X025177Y016802D02*
X025178Y016794D01*
X02518Y016786D01*
X025183Y016778D01*
X025186Y01677D01*
X02519Y016763D01*
X025194Y016755D01*
X025199Y016748D01*
X025205Y01674D01*
X025212Y016733D01*
X025156Y016678D01*
X025149Y016684D01*
X025142Y01669D01*
X025135Y016696D01*
X025127Y0167D01*
X02512Y016704D01*
X025112Y016707D01*
X025104Y01671D01*
X025096Y016711D01*
X025088Y016712D01*
X02508Y016713D01*
X025177Y01681D01*
X025177Y016802D01*
D02*
G37*
G36*
X021888Y016689D02*
X021885Y016688D01*
X021882Y016687D01*
X021878Y016685D01*
X021873Y016682D01*
X021868Y016679D01*
X021856Y016669D01*
X021841Y016656D01*
X021834Y016648D01*
X02175Y016732D01*
X021758Y016739D01*
X021781Y016766D01*
X021784Y016771D01*
X021787Y016776D01*
X021789Y01678D01*
X02179Y016783D01*
X021791Y016786D01*
X021888Y016689D01*
D02*
G37*
G36*
X034126Y016679D02*
X034123Y016677D01*
X034121Y016675D01*
X034119Y016672D01*
X034117Y016668D01*
X034115Y016664D01*
X034114Y016659D01*
X034113Y016653D01*
X034112Y016646D01*
X034111Y016631D01*
X034033Y016636D01*
X034032Y016647D01*
X03403Y016688D01*
X034029Y016693D01*
X034027Y016697D01*
X034026Y0167D01*
X034024Y016703D01*
X034126Y016679D01*
D02*
G37*
G36*
X030008Y016624D02*
X030006Y016626D01*
X030003Y016628D01*
X029998Y016629D01*
X029993Y01663D01*
X029987Y016631D01*
X029971Y016633D01*
X029952Y016634D01*
X029941Y016634D01*
Y016752D01*
X029952Y016752D01*
X029987Y016754D01*
X029993Y016756D01*
X029998Y016757D01*
X030003Y016758D01*
X030006Y01676D01*
X030008Y016762D01*
Y016624D01*
D02*
G37*
G36*
X021077Y017293D02*
Y016907D01*
X021057Y016887D01*
X021021Y016801D01*
Y016707D01*
X021057Y01662D01*
X021124Y016553D01*
X02121Y016517D01*
X021224D01*
X021257Y016439D01*
X021141Y016323D01*
X021141Y016323D01*
X020331Y015512D01*
X020287Y015447D01*
X020272Y01537D01*
Y015044D01*
X019877Y01465D01*
X018666D01*
X018636Y014722D01*
X018953Y015039D01*
X018996Y015104D01*
X019012Y015181D01*
Y016647D01*
X019073Y01667D01*
X01909Y016671D01*
X019171Y01659D01*
X019274Y016531D01*
X019389Y0165D01*
X019508D01*
X019624Y016531D01*
X019727Y01659D01*
X019761Y016625D01*
X019773Y016632D01*
X019805Y016664D01*
X019864Y016717D01*
X019887Y016735D01*
X019908Y01675D01*
X019927Y016761D01*
X01994Y016768D01*
X019949Y016772D01*
X019951Y016772D01*
X020378D01*
X020447Y016786D01*
X020506Y016825D01*
X021004Y017323D01*
X021077Y017293D01*
D02*
G37*
G36*
X025693Y016459D02*
X025688Y016453D01*
X025684Y016446D01*
X02568Y016439D01*
X025677Y016431D01*
X025674Y016423D01*
X025672Y016414D01*
X02567Y016405D01*
X02567Y016396D01*
X025669Y016386D01*
X025591D01*
X02559Y016396D01*
X025589Y016405D01*
X025588Y016414D01*
X025586Y016423D01*
X025583Y016431D01*
X02558Y016439D01*
X025576Y016446D01*
X025572Y016453D01*
X025567Y016459D01*
X025561Y016465D01*
X025699D01*
X025693Y016459D01*
D02*
G37*
G36*
X011961Y01634D02*
X011954Y016338D01*
X011948Y016334D01*
X011943Y016328D01*
X011939Y016321D01*
X011935Y016312D01*
X011933Y016302D01*
X011931Y01629D01*
X01193Y016276D01*
X011929Y016261D01*
X01185D01*
X01185Y016276D01*
X011849Y01629D01*
X011847Y016302D01*
X011844Y016312D01*
X011841Y016321D01*
X011836Y016328D01*
X011831Y016334D01*
X011825Y016338D01*
X011818Y01634D01*
X011811Y016341D01*
X011968D01*
X011961Y01634D01*
D02*
G37*
G36*
X027895Y01604D02*
X027887Y016032D01*
X027864Y016006D01*
X027861Y016001D01*
X027858Y015996D01*
X027856Y015992D01*
X027855Y015988D01*
X027854Y015985D01*
X027757Y016083D01*
X02776Y016083D01*
X027763Y016084D01*
X027768Y016086D01*
X027772Y016089D01*
X027777Y016093D01*
X027789Y016103D01*
X027804Y016116D01*
X027812Y016123D01*
X027895Y01604D01*
D02*
G37*
G36*
X03823Y016244D02*
X038236Y016222D01*
X038245Y016197D01*
X038258Y016171D01*
X038275Y016143D01*
X038296Y016114D01*
X03832Y016083D01*
X038381Y016016D01*
X038416Y01598D01*
X037962D01*
X037997Y016016D01*
X038082Y016114D01*
X038103Y016143D01*
X03812Y016171D01*
X038133Y016197D01*
X038142Y016222D01*
X038148Y016244D01*
X03815Y016265D01*
X038228D01*
X03823Y016244D01*
D02*
G37*
G36*
X03623D02*
X036236Y016222D01*
X036245Y016197D01*
X036258Y016171D01*
X036275Y016143D01*
X036296Y016114D01*
X03632Y016083D01*
X036381Y016016D01*
X036416Y01598D01*
X035962D01*
X035997Y016016D01*
X036082Y016114D01*
X036103Y016143D01*
X03612Y016171D01*
X036133Y016197D01*
X036142Y016222D01*
X036148Y016244D01*
X03615Y016265D01*
X036228D01*
X03623Y016244D01*
D02*
G37*
G36*
X037244Y016263D02*
X037246Y016243D01*
X037251Y01622D01*
X037261Y016196D01*
X037273Y01617D01*
X03729Y016141D01*
X03731Y016111D01*
X037361Y016044D01*
X037427Y015969D01*
X036973Y015991D01*
X03701Y016024D01*
X037071Y016087D01*
X037096Y016117D01*
X037117Y016145D01*
X037135Y016172D01*
X037148Y016198D01*
X037158Y016222D01*
X037163Y016245D01*
X037165Y016267D01*
X037244Y016263D01*
D02*
G37*
G36*
X027823Y015912D02*
X027821Y015908D01*
X02782Y015904D01*
X027819Y015899D01*
X027817Y015892D01*
X027816Y015877D01*
X027815Y015858D01*
X027815Y015846D01*
X027697D01*
X027697Y015858D01*
X027694Y015892D01*
X027693Y015899D01*
X027692Y015904D01*
X027691Y015908D01*
X027689Y015912D01*
X027687Y015914D01*
X027825D01*
X027823Y015912D01*
D02*
G37*
G36*
X014064Y015797D02*
X014058Y015803D01*
X014051Y015808D01*
X014044Y015812D01*
X014037Y015816D01*
X014029Y015819D01*
X014021Y015822D01*
X014013Y015824D01*
X014004Y015826D01*
X013994Y015826D01*
X013985Y015827D01*
Y015906D01*
X013994Y015906D01*
X014004Y015907D01*
X014013Y015908D01*
X014021Y01591D01*
X014029Y015913D01*
X014037Y015916D01*
X014044Y01592D01*
X014051Y015924D01*
X014058Y015929D01*
X014064Y015935D01*
Y015797D01*
D02*
G37*
G36*
X028843Y015869D02*
X028838Y015862D01*
X028833Y015855D01*
X02883Y015848D01*
X028826Y01584D01*
X028824Y015832D01*
X028822Y015824D01*
X02882Y015815D01*
X028819Y015805D01*
X028819Y015796D01*
X02874D01*
X02874Y015805D01*
X028739Y015815D01*
X028737Y015824D01*
X028735Y015832D01*
X028733Y01584D01*
X02873Y015848D01*
X028726Y015855D01*
X028721Y015862D01*
X028716Y015869D01*
X028711Y015875D01*
X028848D01*
X028843Y015869D01*
D02*
G37*
G36*
X033583Y016086D02*
X033569Y01607D01*
X033557Y01605D01*
X033546Y016026D01*
X033537Y015998D01*
X03353Y015967D01*
X033524Y015931D01*
X033519Y015892D01*
X033514Y015802D01*
X033514Y015751D01*
X033192Y016073D01*
X033243Y016073D01*
X033372Y016083D01*
X033408Y016089D01*
X033439Y016096D01*
X033467Y016105D01*
X033491Y016116D01*
X033511Y016128D01*
X033527Y016142D01*
X033583Y016086D01*
D02*
G37*
G36*
X012141Y015747D02*
X012135Y01574D01*
X012129Y015733D01*
X012123Y015725D01*
X012119Y015718D01*
X012115Y01571D01*
X012112Y015702D01*
X012109Y015695D01*
X012108Y015687D01*
X012107Y015678D01*
X012106Y01567D01*
X012009Y015768D01*
X012017Y015768D01*
X012025Y015769D01*
X012033Y015771D01*
X012041Y015773D01*
X012049Y015776D01*
X012056Y01578D01*
X012064Y015785D01*
X012071Y01579D01*
X012078Y015796D01*
X012086Y015803D01*
X012141Y015747D01*
D02*
G37*
G36*
X011937Y015796D02*
X011945Y01579D01*
X011952Y015785D01*
X011959Y01578D01*
X011967Y015776D01*
X011975Y015773D01*
X011983Y015771D01*
X011991Y015769D01*
X011999Y015768D01*
X012007Y015768D01*
X011909Y01567D01*
X011909Y015678D01*
X011908Y015687D01*
X011906Y015695D01*
X011904Y015702D01*
X011901Y01571D01*
X011897Y015718D01*
X011892Y015725D01*
X011887Y015733D01*
X011881Y01574D01*
X011874Y015747D01*
X01193Y015803D01*
X011937Y015796D01*
D02*
G37*
G36*
X024338Y015221D02*
X024331Y015214D01*
X024325Y015207D01*
X02432Y0152D01*
X024316Y015192D01*
X024312Y015185D01*
X024309Y015177D01*
X024306Y015169D01*
X024304Y015161D01*
X024303Y015153D01*
X024303Y015145D01*
X024206Y015242D01*
X024214Y015242D01*
X024222Y015243D01*
X02423Y015245D01*
X024238Y015248D01*
X024246Y015251D01*
X024253Y015255D01*
X024261Y015259D01*
X024268Y015264D01*
X024275Y01527D01*
X024282Y015277D01*
X024338Y015221D01*
D02*
G37*
G36*
X028097Y015223D02*
X028103Y015218D01*
X028109Y015213D01*
X028116Y015209D01*
X028123Y015205D01*
X028131Y015202D01*
X028139Y0152D01*
X028148Y015198D01*
X028157Y015197D01*
X028167Y015197D01*
X028156Y015118D01*
X028146Y015118D01*
X028137Y015117D01*
X028128Y015116D01*
X028119Y015114D01*
X028111Y015112D01*
X028103Y015109D01*
X028095Y015106D01*
X028088Y015102D01*
X028081Y015098D01*
X028074Y015093D01*
X028092Y015229D01*
X028097Y015223D01*
D02*
G37*
G36*
X032848Y014979D02*
X032719Y01494D01*
X032722Y014946D01*
X032724Y014952D01*
X032724Y014959D01*
X032724Y014965D01*
X032723Y014972D01*
X03272Y014979D01*
X032717Y014986D01*
X032712Y014993D01*
X032706Y015001D01*
X032699Y015008D01*
X032763Y015055D01*
X032848Y014979D01*
D02*
G37*
G36*
X01512Y014899D02*
X015125Y014878D01*
X015133Y014855D01*
X015145Y014832D01*
X01516Y014806D01*
X015178Y01478D01*
X0152Y014752D01*
X015254Y014692D01*
X015285Y01466D01*
X014872D01*
X014904Y014692D01*
X014957Y014752D01*
X014979Y01478D01*
X014998Y014806D01*
X015013Y014832D01*
X015024Y014855D01*
X015033Y014878D01*
X015038Y014899D01*
X015039Y014919D01*
X015118D01*
X01512Y014899D01*
D02*
G37*
G36*
X032385Y014488D02*
X032381Y014488D01*
X032377Y014487D01*
X032373Y014486D01*
X032368Y014483D01*
X032363Y01448D01*
X032357Y014476D01*
X032343Y014465D01*
X032336Y014458D01*
X032328Y01445D01*
X032261Y01455D01*
X032269Y014558D01*
X032301Y014595D01*
X032303Y014597D01*
X032304Y014599D01*
X032385Y014488D01*
D02*
G37*
G36*
X024982Y014475D02*
X024976Y01448D01*
X02497Y014485D01*
X024963Y01449D01*
X024956Y014493D01*
X024948Y014497D01*
X02494Y014499D01*
X024931Y014501D01*
X024922Y014503D01*
X024913Y014504D01*
X024903Y014504D01*
Y014583D01*
X024913Y014583D01*
X024922Y014584D01*
X024931Y014586D01*
X02494Y014588D01*
X024948Y01459D01*
X024956Y014593D01*
X024963Y014597D01*
X02497Y014602D01*
X024976Y014607D01*
X024982Y014612D01*
Y014475D01*
D02*
G37*
G36*
X0328Y014578D02*
X032807Y014572D01*
X032815Y014567D01*
X032822Y014563D01*
X03283Y014559D01*
X032837Y014556D01*
X032845Y014553D01*
X032853Y014551D01*
X032861Y01455D01*
X03287Y01455D01*
X032772Y014453D01*
X032772Y014461D01*
X032771Y014469D01*
X032769Y014477D01*
X032767Y014485D01*
X032764Y014493D01*
X03276Y0145D01*
X032755Y014508D01*
X03275Y014515D01*
X032744Y014522D01*
X032737Y014529D01*
X032793Y014585D01*
X0328Y014578D01*
D02*
G37*
G36*
X01845Y014737D02*
X018435Y01472D01*
X018422Y0147D01*
X018411Y014678D01*
X0184Y014654D01*
X018392Y014626D01*
X018385Y014597D01*
X018382Y014574D01*
X0184Y014561D01*
X018426Y014545D01*
X018451Y014532D01*
X018476Y014521D01*
X018499Y014514D01*
X018523Y014509D01*
X018545Y014508D01*
Y01439D01*
X018523Y014388D01*
X018499Y014384D01*
X018476Y014376D01*
X018451Y014366D01*
X018426Y014353D01*
X0184Y014337D01*
X018373Y014317D01*
X018346Y014295D01*
X01829Y014242D01*
Y014536D01*
X018082Y014744D01*
X018122Y014744D01*
X018194Y01475D01*
X018227Y014755D01*
X018256Y014762D01*
X018284Y014771D01*
X018308Y014781D01*
X01833Y014792D01*
X01835Y014806D01*
X018367Y01482D01*
X01845Y014737D01*
D02*
G37*
G36*
X026268Y014104D02*
X026262Y01411D01*
X026256Y014115D01*
X026249Y014119D01*
X026242Y014123D01*
X026234Y014126D01*
X026226Y014129D01*
X026217Y014131D01*
X026208Y014133D01*
X026199Y014134D01*
X026189Y014134D01*
Y014213D01*
X026199Y014213D01*
X026208Y014214D01*
X026217Y014215D01*
X026226Y014217D01*
X026234Y01422D01*
X026242Y014223D01*
X026249Y014227D01*
X026256Y014231D01*
X026262Y014237D01*
X026268Y014242D01*
Y014104D01*
D02*
G37*
G36*
X016254Y014206D02*
X0162Y014146D01*
X016178Y014118D01*
X01616Y014091D01*
X016145Y014066D01*
X016133Y014042D01*
X016125Y01402D01*
X01612Y013999D01*
X016118Y013979D01*
X016039D01*
X016038Y013999D01*
X016033Y01402D01*
X016024Y014042D01*
X016013Y014066D01*
X015998Y014091D01*
X015979Y014118D01*
X015957Y014146D01*
X015904Y014206D01*
X015872Y014238D01*
X016285D01*
X016254Y014206D01*
D02*
G37*
G36*
X025166Y013907D02*
X02516Y013913D01*
X025154Y013918D01*
X025147Y013923D01*
X025139Y013926D01*
X025132Y01393D01*
X025124Y013932D01*
X025115Y013934D01*
X025106Y013936D01*
X025097Y013937D01*
X025087Y013937D01*
Y014016D01*
X025097Y014016D01*
X025106Y014017D01*
X025115Y014018D01*
X025124Y01402D01*
X025132Y014023D01*
X025139Y014026D01*
X025147Y01403D01*
X025154Y014035D01*
X02516Y01404D01*
X025166Y014045D01*
Y013907D01*
D02*
G37*
G36*
X029158Y013979D02*
X029153Y013972D01*
X029148Y013966D01*
X029144Y013958D01*
X029141Y013951D01*
X029139Y013943D01*
X029137Y013934D01*
X029135Y013925D01*
X029134Y013916D01*
X029134Y013906D01*
X029055D01*
X029055Y013916D01*
X029054Y013925D01*
X029052Y013934D01*
X02905Y013943D01*
X029048Y013951D01*
X029044Y013958D01*
X029041Y013966D01*
X029036Y013972D01*
X029031Y013979D01*
X029026Y013985D01*
X029163D01*
X029158Y013979D01*
D02*
G37*
G36*
X024466Y013954D02*
X024474Y013948D01*
X024481Y013943D01*
X024488Y013938D01*
X024496Y013935D01*
X024504Y013931D01*
X024512Y013929D01*
X02452Y013927D01*
X024528Y013926D01*
X024536Y013926D01*
X024438Y013829D01*
X024438Y013837D01*
X024437Y013845D01*
X024435Y013853D01*
X024433Y013861D01*
X02443Y013868D01*
X024426Y013876D01*
X024421Y013884D01*
X024416Y013891D01*
X02441Y013898D01*
X024403Y013905D01*
X024459Y013961D01*
X024466Y013954D01*
D02*
G37*
G36*
X027944Y013872D02*
X027971Y013849D01*
X027976Y013845D01*
X02798Y013842D01*
X027985Y01384D01*
X027988Y013839D01*
X027991Y013839D01*
X027894Y013741D01*
X027893Y013744D01*
X027892Y013748D01*
X02789Y013752D01*
X027887Y013757D01*
X027884Y013762D01*
X027874Y013774D01*
X027861Y013788D01*
X027853Y013796D01*
X027936Y013879D01*
X027944Y013872D01*
D02*
G37*
G36*
X028385Y013563D02*
X028377Y013563D01*
X028369Y013562D01*
X028361Y01356D01*
X028353Y013558D01*
X028345Y013554D01*
X028337Y013551D01*
X02833Y013546D01*
X028323Y013541D01*
X028315Y013535D01*
X028308Y013528D01*
X028252Y013584D01*
X028259Y013591D01*
X028265Y013598D01*
X02827Y013605D01*
X028275Y013613D01*
X028279Y013621D01*
X028282Y013628D01*
X028284Y013636D01*
X028286Y013644D01*
X028287Y013652D01*
X028287Y01366D01*
X028385Y013563D01*
D02*
G37*
G36*
X025906Y013568D02*
X025909Y013554D01*
X025913Y013543D01*
X025918Y013532D01*
X025925Y013524D01*
X025934Y013517D01*
X025944Y013511D01*
X025956Y013507D01*
X025969Y013505D01*
X025984Y013504D01*
X025866Y013425D01*
X025748Y013504D01*
X025763Y013505D01*
X025776Y013507D01*
X025788Y013511D01*
X025798Y013517D01*
X025807Y013524D01*
X025814Y013532D01*
X02582Y013543D01*
X025824Y013554D01*
X025826Y013568D01*
X025827Y013583D01*
X025906D01*
X025906Y013568D01*
D02*
G37*
G36*
X023355Y013396D02*
X023349Y013401D01*
X023342Y013406D01*
X023336Y013411D01*
X023328Y013415D01*
X023321Y013418D01*
X023313Y01342D01*
X023304Y013423D01*
X023295Y013424D01*
X023286Y013425D01*
X023276Y013425D01*
Y013504D01*
X023286Y013504D01*
X023295Y013505D01*
X023304Y013507D01*
X023313Y013509D01*
X023321Y013511D01*
X023328Y013515D01*
X023336Y013518D01*
X023342Y013523D01*
X023349Y013528D01*
X023355Y013533D01*
Y013396D01*
D02*
G37*
G36*
X024718Y013356D02*
X024711Y013349D01*
X024705Y013342D01*
X0247Y013335D01*
X024696Y013327D01*
X024692Y01332D01*
X024689Y013312D01*
X024686Y013304D01*
X024684Y013296D01*
X024683Y013288D01*
X024683Y01328D01*
X024586Y013377D01*
X024594Y013377D01*
X024602Y013378D01*
X02461Y01338D01*
X024618Y013382D01*
X024626Y013386D01*
X024633Y013389D01*
X024641Y013394D01*
X024648Y013399D01*
X024655Y013405D01*
X024662Y013412D01*
X024718Y013356D01*
D02*
G37*
G36*
X025123Y013158D02*
X025117Y013163D01*
X025111Y013168D01*
X025104Y013173D01*
X025097Y013177D01*
X025089Y01318D01*
X025081Y013183D01*
X025072Y013185D01*
X025063Y013186D01*
X025054Y013187D01*
X025044Y013187D01*
Y013266D01*
X025054Y013266D01*
X025063Y013267D01*
X025072Y013269D01*
X025081Y013271D01*
X025089Y013274D01*
X025097Y013277D01*
X025104Y013281D01*
X025111Y013285D01*
X025117Y01329D01*
X025123Y013296D01*
Y013158D01*
D02*
G37*
G36*
X028544Y013067D02*
X028546Y013047D01*
X028549Y013029D01*
X028553Y013014D01*
X028558Y013001D01*
X028565Y01299D01*
X028572Y012982D01*
X028581Y012976D01*
X028591Y012972D01*
X028602Y012971D01*
X028366D01*
X028377Y012972D01*
X028387Y012976D01*
X028396Y012982D01*
X028404Y01299D01*
X02841Y013001D01*
X028416Y013014D01*
X02842Y013029D01*
X028423Y013047D01*
X028425Y013067D01*
X028425Y013089D01*
X028543D01*
X028544Y013067D01*
D02*
G37*
G36*
X029134Y013035D02*
X029135Y013022D01*
X029137Y01301D01*
X02914Y013D01*
X029144Y012991D01*
X029148Y012984D01*
X029153Y012978D01*
X029159Y012974D01*
X029166Y012972D01*
X029173Y012971D01*
X029016D01*
X029023Y012972D01*
X02903Y012974D01*
X029036Y012978D01*
X029041Y012984D01*
X029045Y012991D01*
X029049Y013D01*
X029052Y01301D01*
X029054Y013022D01*
X029055Y013035D01*
X029055Y01305D01*
X029134D01*
X029134Y013035D01*
D02*
G37*
G36*
X011962Y013099D02*
X011966Y013097D01*
X01197Y013095D01*
X011975Y013094D01*
X011982Y013093D01*
X011997Y013091D01*
X012016Y013091D01*
X012028Y013091D01*
Y012972D01*
X012016Y012972D01*
X011982Y01297D01*
X011975Y012969D01*
X01197Y012968D01*
X011966Y012966D01*
X011962Y012964D01*
X01196Y012963D01*
Y0131D01*
X011962Y013099D01*
D02*
G37*
G36*
X032776Y012996D02*
X032777Y012982D01*
X032779Y01297D01*
X032782Y01296D01*
X032785Y012952D01*
X03279Y012944D01*
X032795Y012939D01*
X032801Y012935D01*
X032807Y012933D01*
X032815Y012932D01*
X032657D01*
X032665Y012933D01*
X032672Y012935D01*
X032678Y012939D01*
X032683Y012944D01*
X032687Y012952D01*
X032691Y01296D01*
X032693Y01297D01*
X032695Y012982D01*
X032696Y012996D01*
X032697Y013011D01*
X032776D01*
X032776Y012996D01*
D02*
G37*
G36*
X024331D02*
X024332Y012982D01*
X024334Y01297D01*
X024337Y01296D01*
X024341Y012952D01*
X024345Y012944D01*
X02435Y012939D01*
X024356Y012935D01*
X024363Y012933D01*
X02437Y012932D01*
X024213D01*
X02422Y012933D01*
X024227Y012935D01*
X024233Y012939D01*
X024238Y012944D01*
X024242Y012952D01*
X024246Y01296D01*
X024248Y01297D01*
X02425Y012982D01*
X024252Y012996D01*
X024252Y013011D01*
X024331D01*
X024331Y012996D01*
D02*
G37*
G36*
X033367Y012996D02*
X033368Y012982D01*
X03337Y01297D01*
X033372Y01296D01*
X033376Y012952D01*
X03338Y012944D01*
X033385Y012939D01*
X033391Y012935D01*
X033398Y012933D01*
X033406Y012932D01*
X033248D01*
X033256Y012933D01*
X033262Y012935D01*
X033268Y012939D01*
X033273Y012944D01*
X033278Y012952D01*
X033281Y01296D01*
X033284Y01297D01*
X033286Y012982D01*
X033287Y012996D01*
X033287Y013011D01*
X033366D01*
X033367Y012996D01*
D02*
G37*
G36*
X024922D02*
X024923Y012982D01*
X024925Y01297D01*
X024928Y01296D01*
X024931Y012952D01*
X024935Y012944D01*
X024941Y012939D01*
X024946Y012935D01*
X024953Y012933D01*
X024961Y012932D01*
X024803D01*
X024811Y012933D01*
X024817Y012935D01*
X024823Y012939D01*
X024828Y012944D01*
X024833Y012952D01*
X024836Y01296D01*
X024839Y01297D01*
X024841Y012982D01*
X024842Y012996D01*
X024843Y013011D01*
X024921D01*
X024922Y012996D01*
D02*
G37*
G36*
X019947Y012382D02*
X01999Y012345D01*
X02001Y012331D01*
X020027Y012321D01*
X020043Y012314D01*
X020057Y012311D01*
X02007Y012311D01*
X02008Y012314D01*
X020089Y01232D01*
X019924Y012155D01*
X01993Y012164D01*
X019933Y012174D01*
X019933Y012187D01*
X01993Y012201D01*
X019923Y012217D01*
X019913Y012234D01*
X019899Y012254D01*
X019883Y012275D01*
X019839Y012322D01*
X019922Y012405D01*
X019947Y012382D01*
D02*
G37*
G36*
X028284Y013227D02*
Y01311D01*
X028209D01*
Y011807D01*
X025157D01*
Y012991D01*
X02524D01*
X025327Y013027D01*
X025394Y013093D01*
X02543Y01318D01*
Y013274D01*
X025436Y013284D01*
X028189D01*
X028205Y013287D01*
X028284Y013227D01*
D02*
G37*
G36*
X028525Y011832D02*
X028524Y011831D01*
X028524Y011823D01*
X028524Y011772D01*
X028406D01*
X028404Y011833D01*
X028525D01*
X028525Y011832D01*
D02*
G37*
G36*
X023223Y011674D02*
X023226Y011672D01*
X023231Y011671D01*
X023236Y011669D01*
X023242Y011668D01*
X023258Y011667D01*
X023277Y011666D01*
X023288Y011666D01*
Y011548D01*
X023277Y011547D01*
X023242Y011545D01*
X023236Y011544D01*
X023231Y011543D01*
X023226Y011541D01*
X023223Y01154D01*
X02322Y011538D01*
Y011676D01*
X023223Y011674D01*
D02*
G37*
%LPC*%
G36*
X037663Y029823D02*
X037455D01*
X03725Y02979D01*
X037053Y029726D01*
X036868Y029632D01*
X0367Y02951D01*
X036553Y029363D01*
X036431Y029195D01*
X036337Y02901D01*
X036273Y028813D01*
X03624Y028608D01*
Y0284D01*
X036273Y028195D01*
X036337Y027998D01*
X036431Y027813D01*
X036553Y027645D01*
X0367Y027498D01*
X036868Y027376D01*
X037053Y027282D01*
X03725Y027218D01*
X037455Y027185D01*
X037663D01*
X037868Y027218D01*
X038065Y027282D01*
X03825Y027376D01*
X038418Y027498D01*
X038565Y027645D01*
X038687Y027813D01*
X038781Y027998D01*
X038845Y028195D01*
X038878Y0284D01*
Y028608D01*
X038845Y028813D01*
X038781Y02901D01*
X038687Y029195D01*
X038565Y029363D01*
X038418Y02951D01*
X03825Y029632D01*
X038065Y029726D01*
X037868Y02979D01*
X037663Y029823D01*
D02*
G37*
G36*
X034142Y027933D02*
X033992D01*
X033847Y027894D01*
X033716Y027819D01*
X03361Y027713D01*
X033535Y027583D01*
X033496Y027437D01*
Y027287D01*
X033535Y027142D01*
X03361Y027012D01*
X033716Y026905D01*
X033847Y02683D01*
X033992Y026791D01*
X034142D01*
X034287Y02683D01*
X034417Y026905D01*
X034524Y027012D01*
X034599Y027142D01*
X034638Y027287D01*
Y027437D01*
X034599Y027583D01*
X034524Y027713D01*
X034417Y027819D01*
X034287Y027894D01*
X034142Y027933D01*
D02*
G37*
G36*
X032642D02*
X032492D01*
X032347Y027894D01*
X032216Y027819D01*
X03211Y027713D01*
X032035Y027583D01*
X031996Y027437D01*
Y027287D01*
X032035Y027142D01*
X03211Y027012D01*
X032216Y026905D01*
X032347Y02683D01*
X032492Y026791D01*
X032642D01*
X032787Y02683D01*
X032917Y026905D01*
X033024Y027012D01*
X033099Y027142D01*
X033138Y027287D01*
Y027437D01*
X033099Y027583D01*
X033024Y027713D01*
X032917Y027819D01*
X032787Y027894D01*
X032642Y027933D01*
D02*
G37*
G36*
X031142D02*
X030992D01*
X030847Y027894D01*
X030716Y027819D01*
X03061Y027713D01*
X030535Y027583D01*
X030496Y027437D01*
Y027287D01*
X030535Y027142D01*
X03061Y027012D01*
X030716Y026905D01*
X030847Y02683D01*
X030992Y026791D01*
X031142D01*
X031287Y02683D01*
X031417Y026905D01*
X031524Y027012D01*
X031599Y027142D01*
X031638Y027287D01*
Y027437D01*
X031599Y027583D01*
X031524Y027713D01*
X031417Y027819D01*
X031287Y027894D01*
X031142Y027933D01*
D02*
G37*
G36*
X029642D02*
X029492D01*
X029347Y027894D01*
X029216Y027819D01*
X02911Y027713D01*
X029035Y027583D01*
X028996Y027437D01*
Y027287D01*
X029035Y027142D01*
X02911Y027012D01*
X029216Y026905D01*
X029347Y02683D01*
X029492Y026791D01*
X029642D01*
X029787Y02683D01*
X029917Y026905D01*
X030024Y027012D01*
X030099Y027142D01*
X030138Y027287D01*
Y027437D01*
X030099Y027583D01*
X030024Y027713D01*
X029917Y027819D01*
X029787Y027894D01*
X029642Y027933D01*
D02*
G37*
G36*
X027528D02*
X027378D01*
X027232Y027894D01*
X027102Y027819D01*
X026996Y027713D01*
X026921Y027583D01*
X026882Y027437D01*
Y027287D01*
X026921Y027142D01*
X026996Y027012D01*
X027102Y026905D01*
X027232Y02683D01*
X027378Y026791D01*
X027528D01*
X027673Y02683D01*
X027803Y026905D01*
X02791Y027012D01*
X027985Y027142D01*
X028024Y027287D01*
Y027437D01*
X027985Y027583D01*
X02791Y027713D01*
X027803Y027819D01*
X027673Y027894D01*
X027528Y027933D01*
D02*
G37*
G36*
X026028D02*
X025878D01*
X025732Y027894D01*
X025602Y027819D01*
X025496Y027713D01*
X025421Y027583D01*
X025382Y027437D01*
Y027287D01*
X025421Y027142D01*
X025496Y027012D01*
X025602Y026905D01*
X025732Y02683D01*
X025878Y026791D01*
X026028D01*
X026173Y02683D01*
X026303Y026905D01*
X02641Y027012D01*
X026485Y027142D01*
X026524Y027287D01*
Y027437D01*
X026485Y027583D01*
X02641Y027713D01*
X026303Y027819D01*
X026173Y027894D01*
X026028Y027933D01*
D02*
G37*
G36*
X024528D02*
X024378D01*
X024232Y027894D01*
X024102Y027819D01*
X023996Y027713D01*
X023921Y027583D01*
X023882Y027437D01*
Y027287D01*
X023921Y027142D01*
X023996Y027012D01*
X024102Y026905D01*
X024232Y02683D01*
X024378Y026791D01*
X024528D01*
X024673Y02683D01*
X024803Y026905D01*
X02491Y027012D01*
X024985Y027142D01*
X025024Y027287D01*
Y027437D01*
X024985Y027583D01*
X02491Y027713D01*
X024803Y027819D01*
X024673Y027894D01*
X024528Y027933D01*
D02*
G37*
G36*
X023028D02*
X022878D01*
X022732Y027894D01*
X022602Y027819D01*
X022496Y027713D01*
X022421Y027583D01*
X022382Y027437D01*
Y027287D01*
X022421Y027142D01*
X022496Y027012D01*
X022602Y026905D01*
X022732Y02683D01*
X022878Y026791D01*
X023028D01*
X023173Y02683D01*
X023303Y026905D01*
X02341Y027012D01*
X023485Y027142D01*
X023524Y027287D01*
Y027437D01*
X023485Y027583D01*
X02341Y027713D01*
X023303Y027819D01*
X023173Y027894D01*
X023028Y027933D01*
D02*
G37*
G36*
X020945D02*
X020795D01*
X02065Y027894D01*
X02052Y027819D01*
X020413Y027713D01*
X020338Y027583D01*
X020299Y027437D01*
Y027287D01*
X020338Y027142D01*
X020413Y027012D01*
X02052Y026905D01*
X02065Y02683D01*
X020795Y026791D01*
X020945D01*
X02109Y02683D01*
X021221Y026905D01*
X021327Y027012D01*
X021402Y027142D01*
X021441Y027287D01*
Y027437D01*
X021402Y027583D01*
X021327Y027713D01*
X021221Y027819D01*
X02109Y027894D01*
X020945Y027933D01*
D02*
G37*
G36*
X019445D02*
X019295D01*
X01915Y027894D01*
X01902Y027819D01*
X018913Y027713D01*
X018838Y027583D01*
X018799Y027437D01*
Y027287D01*
X018838Y027142D01*
X018913Y027012D01*
X01902Y026905D01*
X01915Y02683D01*
X019295Y026791D01*
X019445D01*
X01959Y02683D01*
X019721Y026905D01*
X019827Y027012D01*
X019902Y027142D01*
X019941Y027287D01*
Y027437D01*
X019902Y027583D01*
X019827Y027713D01*
X019721Y027819D01*
X01959Y027894D01*
X019445Y027933D01*
D02*
G37*
G36*
X016445D02*
X016295D01*
X01615Y027894D01*
X01602Y027819D01*
X015913Y027713D01*
X015838Y027583D01*
X015799Y027437D01*
Y027287D01*
X015838Y027142D01*
X015913Y027012D01*
X01602Y026905D01*
X01615Y02683D01*
X016295Y026791D01*
X016445D01*
X01659Y02683D01*
X016721Y026905D01*
X016827Y027012D01*
X016902Y027142D01*
X016941Y027287D01*
Y027437D01*
X016902Y027583D01*
X016827Y027713D01*
X016721Y027819D01*
X01659Y027894D01*
X016445Y027933D01*
D02*
G37*
G36*
X014449Y029826D02*
X013189D01*
X013135Y029815D01*
X01309Y029784D01*
X012657Y029351D01*
X012626Y029306D01*
X012615Y029252D01*
Y027657D01*
X012265Y027306D01*
X011181Y027306D01*
X011127Y027295D01*
X011082Y027265D01*
X010727Y02691D01*
X010697Y026865D01*
X010686Y026811D01*
Y025984D01*
X010697Y02593D01*
X010727Y025885D01*
X010885Y025727D01*
X01093Y025697D01*
X010984Y025686D01*
X012634D01*
Y025022D01*
X012555Y024998D01*
X01254Y025021D01*
X012343Y025217D01*
X012298Y025248D01*
X012244Y025259D01*
X010945D01*
X010891Y025248D01*
X010846Y025217D01*
X010688Y02506D01*
X010669Y025032D01*
Y024023D01*
X010688Y023995D01*
X010924Y023759D01*
X01097Y023728D01*
X011024Y023718D01*
X011552D01*
Y023408D01*
X011575Y023386D01*
X011575Y020984D01*
X011552Y020962D01*
Y020945D01*
Y020787D01*
X011563Y020734D01*
X011594Y020688D01*
X011712Y02057D01*
X011757Y020539D01*
X011811Y020529D01*
X013288D01*
X013641Y020176D01*
X013686Y020146D01*
X01374Y020135D01*
X014291D01*
X014345Y020146D01*
X014391Y020176D01*
X014426Y020211D01*
X014444Y02021D01*
X014504Y020185D01*
Y019484D01*
X014374Y019354D01*
X012254D01*
Y019508D01*
X011604D01*
Y018839D01*
X011748D01*
Y018386D01*
X011762Y018317D01*
X011801Y018258D01*
X011811Y018248D01*
Y018221D01*
X011847Y018134D01*
X011913Y018067D01*
X012Y018032D01*
X012094D01*
X012181Y018067D01*
X012248Y018134D01*
X012283Y018221D01*
Y018315D01*
X012248Y018402D01*
X012181Y018468D01*
X01211Y018498D01*
Y018839D01*
X012254D01*
Y018993D01*
X014449D01*
X014518Y019006D01*
X014577Y019045D01*
X014813Y019282D01*
X014852Y01934D01*
X014866Y019409D01*
Y021697D01*
X015871Y022702D01*
X020822D01*
X020866Y022658D01*
Y02263D01*
X020902Y022543D01*
X020969Y022477D01*
X021055Y022441D01*
X021149D01*
X021236Y022477D01*
X021303Y022543D01*
X021315Y022574D01*
X021394Y022559D01*
Y021649D01*
X021375Y02163D01*
X021339Y021543D01*
Y021449D01*
X021375Y021362D01*
X021441Y021296D01*
X021528Y02126D01*
X021622D01*
X021709Y021296D01*
X021775Y021362D01*
X021811Y021449D01*
Y021543D01*
X021775Y02163D01*
X021755Y021649D01*
Y023015D01*
X021787Y023028D01*
X021854Y023095D01*
X02189Y023181D01*
Y023275D01*
X021854Y023362D01*
X021787Y023429D01*
X021701Y023465D01*
X021607D01*
X02152Y023429D01*
X021453Y023362D01*
X021417Y023275D01*
Y023206D01*
X021408Y023192D01*
X021394Y023123D01*
Y022796D01*
X021315Y02278D01*
X021303Y022811D01*
X021236Y022877D01*
X021149Y022913D01*
X021122D01*
X021024Y023011D01*
X020966Y02305D01*
X020896Y023064D01*
X015796D01*
X015727Y02305D01*
X015669Y023011D01*
X014557Y021899D01*
X014518Y021841D01*
X014504Y021772D01*
Y021626D01*
X014444Y021601D01*
X014426Y0216D01*
X014273Y021753D01*
X014227Y021783D01*
X014173Y021794D01*
X013311D01*
X013267Y02186D01*
X013275Y02188D01*
Y021973D01*
X013239Y02206D01*
X013173Y022127D01*
X013087Y022162D01*
X013035Y022214D01*
Y025829D01*
X013328Y026121D01*
X014745Y027538D01*
X014775Y027584D01*
X014786Y027638D01*
X014786Y029488D01*
X014775Y029542D01*
X014745Y029588D01*
X014548Y029784D01*
X014503Y029815D01*
X014449Y029826D01*
D02*
G37*
G36*
X031249Y025846D02*
X031113D01*
X03098Y02582D01*
X030855Y025768D01*
X030742Y025693D01*
X030646Y025597D01*
X030571Y025484D01*
X030519Y025358D01*
X030492Y025225D01*
Y02509D01*
X030519Y024957D01*
X030571Y024831D01*
X030646Y024718D01*
X030742Y024622D01*
X030855Y024547D01*
X03098Y024495D01*
X031113Y024469D01*
X031249D01*
X031382Y024495D01*
X031507Y024547D01*
X03162Y024622D01*
X031716Y024718D01*
X031792Y024831D01*
X031844Y024957D01*
X03187Y02509D01*
Y025225D01*
X031844Y025358D01*
X031792Y025484D01*
X031716Y025597D01*
X03162Y025693D01*
X031507Y025768D01*
X031382Y02582D01*
X031249Y025846D01*
D02*
G37*
G36*
X0218D02*
X021664D01*
X021531Y02582D01*
X021406Y025768D01*
X021293Y025693D01*
X021197Y025597D01*
X021122Y025484D01*
X02107Y025358D01*
X021043Y025225D01*
Y02509D01*
X02107Y024957D01*
X021122Y024831D01*
X021197Y024718D01*
X021293Y024622D01*
X021406Y024547D01*
X021531Y024495D01*
X021664Y024469D01*
X0218D01*
X021933Y024495D01*
X022059Y024547D01*
X022171Y024622D01*
X022267Y024718D01*
X022343Y024831D01*
X022395Y024957D01*
X022421Y02509D01*
Y025225D01*
X022395Y025358D01*
X022343Y025484D01*
X022267Y025597D01*
X022171Y025693D01*
X022059Y025768D01*
X021933Y02582D01*
X0218Y025846D01*
D02*
G37*
G36*
X019783Y021978D02*
X019114D01*
Y021329D01*
X019783D01*
Y021978D01*
D02*
G37*
G36*
X015758Y018209D02*
X015108D01*
Y017539D01*
X015758D01*
Y018209D01*
D02*
G37*
G36*
X014136Y014882D02*
X014022D01*
X013912Y014852D01*
X013813Y014795D01*
X013732Y014715D01*
X013675Y014616D01*
X013646Y014506D01*
Y014392D01*
X013675Y014282D01*
X013732Y014183D01*
X013813Y014102D01*
X013912Y014045D01*
X014022Y014016D01*
X014136D01*
X014246Y014045D01*
X014345Y014102D01*
X014425Y014183D01*
X014482Y014282D01*
X014512Y014392D01*
Y014506D01*
X014482Y014616D01*
X014425Y014715D01*
X014345Y014795D01*
X014246Y014852D01*
X014136Y014882D01*
D02*
G37*
G36*
X013136D02*
X013022D01*
X012912Y014852D01*
X012813Y014795D01*
X012732Y014715D01*
X012675Y014616D01*
X012646Y014506D01*
Y014392D01*
X012675Y014282D01*
X012732Y014183D01*
X012813Y014102D01*
X012912Y014045D01*
X013022Y014016D01*
X013136D01*
X013246Y014045D01*
X013345Y014102D01*
X013425Y014183D01*
X013482Y014282D01*
X013512Y014392D01*
Y014506D01*
X013482Y014616D01*
X013425Y014715D01*
X013345Y014795D01*
X013246Y014852D01*
X013136Y014882D01*
D02*
G37*
G36*
X021826Y012461D02*
X021717D01*
X021612Y012432D01*
X021518Y012378D01*
X021441Y012301D01*
X021386Y012207D01*
X021358Y012102D01*
Y011993D01*
X021386Y011888D01*
X021441Y011793D01*
X021518Y011716D01*
X021612Y011662D01*
X021717Y011634D01*
X021826D01*
X021931Y011662D01*
X022025Y011716D01*
X022102Y011793D01*
X022157Y011888D01*
X022185Y011993D01*
Y012102D01*
X022157Y012207D01*
X022102Y012301D01*
X022025Y012378D01*
X021931Y012432D01*
X021826Y012461D01*
D02*
G37*
G36*
X037663Y013287D02*
X037455D01*
X03725Y013255D01*
X037053Y013191D01*
X036868Y013097D01*
X0367Y012974D01*
X036553Y012828D01*
X036431Y01266D01*
X036337Y012475D01*
X036273Y012277D01*
X03624Y012072D01*
Y011865D01*
X036273Y01166D01*
X036337Y011462D01*
X036431Y011277D01*
X036553Y011109D01*
X0367Y010963D01*
X036868Y01084D01*
X037053Y010746D01*
X03725Y010682D01*
X037455Y01065D01*
X037663D01*
X037868Y010682D01*
X038065Y010746D01*
X03825Y01084D01*
X038418Y010963D01*
X038565Y011109D01*
X038687Y011277D01*
X038781Y011462D01*
X038845Y01166D01*
X038878Y011865D01*
Y012072D01*
X038845Y012277D01*
X038781Y012475D01*
X038687Y01266D01*
X038565Y012828D01*
X038418Y012974D01*
X03825Y013097D01*
X038065Y013191D01*
X037868Y013255D01*
X037663Y013287D01*
D02*
G37*
G36*
X017638Y012343D02*
X017456D01*
X017277Y012307D01*
X017109Y012237D01*
X016957Y012136D01*
X016829Y012007D01*
X016727Y011856D01*
X016658Y011687D01*
X016622Y011508D01*
Y011326D01*
X016658Y011147D01*
X016727Y010979D01*
X016829Y010828D01*
X016957Y010699D01*
X017109Y010597D01*
X017277Y010528D01*
X017456Y010492D01*
X017638D01*
X017817Y010528D01*
X017985Y010597D01*
X018137Y010699D01*
X018266Y010828D01*
X018367Y010979D01*
X018437Y011147D01*
X018472Y011326D01*
Y011508D01*
X018437Y011687D01*
X018367Y011856D01*
X018266Y012007D01*
X018137Y012136D01*
X017985Y012237D01*
X017817Y012307D01*
X017638Y012343D01*
D02*
G37*
G36*
X013701D02*
X013519D01*
X01334Y012307D01*
X013172Y012237D01*
X01302Y012136D01*
X012892Y012007D01*
X01279Y011856D01*
X012721Y011687D01*
X012685Y011508D01*
Y011326D01*
X012721Y011147D01*
X01279Y010979D01*
X012892Y010828D01*
X01302Y010699D01*
X013172Y010597D01*
X01334Y010528D01*
X013519Y010492D01*
X013701D01*
X01388Y010528D01*
X014048Y010597D01*
X0142Y010699D01*
X014329Y010828D01*
X01443Y010979D01*
X0145Y011147D01*
X014535Y011326D01*
Y011508D01*
X0145Y011687D01*
X01443Y011856D01*
X014329Y012007D01*
X0142Y012136D01*
X014048Y012237D01*
X01388Y012307D01*
X013701Y012343D01*
D02*
G37*
%LPD*%
G36*
X014646Y029488D02*
X014646Y027638D01*
X013228Y02622D01*
X012835Y025827D01*
X010984D01*
X010827Y025984D01*
Y026811D01*
X011181Y027165D01*
X012323Y027165D01*
X012756Y027598D01*
Y029252D01*
X013189Y029685D01*
X014449D01*
X014646Y029488D01*
D02*
G37*
G36*
X021032Y022804D02*
X021039Y022798D01*
X021046Y022793D01*
X021054Y022788D01*
X021062Y022784D01*
X021069Y022781D01*
X021077Y022779D01*
X021085Y022777D01*
X021093Y022776D01*
X021101Y022776D01*
X021004Y022678D01*
X021004Y022686D01*
X021003Y022694D01*
X021001Y022702D01*
X020999Y02271D01*
X020995Y022718D01*
X020992Y022726D01*
X020987Y022733D01*
X020982Y02274D01*
X020976Y022748D01*
X020969Y022755D01*
X021025Y022811D01*
X021032Y022804D01*
D02*
G37*
G36*
X012991Y022058D02*
X013018Y022035D01*
X013023Y022031D01*
X013028Y022029D01*
X013032Y022027D01*
X013035Y022025D01*
X013038Y022025D01*
X012941Y021927D01*
X01294Y021931D01*
X012939Y021934D01*
X012937Y021938D01*
X012934Y021943D01*
X012931Y021948D01*
X012921Y02196D01*
X012908Y021974D01*
X0129Y021982D01*
X012984Y022066D01*
X012991Y022058D01*
D02*
G37*
G36*
X021614Y021636D02*
X021615Y021626D01*
X021617Y021617D01*
X021619Y021609D01*
X021622Y021601D01*
X021625Y021593D01*
X021629Y021586D01*
X021633Y021579D01*
X021638Y021572D01*
X021644Y021566D01*
X021506D01*
X021512Y021572D01*
X021517Y021579D01*
X021521Y021586D01*
X021525Y021593D01*
X021528Y021601D01*
X021531Y021609D01*
X021533Y021617D01*
X021534Y021626D01*
X021535Y021636D01*
X021535Y021645D01*
X021614D01*
X021614Y021636D01*
D02*
G37*
G36*
X012441Y024921D02*
X012441Y022992D01*
X012283Y022835D01*
X012441Y022992D01*
Y022677D01*
Y022638D01*
Y022598D01*
X012441Y020945D01*
X012441Y020945D01*
X012441Y021654D01*
Y021772D01*
X012559Y021654D01*
X012441D01*
X012441Y021654D01*
X014173D01*
X014331Y021496D01*
Y020315D01*
X014291Y020276D01*
X01374D01*
X013346Y020669D01*
X011811D01*
X011693Y020787D01*
Y020945D01*
X011693Y022913D01*
Y02378D01*
X011614Y023858D01*
X011024D01*
X010787Y024094D01*
Y024961D01*
X010945Y025118D01*
X012244D01*
X012441Y024921D01*
D02*
G37*
G36*
X012115Y019244D02*
X012117Y019238D01*
X012121Y019232D01*
X012127Y019227D01*
X012134Y019222D01*
X012143Y019219D01*
X012153Y019216D01*
X012165Y019214D01*
X012178Y019213D01*
X012194Y019213D01*
Y019134D01*
X012178Y019133D01*
X012165Y019132D01*
X012153Y01913D01*
X012143Y019128D01*
X012134Y019124D01*
X012127Y01912D01*
X012121Y019115D01*
X012117Y019109D01*
X012115Y019102D01*
X012114Y019094D01*
Y019252D01*
X012115Y019244D01*
D02*
G37*
G36*
X012Y018978D02*
X011994Y018976D01*
X011988Y018972D01*
X011983Y018966D01*
X011978Y018959D01*
X011975Y01895D01*
X011972Y01894D01*
X01197Y018928D01*
X011969Y018914D01*
X011968Y018899D01*
X01189D01*
X011889Y018914D01*
X011888Y018928D01*
X011886Y01894D01*
X011883Y01895D01*
X01188Y018959D01*
X011876Y018966D01*
X01187Y018972D01*
X011865Y018976D01*
X011858Y018978D01*
X01185Y018979D01*
X012008D01*
X012Y018978D01*
D02*
G37*
G36*
X011977Y018394D02*
X011984Y018388D01*
X011991Y018383D01*
X011999Y018379D01*
X012006Y018375D01*
X012014Y018372D01*
X012022Y018369D01*
X01203Y018367D01*
X012038Y018366D01*
X012046Y018366D01*
X011949Y018269D01*
X011949Y018277D01*
X011948Y018285D01*
X011946Y018293D01*
X011943Y018301D01*
X01194Y018309D01*
X011936Y018316D01*
X011932Y018324D01*
X011927Y018331D01*
X011921Y018338D01*
X011914Y018345D01*
X01197Y018401D01*
X011977Y018394D01*
D02*
G37*
D11*
X030118Y021654D02*
X030354Y021417D01*
X026339Y021654D02*
X030118D01*
X024094Y019409D02*
X026339Y021654D01*
X030354Y02122D02*
Y021417D01*
X031921Y015401D02*
X032871Y014452D01*
X031921Y015401D02*
Y015594D01*
X031528Y016235D02*
X032782Y014981D01*
Y014913D02*
X032804Y014891D01*
X032782Y014913D02*
Y014981D01*
X028026Y015157D02*
X028504D01*
X028013Y01517D02*
X028026Y015157D01*
X028504D02*
X02878Y015433D01*
X034692Y018032D02*
X034724D01*
X034639Y017978D02*
X034692Y018032D01*
X032032Y017978D02*
X034639D01*
X02628Y010965D02*
X026284Y01097D01*
X02628Y010906D02*
Y010965D01*
Y010906D02*
X026344Y01097D01*
X027652D01*
X027677Y010945D01*
X031528Y016235D02*
Y016235D01*
X03315Y013543D02*
Y01489D01*
X030315Y017725D02*
X03315Y01489D01*
X030315Y017725D02*
Y020702D01*
X033327Y012362D02*
Y014908D01*
X030512Y017723D02*
X033327Y014908D01*
X030512Y017723D02*
Y019928D01*
X030282Y01748D02*
X031528Y016235D01*
X030512Y019928D02*
X030826Y020242D01*
X030315Y020702D02*
X030786Y021174D01*
X02878Y015433D02*
Y015945D01*
X029094Y012421D02*
Y014055D01*
X029075Y012402D02*
X029094Y012421D01*
X028189Y013465D02*
X028386Y013661D01*
X012008Y015669D02*
X012205Y015866D01*
X014134D01*
X02748Y017913D02*
X029882D01*
X026287D02*
X02748D01*
X029921Y017874D02*
X029961Y017835D01*
X029882Y017913D02*
X029921Y017874D01*
X024205Y015144D02*
X02437Y015309D01*
Y016929D01*
X024394Y014543D02*
X025053D01*
X023873Y015064D02*
X024394Y014543D01*
X023873Y015064D02*
Y017535D01*
X023714Y014987D02*
Y017769D01*
X023585Y014779D02*
Y018192D01*
X024724Y013976D02*
X025236D01*
X023714Y014987D02*
X024724Y013976D01*
X023585Y014779D02*
X024537Y013828D01*
X023346Y014724D02*
X024291Y01378D01*
X023585Y018192D02*
X024409Y019016D01*
X023346Y014724D02*
Y017874D01*
X023873Y017535D02*
X024724Y018386D01*
X024175Y017246D02*
X024565Y017636D01*
X024175Y017243D02*
Y017246D01*
X024749Y017308D02*
X025682D01*
X02437Y016929D02*
X024749Y017308D01*
X025682D02*
X026287Y017913D01*
X027165Y017676D02*
X027167D01*
X027362Y01748D01*
X031929Y010906D02*
X034724D01*
X033937Y010945D02*
Y012343D01*
X033917Y012362D02*
X033937Y012343D01*
X030472Y010945D02*
X03189D01*
X031929Y010906D01*
X029764Y010945D02*
X030472D01*
X027677D02*
X029764D01*
Y012303D01*
X029665Y012402D02*
X029764Y012303D01*
X026102Y012362D02*
X026102Y012362D01*
X025472Y012362D02*
X026102D01*
X026063Y014803D02*
X026102Y014764D01*
X026063Y014803D02*
Y015906D01*
X026614Y016457D02*
Y016614D01*
X026063Y015906D02*
X026614Y016457D01*
X027174Y017006D02*
X028699D01*
X028701Y017008D01*
X027172Y017004D02*
X027174Y017006D01*
X027362Y01748D02*
X030282D01*
X030231Y017283D02*
X031921Y015594D01*
X026811Y017283D02*
X030231D01*
X026693Y017402D02*
X026811Y017283D01*
X032736Y012362D02*
Y01313D01*
X03315Y013543D01*
X02452Y018575D02*
Y018622D01*
X023714Y017769D02*
X02452Y018575D01*
Y018622D02*
X024678Y01878D01*
X024882Y012362D02*
Y01315D01*
X024959Y013227D02*
X025193D01*
X024882Y01315D02*
X024959Y013227D01*
X024771Y013465D02*
X025866D01*
X024585Y013279D02*
X024771Y013465D01*
X025995Y018386D02*
X026789Y01918D01*
X024724Y018386D02*
X025995D01*
X025362Y019418D02*
X028299D01*
X028307Y019409D01*
X025225Y019281D02*
X025362Y019418D01*
X025366Y014555D02*
X025866Y014055D01*
X025079Y016811D02*
X025366Y016523D01*
Y014555D02*
Y016523D01*
X02563Y014724D02*
Y016535D01*
X025866Y013465D02*
X028189D01*
X025866D02*
Y014055D01*
X026181Y014173D02*
X026339D01*
X025894Y01446D02*
X025894D01*
X026181Y014173D01*
X02563Y014724D02*
X025894Y01446D01*
X023425Y013465D02*
X023465D01*
X016457D02*
X023425D01*
X016079Y013843D02*
Y014449D01*
Y013843D02*
X016457Y013465D01*
X020591Y019016D02*
X02248D01*
X022874Y018622D01*
X024291Y012362D02*
Y01378D01*
X023346Y02D02*
Y020827D01*
X024046Y021527D01*
X025128D01*
X020378Y016953D02*
X020984Y017559D01*
Y018346D01*
X019449Y016953D02*
X020378D01*
X020984Y019724D02*
X021299Y019409D01*
X019448Y019281D02*
X025225D01*
X019398Y019331D02*
X019448Y019281D01*
X021299Y019409D02*
X024094D01*
X02374Y019647D02*
X024526Y020433D01*
X027165Y023504D02*
X036457D01*
X027402Y023031D02*
X038346D01*
X02462Y020591D02*
X027297Y023268D01*
X037559D01*
X038189Y023898D01*
X02378Y020591D02*
X02462D01*
X038346Y023031D02*
X039189Y023874D01*
X025662Y022001D02*
X027165Y023504D01*
X036457D02*
X037189Y024236D01*
X024048Y022001D02*
X025662D01*
X022874Y024803D02*
Y02563D01*
X02189Y026614D02*
Y028425D01*
Y026614D02*
X022874Y02563D01*
X021575Y021496D02*
Y023123D01*
X021654Y023202D01*
Y023228D01*
X022244Y023976D02*
X022638Y02437D01*
X022244Y021641D02*
X022261Y021624D01*
X022244Y021641D02*
Y023976D01*
X022261Y021558D02*
Y021624D01*
Y021558D02*
X022283Y021535D01*
X024211Y02437D02*
X024213Y024372D01*
X022638Y02437D02*
X024211D01*
X023031Y024134D02*
X025433D01*
X022638Y02374D02*
X023031Y024134D01*
X024803Y020433D02*
X027402Y023031D01*
X024526Y020433D02*
X024803D01*
X026614Y020004D02*
Y020881D01*
Y020004D02*
X026789Y01983D01*
X026614Y020881D02*
X026938Y021205D01*
X022101Y018762D02*
X022109D01*
X022033Y018694D02*
X022101Y018762D01*
X022005Y018694D02*
X022033D01*
X021257Y017947D02*
X022005Y018694D01*
X023342Y018342D02*
X023701Y018701D01*
X02216Y018342D02*
X023342D01*
X021257Y016754D02*
Y017947D01*
X021496Y017677D02*
X02216Y018342D01*
X021496Y017165D02*
Y017677D01*
X019961Y018661D02*
X020512Y01811D01*
X016417Y017708D02*
X017371Y018661D01*
X019961D01*
X016417Y016457D02*
Y017708D01*
X015079Y015118D02*
X016417Y016457D01*
X020512Y017756D02*
Y01811D01*
X015079Y014449D02*
Y015118D01*
X02378Y021732D02*
X024048Y022001D01*
X01787Y027362D02*
X018933Y028425D01*
X02189D01*
X011761Y012035D02*
X011783D01*
X011614Y012182D02*
Y014488D01*
X01183Y011987D02*
X011862D01*
X011783Y012035D02*
X01183Y011987D01*
X011614Y012182D02*
X011761Y012035D01*
X011614Y014488D02*
X012717Y015591D01*
X015236D01*
X016181Y016535D01*
Y01874D01*
X016772Y019331D01*
X018398D01*
X014685Y019409D02*
Y021772D01*
X015796Y022883D02*
X020896D01*
X014685Y021772D02*
X015796Y022883D01*
X020896D02*
X021102Y022677D01*
X014449Y019173D02*
X014685Y019409D01*
X011929Y019173D02*
X014449D01*
X022598Y022874D02*
X022677Y022953D01*
X02378D01*
X039189Y023874D02*
Y024803D01*
X038189Y023898D02*
Y024803D01*
X037189Y024236D02*
Y024803D01*
X025143Y022165D02*
X025734Y022756D01*
X022992Y022165D02*
X025143D01*
X031912Y017461D02*
X035728D01*
X036189Y017D01*
X03616Y017699D02*
X037205Y016654D01*
X031154Y017699D02*
X03616D01*
X038189Y015748D02*
Y017874D01*
X036821Y019242D02*
X038189Y017874D01*
X03314Y019242D02*
X036821D01*
X034072Y016631D02*
Y016749D01*
X033189Y015748D02*
X034072Y016631D01*
Y016749D02*
X034094Y016772D01*
X036189Y015748D02*
Y017D01*
X037189Y015748D02*
X037205Y015764D01*
Y016654D01*
X018213Y016063D02*
X018307Y015969D01*
X01752Y016063D02*
X018213D01*
X017079Y015622D02*
X01752Y016063D01*
X017079Y014449D02*
Y015622D01*
X01189Y015787D02*
Y016535D01*
Y015787D02*
X012008Y015669D01*
X011929Y018386D02*
X012047Y018268D01*
X011929Y018386D02*
Y019173D01*
X024565Y017636D02*
X025413D01*
D12*
X015394Y023976D02*
D03*
X016496D02*
D03*
X015394Y024975D02*
D03*
X016502Y026042D02*
D03*
X016496Y024961D02*
D03*
X014173Y026024D02*
D03*
Y023976D02*
D03*
X014213Y024961D02*
D03*
X015394Y026024D02*
D03*
X01063Y020109D02*
D03*
D21*
X019449Y021654D02*
D03*
Y022283D02*
D03*
D27*
X027677Y010945D02*
D03*
X030472D02*
D03*
X023484Y010906D02*
D03*
X02628D02*
D03*
X031929D02*
D03*
X034724D02*
D03*
D28*
X028484Y012402D02*
D03*
X029075Y012402D02*
D03*
X029665D02*
D03*
X024291Y012362D02*
D03*
X024882Y012362D02*
D03*
X025472D02*
D03*
X032736Y012362D02*
D03*
X033327Y012362D02*
D03*
X033917D02*
D03*
D29*
X01189Y016535D02*
D03*
X01126D02*
D03*
X011929Y019173D02*
D03*
X011299D02*
D03*
X015433Y017874D02*
D03*
X014803D02*
D03*
X011968Y02126D02*
D03*
X011339D02*
D03*
X011929Y02315D02*
D03*
X011299D02*
D03*
D70*
X032198Y014404D02*
X03238Y014585D01*
X032401D01*
X028892Y014404D02*
X032198D01*
X028725Y014237D02*
X028892Y014404D01*
X020472Y014961D02*
Y01537D01*
X021283Y016181D02*
X021283D01*
X020472Y01537D02*
X021283Y016181D01*
X021283D02*
X021889Y016787D01*
X019961Y014449D02*
X020472Y014961D01*
X018079Y014449D02*
X019961D01*
X031756Y016732D02*
X032149D01*
X03221Y016793D01*
X032231D01*
X028484Y013396D02*
X028725Y013637D01*
Y014237D01*
X030878Y01761D02*
Y01761D01*
X030709Y01778D02*
Y019695D01*
Y01778D02*
X030878Y01761D01*
Y01761D02*
X031756Y016732D01*
X030709Y019695D02*
X031083Y02007D01*
Y020343D01*
X031476Y020736D01*
X028484Y012402D02*
Y013396D01*
X027756Y015984D02*
X02811Y016339D01*
X029252Y016693D02*
X030079D01*
X02811Y016339D02*
X028898D01*
X029252Y016693D01*
X032756Y01874D02*
X034055D01*
X032323Y019173D02*
Y021969D01*
Y019173D02*
X032756Y01874D01*
X032041Y02225D02*
X032323Y021969D01*
X030839Y022247D02*
X030842Y02225D01*
X032041D01*
X027756Y013976D02*
Y015984D01*
Y013976D02*
X027992Y01374D01*
X028465Y011772D02*
Y012382D01*
X028484Y012402D01*
X0283Y011607D02*
X028465Y011772D01*
X02315Y011607D02*
X0283D01*
X018079Y014449D02*
X018811Y015181D01*
Y017177D01*
X018443Y017546D02*
X018811Y017177D01*
X025827Y023583D02*
X026496D01*
X025118D02*
X025827D01*
X025827Y023583D02*
Y024803D01*
X025827Y023583D02*
X025827Y023583D01*
X026496Y023583D02*
X027047Y024134D01*
X01189Y013032D02*
X019213D01*
X020197Y012047D01*
X024882Y023346D02*
X025118Y023583D01*
X024882Y022835D02*
Y023346D01*
X035945Y024134D02*
X036189Y024378D01*
Y024803D01*
X02937Y024134D02*
X035945D01*
X028189D02*
X02937D01*
X027047D02*
X028189D01*
X018443Y017546D02*
Y017833D01*
X018307Y017968D02*
X018443Y017833D01*
X012835Y022131D02*
Y026417D01*
Y022131D02*
X013039Y021927D01*
X013661Y027244D02*
Y028622D01*
X012835Y026417D02*
X013661Y027244D01*
D71*
X010472Y021063D02*
X01063Y020905D01*
X01124Y016496D02*
X01126D01*
X014803Y017874D02*
Y018661D01*
X015395Y019253D01*
X012008Y017441D02*
X012441Y017874D01*
X014803D01*
X011181Y014173D02*
Y016437D01*
X01124Y016496D01*
X01063Y017175D02*
X01126Y016545D01*
Y016535D02*
Y016545D01*
X01063Y017175D02*
Y020109D01*
X010653Y019829D02*
X011299Y019183D01*
X01063Y020109D02*
X010653Y020086D01*
X011299Y019173D02*
Y019183D01*
X010653Y019829D02*
Y020086D01*
X01063Y020109D02*
Y020905D01*
D72*
X019449Y022283D02*
X019485Y022319D01*
Y022645D01*
X019473Y021622D02*
Y021629D01*
X019449Y021654D02*
X019473Y021629D01*
D74*
X020197Y012047D02*
D03*
D75*
X021772D02*
D03*
D76*
X033189Y015748D02*
D03*
X034189D02*
D03*
X035189D02*
D03*
X036189D02*
D03*
X037189D02*
D03*
X038189D02*
D03*
X039189D02*
D03*
X033189Y024803D02*
D03*
X034189D02*
D03*
X035189D02*
D03*
X036189D02*
D03*
X037189D02*
D03*
X038189D02*
D03*
X039189D02*
D03*
X031476Y018736D02*
D03*
Y020736D02*
D03*
Y021736D02*
D03*
Y019736D02*
D03*
X019398Y019331D02*
D03*
D77*
X031181Y015315D02*
D03*
X021732D02*
D03*
X031181Y025157D02*
D03*
X021732D02*
D03*
D78*
X037559Y011968D02*
D03*
Y028504D02*
D03*
D79*
X024453Y027362D02*
D03*
X022953D02*
D03*
X027453D02*
D03*
X025953D02*
D03*
X01787D02*
D03*
X01637D02*
D03*
X02087D02*
D03*
X01937D02*
D03*
X031067D02*
D03*
X029567D02*
D03*
X034067D02*
D03*
X032567D02*
D03*
D80*
X017547Y011417D02*
D03*
X01361D02*
D03*
D81*
X015079Y014449D02*
D03*
X016079D02*
D03*
X014079D02*
D03*
X013079D02*
D03*
X017079D02*
D03*
X018079D02*
D03*
D82*
X018307Y016968D02*
D03*
Y015969D02*
D03*
X019449Y016953D02*
D03*
Y015953D02*
D03*
D83*
X018307Y017968D02*
D03*
X019449Y017953D02*
D03*
D84*
X013661Y028622D02*
D03*
X011693D02*
D03*
D85*
X018398Y019331D02*
D03*
D86*
X032401Y014585D02*
D03*
X032804Y014891D02*
D03*
X028013Y01517D02*
D03*
X032032Y017978D02*
D03*
X026284Y01097D02*
D03*
X023465Y010906D02*
D03*
X021889Y016787D02*
D03*
X032231Y016793D02*
D03*
X030826Y020242D02*
D03*
X029094Y014055D02*
D03*
X028386Y013661D02*
D03*
X014134Y015866D02*
D03*
X024205Y015144D02*
D03*
X024537Y013828D02*
D03*
X023346Y017874D02*
D03*
X024175Y017243D02*
D03*
X025682Y017308D02*
D03*
X027165Y017676D02*
D03*
X029921Y017874D02*
D03*
X02748Y017913D02*
D03*
X026102Y012362D02*
D03*
X026181Y014685D02*
D03*
X026614Y016614D02*
D03*
X026063Y015906D02*
D03*
X028701Y017008D02*
D03*
X02878Y015945D02*
D03*
X027172Y017004D02*
D03*
X026693Y017402D02*
D03*
X032871Y014452D02*
D03*
X034055Y01874D02*
D03*
X030839Y022247D02*
D03*
X030079Y016693D02*
D03*
X024678Y01878D02*
D03*
X025193Y013227D02*
D03*
X025236Y013976D02*
D03*
X025053Y014543D02*
D03*
X026789Y01918D02*
D03*
X02315Y011607D02*
D03*
X034724Y018032D02*
D03*
X02563Y016535D02*
D03*
X025079Y016811D02*
D03*
X027756Y015984D02*
D03*
X027992Y01374D02*
D03*
X026339Y014173D02*
D03*
X024585Y013279D02*
D03*
X023425Y013465D02*
D03*
X020591Y019016D02*
D03*
X022874Y018622D02*
D03*
X023346Y02D02*
D03*
X024409Y019016D02*
D03*
X020984Y018346D02*
D03*
Y019724D02*
D03*
X02374Y019647D02*
D03*
X030354Y02122D02*
D03*
X022874Y024803D02*
D03*
X021575Y021496D02*
D03*
X021654Y023228D02*
D03*
X022638Y02374D02*
D03*
X024213Y024372D02*
D03*
X025433Y024134D02*
D03*
X026789Y01983D02*
D03*
X026938Y021205D02*
D03*
X022109Y018762D02*
D03*
X023701Y018701D02*
D03*
X028307Y019409D02*
D03*
X020512Y017756D02*
D03*
X030786Y021174D02*
D03*
X025128Y021527D02*
D03*
X02189Y028425D02*
D03*
X011862Y011987D02*
D03*
X01189Y013032D02*
D03*
X015395Y019253D02*
D03*
X015433Y017874D02*
D03*
X019485Y022645D02*
D03*
X021102Y022677D02*
D03*
X022598Y022874D02*
D03*
X02378Y022953D02*
D03*
X012008Y017441D02*
D03*
X024882Y022835D02*
D03*
X02378Y020591D02*
D03*
Y021732D02*
D03*
X022992Y022165D02*
D03*
X025734Y022756D02*
D03*
X02937Y024134D02*
D03*
X028189D02*
D03*
X027047D02*
D03*
X025827Y024803D02*
D03*
X031912Y017461D02*
D03*
X031154Y017699D02*
D03*
X03314Y019242D02*
D03*
X034094Y016772D02*
D03*
X033465Y018228D02*
D03*
X025118Y023583D02*
D03*
X022283Y021535D02*
D03*
X011181Y014173D02*
D03*
X01126Y016496D02*
D03*
X013039Y021927D02*
D03*
X019473Y021622D02*
D03*
X012008Y015669D02*
D03*
X012047Y018268D02*
D03*
X021496Y017165D02*
D03*
X021257Y016754D02*
D03*
X025413Y017636D02*
D03*
X014055Y020773D02*
D03*
X013819Y021457D02*
D03*
X014134D02*
D03*
X010748Y021063D02*
D03*
Y021378D02*
D03*
Y021693D02*
D03*
X010472Y021063D02*
D03*
Y021378D02*
D03*
Y021693D02*
D03*
X012218Y02411D02*
D03*
X011797D02*
D03*
X011439Y024108D02*
D03*
X011084Y024126D02*
D03*
D87*
X011614Y026476D02*
D03*
Y024547D02*
D03*
M02*
