G04*
G04 #@! TF.GenerationSoftware,Altium Limited,Altium Designer,21.2.2 (38)*
G04*
G04 Layer_Color=16711935*
%FSTAX24Y24*%
%MOIN*%
G70*
G04*
G04 #@! TF.SameCoordinates,CF9AC677-4E03-495D-8773-30470D0FCF73*
G04*
G04*
G04 #@! TF.FilePolarity,Positive*
G04*
G01*
G75*
%ADD10C,0.0100*%
%ADD11C,0.0079*%
%ADD12C,0.0315*%
%ADD13C,0.0039*%
%ADD70C,0.0118*%
%ADD72C,0.0059*%
%ADD89C,0.0030*%
G36*
X01063Y026339D02*
X011339D01*
X011344Y026344D01*
Y02687D01*
X01124D01*
X011024Y026732D01*
X010945Y026654D01*
X01063Y026339D01*
D02*
G37*
G36*
X012677Y026339D02*
X011968Y026339D01*
X011963Y026344D01*
Y02687D01*
X012067D01*
X012244Y026772D01*
X012677Y026339D01*
D02*
G37*
G36*
X01811Y025394D02*
X018858D01*
Y026024D01*
X018701Y025984D01*
X018386Y025748D01*
X018346Y025748D01*
X01811Y025394D01*
D02*
G37*
G36*
X019488D02*
X020236D01*
X020197Y025433D01*
Y025551D01*
X02Y025748D01*
X019961D01*
X019764Y025945D01*
X019646D01*
X019567Y026024D01*
X019488D01*
Y025394D01*
D02*
G37*
D10*
X022756Y012047D02*
G03*
X022756Y012047I-001772J0D01*
G01*
X019646D02*
X019764D01*
X019646Y011929D02*
Y012047D01*
X019528D02*
X019646D01*
Y012165D01*
D11*
X02323Y019242D02*
G03*
X02323Y018992I0J-000125D01*
G01*
X013248Y019724D02*
G03*
X013012Y019488I0J-000236D01*
G01*
X017146Y019528D02*
G03*
X016949Y019724I-000197J0D01*
G01*
X016909Y015709D02*
G03*
X017146Y015945I0J000236D01*
G01*
X013012Y015906D02*
G03*
X013209Y015709I000197J0D01*
G01*
X016192Y017717D02*
G03*
X016192Y017717I-001114J0D01*
G01*
X011953Y016535D02*
G03*
X011953Y016535I-000388J0D01*
G01*
X012002Y019173D02*
G03*
X012002Y019173I-000388J0D01*
G01*
X010669Y028268D02*
G03*
X011417Y02752I000748J0D01*
G01*
X011417Y029724D02*
G03*
X010669Y028976I0J-000748D01*
G01*
X014685Y029449D02*
G03*
X014409Y029724I-000276J-0D01*
G01*
X014449Y02752D02*
G03*
X014685Y027756I0J000236D01*
G01*
X011963Y024547D02*
G03*
X011963Y02687I-00031J001161D01*
G01*
X011344D02*
G03*
X011344Y024547I00031J-001161D01*
G01*
X019488Y023661D02*
G03*
X019488Y026024I-000315J001181D01*
G01*
X018858D02*
G03*
X018858Y023661I000315J-001181D01*
G01*
X032567Y015039D02*
X039772D01*
X032567D02*
Y025503D01*
X039772D01*
Y015039D02*
Y025503D01*
X02323Y018448D02*
Y018992D01*
Y019242D02*
Y019747D01*
X02123D02*
X02323D01*
X02123Y018448D02*
X02323D01*
X02123D02*
Y019747D01*
X013346Y025984D02*
X014094Y026142D01*
X016811D02*
X017441Y025984D01*
X014094Y026142D02*
X016811D01*
X01689Y022244D02*
X017441D01*
X01689Y020512D02*
Y022244D01*
X016575Y020512D02*
X01689D01*
X016575D02*
Y022244D01*
X01622D02*
X016575D01*
X01622Y020512D02*
Y022244D01*
X015906Y020512D02*
X01622D01*
X015906D02*
Y022244D01*
X015551D02*
X015906D01*
X015551Y020512D02*
Y022244D01*
X015236Y020512D02*
X015551D01*
X015236D02*
Y022244D01*
X014882D02*
X015236D01*
X014882Y020512D02*
Y022244D01*
X014567Y020512D02*
X014882D01*
X014567D02*
Y022244D01*
X014213D02*
X014567D01*
X014213Y020512D02*
Y022244D01*
X013898Y020512D02*
X014213D01*
X013898D02*
Y022244D01*
X013346D02*
X013898D01*
X013346D02*
Y025984D01*
X017441Y022244D02*
Y025984D01*
X017146Y018465D02*
Y019528D01*
X013248Y019724D02*
X016949D01*
X013012Y018465D02*
Y019488D01*
Y015906D02*
Y016968D01*
X013209Y015709D02*
X016909D01*
X017146Y015945D02*
Y016968D01*
X01872Y020335D02*
X020138D01*
X01872Y022894D02*
X020138D01*
Y020335D02*
Y022894D01*
X01872Y020335D02*
Y022894D01*
X029075Y023848D02*
X029665D01*
Y025049D01*
X029075D02*
X029665D01*
X029075Y023848D02*
Y025049D01*
X030059Y021959D02*
X03065D01*
Y023159D01*
X030059D02*
X03065D01*
X030059Y021959D02*
Y023159D01*
X027894Y023848D02*
X028484D01*
Y025049D01*
X027894D02*
X028484D01*
X027894Y023848D02*
Y025049D01*
X026752Y023848D02*
X027343D01*
Y025049D01*
X026752D02*
X027343D01*
X026752Y023848D02*
Y025049D01*
X027461Y015699D02*
X028051D01*
Y0169D01*
X027461D02*
X028051D01*
X027461Y015699D02*
Y0169D01*
X026358Y015699D02*
X026949D01*
Y0169D01*
X026358D02*
X026949D01*
X026358Y015699D02*
Y0169D01*
X012175Y01624D02*
Y016831D01*
X010974Y01624D02*
X012175D01*
X010974D02*
Y016831D01*
X012175D01*
X030344Y016467D02*
Y017549D01*
X029813Y016467D02*
Y017549D01*
X030344D01*
X029813Y016467D02*
X030344D01*
X012215Y018878D02*
Y019468D01*
X011014Y018878D02*
X012215D01*
X011014D02*
Y019468D01*
X012215D01*
X037372Y013593D02*
Y014675D01*
X037904Y013593D02*
Y014675D01*
X037372Y013593D02*
X037904D01*
X037372Y014675D02*
X037904D01*
X035285Y013593D02*
Y014675D01*
X035817Y013593D02*
Y014675D01*
X035285Y013593D02*
X035817D01*
X035285Y014675D02*
X035817D01*
X038969Y013465D02*
Y014803D01*
X038197Y013465D02*
X038969D01*
X038197Y014803D02*
X038969D01*
X038197Y013465D02*
Y014803D01*
X037Y013465D02*
Y014803D01*
X036228Y013465D02*
X037D01*
X036228Y014803D02*
X037D01*
X036228Y013465D02*
Y014803D01*
X015718Y017579D02*
Y018169D01*
X014518Y017579D02*
X015718D01*
X014518D02*
Y018169D01*
X015718D01*
X019154Y021368D02*
X019744D01*
X019154D02*
Y022569D01*
X019744D01*
Y021368D02*
Y022569D01*
X012254Y020965D02*
Y021555D01*
X011053Y020965D02*
X012254D01*
X011053D02*
Y021555D01*
X012254D01*
X012215Y022854D02*
Y023445D01*
X011014Y022854D02*
X012215D01*
X011014D02*
Y023445D01*
X012215D01*
X027598Y010197D02*
Y010433D01*
Y010197D02*
X030551D01*
Y010453D01*
Y011457D02*
Y012756D01*
X029921D02*
X030551D01*
X027598D02*
X028228D01*
X027598Y011457D02*
Y012756D01*
X023406Y010157D02*
Y010394D01*
Y010157D02*
X026358D01*
Y010413D01*
Y011417D02*
Y012717D01*
X025728D02*
X026358D01*
X023406D02*
X024035D01*
X023406Y011417D02*
Y012717D01*
X03185Y010157D02*
Y010394D01*
Y010157D02*
X034803D01*
Y010413D01*
Y011417D02*
Y012717D01*
X034173D02*
X034803D01*
X03185D02*
X03248D01*
X03185Y011417D02*
Y012717D01*
X025561Y023947D02*
X026093D01*
X025561Y02503D02*
X026093D01*
X025561Y023947D02*
Y02503D01*
X026093Y023947D02*
Y02503D01*
X024459Y023907D02*
X02499D01*
X024459Y02499D02*
X02499D01*
X024459Y023907D02*
Y02499D01*
X02499Y023907D02*
Y02499D01*
X021033Y016506D02*
Y017037D01*
X022116Y016506D02*
Y017037D01*
X021033D02*
X022116D01*
X021033Y016506D02*
X022116D01*
X022053Y02689D02*
Y030394D01*
X028356D01*
Y02689D02*
Y030394D01*
X022053Y02689D02*
X028356D01*
X024813Y017077D02*
X025344D01*
X024813Y015994D02*
X025344D01*
Y017077D01*
X024813Y015994D02*
Y017077D01*
X023947D02*
X024478D01*
X023947Y015994D02*
X024478D01*
Y017077D01*
X023947Y015994D02*
Y017077D01*
X022726Y022352D02*
X023258D01*
X022726Y02127D02*
X023258D01*
Y022352D01*
X022726Y02127D02*
Y022352D01*
X022018D02*
X022549D01*
X022018Y02127D02*
X022549D01*
Y022352D01*
X022018Y02127D02*
Y022352D01*
X021309D02*
X021841D01*
X021309Y02127D02*
X021841D01*
Y022352D01*
X021309Y02127D02*
Y022352D01*
X026339Y011417D02*
Y012717D01*
X025709D02*
X026339D01*
X023386D02*
X024016D01*
X023386Y011417D02*
Y012717D01*
Y010157D02*
Y010413D01*
Y010157D02*
X026339D01*
Y010394D01*
X023514Y019341D02*
Y019872D01*
X024596Y019341D02*
Y019872D01*
X023514D02*
X024596D01*
X023514Y019341D02*
X024596D01*
X023553Y020325D02*
Y020856D01*
X024636Y020325D02*
Y020856D01*
X023553D02*
X024636D01*
X023553Y020325D02*
X024636D01*
X023553Y021467D02*
Y021998D01*
X024636Y021467D02*
Y021998D01*
X023553D02*
X024636D01*
X023553Y021467D02*
X024636D01*
X030089Y018986D02*
X03062D01*
X030089Y020069D02*
X03062D01*
X030089Y018986D02*
Y020069D01*
X03062Y018986D02*
Y020069D01*
X033809Y017776D02*
X03501D01*
Y017185D02*
Y017776D01*
X033809Y017185D02*
X03501D01*
X033809D02*
Y017776D01*
X033809Y019035D02*
X03501D01*
Y018445D02*
Y019035D01*
X033809Y018445D02*
X03501D01*
X033809D02*
Y019035D01*
X01547Y02689D02*
Y030394D01*
X021774D01*
Y02689D02*
Y030394D01*
X01547Y02689D02*
X021774D01*
X03548Y025748D02*
Y027087D01*
X036252D01*
X03548Y025748D02*
X036252D01*
Y027087D01*
X034823Y011417D02*
Y012717D01*
X034193D02*
X034823D01*
X03187D02*
X0325D01*
X03187Y011417D02*
Y012717D01*
Y010157D02*
Y010413D01*
Y010157D02*
X034823D01*
Y010394D01*
X033829Y022766D02*
Y023297D01*
X034911Y022766D02*
Y023297D01*
X033829D02*
X034911D01*
X033829Y022766D02*
X034911D01*
X033829Y021742D02*
Y022274D01*
X034911Y021742D02*
Y022274D01*
X033829D02*
X034911D01*
X033829Y021742D02*
X034911D01*
X037315Y025748D02*
Y027087D01*
X036543Y025748D02*
X037315D01*
X036543Y027087D02*
X037315D01*
X036543Y025748D02*
Y027087D01*
X033868Y019616D02*
Y020148D01*
X034951Y019616D02*
Y020148D01*
X033868D02*
X034951D01*
X033868Y019616D02*
X034951D01*
X033868Y020679D02*
Y021211D01*
X034951Y020679D02*
Y021211D01*
X033868D02*
X034951D01*
X033868Y020679D02*
X034951D01*
X028667Y02689D02*
Y030394D01*
X03497D01*
Y02689D02*
Y030394D01*
X028667Y02689D02*
X03497D01*
X039441Y025748D02*
Y027087D01*
X038669Y025748D02*
X039441D01*
X038669Y027087D02*
X039441D01*
X038669Y025748D02*
Y027087D01*
X038378Y025748D02*
Y027087D01*
X037606Y025748D02*
X038378D01*
X037606Y027087D02*
X038378D01*
X037606Y025748D02*
Y027087D01*
X017807Y016468D02*
X018807D01*
X017807Y017469D02*
X018807D01*
Y015468D02*
Y018469D01*
X017807Y015468D02*
X018807D01*
X017807D02*
Y018469D01*
X018807D01*
X018949Y016453D02*
X019949D01*
X018949Y017453D02*
X019949D01*
Y015453D02*
Y018453D01*
X018949Y015453D02*
X019949D01*
X018949D02*
Y018453D01*
X019949D01*
X028514Y016841D02*
X029045D01*
X028514Y015758D02*
X029045D01*
Y016841D01*
X028514Y015758D02*
Y016841D01*
X030089Y021447D02*
X03062D01*
X030089Y020364D02*
X03062D01*
Y021447D01*
X030089Y020364D02*
Y021447D01*
X023514Y018041D02*
Y018573D01*
X024596Y018041D02*
Y018573D01*
X023514D02*
X024596D01*
X023514Y018041D02*
X024596D01*
X011368Y01563D02*
X011762D01*
X011368Y017441D02*
X011762D01*
X010935Y015945D02*
Y017126D01*
X012195Y015945D02*
Y017126D01*
X024636Y022687D02*
Y023219D01*
X023553Y022687D02*
Y023219D01*
Y022687D02*
X024636D01*
X023553Y023219D02*
X024636D01*
X011417Y018268D02*
X011811D01*
X011417Y020079D02*
X011811D01*
X010984Y018583D02*
Y019764D01*
X012244Y018583D02*
Y019764D01*
X011693Y02752D02*
X014449D01*
X014685Y027756D02*
Y029449D01*
X011693Y029724D02*
X014409D01*
X011417Y02752D02*
X011693D01*
X010669Y028268D02*
Y028976D01*
X011417Y029724D02*
X011693D01*
X010315Y024764D02*
Y027047D01*
Y024764D02*
X010787Y024291D01*
X011339D01*
X012992Y024764D02*
Y027047D01*
X01252Y024291D02*
X012992Y024764D01*
X011968Y024291D02*
X01252D01*
X010315Y027047D02*
X011339D01*
X011968D02*
X012992D01*
X011344Y02687D02*
Y027042D01*
X011963Y02687D02*
Y027042D01*
Y024297D02*
Y024547D01*
X011344Y024297D02*
Y024547D01*
X01063Y026339D02*
X011339D01*
X011344Y026344D01*
Y02687D01*
X011968Y026339D02*
X012677D01*
X011963Y026344D02*
X011968Y026339D01*
X011963Y026344D02*
Y02687D01*
X019488Y026024D02*
Y02626D01*
X018858Y026024D02*
Y02626D01*
Y023425D02*
Y023661D01*
X019488Y023425D02*
Y023661D01*
Y023425D02*
X020039D01*
X020512Y023898D01*
Y02626D01*
X019488D02*
X020512D01*
X017835D02*
X018858D01*
X018307Y023425D02*
X018858D01*
X017835Y023898D02*
X018307Y023425D01*
X017835Y023898D02*
Y02626D01*
X01811Y025394D02*
X018858D01*
Y026024D01*
X019488Y025394D02*
X020236D01*
X019488D02*
Y026024D01*
X012441Y020748D02*
Y023465D01*
X010866Y020748D02*
X012441D01*
X010866D02*
Y023583D01*
X012441D01*
Y023465D02*
Y023583D01*
X010906Y023701D02*
X012402D01*
X012077Y011742D02*
Y012274D01*
X010994Y011742D02*
Y012274D01*
Y011742D02*
X012077D01*
X010994Y012274D02*
X012077D01*
X010994Y012726D02*
Y013258D01*
X012077Y012726D02*
Y013258D01*
X010994D02*
X012077D01*
X010994Y012726D02*
X012077D01*
X010994Y010797D02*
Y011329D01*
X012077Y010797D02*
Y011329D01*
X010994D02*
X012077D01*
X010994Y010797D02*
X012077D01*
X010906Y013748D02*
X012244D01*
X010906D02*
Y01452D01*
X012244Y013748D02*
Y01452D01*
X010906D02*
X012244D01*
X018898Y018831D02*
Y019831D01*
X017898D02*
X019898D01*
Y018831D02*
Y019831D01*
X017898Y018831D02*
X019898D01*
X017898D02*
Y019831D01*
X012823Y011279D02*
Y010689D01*
X012941Y010571D01*
X013177D01*
X013295Y010689D01*
Y011279D01*
X013531Y010571D02*
X013767D01*
X013649D01*
Y011279D01*
X013531Y011161D01*
X014122Y010571D02*
Y010689D01*
X01424D01*
Y010571D01*
X014122D01*
X014712Y011161D02*
X01483Y011279D01*
X015066D01*
X015184Y011161D01*
Y011043D01*
X015066Y010925D01*
X014948D01*
X015066D01*
X015184Y010807D01*
Y010689D01*
X015066Y010571D01*
X01483D01*
X014712Y010689D01*
D12*
X022956Y019467D02*
D03*
D13*
X026496Y019173D02*
G03*
X026496Y019173I-000118J0D01*
G01*
X026122Y018917D02*
X028839D01*
X026122Y021634D02*
X028839D01*
X026122Y018917D02*
Y021634D01*
X028839Y018917D02*
Y021634D01*
X023976Y01435D02*
X024449D01*
Y015374D01*
X023976D02*
X024449D01*
X023976Y01435D02*
Y015374D01*
X024304Y014455D02*
X0242D01*
X024173Y014429D01*
Y014377D01*
X0242Y01435D01*
X024304D01*
X024331Y014377D01*
Y014429D01*
X024278Y014403D02*
X024331Y014455D01*
Y014429D02*
X024304Y014455D01*
X024331Y014508D02*
Y01456D01*
Y014534D01*
X024173D01*
X0242Y014508D01*
X024331Y014639D02*
X024304D01*
Y014665D01*
X024331D01*
Y014639D01*
Y014875D02*
Y01477D01*
X024226Y014875D01*
X0242D01*
X024173Y014849D01*
Y014796D01*
X0242Y01477D01*
X017953Y019134D02*
Y019409D01*
X018091D01*
X018136Y019363D01*
Y019272D01*
X018091Y019226D01*
X017953D01*
X018228Y019134D02*
X01832D01*
X018274D01*
Y019409D01*
X018228Y019363D01*
X018458Y019134D02*
Y01918D01*
X018504D01*
Y019134D01*
X018458D01*
X018687D02*
X018779D01*
X018733D01*
Y019409D01*
X018687Y019363D01*
X021506Y019639D02*
Y019586D01*
Y019612D01*
X021348D01*
Y019639D01*
Y019586D01*
X02148Y019402D02*
X021506Y019429D01*
Y019481D01*
X02148Y019507D01*
X021375D01*
X021348Y019481D01*
Y019429D01*
X021375Y019402D01*
X021348Y01935D02*
Y019297D01*
Y019324D01*
X021506D01*
X02148Y01935D01*
X021348Y019219D02*
X021375D01*
Y019193D01*
X021348D01*
Y019219D01*
X02148Y019088D02*
X021506Y019061D01*
Y019009D01*
X02148Y018983D01*
X021453D01*
X021427Y019009D01*
Y019035D01*
Y019009D01*
X021401Y018983D01*
X021375D01*
X021348Y019009D01*
Y019061D01*
X021375Y019088D01*
X019606Y022874D02*
Y022769D01*
Y022822D01*
X019291D01*
Y022874D01*
Y022769D01*
X019554Y022402D02*
X019606Y022454D01*
Y022559D01*
X019554Y022612D01*
X019344D01*
X019291Y022559D01*
Y022454D01*
X019344Y022402D01*
X019291Y022297D02*
Y022192D01*
Y022244D01*
X019606D01*
X019554Y022297D01*
X019291Y022034D02*
X019344D01*
Y021982D01*
X019291D01*
Y022034D01*
Y021772D02*
Y021667D01*
Y02172D01*
X019606D01*
X019554Y021772D01*
X029357Y024111D02*
X029311Y024065D01*
Y023973D01*
X029357Y023927D01*
X029541D01*
X029587Y023973D01*
Y024065D01*
X029541Y024111D01*
X029311Y024203D02*
Y024386D01*
X029357D01*
X029541Y024203D01*
X029587D01*
Y024478D02*
X029541D01*
Y024524D01*
X029587D01*
Y024478D01*
Y024891D02*
Y024708D01*
X029403Y024891D01*
X029357D01*
X029311Y024845D01*
Y024754D01*
X029357Y024708D01*
X030341Y022221D02*
X030295Y022175D01*
Y022083D01*
X030341Y022037D01*
X030525D01*
X030571Y022083D01*
Y022175D01*
X030525Y022221D01*
X030341Y022313D02*
X030295Y022359D01*
Y022451D01*
X030341Y022497D01*
X030387D01*
X030433Y022451D01*
X030479Y022497D01*
X030525D01*
X030571Y022451D01*
Y022359D01*
X030525Y022313D01*
X030479D01*
X030433Y022359D01*
X030387Y022313D01*
X030341D01*
X030433Y022359D02*
Y022451D01*
X030571Y022588D02*
X030525D01*
Y022634D01*
X030571D01*
Y022588D01*
Y023002D02*
Y022818D01*
X030387Y023002D01*
X030341D01*
X030295Y022956D01*
Y022864D01*
X030341Y022818D01*
X028176Y024111D02*
X02813Y024065D01*
Y023973D01*
X028176Y023927D01*
X02836D01*
X028406Y023973D01*
Y024065D01*
X02836Y024111D01*
X02813Y024386D02*
X028176Y024295D01*
X028268Y024203D01*
X02836D01*
X028406Y024249D01*
Y02434D01*
X02836Y024386D01*
X028314D01*
X028268Y02434D01*
Y024203D01*
X028406Y024478D02*
X02836D01*
Y024524D01*
X028406D01*
Y024478D01*
Y024891D02*
Y024708D01*
X028222Y024891D01*
X028176D01*
X02813Y024845D01*
Y024754D01*
X028176Y024708D01*
X027034Y024111D02*
X026988Y024065D01*
Y023973D01*
X027034Y023927D01*
X027218D01*
X027264Y023973D01*
Y024065D01*
X027218Y024111D01*
X026988Y024386D02*
Y024203D01*
X027126D01*
X02708Y024295D01*
Y02434D01*
X027126Y024386D01*
X027218D01*
X027264Y02434D01*
Y024249D01*
X027218Y024203D01*
X027264Y024478D02*
X027218D01*
Y024524D01*
X027264D01*
Y024478D01*
Y024891D02*
Y024708D01*
X02708Y024891D01*
X027034D01*
X026988Y024845D01*
Y024754D01*
X027034Y024708D01*
X027743Y015961D02*
X027697Y015915D01*
Y015823D01*
X027743Y015778D01*
X027927D01*
X027972Y015823D01*
Y015915D01*
X027927Y015961D01*
X027972Y016237D02*
Y016053D01*
X027789Y016237D01*
X027743D01*
X027697Y016191D01*
Y016099D01*
X027743Y016053D01*
X027972Y016329D02*
X027927D01*
Y016374D01*
X027972D01*
Y016329D01*
Y016742D02*
Y016558D01*
X027789Y016742D01*
X027743D01*
X027697Y016696D01*
Y016604D01*
X027743Y016558D01*
X02664Y015961D02*
X026595Y015915D01*
Y015823D01*
X02664Y015778D01*
X026824D01*
X02687Y015823D01*
Y015915D01*
X026824Y015961D01*
X02664Y016053D02*
X026595Y016099D01*
Y016191D01*
X02664Y016237D01*
X026686D01*
X026732Y016191D01*
Y016145D01*
Y016191D01*
X026778Y016237D01*
X026824D01*
X02687Y016191D01*
Y016099D01*
X026824Y016053D01*
X02687Y016329D02*
X026824D01*
Y016374D01*
X02687D01*
Y016329D01*
Y016742D02*
Y016558D01*
X026686Y016742D01*
X02664D01*
X026595Y016696D01*
Y016604D01*
X02664Y016558D01*
X011913Y016548D02*
X011959Y016594D01*
X012051D01*
X012096Y016548D01*
Y016365D01*
X012051Y016319D01*
X011959D01*
X011913Y016365D01*
X011821Y016319D02*
X011729D01*
X011775D01*
Y016594D01*
X011821Y016548D01*
X011591Y016319D02*
Y016365D01*
X011545D01*
Y016319D01*
X011591D01*
X011178D02*
X011362D01*
X011178Y016503D01*
Y016548D01*
X011224Y016594D01*
X011316D01*
X011362Y016548D01*
X030305Y016506D02*
X030108D01*
Y016604D01*
X030141Y016637D01*
X030207D01*
X03024Y016604D01*
Y016506D01*
Y016572D02*
X030305Y016637D01*
X030141Y016703D02*
X030108Y016735D01*
Y016801D01*
X030141Y016834D01*
X030174D01*
X030207Y016801D01*
Y016768D01*
Y016801D01*
X03024Y016834D01*
X030272D01*
X030305Y016801D01*
Y016735D01*
X030272Y016703D01*
X030305Y016899D02*
X030272D01*
Y016932D01*
X030305D01*
Y016899D01*
Y017195D02*
Y017063D01*
X030174Y017195D01*
X030141D01*
X030108Y017162D01*
Y017096D01*
X030141Y017063D01*
X011952Y019186D02*
X011998Y019232D01*
X01209D01*
X012136Y019186D01*
Y019003D01*
X01209Y018957D01*
X011998D01*
X011952Y019003D01*
X011723Y018957D02*
Y019232D01*
X01186Y019094D01*
X011677D01*
X011585Y018957D02*
Y019003D01*
X011539D01*
Y018957D01*
X011585D01*
X011172D02*
X011355D01*
X011172Y01914D01*
Y019186D01*
X011217Y019232D01*
X011309D01*
X011355Y019186D01*
X028327Y018602D02*
X028589D01*
X028642Y018655D01*
Y01876D01*
X028589Y018812D01*
X028327D01*
X028642Y018917D02*
Y019022D01*
Y01897D01*
X028327D01*
X028379Y018917D01*
X028642Y01918D02*
X028589D01*
Y019232D01*
X028642D01*
Y01918D01*
Y019652D02*
Y019442D01*
X028432Y019652D01*
X028379D01*
X028327Y019599D01*
Y019494D01*
X028379Y019442D01*
X037411Y014636D02*
X037608D01*
Y014537D01*
X037575Y014505D01*
X03751D01*
X037477Y014537D01*
Y014636D01*
Y01457D02*
X037411Y014505D01*
X037608Y014439D02*
Y014308D01*
X037575D01*
X037444Y014439D01*
X037411D01*
Y014242D02*
X037444D01*
Y014209D01*
X037411D01*
Y014242D01*
Y013947D02*
Y014078D01*
X037543Y013947D01*
X037575D01*
X037608Y01398D01*
Y014045D01*
X037575Y014078D01*
X035325Y014636D02*
X035522D01*
Y014537D01*
X035489Y014505D01*
X035423D01*
X03539Y014537D01*
Y014636D01*
Y01457D02*
X035325Y014505D01*
X035522Y014308D02*
X035489Y014373D01*
X035423Y014439D01*
X035358D01*
X035325Y014406D01*
Y014341D01*
X035358Y014308D01*
X03539D01*
X035423Y014341D01*
Y014439D01*
X035325Y014242D02*
X035358D01*
Y014209D01*
X035325D01*
Y014242D01*
Y013947D02*
Y014078D01*
X035456Y013947D01*
X035489D01*
X035522Y01398D01*
Y014045D01*
X035489Y014078D01*
X038654Y013508D02*
X038929D01*
Y013646D01*
X038883Y013692D01*
X0387D01*
X038654Y013646D01*
Y013508D01*
X038929Y013967D02*
Y013783D01*
X038745Y013967D01*
X0387D01*
X038654Y013921D01*
Y013829D01*
X0387Y013783D01*
X038929Y014059D02*
X038883D01*
Y014105D01*
X038929D01*
Y014059D01*
Y014472D02*
Y014288D01*
X038745Y014472D01*
X0387D01*
X038654Y014426D01*
Y014334D01*
X0387Y014288D01*
X036685Y013508D02*
X036961D01*
Y013646D01*
X036915Y013692D01*
X036731D01*
X036685Y013646D01*
Y013508D01*
X036961Y013783D02*
Y013875D01*
Y013829D01*
X036685D01*
X036731Y013783D01*
X036961Y014013D02*
X036915D01*
Y014059D01*
X036961D01*
Y014013D01*
Y014426D02*
Y014243D01*
X036777Y014426D01*
X036731D01*
X036685Y01438D01*
Y014288D01*
X036731Y014243D01*
X015456Y017887D02*
X015502Y017933D01*
X015594D01*
X01564Y017887D01*
Y017703D01*
X015594Y017657D01*
X015502D01*
X015456Y017703D01*
X015364Y017887D02*
X015318Y017933D01*
X015227D01*
X015181Y017887D01*
Y017841D01*
X015227Y017795D01*
X015272D01*
X015227D01*
X015181Y017749D01*
Y017703D01*
X015227Y017657D01*
X015318D01*
X015364Y017703D01*
X015089Y017657D02*
Y017703D01*
X015043D01*
Y017657D01*
X015089D01*
X014859D02*
X014767D01*
X014813D01*
Y017933D01*
X014859Y017887D01*
X019462Y021631D02*
X019508Y021585D01*
Y021493D01*
X019462Y021447D01*
X019278D01*
X019232Y021493D01*
Y021585D01*
X019278Y021631D01*
X019232Y02186D02*
X019508D01*
X01937Y021722D01*
Y021906D01*
X019232Y021998D02*
X019278D01*
Y022044D01*
X019232D01*
Y021998D01*
Y022227D02*
Y022319D01*
Y022273D01*
X019508D01*
X019462Y022227D01*
X011992Y021273D02*
X012037Y021319D01*
X012129D01*
X012175Y021273D01*
Y021089D01*
X012129Y021043D01*
X012037D01*
X011992Y021089D01*
X0119Y021043D02*
X011808D01*
X011854D01*
Y021319D01*
X0119Y021273D01*
X01167Y021043D02*
Y021089D01*
X011624D01*
Y021043D01*
X01167D01*
X011441D02*
X011349D01*
X011395D01*
Y021319D01*
X011441Y021273D01*
X011952Y023163D02*
X011998Y023209D01*
X01209D01*
X012136Y023163D01*
Y022979D01*
X01209Y022933D01*
X011998D01*
X011952Y022979D01*
X011677Y022933D02*
X01186D01*
X011677Y023117D01*
Y023163D01*
X011723Y023209D01*
X011814D01*
X01186Y023163D01*
X011585Y022933D02*
Y022979D01*
X011539D01*
Y022933D01*
X011585D01*
X011355D02*
X011263D01*
X011309D01*
Y023209D01*
X011355Y023163D01*
X011882Y026654D02*
Y026969D01*
X012118D01*
Y026811D01*
Y026969D01*
X012354D01*
Y026496D02*
Y026339D01*
Y026418D01*
X011882D01*
X011961Y026496D01*
X012354Y026103D02*
X012276D01*
Y026024D01*
X012354D01*
Y026103D01*
Y025709D02*
Y025552D01*
Y02563D01*
X011882D01*
X011961Y025709D01*
X026053Y023986D02*
X025856D01*
Y024085D01*
X025889Y024117D01*
X025955D01*
X025988Y024085D01*
Y023986D01*
Y024052D02*
X026053Y024117D01*
X025889Y024183D02*
X025856Y024216D01*
Y024281D01*
X025889Y024314D01*
X025922D01*
X025955Y024281D01*
Y024249D01*
Y024281D01*
X025988Y024314D01*
X02602D01*
X026053Y024281D01*
Y024216D01*
X02602Y024183D01*
X026053Y02438D02*
X02602D01*
Y024413D01*
X026053D01*
Y02438D01*
X025889Y024544D02*
X025856Y024577D01*
Y024642D01*
X025889Y024675D01*
X025922D01*
X025955Y024642D01*
Y024609D01*
Y024642D01*
X025988Y024675D01*
X02602D01*
X026053Y024642D01*
Y024577D01*
X02602Y024544D01*
X024951Y023947D02*
X024754D01*
Y024045D01*
X024787Y024078D01*
X024852D01*
X024885Y024045D01*
Y023947D01*
Y024012D02*
X024951Y024078D01*
Y024275D02*
Y024144D01*
X02482Y024275D01*
X024787D01*
X024754Y024242D01*
Y024176D01*
X024787Y024144D01*
X024951Y02434D02*
X024918D01*
Y024373D01*
X024951D01*
Y02434D01*
X024787Y024504D02*
X024754Y024537D01*
Y024603D01*
X024787Y024636D01*
X02482D01*
X024852Y024603D01*
Y02457D01*
Y024603D01*
X024885Y024636D01*
X024918D01*
X024951Y024603D01*
Y024537D01*
X024918Y024504D01*
X021073Y016545D02*
Y016742D01*
X021171D01*
X021204Y016709D01*
Y016644D01*
X021171Y016611D01*
X021073D01*
X021138D02*
X021204Y016545D01*
X02127D02*
X021335D01*
X021302D01*
Y016742D01*
X02127Y016709D01*
X021434Y016545D02*
Y016578D01*
X021466D01*
Y016545D01*
X021434D01*
X021598Y016709D02*
X02163Y016742D01*
X021696D01*
X021729Y016709D01*
Y016676D01*
X021696Y016644D01*
X021663D01*
X021696D01*
X021729Y016611D01*
Y016578D01*
X021696Y016545D01*
X02163D01*
X021598Y016578D01*
X028159Y030197D02*
Y029725D01*
X027923D01*
X027845Y029803D01*
Y029961D01*
X027923Y030039D01*
X028159D01*
X027687Y030197D02*
X02753D01*
X027608D01*
Y029725D01*
X027687Y029803D01*
X027294Y030197D02*
Y030118D01*
X027215D01*
Y030197D01*
X027294D01*
X0269Y029803D02*
X026821Y029725D01*
X026664D01*
X026585Y029803D01*
Y029882D01*
X026664Y029961D01*
X026743D01*
X026664D01*
X026585Y030039D01*
Y030118D01*
X026664Y030197D01*
X026821D01*
X0269Y030118D01*
X024852Y017037D02*
X025049D01*
Y016939D01*
X025016Y016906D01*
X024951D01*
X024918Y016939D01*
Y017037D01*
Y016972D02*
X024852Y016906D01*
Y016742D02*
X025049D01*
X024951Y016841D01*
Y016709D01*
X024852Y016644D02*
X024885D01*
Y016611D01*
X024852D01*
Y016644D01*
X025016Y01648D02*
X025049Y016447D01*
Y016381D01*
X025016Y016349D01*
X024984D01*
X024951Y016381D01*
Y016414D01*
Y016381D01*
X024918Y016349D01*
X024885D01*
X024852Y016381D01*
Y016447D01*
X024885Y01648D01*
X023986Y017037D02*
X024183D01*
Y016939D01*
X02415Y016906D01*
X024085D01*
X024052Y016939D01*
Y017037D01*
Y016972D02*
X023986Y016906D01*
X024183Y016709D02*
Y016841D01*
X024085D01*
X024117Y016775D01*
Y016742D01*
X024085Y016709D01*
X024019D01*
X023986Y016742D01*
Y016808D01*
X024019Y016841D01*
X023986Y016644D02*
X024019D01*
Y016611D01*
X023986D01*
Y016644D01*
X02415Y01648D02*
X024183Y016447D01*
Y016381D01*
X02415Y016349D01*
X024117D01*
X024085Y016381D01*
Y016414D01*
Y016381D01*
X024052Y016349D01*
X024019D01*
X023986Y016381D01*
Y016447D01*
X024019Y01648D01*
X022766Y022313D02*
X022963D01*
Y022215D01*
X02293Y022182D01*
X022864D01*
X022831Y022215D01*
Y022313D01*
Y022247D02*
X022766Y022182D01*
X022963Y021985D02*
X02293Y022051D01*
X022864Y022116D01*
X022799D01*
X022766Y022083D01*
Y022018D01*
X022799Y021985D01*
X022831D01*
X022864Y022018D01*
Y022116D01*
X022766Y021919D02*
X022799D01*
Y021887D01*
X022766D01*
Y021919D01*
X02293Y021755D02*
X022963Y021723D01*
Y021657D01*
X02293Y021624D01*
X022897D01*
X022864Y021657D01*
Y02169D01*
Y021657D01*
X022831Y021624D01*
X022799D01*
X022766Y021657D01*
Y021723D01*
X022799Y021755D01*
X022057Y022313D02*
X022254D01*
Y022215D01*
X022221Y022182D01*
X022155D01*
X022123Y022215D01*
Y022313D01*
Y022247D02*
X022057Y022182D01*
X022254Y022116D02*
Y021985D01*
X022221D01*
X02209Y022116D01*
X022057D01*
Y021919D02*
X02209D01*
Y021887D01*
X022057D01*
Y021919D01*
X022221Y021755D02*
X022254Y021723D01*
Y021657D01*
X022221Y021624D01*
X022188D01*
X022155Y021657D01*
Y02169D01*
Y021657D01*
X022123Y021624D01*
X02209D01*
X022057Y021657D01*
Y021723D01*
X02209Y021755D01*
X021348Y022313D02*
X021545D01*
Y022215D01*
X021512Y022182D01*
X021447D01*
X021414Y022215D01*
Y022313D01*
Y022247D02*
X021348Y022182D01*
X021512Y022116D02*
X021545Y022083D01*
Y022018D01*
X021512Y021985D01*
X02148D01*
X021447Y022018D01*
X021414Y021985D01*
X021381D01*
X021348Y022018D01*
Y022083D01*
X021381Y022116D01*
X021414D01*
X021447Y022083D01*
X02148Y022116D01*
X021512D01*
X021447Y022083D02*
Y022018D01*
X021348Y021919D02*
X021381D01*
Y021887D01*
X021348D01*
Y021919D01*
X021512Y021755D02*
X021545Y021723D01*
Y021657D01*
X021512Y021624D01*
X02148D01*
X021447Y021657D01*
Y02169D01*
Y021657D01*
X021414Y021624D01*
X021381D01*
X021348Y021657D01*
Y021723D01*
X021381Y021755D01*
X023553Y01938D02*
Y019577D01*
X023652D01*
X023684Y019544D01*
Y019478D01*
X023652Y019446D01*
X023553D01*
X023619D02*
X023684Y01938D01*
X02375D02*
X023816D01*
X023783D01*
Y019577D01*
X02375Y019544D01*
X023914Y01938D02*
X02398D01*
X023947D01*
Y019577D01*
X023914Y019544D01*
X024078Y01938D02*
Y019413D01*
X024111D01*
Y01938D01*
X024078D01*
X024242Y019544D02*
X024275Y019577D01*
X02434D01*
X024373Y019544D01*
Y019511D01*
X02434Y019478D01*
X024307D01*
X02434D01*
X024373Y019446D01*
Y019413D01*
X02434Y01938D01*
X024275D01*
X024242Y019413D01*
X023593Y020364D02*
Y020561D01*
X023691D01*
X023724Y020528D01*
Y020463D01*
X023691Y02043D01*
X023593D01*
X023658D02*
X023724Y020364D01*
X023789D02*
X023855D01*
X023822D01*
Y020561D01*
X023789Y020528D01*
X023953D02*
X023986Y020561D01*
X024052D01*
X024084Y020528D01*
Y020397D01*
X024052Y020364D01*
X023986D01*
X023953Y020397D01*
Y020528D01*
X02415Y020364D02*
Y020397D01*
X024183D01*
Y020364D01*
X02415D01*
X024314Y020528D02*
X024347Y020561D01*
X024412D01*
X024445Y020528D01*
Y020495D01*
X024412Y020463D01*
X02438D01*
X024412D01*
X024445Y02043D01*
Y020397D01*
X024412Y020364D01*
X024347D01*
X024314Y020397D01*
X023593Y021506D02*
Y021703D01*
X023691D01*
X023724Y02167D01*
Y021604D01*
X023691Y021572D01*
X023593D01*
X023658D02*
X023724Y021506D01*
X023789Y021539D02*
X023822Y021506D01*
X023888D01*
X023921Y021539D01*
Y02167D01*
X023888Y021703D01*
X023822D01*
X023789Y02167D01*
Y021637D01*
X023822Y021604D01*
X023921D01*
X023986Y021506D02*
Y021539D01*
X024019D01*
Y021506D01*
X023986D01*
X02415Y02167D02*
X024183Y021703D01*
X024248D01*
X024281Y02167D01*
Y021637D01*
X024248Y021604D01*
X024216D01*
X024248D01*
X024281Y021572D01*
Y021539D01*
X024248Y021506D01*
X024183D01*
X02415Y021539D01*
X030581Y019026D02*
X030384D01*
Y019124D01*
X030417Y019157D01*
X030482D01*
X030515Y019124D01*
Y019026D01*
Y019091D02*
X030581Y019157D01*
Y019222D02*
Y019288D01*
Y019255D01*
X030384D01*
X030417Y019222D01*
X030581Y019518D02*
Y019386D01*
X03045Y019518D01*
X030417D01*
X030384Y019485D01*
Y019419D01*
X030417Y019386D01*
X030581Y019583D02*
X030548D01*
Y019616D01*
X030581D01*
Y019583D01*
X030417Y019747D02*
X030384Y01978D01*
Y019846D01*
X030417Y019878D01*
X03045D01*
X030482Y019846D01*
Y019813D01*
Y019846D01*
X030515Y019878D01*
X030548D01*
X030581Y019846D01*
Y01978D01*
X030548Y019747D01*
X034071Y017493D02*
X034026Y017539D01*
X033934D01*
X033888Y017493D01*
Y01731D01*
X033934Y017264D01*
X034026D01*
X034071Y01731D01*
X034347Y017264D02*
X034163D01*
X034347Y017447D01*
Y017493D01*
X034301Y017539D01*
X034209D01*
X034163Y017493D01*
X034439Y017264D02*
Y01731D01*
X034485D01*
Y017264D01*
X034439D01*
X034668Y017493D02*
X034714Y017539D01*
X034806D01*
X034852Y017493D01*
Y017447D01*
X034806Y017402D01*
X03476D01*
X034806D01*
X034852Y017356D01*
Y01731D01*
X034806Y017264D01*
X034714D01*
X034668Y01731D01*
X034071Y018753D02*
X034026Y018799D01*
X033934D01*
X033888Y018753D01*
Y01857D01*
X033934Y018524D01*
X034026D01*
X034071Y01857D01*
X034163Y018524D02*
X034255D01*
X034209D01*
Y018799D01*
X034163Y018753D01*
X034393Y018524D02*
Y01857D01*
X034439D01*
Y018524D01*
X034393D01*
X034622Y018753D02*
X034668Y018799D01*
X03476D01*
X034806Y018753D01*
Y018707D01*
X03476Y018661D01*
X034714D01*
X03476D01*
X034806Y018615D01*
Y01857D01*
X03476Y018524D01*
X034668D01*
X034622Y01857D01*
X021577Y030197D02*
Y029725D01*
X021341D01*
X021262Y029803D01*
Y029961D01*
X021341Y030039D01*
X021577D01*
X02079Y029725D02*
X020947Y029803D01*
X021104Y029961D01*
Y030118D01*
X021026Y030197D01*
X020868D01*
X02079Y030118D01*
Y030039D01*
X020868Y029961D01*
X021104D01*
X020632Y030197D02*
Y030118D01*
X020553D01*
Y030197D01*
X020632D01*
X020239Y029803D02*
X02016Y029725D01*
X020002D01*
X019924Y029803D01*
Y029882D01*
X020002Y029961D01*
X020081D01*
X020002D01*
X019924Y030039D01*
Y030118D01*
X020002Y030197D01*
X02016D01*
X020239Y030118D01*
X035795Y027043D02*
X03552D01*
Y026906D01*
X035566Y02686D01*
X035749D01*
X035795Y026906D01*
Y027043D01*
X03552Y026768D02*
Y026676D01*
Y026722D01*
X035795D01*
X035749Y026768D01*
X03552Y026538D02*
X035566D01*
Y026492D01*
X03552D01*
Y026538D01*
X035749Y026309D02*
X035795Y026263D01*
Y026171D01*
X035749Y026125D01*
X035703D01*
X035657Y026171D01*
Y026217D01*
Y026171D01*
X035612Y026125D01*
X035566D01*
X03552Y026171D01*
Y026263D01*
X035566Y026309D01*
X033868Y022805D02*
Y023002D01*
X033967D01*
X033999Y022969D01*
Y022904D01*
X033967Y022871D01*
X033868D01*
X033934D02*
X033999Y022805D01*
X034065D02*
X03413D01*
X034098D01*
Y023002D01*
X034065Y022969D01*
X034327Y022805D02*
Y023002D01*
X034229Y022904D01*
X03436D01*
X034426Y022805D02*
Y022838D01*
X034458D01*
Y022805D01*
X034426D01*
X03459Y022969D02*
X034622Y023002D01*
X034688D01*
X034721Y022969D01*
Y022936D01*
X034688Y022904D01*
X034655D01*
X034688D01*
X034721Y022871D01*
Y022838D01*
X034688Y022805D01*
X034622D01*
X03459Y022838D01*
X033868Y021781D02*
Y021978D01*
X033967D01*
X033999Y021945D01*
Y02188D01*
X033967Y021847D01*
X033868D01*
X033934D02*
X033999Y021781D01*
X034065D02*
X03413D01*
X034098D01*
Y021978D01*
X034065Y021945D01*
X034229D02*
X034262Y021978D01*
X034327D01*
X03436Y021945D01*
Y021913D01*
X034327Y02188D01*
X034294D01*
X034327D01*
X03436Y021847D01*
Y021814D01*
X034327Y021781D01*
X034262D01*
X034229Y021814D01*
X034426Y021781D02*
Y021814D01*
X034458D01*
Y021781D01*
X034426D01*
X03459Y021945D02*
X034622Y021978D01*
X034688D01*
X034721Y021945D01*
Y021913D01*
X034688Y02188D01*
X034655D01*
X034688D01*
X034721Y021847D01*
Y021814D01*
X034688Y021781D01*
X034622D01*
X03459Y021814D01*
X036858Y027043D02*
X036583D01*
Y026906D01*
X036629Y02686D01*
X036812D01*
X036858Y026906D01*
Y027043D01*
X036583Y026584D02*
Y026768D01*
X036766Y026584D01*
X036812D01*
X036858Y02663D01*
Y026722D01*
X036812Y026768D01*
X036583Y026492D02*
X036629D01*
Y026446D01*
X036583D01*
Y026492D01*
X036812Y026263D02*
X036858Y026217D01*
Y026125D01*
X036812Y026079D01*
X036766D01*
X03672Y026125D01*
Y026171D01*
Y026125D01*
X036675Y026079D01*
X036629D01*
X036583Y026125D01*
Y026217D01*
X036629Y026263D01*
X033907Y019656D02*
Y019852D01*
X034006D01*
X034039Y01982D01*
Y019754D01*
X034006Y019721D01*
X033907D01*
X033973D02*
X034039Y019656D01*
X034104D02*
X03417D01*
X034137D01*
Y019852D01*
X034104Y01982D01*
X034399Y019852D02*
X034268D01*
Y019754D01*
X034334Y019787D01*
X034367D01*
X034399Y019754D01*
Y019688D01*
X034367Y019656D01*
X034301D01*
X034268Y019688D01*
X034465Y019656D02*
Y019688D01*
X034498D01*
Y019656D01*
X034465D01*
X034629Y01982D02*
X034662Y019852D01*
X034727D01*
X03476Y01982D01*
Y019787D01*
X034727Y019754D01*
X034695D01*
X034727D01*
X03476Y019721D01*
Y019688D01*
X034727Y019656D01*
X034662D01*
X034629Y019688D01*
X033907Y020719D02*
Y020915D01*
X034006D01*
X034039Y020882D01*
Y020817D01*
X034006Y020784D01*
X033907D01*
X033973D02*
X034039Y020719D01*
X034104D02*
X03417D01*
X034137D01*
Y020915D01*
X034104Y020882D01*
X034399Y020915D02*
X034334Y020882D01*
X034268Y020817D01*
Y020751D01*
X034301Y020719D01*
X034367D01*
X034399Y020751D01*
Y020784D01*
X034367Y020817D01*
X034268D01*
X034465Y020719D02*
Y020751D01*
X034498D01*
Y020719D01*
X034465D01*
X034629Y020882D02*
X034662Y020915D01*
X034727D01*
X03476Y020882D01*
Y02085D01*
X034727Y020817D01*
X034695D01*
X034727D01*
X03476Y020784D01*
Y020751D01*
X034727Y020719D01*
X034662D01*
X034629Y020751D01*
X034774Y030197D02*
Y029725D01*
X034537D01*
X034459Y029803D01*
Y029961D01*
X034537Y030039D01*
X034774D01*
X034301Y029803D02*
X034223Y029725D01*
X034065D01*
X033986Y029803D01*
Y029882D01*
X034065Y029961D01*
X033986Y030039D01*
Y030118D01*
X034065Y030197D01*
X034223D01*
X034301Y030118D01*
Y030039D01*
X034223Y029961D01*
X034301Y029882D01*
Y029803D01*
X034223Y029961D02*
X034065D01*
X033829Y030197D02*
Y030118D01*
X03375D01*
Y030197D01*
X033829D01*
X033435Y029803D02*
X033357Y029725D01*
X033199D01*
X033121Y029803D01*
Y029882D01*
X033199Y029961D01*
X033278D01*
X033199D01*
X033121Y030039D01*
Y030118D01*
X033199Y030197D01*
X033357D01*
X033435Y030118D01*
X038984Y027043D02*
X038709D01*
Y026906D01*
X038755Y02686D01*
X038938D01*
X038984Y026906D01*
Y027043D01*
X038938Y026768D02*
X038984Y026722D01*
Y02663D01*
X038938Y026584D01*
X038892D01*
X038846Y02663D01*
Y026676D01*
Y02663D01*
X0388Y026584D01*
X038755D01*
X038709Y02663D01*
Y026722D01*
X038755Y026768D01*
X038709Y026492D02*
X038755D01*
Y026446D01*
X038709D01*
Y026492D01*
X038938Y026263D02*
X038984Y026217D01*
Y026125D01*
X038938Y026079D01*
X038892D01*
X038846Y026125D01*
Y026171D01*
Y026125D01*
X0388Y026079D01*
X038755D01*
X038709Y026125D01*
Y026217D01*
X038755Y026263D01*
X037921Y027043D02*
X037646D01*
Y026906D01*
X037692Y02686D01*
X037875D01*
X037921Y026906D01*
Y027043D01*
X037646Y02663D02*
X037921D01*
X037783Y026768D01*
Y026584D01*
X037646Y026492D02*
X037692D01*
Y026446D01*
X037646D01*
Y026492D01*
X037875Y026263D02*
X037921Y026217D01*
Y026125D01*
X037875Y026079D01*
X037829D01*
X037783Y026125D01*
Y026171D01*
Y026125D01*
X037738Y026079D01*
X037692D01*
X037646Y026125D01*
Y026217D01*
X037692Y026263D01*
X01811Y018386D02*
X018386D01*
Y018248D01*
X01834Y018202D01*
X018248D01*
X018202Y018248D01*
Y018386D01*
X01811Y017927D02*
Y01811D01*
X018294Y017927D01*
X01834D01*
X018386Y017973D01*
Y018064D01*
X01834Y01811D01*
X01811Y017835D02*
X018156D01*
Y017789D01*
X01811D01*
Y017835D01*
Y017422D02*
Y017605D01*
X018294Y017422D01*
X01834D01*
X018386Y017467D01*
Y017559D01*
X01834Y017605D01*
X019252Y01837D02*
X019527D01*
Y018232D01*
X019482Y018186D01*
X01939D01*
X019344Y018232D01*
Y01837D01*
X019252Y018095D02*
Y018003D01*
Y018049D01*
X019527D01*
X019482Y018095D01*
X019252Y017865D02*
X019298D01*
Y017819D01*
X019252D01*
Y017865D01*
Y017452D02*
Y017635D01*
X019436Y017452D01*
X019482D01*
X019527Y017498D01*
Y017589D01*
X019482Y017635D01*
X028553Y016801D02*
X02875D01*
Y016703D01*
X028717Y01667D01*
X028652D01*
X028619Y016703D01*
Y016801D01*
Y016736D02*
X028553Y01667D01*
Y016604D02*
Y016539D01*
Y016572D01*
X02875D01*
X028717Y016604D01*
X028553Y01644D02*
X028586D01*
Y016408D01*
X028553D01*
Y01644D01*
Y016145D02*
Y016276D01*
X028684Y016145D01*
X028717D01*
X02875Y016178D01*
Y016244D01*
X028717Y016276D01*
X030128Y021407D02*
X030325D01*
Y021309D01*
X030292Y021276D01*
X030226D01*
X030194Y021309D01*
Y021407D01*
Y021342D02*
X030128Y021276D01*
Y021079D02*
Y021211D01*
X030259Y021079D01*
X030292D01*
X030325Y021112D01*
Y021178D01*
X030292Y021211D01*
X030128Y021014D02*
X030161D01*
Y020981D01*
X030128D01*
Y021014D01*
Y020719D02*
Y02085D01*
X030259Y020719D01*
X030292D01*
X030325Y020752D01*
Y020817D01*
X030292Y02085D01*
X023553Y018081D02*
Y018277D01*
X023652D01*
X023684Y018245D01*
Y018179D01*
X023652Y018146D01*
X023553D01*
X023619D02*
X023684Y018081D01*
X023848D02*
Y018277D01*
X02375Y018179D01*
X023881D01*
X023947Y018081D02*
Y018114D01*
X02398D01*
Y018081D01*
X023947D01*
X024242D02*
X024111D01*
X024242Y018212D01*
Y018245D01*
X024209Y018277D01*
X024144D01*
X024111Y018245D01*
X011893Y015682D02*
X011841Y01563D01*
Y015525D01*
X011893Y015472D01*
X011946D01*
X011998Y015525D01*
Y01563D01*
X012051Y015682D01*
X012103D01*
X012156Y01563D01*
Y015525D01*
X012103Y015472D01*
X012156Y015787D02*
Y015892D01*
Y01584D01*
X011841D01*
X011893Y015787D01*
X012156Y01605D02*
X012103D01*
Y016102D01*
X012156D01*
Y01605D01*
Y016522D02*
Y016312D01*
X011946Y016522D01*
X011893D01*
X011841Y01647D01*
Y016365D01*
X011893Y016312D01*
X024596Y023179D02*
Y022982D01*
X024498D01*
X024465Y023015D01*
Y023081D01*
X024498Y023114D01*
X024596D01*
X024531D02*
X024465Y023179D01*
X024268Y022982D02*
X0244D01*
Y023081D01*
X024334Y023048D01*
X024301D01*
X024268Y023081D01*
Y023146D01*
X024301Y023179D01*
X024367D01*
X0244Y023146D01*
X024203Y023179D02*
Y023146D01*
X02417D01*
Y023179D01*
X024203D01*
X023908D02*
X024039D01*
X023908Y023048D01*
Y023015D01*
X02394Y022982D01*
X024006D01*
X024039Y023015D01*
X011942Y01832D02*
X01189Y018268D01*
Y018163D01*
X011942Y01811D01*
X011995D01*
X012047Y018163D01*
Y018268D01*
X0121Y01832D01*
X012152D01*
X012205Y018268D01*
Y018163D01*
X012152Y01811D01*
X012205Y018635D02*
Y018425D01*
X011995Y018635D01*
X011942D01*
X01189Y018583D01*
Y018478D01*
X011942Y018425D01*
X012205Y01874D02*
X012152D01*
Y018792D01*
X012205D01*
Y01874D01*
Y019212D02*
Y019002D01*
X011995Y019212D01*
X011942D01*
X01189Y01916D01*
Y019055D01*
X011942Y019002D01*
X011024Y029724D02*
X010709Y029515D01*
X011024D02*
X010709Y029724D01*
X011024Y02941D02*
Y0292D01*
Y029305D01*
X010709D01*
Y029095D02*
Y02899D01*
Y029042D01*
X011024D01*
X010971Y029095D01*
X010709Y028832D02*
X010761D01*
Y02878D01*
X010709D01*
Y028832D01*
Y02857D02*
Y028465D01*
Y028517D01*
X011024D01*
X010971Y02857D01*
X011457Y024665D02*
Y02435D01*
X011929D01*
Y024665D01*
X011693Y02435D02*
Y024508D01*
X011457Y025138D02*
Y024823D01*
X011929D01*
Y025138D01*
X011693Y024823D02*
Y02498D01*
X011457Y02561D02*
Y025295D01*
X011929D01*
Y02561D01*
X011693Y025295D02*
Y025452D01*
X011929Y025767D02*
Y025925D01*
Y025846D01*
X011457D01*
X011536Y025767D01*
X011929Y026161D02*
X01185D01*
Y02624D01*
X011929D01*
Y026161D01*
Y026554D02*
Y026712D01*
Y026633D01*
X011457D01*
X011536Y026554D01*
X018977Y023779D02*
Y023465D01*
X019449D01*
Y023779D01*
X019213Y023465D02*
Y023622D01*
X018977Y024252D02*
Y023937D01*
X019449D01*
Y024252D01*
X019213Y023937D02*
Y024094D01*
X018977Y024724D02*
Y024409D01*
X019449D01*
Y024724D01*
X019213Y024409D02*
Y024567D01*
X019449Y025196D02*
Y024881D01*
X019134Y025196D01*
X019055D01*
X018977Y025118D01*
Y02496D01*
X019055Y024881D01*
X019449Y025354D02*
X01937D01*
Y025432D01*
X019449D01*
Y025354D01*
Y025747D02*
Y025905D01*
Y025826D01*
X018977D01*
X019055Y025747D01*
X011417Y023425D02*
X011024D01*
Y023228D01*
X011089Y023163D01*
X011352D01*
X011417Y023228D01*
Y023425D01*
X011024Y023032D02*
Y0229D01*
Y022966D01*
X011417D01*
X011352Y023032D01*
X011024Y022704D02*
X011089D01*
Y022638D01*
X011024D01*
Y022704D01*
Y022376D02*
Y022244D01*
Y02231D01*
X011417D01*
X011352Y022376D01*
X012037Y012234D02*
Y012037D01*
X011939D01*
X011906Y01207D01*
Y012136D01*
X011939Y012169D01*
X012037D01*
X011972D02*
X011906Y012234D01*
X011841D02*
X011775D01*
X011808D01*
Y012037D01*
X011841Y01207D01*
X011677Y012234D02*
Y012201D01*
X011644D01*
Y012234D01*
X011677D01*
X011513D02*
X011447D01*
X01148D01*
Y012037D01*
X011513Y01207D01*
X011033Y012766D02*
Y012963D01*
X011132D01*
X011165Y01293D01*
Y012864D01*
X011132Y012831D01*
X011033D01*
X011099D02*
X011165Y012766D01*
X011361D02*
X01123D01*
X011361Y012897D01*
Y01293D01*
X011329Y012963D01*
X011263D01*
X01123Y01293D01*
X011427Y012766D02*
Y012799D01*
X01146D01*
Y012766D01*
X011427D01*
X011591D02*
X011657D01*
X011624D01*
Y012963D01*
X011591Y01293D01*
X011033Y010837D02*
Y011033D01*
X011132D01*
X011165Y011001D01*
Y010935D01*
X011132Y010902D01*
X011033D01*
X011099D02*
X011165Y010837D01*
X01123Y011001D02*
X011263Y011033D01*
X011329D01*
X011361Y011001D01*
Y010968D01*
X011329Y010935D01*
X011296D01*
X011329D01*
X011361Y010902D01*
Y010869D01*
X011329Y010837D01*
X011263D01*
X01123Y010869D01*
X011427Y010837D02*
Y010869D01*
X01146D01*
Y010837D01*
X011427D01*
X011591D02*
X011657D01*
X011624D01*
Y011033D01*
X011591Y011001D01*
X010949Y014063D02*
Y013787D01*
X011087D01*
X011132Y013833D01*
Y014017D01*
X011087Y014063D01*
X010949D01*
X011408Y013787D02*
X011224D01*
X011408Y013971D01*
Y014017D01*
X011362Y014063D01*
X01127D01*
X011224Y014017D01*
X0115Y013787D02*
Y013833D01*
X011546D01*
Y013787D01*
X0115D01*
X011729D02*
X011821D01*
X011775D01*
Y014063D01*
X011729Y014017D01*
D70*
X010827Y024173D02*
Y026929D01*
Y027047D01*
X012402D01*
Y023976D02*
Y027047D01*
X010827Y023976D02*
X012402D01*
X010827D02*
Y024173D01*
X033866Y025385D02*
X032882D01*
X032685Y025188D01*
Y024795D01*
X032882Y024598D01*
X033866D01*
X032685Y023417D02*
Y024204D01*
X033472Y023417D01*
X033669D01*
X033866Y023614D01*
Y024008D01*
X033669Y024204D01*
X032685Y023024D02*
X032882D01*
Y022827D01*
X032685D01*
Y023024D01*
X033669Y02204D02*
X033866Y021843D01*
Y021449D01*
X033669Y021253D01*
X033472D01*
X033275Y021449D01*
Y021646D01*
Y021449D01*
X033079Y021253D01*
X032882D01*
X032685Y021449D01*
Y021843D01*
X032882Y02204D01*
D72*
X019449Y011791D02*
Y011201D01*
X019744D01*
X019842Y011299D01*
Y011398D01*
X019744Y011496D01*
X019449D01*
X019744D01*
X019842Y011594D01*
Y011693D01*
X019744Y011791D01*
X019449D01*
X020039Y011201D02*
X020236D01*
X020138D01*
Y011791D01*
X020039Y011693D01*
X020531Y011201D02*
Y011299D01*
X02063D01*
Y011201D01*
X020531D01*
X021417D02*
X021023D01*
X021417Y011594D01*
Y011693D01*
X021318Y011791D01*
X021122D01*
X021023Y011693D01*
X016201Y016201D02*
X016594D01*
X016398D01*
Y016463D01*
X016201D01*
X016594D01*
Y016594D02*
Y016726D01*
Y01666D01*
X016201D01*
X016267Y016594D01*
X016594Y016922D02*
X016529D01*
Y016988D01*
X016594D01*
Y016922D01*
Y01725D02*
Y017382D01*
Y017316D01*
X016201D01*
X016267Y01725D01*
X030512Y010236D02*
Y01063D01*
X030315D01*
X030249Y010564D01*
Y010433D01*
X030315Y010367D01*
X030512D01*
X030118Y010564D02*
X030053Y01063D01*
X029921D01*
X029856Y010564D01*
Y010499D01*
X029921Y010433D01*
X029987D01*
X029921D01*
X029856Y010367D01*
Y010302D01*
X029921Y010236D01*
X030053D01*
X030118Y010302D01*
X029725Y010236D02*
Y010302D01*
X029659D01*
Y010236D01*
X029725D01*
X029397Y010564D02*
X029331Y01063D01*
X0292D01*
X029134Y010564D01*
Y010499D01*
X0292Y010433D01*
X029265D01*
X0292D01*
X029134Y010367D01*
Y010302D01*
X0292Y010236D01*
X029331D01*
X029397Y010302D01*
X026319Y010197D02*
Y01059D01*
X026122D01*
X026057Y010525D01*
Y010394D01*
X026122Y010328D01*
X026319D01*
X025925Y010525D02*
X02586Y01059D01*
X025729D01*
X025663Y010525D01*
Y010459D01*
X025729Y010394D01*
X025794D01*
X025729D01*
X025663Y010328D01*
Y010262D01*
X025729Y010197D01*
X02586D01*
X025925Y010262D01*
X025532Y010197D02*
Y010262D01*
X025466D01*
Y010197D01*
X025532D01*
X024941D02*
X025204D01*
X024941Y010459D01*
Y010525D01*
X025007Y01059D01*
X025138D01*
X025204Y010525D01*
X034764Y010197D02*
Y01059D01*
X034567D01*
X034501Y010525D01*
Y010394D01*
X034567Y010328D01*
X034764D01*
X034108Y010197D02*
X03437D01*
X034108Y010459D01*
Y010525D01*
X034173Y01059D01*
X034305D01*
X03437Y010525D01*
X033977Y010197D02*
Y010262D01*
X033911D01*
Y010197D01*
X033977D01*
X033649Y010525D02*
X033583Y01059D01*
X033452D01*
X033386Y010525D01*
Y010459D01*
X033452Y010394D01*
X033517D01*
X033452D01*
X033386Y010328D01*
Y010262D01*
X033452Y010197D01*
X033583D01*
X033649Y010262D01*
X023425Y010197D02*
Y01059D01*
X023622D01*
X023688Y010525D01*
Y010394D01*
X023622Y010328D01*
X023425D01*
X024016Y010197D02*
Y01059D01*
X023819Y010394D01*
X024081D01*
X024212Y010197D02*
Y010262D01*
X024278D01*
Y010197D01*
X024212D01*
X02454Y010525D02*
X024606Y01059D01*
X024737D01*
X024803Y010525D01*
Y010459D01*
X024737Y010394D01*
X024672D01*
X024737D01*
X024803Y010328D01*
Y010262D01*
X024737Y010197D01*
X024606D01*
X02454Y010262D01*
X027343Y010276D02*
Y010669D01*
X027539D01*
X027605Y010604D01*
Y010472D01*
X027539Y010407D01*
X027343D01*
X027998Y010669D02*
X027736D01*
Y010472D01*
X027867Y010538D01*
X027933D01*
X027998Y010472D01*
Y010341D01*
X027933Y010276D01*
X027802D01*
X027736Y010341D01*
X02813Y010276D02*
Y010341D01*
X028195D01*
Y010276D01*
X02813D01*
X028458Y010604D02*
X028523Y010669D01*
X028654D01*
X02872Y010604D01*
Y010538D01*
X028654Y010472D01*
X028589D01*
X028654D01*
X02872Y010407D01*
Y010341D01*
X028654Y010276D01*
X028523D01*
X028458Y010341D01*
X031909Y010197D02*
Y01059D01*
X032106D01*
X032172Y010525D01*
Y010394D01*
X032106Y010328D01*
X031909D01*
X032303Y01059D02*
X032565D01*
Y010525D01*
X032303Y010262D01*
Y010197D01*
X032697D02*
Y010262D01*
X032762D01*
Y010197D01*
X032697D01*
X033025Y010525D02*
X03309Y01059D01*
X033221D01*
X033287Y010525D01*
Y010459D01*
X033221Y010394D01*
X033156D01*
X033221D01*
X033287Y010328D01*
Y010262D01*
X033221Y010197D01*
X03309D01*
X033025Y010262D01*
D89*
X015697Y025906D02*
X01528D01*
X015197Y025822D01*
Y025656D01*
X01528Y025572D01*
X015697D01*
X015197Y025406D02*
Y025239D01*
Y025322D01*
X015697D01*
X015613Y025406D01*
X015197Y024989D02*
X01528D01*
Y024906D01*
X015197D01*
Y024989D01*
Y024573D02*
Y024406D01*
Y024489D01*
X015697D01*
X015613Y024573D01*
M02*
