G04*
G04 #@! TF.GenerationSoftware,Altium Limited,Altium Designer,21.2.2 (38)*
G04*
G04 Layer_Color=128*
%FSTAX24Y24*%
%MOIN*%
G70*
G04*
G04 #@! TF.SameCoordinates,CF9AC677-4E03-495D-8773-30470D0FCF73*
G04*
G04*
G04 #@! TF.FilePolarity,Positive*
G04*
G01*
G75*
%ADD90C,0.0020*%
D90*
X020039Y012047D02*
X020354D01*
X020197Y01189D02*
Y012205D01*
X021614Y012047D02*
X021929D01*
X021772Y01189D02*
Y012205D01*
X032988Y015748D02*
X03339D01*
X033189Y015547D02*
Y015949D01*
X033988Y015748D02*
X03439D01*
X034189Y015547D02*
Y015949D01*
X034988Y015748D02*
X03539D01*
X035189Y015547D02*
Y015949D01*
X035988Y015748D02*
X03639D01*
X036189Y015547D02*
Y015949D01*
X036988Y015748D02*
X03739D01*
X037189Y015547D02*
Y015949D01*
X037988Y015748D02*
X03839D01*
X038189Y015547D02*
Y015949D01*
X038988Y015748D02*
X03939D01*
X039189Y015547D02*
Y015949D01*
X032988Y024803D02*
X03339D01*
X033189Y024602D02*
Y025004D01*
X033988Y024803D02*
X03439D01*
X034189Y024602D02*
Y025004D01*
X034988Y024803D02*
X03539D01*
X035189Y024602D02*
Y025004D01*
X035988Y024803D02*
X03639D01*
X036189Y024602D02*
Y025004D01*
X036988Y024803D02*
X03739D01*
X037189Y024602D02*
Y025004D01*
X037988Y024803D02*
X03839D01*
X038189Y024602D02*
Y025004D01*
X038988Y024803D02*
X03939D01*
X039189Y024602D02*
Y025004D01*
X03063Y015315D02*
X031732D01*
X031181Y014764D02*
Y015866D01*
X021181Y015315D02*
X022283D01*
X021732Y014764D02*
Y015866D01*
X03063Y025157D02*
X031732D01*
X031181Y024606D02*
Y025709D01*
X021181Y025157D02*
X022283D01*
X021732Y024606D02*
Y025709D01*
X031276Y018736D02*
X031677D01*
X031476Y018535D02*
Y018937D01*
X031276Y020736D02*
X031677D01*
X031476Y020535D02*
Y020937D01*
X031276Y021736D02*
X031677D01*
X031476Y021535D02*
Y021937D01*
X031276Y019736D02*
X031677D01*
X031476Y019535D02*
Y019937D01*
X036772Y011968D02*
X038346D01*
X037559Y011181D02*
Y012756D01*
X036772Y028504D02*
X038346D01*
X037559Y027717D02*
Y029291D01*
X024207Y027362D02*
X024699D01*
X024453Y027116D02*
Y027608D01*
X022707Y027362D02*
X023199D01*
X022953Y027116D02*
Y027608D01*
X027207Y027362D02*
X027699D01*
X027453Y027116D02*
Y027608D01*
X025707Y027362D02*
X026199D01*
X025953Y027116D02*
Y027608D01*
X016957Y011417D02*
X018138D01*
X017547Y010827D02*
Y012008D01*
X01302Y011417D02*
X014201D01*
X01361Y010827D02*
Y012008D01*
X014921Y014449D02*
X015236D01*
X015079Y014291D02*
Y014606D01*
X015921Y014449D02*
X016236D01*
X016079Y014291D02*
Y014606D01*
X013921Y014449D02*
X014236D01*
X014079Y014291D02*
Y014606D01*
X012921Y014449D02*
X013236D01*
X013079Y014291D02*
Y014606D01*
X016921Y014449D02*
X017236D01*
X017079Y014291D02*
Y014606D01*
X017921Y014449D02*
X018236D01*
X018079Y014291D02*
Y014606D01*
X017624Y027362D02*
X018116D01*
X01787Y027116D02*
Y027608D01*
X016124Y027362D02*
X016616D01*
X01637Y027116D02*
Y027608D01*
X020624Y027362D02*
X021116D01*
X02087Y027116D02*
Y027608D01*
X019124Y027362D02*
X019616D01*
X01937Y027116D02*
Y027608D01*
X030821Y027362D02*
X031313D01*
X031067Y027116D02*
Y027608D01*
X029321Y027362D02*
X029813D01*
X029567Y027116D02*
Y027608D01*
X033821Y027362D02*
X034313D01*
X034067Y027116D02*
Y027608D01*
X032321Y027362D02*
X032813D01*
X032567Y027116D02*
Y027608D01*
X018106Y016968D02*
X018508D01*
X018307Y016768D02*
Y017169D01*
X018106Y017968D02*
X018508D01*
X018307Y017768D02*
Y018169D01*
X018106Y015969D02*
X018508D01*
X018307Y015768D02*
Y016169D01*
X019248Y016953D02*
X01965D01*
X019449Y016752D02*
Y017154D01*
X019248Y017953D02*
X01965D01*
X019449Y017752D02*
Y018154D01*
X019248Y015953D02*
X01965D01*
X019449Y015752D02*
Y016154D01*
X01311Y028622D02*
X014213D01*
X013661Y028071D02*
Y029173D01*
X011142Y028622D02*
X012244D01*
X011693Y028071D02*
Y029173D01*
X018197Y019331D02*
X018598D01*
X018398Y01913D02*
Y019532D01*
X019197Y019331D02*
X019598D01*
X019398Y01913D02*
Y019532D01*
X015295Y023976D02*
X015492D01*
X015394Y023878D02*
Y024075D01*
X016398Y023976D02*
X016594D01*
X016496Y023878D02*
Y024075D01*
X015295Y024975D02*
X015492D01*
X015394Y024877D02*
Y025074D01*
X032342Y014585D02*
X03246D01*
X032401Y014526D02*
Y014644D01*
X032745Y014891D02*
X032863D01*
X032804Y014832D02*
Y01495D01*
X027954Y01517D02*
X028072D01*
X028013Y015111D02*
Y015229D01*
X031973Y017978D02*
X032091D01*
X032032Y017919D02*
Y018037D01*
X026225Y01097D02*
X026343D01*
X026284Y010911D02*
Y011029D01*
X023406Y010906D02*
X023524D01*
X023465Y010846D02*
Y010965D01*
X02183Y016787D02*
X021948D01*
X021889Y016728D02*
Y016846D01*
X032172Y016793D02*
X03229D01*
X032231Y016734D02*
Y016852D01*
X030767Y020242D02*
X030885D01*
X030826Y020183D02*
Y020301D01*
X029035Y014055D02*
X029154D01*
X029094Y013996D02*
Y014114D01*
X028327Y013661D02*
X028445D01*
X028386Y013602D02*
Y01372D01*
X014075Y015866D02*
X014193D01*
X014134Y015807D02*
Y015925D01*
X024146Y015144D02*
X024264D01*
X024205Y015085D02*
Y015203D01*
X024478Y013828D02*
X024596D01*
X024537Y013769D02*
Y013887D01*
X023287Y017874D02*
X023406D01*
X023346Y017815D02*
Y017933D01*
X024116Y017243D02*
X024234D01*
X024175Y017183D02*
Y017302D01*
X025623Y017308D02*
X025741D01*
X025682Y017249D02*
Y017367D01*
X027106Y017676D02*
X027224D01*
X027165Y017617D02*
Y017735D01*
X029862Y017874D02*
X02998D01*
X029921Y017815D02*
Y017933D01*
X027421Y017913D02*
X027539D01*
X02748Y017854D02*
Y017972D01*
X026043Y012362D02*
X026161D01*
X026102Y012303D02*
Y012421D01*
X026122Y014685D02*
X02624D01*
X026181Y014626D02*
Y014744D01*
X026555Y016614D02*
X026673D01*
X026614Y016555D02*
Y016673D01*
X026004Y015906D02*
X026122D01*
X026063Y015846D02*
Y015965D01*
X028642Y017008D02*
X02876D01*
X028701Y016949D02*
Y017067D01*
X02872Y015945D02*
X028839D01*
X02878Y015886D02*
Y016004D01*
X027113Y017004D02*
X027231D01*
X027172Y016945D02*
Y017063D01*
X026634Y017402D02*
X026752D01*
X026693Y017343D02*
Y017461D01*
X032812Y014452D02*
X03293D01*
X032871Y014393D02*
Y014511D01*
X033996Y01874D02*
X034114D01*
X034055Y018681D02*
Y018799D01*
X03078Y022247D02*
X030898D01*
X030839Y022188D02*
Y022306D01*
X03002Y016693D02*
X030138D01*
X030079Y016634D02*
Y016752D01*
X024619Y01878D02*
X024737D01*
X024678Y01872D02*
Y018839D01*
X025134Y013227D02*
X025252D01*
X025193Y013168D02*
Y013286D01*
X025177Y013976D02*
X025295D01*
X025236Y013917D02*
Y014035D01*
X024994Y014543D02*
X025112D01*
X025053Y014484D02*
Y014603D01*
X02673Y01918D02*
X026848D01*
X026789Y019121D02*
Y019239D01*
X023091Y011607D02*
X023209D01*
X02315Y011548D02*
Y011666D01*
X034665Y018032D02*
X034783D01*
X034724Y017972D02*
Y018091D01*
X025571Y016535D02*
X025689D01*
X02563Y016476D02*
Y016594D01*
X02502Y016811D02*
X025138D01*
X025079Y016752D02*
Y01687D01*
X027697Y015984D02*
X027815D01*
X027756Y015925D02*
Y016043D01*
X027933Y01374D02*
X028051D01*
X027992Y013681D02*
Y013799D01*
X02628Y014173D02*
X026398D01*
X026339Y014114D02*
Y014232D01*
X024526Y013279D02*
X024644D01*
X024585Y01322D02*
Y013338D01*
X023366Y013465D02*
X023484D01*
X023425Y013406D02*
Y013524D01*
X020531Y019016D02*
X02065D01*
X020591Y018957D02*
Y019075D01*
X022815Y018622D02*
X022933D01*
X022874Y018563D02*
Y018681D01*
X023287Y02D02*
X023406D01*
X023346Y019941D02*
Y020059D01*
X02435Y019016D02*
X024469D01*
X024409Y018957D02*
Y019075D01*
X020925Y018346D02*
X021043D01*
X020984Y018287D02*
Y018406D01*
X020925Y019724D02*
X021043D01*
X020984Y019665D02*
Y019783D01*
X023681Y019647D02*
X023799D01*
X02374Y019588D02*
Y019706D01*
X030295Y02122D02*
X030413D01*
X030354Y021161D02*
Y02128D01*
X022815Y024803D02*
X022933D01*
X022874Y024744D02*
Y024862D01*
X021516Y021496D02*
X021634D01*
X021575Y021437D02*
Y021555D01*
X021594Y023228D02*
X021713D01*
X021654Y023169D02*
Y023287D01*
X022579Y02374D02*
X022697D01*
X022638Y023681D02*
Y023799D01*
X024154Y024372D02*
X024272D01*
X024213Y024313D02*
Y024431D01*
X025374Y024134D02*
X025492D01*
X025433Y024075D02*
Y024193D01*
X02673Y01983D02*
X026848D01*
X026789Y01977D02*
Y019889D01*
X026879Y021205D02*
X026998D01*
X026938Y021146D02*
Y021264D01*
X02205Y018762D02*
X022168D01*
X022109Y018703D02*
Y018821D01*
X023642Y018701D02*
X02376D01*
X023701Y018642D02*
Y01876D01*
X028248Y019409D02*
X028366D01*
X028307Y01935D02*
Y019468D01*
X020453Y017756D02*
X020571D01*
X020512Y017697D02*
Y017815D01*
X030727Y021174D02*
X030845D01*
X030786Y021115D02*
Y021233D01*
X025069Y021527D02*
X025187D01*
X025128Y021468D02*
Y021586D01*
X021831Y028425D02*
X021949D01*
X02189Y028366D02*
Y028484D01*
X011803Y011987D02*
X011921D01*
X011862Y011928D02*
Y012046D01*
X011831Y013032D02*
X011949D01*
X01189Y012972D02*
Y013091D01*
X015336Y019253D02*
X015454D01*
X015395Y019194D02*
Y019312D01*
X015374Y017874D02*
X015492D01*
X015433Y017815D02*
Y017933D01*
X019426Y022645D02*
X019544D01*
X019485Y022586D02*
Y022704D01*
X021043Y022677D02*
X021161D01*
X021102Y022618D02*
Y022736D01*
X022539Y022874D02*
X022657D01*
X022598Y022815D02*
Y022933D01*
X02372Y022953D02*
X023839D01*
X02378Y022894D02*
Y023012D01*
X011949Y017441D02*
X012067D01*
X012008Y017382D02*
Y0175D01*
X024823Y022835D02*
X024941D01*
X024882Y022776D02*
Y022894D01*
X02372Y020591D02*
X023839D01*
X02378Y020531D02*
Y02065D01*
X02372Y021732D02*
X023839D01*
X02378Y021673D02*
Y021791D01*
X022933Y022165D02*
X023051D01*
X022992Y022106D02*
Y022224D01*
X025675Y022756D02*
X025793D01*
X025734Y022697D02*
Y022815D01*
X029311Y024134D02*
X029429D01*
X02937Y024075D02*
Y024193D01*
X02813Y024134D02*
X028248D01*
X028189Y024075D02*
Y024193D01*
X026988Y024134D02*
X027106D01*
X027047Y024075D02*
Y024193D01*
X025768Y024803D02*
X025886D01*
X025827Y024744D02*
Y024862D01*
X031853Y017461D02*
X031971D01*
X031912Y017402D02*
Y01752D01*
X031095Y017699D02*
X031213D01*
X031154Y017639D02*
Y017758D01*
X033081Y019242D02*
X033199D01*
X03314Y019183D02*
Y019301D01*
X034035Y016772D02*
X034154D01*
X034094Y016713D02*
Y016831D01*
X033406Y018228D02*
X033524D01*
X033465Y018169D02*
Y018287D01*
X025059Y023583D02*
X025177D01*
X025118Y023524D02*
Y023642D01*
X022224Y021535D02*
X022343D01*
X022283Y021476D02*
Y021594D01*
X011122Y014173D02*
X01124D01*
X011181Y014114D02*
Y014232D01*
X011201Y016496D02*
X011319D01*
X01126Y016437D02*
Y016555D01*
X01298Y021927D02*
X013098D01*
X013039Y021867D02*
Y021986D01*
X019414Y021622D02*
X019532D01*
X019473Y021563D02*
Y021681D01*
X011949Y015669D02*
X012067D01*
X012008Y01561D02*
Y015728D01*
X011988Y018268D02*
X012106D01*
X012047Y018209D02*
Y018327D01*
X021437Y017165D02*
X021555D01*
X021496Y017106D02*
Y017224D01*
X021198Y016754D02*
X021316D01*
X021257Y016695D02*
Y016813D01*
X025354Y017636D02*
X025472D01*
X025413Y017577D02*
Y017695D01*
X016403Y026042D02*
X0166D01*
X016502Y025943D02*
Y02614D01*
X016398Y024961D02*
X016594D01*
X016496Y024862D02*
Y025059D01*
X014075Y026024D02*
X014272D01*
X014173Y025925D02*
Y026122D01*
X014075Y023976D02*
X014272D01*
X014173Y023878D02*
Y024075D01*
X014114Y024961D02*
X014311D01*
X014213Y024862D02*
Y025059D01*
X015295Y026024D02*
X015492D01*
X015394Y025925D02*
Y026122D01*
X010532Y020109D02*
X010729D01*
X01063Y02001D02*
Y020207D01*
X013996Y020773D02*
X014114D01*
X014055Y020714D02*
Y020832D01*
X01376Y021457D02*
X013878D01*
X013819Y021398D02*
Y021516D01*
X014075Y021457D02*
X014193D01*
X014134Y021398D02*
Y021516D01*
X010689Y021063D02*
X010807D01*
X010748Y021004D02*
Y021122D01*
X010689Y021378D02*
X010807D01*
X010748Y021319D02*
Y021437D01*
X010689Y021693D02*
X010807D01*
X010748Y021634D02*
Y021752D01*
X010413Y021063D02*
X010532D01*
X010472Y021004D02*
Y021122D01*
X010413Y021378D02*
X010532D01*
X010472Y021319D02*
Y021437D01*
X010413Y021693D02*
X010532D01*
X010472Y021634D02*
Y021752D01*
X012159Y02411D02*
X012277D01*
X012218Y024051D02*
Y024169D01*
X011738Y02411D02*
X011856D01*
X011797Y024051D02*
Y024169D01*
X01138Y024108D02*
X011498D01*
X011439Y024049D02*
Y024167D01*
X011025Y024126D02*
X011143D01*
X011084Y024067D02*
Y024185D01*
M02*
