M48
;Layer_Color=9474304
;FILE_FORMAT=2:4
INCH,LZ
;TYPE=PLATED
T1F00S00C0.0118
T2F00S00C0.0197
T3F00S00C0.0315
T4F00S00C0.0402
T5F00S00C0.0492
T6F00S00C0.1102
T7F00S00C0.1181
T8F00S00C0.1575
%
T01
X011862Y011987
X01189Y013032
X011181Y014173
X023425Y013465
X024585Y013279
X024537Y013828
X025236Y013976
X025053Y014543
X026181Y014685
X026339Y014173
X026102Y012362
X026284Y01097
X023465Y010906
X02315Y011607
X025193Y013227
X024205Y015144
X028013Y01517
X027992Y01374
X028386Y013661
X029094Y014055
X032401Y014585
X032871Y014452
X032804Y014891
X032231Y016793
X031912Y017461
X032032Y017978
X033465Y018228
X034055Y01874
X034724Y018032
X034094Y016772
X03314Y019242
X030826Y020242
X030786Y021174
X030354Y02122
X030839Y022247
X02937Y024134
X028189
X027047
X025433
X025118Y023583
X024882Y022835
X025734Y022756
X025128Y021527
X02378Y021732
Y020591
X02374Y019647
X023346Y02
X023701Y018701
X022874Y018622
X022109Y018762
X020984Y018346
X020591Y019016
X020984Y019724
X021575Y021496
X022283Y021535
X022992Y022165
X022598Y022874
X022638Y02374
X022874Y024803
X024213Y024372
X02378Y022953
X021654Y023228
X021102Y022677
X019485Y022645
X019473Y021622
X020512Y017756
X021496Y017165
X021257Y016754
X021889Y016787
X023346Y017874
X024175Y017243
X025079Y016811
X02563Y016535
X025682Y017308
X025413Y017636
X026693Y017402
X027165Y017676
X02748Y017913
X027172Y017004
X026614Y016614
X026063Y015906
X027756Y015984
X02878Y015945
X028701Y017008
X030079Y016693
X029921Y017874
X031154Y017699
X028307Y019409
X026789Y01918
X026789Y01983
X026938Y021205
X024678Y01878
X024409Y019016
X025827Y024803
X02189Y028425
X012218Y02411
X011797
X011439Y024108
X011084Y024126
X010748Y021693
X010472
Y021378
X010748
Y021063
X010472
X013039Y021927
X013819Y021457
X014134
X014055Y020773
X015395Y019253
X015433Y017874
X014134Y015866
X012008Y015669
X01126Y016496
X012008Y017441
X012047Y018268
T02
X016496Y023976
Y024961
X016502Y026042
X015394Y026024
X015394Y024975
X015394Y023976
X014173
X014213Y024961
X014173Y026024
X01063Y020109
T03
X013079Y014449
X014079
X015079
X016079
X017079
X018079
X020197Y012047
X021772
T04
X033189Y015748
X034189
X035189
X036189
X037189
X038189
X039189
Y024803
X038189
X037189
X036189
X035189
X034189
X033189
X031476Y021736
Y020736
Y019736
Y018736
X019398Y019331
X018398
X018307Y017968
Y016968
Y015969
X019449Y015953
Y016953
Y017953
T05
X032567Y027362
X034067
X031067
X029567
X027453
X025953
X024453
X022953
X02087
X01937
X01787
X01637
T06
X021732Y015315
X031181
Y025157
X021732
X013661Y028622
X011693
T07
X01361Y011417
X017547
T08
X037559Y011968
Y028504
M30
