G04*
G04 #@! TF.GenerationSoftware,Altium Limited,Altium Designer,21.2.2 (38)*
G04*
G04 Layer_Color=2752767*
%FSTAX24Y24*%
%MOIN*%
G70*
G04*
G04 #@! TF.SameCoordinates,CF9AC677-4E03-495D-8773-30470D0FCF73*
G04*
G04*
G04 #@! TF.FilePolarity,Positive*
G04*
G01*
G75*
%ADD90C,0.0020*%
%ADD91C,0.0027*%
D90*
X020117Y011967D02*
Y012127D01*
X020277D01*
Y011967D01*
X020117D01*
X021692D02*
Y012127D01*
X021852D01*
Y011967D01*
X021692D01*
X031181Y015235D02*
X031101Y015395D01*
X031261D01*
X031181Y015235D01*
X021732D02*
X021652Y015395D01*
X021812D01*
X021732Y015235D01*
X031181Y025077D02*
X031101Y025237D01*
X031261D01*
X031181Y025077D01*
X021732D02*
X021652Y025237D01*
X021812D01*
X021732Y025077D01*
X037559Y011889D02*
X037599Y011928D01*
X037639D01*
X037599Y011968D01*
X037639Y012009D01*
X037599D01*
X037559Y012048D01*
X037519Y012009D01*
X037479D01*
X037519Y011968D01*
X037479Y011928D01*
X037519D01*
X037559Y011889D01*
Y028424D02*
X037599Y028464D01*
X037639D01*
X037599Y028504D01*
X037639Y028544D01*
X037599D01*
X037559Y028584D01*
X037519Y028544D01*
X037479D01*
X037519Y028504D01*
X037479Y028464D01*
X037519D01*
X037559Y028424D01*
X024373Y027282D02*
X024413Y027362D01*
X024373Y027442D01*
X024453Y027402D01*
X024533Y027442D01*
X024493Y027362D01*
X024533Y027282D01*
X024453Y027322D01*
X024373Y027282D01*
X022873D02*
X022913Y027362D01*
X022873Y027442D01*
X022953Y027402D01*
X023033Y027442D01*
X022993Y027362D01*
X023033Y027282D01*
X022953Y027322D01*
X022873Y027282D01*
X027373D02*
X027413Y027362D01*
X027373Y027442D01*
X027453Y027402D01*
X027533Y027442D01*
X027493Y027362D01*
X027533Y027282D01*
X027453Y027322D01*
X027373Y027282D01*
X025873D02*
X025913Y027362D01*
X025873Y027442D01*
X025953Y027402D01*
X026033Y027442D01*
X025993Y027362D01*
X026033Y027282D01*
X025953Y027322D01*
X025873Y027282D01*
X017507Y011377D02*
Y011337D01*
X017587D01*
Y011377D01*
X017627D01*
Y011457D01*
X017587D01*
Y011497D01*
X017507D01*
Y011457D01*
X017467D01*
Y011377D01*
X017507D01*
X01357D02*
Y011337D01*
X01365D01*
Y011377D01*
X01369D01*
Y011457D01*
X01365D01*
Y011497D01*
X01357D01*
Y011457D01*
X01353D01*
Y011377D01*
X01357D01*
X014999Y014369D02*
Y014529D01*
X015159D01*
Y014369D01*
X014999D01*
X015999D02*
Y014529D01*
X016159D01*
Y014369D01*
X015999D01*
X013999D02*
Y014529D01*
X014159D01*
Y014369D01*
X013999D01*
X012999D02*
Y014529D01*
X013159D01*
Y014369D01*
X012999D01*
X016999D02*
Y014529D01*
X017159D01*
Y014369D01*
X016999D01*
X017999D02*
Y014529D01*
X018159D01*
Y014369D01*
X017999D01*
X01779Y027282D02*
X01783Y027362D01*
X01779Y027442D01*
X01787Y027402D01*
X01795Y027442D01*
X01791Y027362D01*
X01795Y027282D01*
X01787Y027322D01*
X01779Y027282D01*
X01629D02*
X01633Y027362D01*
X01629Y027442D01*
X01637Y027402D01*
X01645Y027442D01*
X01641Y027362D01*
X01645Y027282D01*
X01637Y027322D01*
X01629Y027282D01*
X02079D02*
X02083Y027362D01*
X02079Y027442D01*
X02087Y027402D01*
X02095Y027442D01*
X02091Y027362D01*
X02095Y027282D01*
X02087Y027322D01*
X02079Y027282D01*
X01929D02*
X01933Y027362D01*
X01929Y027442D01*
X01937Y027402D01*
X01945Y027442D01*
X01941Y027362D01*
X01945Y027282D01*
X01937Y027322D01*
X01929Y027282D01*
X030987D02*
X031027Y027362D01*
X030987Y027442D01*
X031067Y027402D01*
X031147Y027442D01*
X031107Y027362D01*
X031147Y027282D01*
X031067Y027322D01*
X030987Y027282D01*
X029487D02*
X029527Y027362D01*
X029487Y027442D01*
X029567Y027402D01*
X029647Y027442D01*
X029607Y027362D01*
X029647Y027282D01*
X029567Y027322D01*
X029487Y027282D01*
X033987D02*
X034027Y027362D01*
X033987Y027442D01*
X034067Y027402D01*
X034147Y027442D01*
X034107Y027362D01*
X034147Y027282D01*
X034067Y027322D01*
X033987Y027282D01*
X032487D02*
X032527Y027362D01*
X032487Y027442D01*
X032567Y027402D01*
X032647Y027442D01*
X032607Y027362D01*
X032647Y027282D01*
X032567Y027322D01*
X032487Y027282D01*
X013661Y028542D02*
X013581Y028702D01*
X013741D01*
X013661Y028542D01*
X011693D02*
X011613Y028702D01*
X011773D01*
X011693Y028542D01*
X015314Y023896D02*
X015354D01*
X015394Y023936D01*
X015434Y023896D01*
X015474D01*
Y023936D01*
X015434Y023976D01*
X015474Y024016D01*
Y024056D01*
X015434D01*
X015394Y024016D01*
X015354Y024056D01*
X015314D01*
Y024016D01*
X015354Y023976D01*
X015314Y023936D01*
Y023896D01*
X016416D02*
X016456D01*
X016496Y023936D01*
X016536Y023896D01*
X016576D01*
Y023936D01*
X016536Y023976D01*
X016576Y024016D01*
Y024056D01*
X016536D01*
X016496Y024016D01*
X016456Y024056D01*
X016416D01*
Y024016D01*
X016456Y023976D01*
X016416Y023936D01*
Y023896D01*
X015314Y024895D02*
X015354D01*
X015394Y024935D01*
X015434Y024895D01*
X015474D01*
Y024935D01*
X015434Y024975D01*
X015474Y025015D01*
Y025055D01*
X015434D01*
X015394Y025015D01*
X015354Y025055D01*
X015314D01*
Y025015D01*
X015354Y024975D01*
X015314Y024935D01*
Y024895D01*
X032321Y014585D02*
X032401Y014665D01*
X032481Y014585D01*
X032401Y014505D01*
X032321Y014585D01*
X032724Y014891D02*
X032804Y014971D01*
X032884Y014891D01*
X032804Y014811D01*
X032724Y014891D01*
X027933Y01517D02*
X028013Y01525D01*
X028093Y01517D01*
X028013Y01509D01*
X027933Y01517D01*
X031952Y017978D02*
X032032Y018058D01*
X032112Y017978D01*
X032032Y017898D01*
X031952Y017978D01*
X026204Y01097D02*
X026284Y01105D01*
X026364Y01097D01*
X026284Y01089D01*
X026204Y01097D01*
X023385Y010906D02*
X023465Y010986D01*
X023545Y010906D01*
X023465Y010826D01*
X023385Y010906D01*
X021809Y016787D02*
X021889Y016867D01*
X021969Y016787D01*
X021889Y016707D01*
X021809Y016787D01*
X032151Y016793D02*
X032231Y016873D01*
X032311Y016793D01*
X032231Y016713D01*
X032151Y016793D01*
X030746Y020242D02*
X030826Y020322D01*
X030906Y020242D01*
X030826Y020162D01*
X030746Y020242D01*
X029014Y014055D02*
X029094Y014135D01*
X029174Y014055D01*
X029094Y013975D01*
X029014Y014055D01*
X028306Y013661D02*
X028386Y013741D01*
X028466Y013661D01*
X028386Y013581D01*
X028306Y013661D01*
X014054Y015866D02*
X014134Y015946D01*
X014214Y015866D01*
X014134Y015786D01*
X014054Y015866D01*
X024125Y015144D02*
X024205Y015224D01*
X024285Y015144D01*
X024205Y015064D01*
X024125Y015144D01*
X024457Y013828D02*
X024537Y013908D01*
X024617Y013828D01*
X024537Y013748D01*
X024457Y013828D01*
X023266Y017874D02*
X023346Y017954D01*
X023426Y017874D01*
X023346Y017794D01*
X023266Y017874D01*
X024095Y017243D02*
X024175Y017323D01*
X024255Y017243D01*
X024175Y017163D01*
X024095Y017243D01*
X025602Y017308D02*
X025682Y017388D01*
X025762Y017308D01*
X025682Y017228D01*
X025602Y017308D01*
X027085Y017676D02*
X027165Y017756D01*
X027245Y017676D01*
X027165Y017596D01*
X027085Y017676D01*
X029841Y017874D02*
X029921Y017954D01*
X030001Y017874D01*
X029921Y017794D01*
X029841Y017874D01*
X0274Y017913D02*
X02748Y017993D01*
X02756Y017913D01*
X02748Y017833D01*
X0274Y017913D01*
X026022Y012362D02*
X026102Y012442D01*
X026182Y012362D01*
X026102Y012282D01*
X026022Y012362D01*
X026101Y014685D02*
X026181Y014765D01*
X026261Y014685D01*
X026181Y014605D01*
X026101Y014685D01*
X026534Y016614D02*
X026614Y016694D01*
X026694Y016614D01*
X026614Y016534D01*
X026534Y016614D01*
X025983Y015906D02*
X026063Y015986D01*
X026143Y015906D01*
X026063Y015826D01*
X025983Y015906D01*
X028621Y017008D02*
X028701Y017088D01*
X028781Y017008D01*
X028701Y016928D01*
X028621Y017008D01*
X0287Y015945D02*
X02878Y016025D01*
X02886Y015945D01*
X02878Y015865D01*
X0287Y015945D01*
X027092Y017004D02*
X027172Y017084D01*
X027252Y017004D01*
X027172Y016924D01*
X027092Y017004D01*
X026613Y017402D02*
X026693Y017482D01*
X026773Y017402D01*
X026693Y017322D01*
X026613Y017402D01*
X032791Y014452D02*
X032871Y014532D01*
X032951Y014452D01*
X032871Y014372D01*
X032791Y014452D01*
X033975Y01874D02*
X034055Y01882D01*
X034135Y01874D01*
X034055Y01866D01*
X033975Y01874D01*
X030759Y022247D02*
X030839Y022327D01*
X030919Y022247D01*
X030839Y022167D01*
X030759Y022247D01*
X029999Y016693D02*
X030079Y016773D01*
X030159Y016693D01*
X030079Y016613D01*
X029999Y016693D01*
X024598Y01878D02*
X024678Y01886D01*
X024758Y01878D01*
X024678Y0187D01*
X024598Y01878D01*
X025113Y013227D02*
X025193Y013307D01*
X025273Y013227D01*
X025193Y013147D01*
X025113Y013227D01*
X025156Y013976D02*
X025236Y014056D01*
X025316Y013976D01*
X025236Y013896D01*
X025156Y013976D01*
X024973Y014543D02*
X025053Y014623D01*
X025133Y014543D01*
X025053Y014463D01*
X024973Y014543D01*
X026709Y01918D02*
X026789Y01926D01*
X026869Y01918D01*
X026789Y0191D01*
X026709Y01918D01*
X02307Y011607D02*
X02315Y011687D01*
X02323Y011607D01*
X02315Y011527D01*
X02307Y011607D01*
X034644Y018032D02*
X034724Y018111D01*
X034804Y018032D01*
X034724Y017952D01*
X034644Y018032D01*
X02555Y016535D02*
X02563Y016615D01*
X02571Y016535D01*
X02563Y016455D01*
X02555Y016535D01*
X024999Y016811D02*
X025079Y016891D01*
X025159Y016811D01*
X025079Y016731D01*
X024999Y016811D01*
X027676Y015984D02*
X027756Y016064D01*
X027836Y015984D01*
X027756Y015904D01*
X027676Y015984D01*
X027912Y01374D02*
X027992Y01382D01*
X028072Y01374D01*
X027992Y01366D01*
X027912Y01374D01*
X026259Y014173D02*
X026339Y014253D01*
X026419Y014173D01*
X026339Y014093D01*
X026259Y014173D01*
X024505Y013279D02*
X024585Y013359D01*
X024665Y013279D01*
X024585Y013199D01*
X024505Y013279D01*
X023345Y013465D02*
X023425Y013545D01*
X023505Y013465D01*
X023425Y013385D01*
X023345Y013465D01*
X020511Y019016D02*
X020591Y019096D01*
X020671Y019016D01*
X020591Y018936D01*
X020511Y019016D01*
X022794Y018622D02*
X022874Y018702D01*
X022954Y018622D01*
X022874Y018542D01*
X022794Y018622D01*
X023266Y02D02*
X023346Y02008D01*
X023426Y02D01*
X023346Y01992D01*
X023266Y02D01*
X024329Y019016D02*
X024409Y019096D01*
X024489Y019016D01*
X024409Y018936D01*
X024329Y019016D01*
X020904Y018346D02*
X020984Y018426D01*
X021064Y018346D01*
X020984Y018266D01*
X020904Y018346D01*
Y019724D02*
X020984Y019804D01*
X021064Y019724D01*
X020984Y019644D01*
X020904Y019724D01*
X02366Y019647D02*
X02374Y019727D01*
X02382Y019647D01*
X02374Y019567D01*
X02366Y019647D01*
X030274Y02122D02*
X030354Y0213D01*
X030434Y02122D01*
X030354Y02114D01*
X030274Y02122D01*
X022794Y024803D02*
X022874Y024883D01*
X022954Y024803D01*
X022874Y024723D01*
X022794Y024803D01*
X021495Y021496D02*
X021575Y021576D01*
X021655Y021496D01*
X021575Y021416D01*
X021495Y021496D01*
X021574Y023228D02*
X021654Y023308D01*
X021734Y023228D01*
X021654Y023148D01*
X021574Y023228D01*
X022558Y02374D02*
X022638Y02382D01*
X022718Y02374D01*
X022638Y02366D01*
X022558Y02374D01*
X024133Y024372D02*
X024213Y024452D01*
X024293Y024372D01*
X024213Y024292D01*
X024133Y024372D01*
X025353Y024134D02*
X025433Y024214D01*
X025513Y024134D01*
X025433Y024054D01*
X025353Y024134D01*
X026709Y01983D02*
X026789Y01991D01*
X026869Y01983D01*
X026789Y01975D01*
X026709Y01983D01*
X026858Y021205D02*
X026938Y021285D01*
X027018Y021205D01*
X026938Y021125D01*
X026858Y021205D01*
X022029Y018762D02*
X022109Y018842D01*
X022189Y018762D01*
X022109Y018682D01*
X022029Y018762D01*
X023621Y018701D02*
X023701Y018781D01*
X023781Y018701D01*
X023701Y018621D01*
X023621Y018701D01*
X028227Y019409D02*
X028307Y019489D01*
X028387Y019409D01*
X028307Y019329D01*
X028227Y019409D01*
X020432Y017756D02*
X020512Y017836D01*
X020592Y017756D01*
X020512Y017676D01*
X020432Y017756D01*
X030706Y021174D02*
X030786Y021254D01*
X030866Y021174D01*
X030786Y021094D01*
X030706Y021174D01*
X025048Y021527D02*
X025128Y021607D01*
X025208Y021527D01*
X025128Y021447D01*
X025048Y021527D01*
X02181Y028425D02*
X02189Y028505D01*
X02197Y028425D01*
X02189Y028345D01*
X02181Y028425D01*
X011782Y011987D02*
X011862Y012067D01*
X011942Y011987D01*
X011862Y011907D01*
X011782Y011987D01*
X01181Y013032D02*
X01189Y013111D01*
X01197Y013032D01*
X01189Y012952D01*
X01181Y013032D01*
X015315Y019253D02*
X015395Y019333D01*
X015475Y019253D01*
X015395Y019173D01*
X015315Y019253D01*
X015353Y017874D02*
X015433Y017954D01*
X015513Y017874D01*
X015433Y017794D01*
X015353Y017874D01*
X019405Y022645D02*
X019485Y022725D01*
X019565Y022645D01*
X019485Y022565D01*
X019405Y022645D01*
X021022Y022677D02*
X021102Y022757D01*
X021182Y022677D01*
X021102Y022597D01*
X021022Y022677D01*
X022518Y022874D02*
X022598Y022954D01*
X022678Y022874D01*
X022598Y022794D01*
X022518Y022874D01*
X0237Y022953D02*
X02378Y023033D01*
X02386Y022953D01*
X02378Y022873D01*
X0237Y022953D01*
X011928Y017441D02*
X012008Y017521D01*
X012088Y017441D01*
X012008Y017361D01*
X011928Y017441D01*
X024802Y022835D02*
X024882Y022915D01*
X024962Y022835D01*
X024882Y022755D01*
X024802Y022835D01*
X0237Y020591D02*
X02378Y020671D01*
X02386Y020591D01*
X02378Y020511D01*
X0237Y020591D01*
Y021732D02*
X02378Y021812D01*
X02386Y021732D01*
X02378Y021652D01*
X0237Y021732D01*
X022912Y022165D02*
X022992Y022245D01*
X023072Y022165D01*
X022992Y022085D01*
X022912Y022165D01*
X025654Y022756D02*
X025734Y022836D01*
X025814Y022756D01*
X025734Y022676D01*
X025654Y022756D01*
X02929Y024134D02*
X02937Y024214D01*
X02945Y024134D01*
X02937Y024054D01*
X02929Y024134D01*
X028109D02*
X028189Y024214D01*
X028269Y024134D01*
X028189Y024054D01*
X028109Y024134D01*
X026967D02*
X027047Y024214D01*
X027127Y024134D01*
X027047Y024054D01*
X026967Y024134D01*
X025747Y024803D02*
X025827Y024883D01*
X025907Y024803D01*
X025827Y024723D01*
X025747Y024803D01*
X031832Y017461D02*
X031912Y017541D01*
X031992Y017461D01*
X031912Y017381D01*
X031832Y017461D01*
X031074Y017699D02*
X031154Y017779D01*
X031234Y017699D01*
X031154Y017619D01*
X031074Y017699D01*
X03306Y019242D02*
X03314Y019322D01*
X03322Y019242D01*
X03314Y019162D01*
X03306Y019242D01*
X034014Y016772D02*
X034094Y016852D01*
X034174Y016772D01*
X034094Y016692D01*
X034014Y016772D01*
X033385Y018228D02*
X033465Y018308D01*
X033545Y018228D01*
X033465Y018148D01*
X033385Y018228D01*
X025038Y023583D02*
X025118Y023663D01*
X025198Y023583D01*
X025118Y023503D01*
X025038Y023583D01*
X022203Y021535D02*
X022283Y021615D01*
X022363Y021535D01*
X022283Y021455D01*
X022203Y021535D01*
X011101Y014173D02*
X011181Y014253D01*
X011261Y014173D01*
X011181Y014093D01*
X011101Y014173D01*
X01118Y016496D02*
X01126Y016576D01*
X01134Y016496D01*
X01126Y016416D01*
X01118Y016496D01*
X012959Y021927D02*
X013039Y022006D01*
X013119Y021927D01*
X013039Y021846D01*
X012959Y021927D01*
X019393Y021622D02*
X019473Y021702D01*
X019553Y021622D01*
X019473Y021542D01*
X019393Y021622D01*
X011928Y015669D02*
X012008Y015749D01*
X012088Y015669D01*
X012008Y015589D01*
X011928Y015669D01*
X011967Y018268D02*
X012047Y018348D01*
X012127Y018268D01*
X012047Y018188D01*
X011967Y018268D01*
X021416Y017165D02*
X021496Y017245D01*
X021576Y017165D01*
X021496Y017085D01*
X021416Y017165D01*
X021177Y016754D02*
X021257Y016834D01*
X021337Y016754D01*
X021257Y016674D01*
X021177Y016754D01*
X025333Y017636D02*
X025413Y017716D01*
X025493Y017636D01*
X025413Y017556D01*
X025333Y017636D01*
X016422Y025962D02*
X016462D01*
X016502Y026002D01*
X016542Y025962D01*
X016582D01*
Y026002D01*
X016542Y026042D01*
X016582Y026082D01*
Y026122D01*
X016542D01*
X016502Y026082D01*
X016462Y026122D01*
X016422D01*
Y026082D01*
X016462Y026042D01*
X016422Y026002D01*
Y025962D01*
X016416Y024881D02*
X016456D01*
X016496Y024921D01*
X016536Y024881D01*
X016576D01*
Y024921D01*
X016536Y024961D01*
X016576Y025001D01*
Y025041D01*
X016536D01*
X016496Y025001D01*
X016456Y025041D01*
X016416D01*
Y025001D01*
X016456Y024961D01*
X016416Y024921D01*
Y024881D01*
X014093Y025944D02*
X014133D01*
X014173Y025984D01*
X014213Y025944D01*
X014253D01*
Y025984D01*
X014213Y026024D01*
X014253Y026064D01*
Y026104D01*
X014213D01*
X014173Y026064D01*
X014133Y026104D01*
X014093D01*
Y026064D01*
X014133Y026024D01*
X014093Y025984D01*
Y025944D01*
Y023896D02*
X014133D01*
X014173Y023936D01*
X014213Y023896D01*
X014253D01*
Y023936D01*
X014213Y023976D01*
X014253Y024016D01*
Y024056D01*
X014213D01*
X014173Y024016D01*
X014133Y024056D01*
X014093D01*
Y024016D01*
X014133Y023976D01*
X014093Y023936D01*
Y023896D01*
X014133Y024881D02*
X014173D01*
X014213Y024921D01*
X014253Y024881D01*
X014293D01*
Y024921D01*
X014253Y024961D01*
X014293Y025001D01*
Y025041D01*
X014253D01*
X014213Y025001D01*
X014173Y025041D01*
X014133D01*
Y025001D01*
X014173Y024961D01*
X014133Y024921D01*
Y024881D01*
X015314Y025944D02*
X015354D01*
X015394Y025984D01*
X015434Y025944D01*
X015474D01*
Y025984D01*
X015434Y026024D01*
X015474Y026064D01*
Y026104D01*
X015434D01*
X015394Y026064D01*
X015354Y026104D01*
X015314D01*
Y026064D01*
X015354Y026024D01*
X015314Y025984D01*
Y025944D01*
X01055Y020029D02*
X01059D01*
X01063Y020069D01*
X01067Y020029D01*
X01071D01*
Y020069D01*
X01067Y020109D01*
X01071Y020149D01*
Y020189D01*
X01067D01*
X01063Y020149D01*
X01059Y020189D01*
X01055D01*
Y020149D01*
X01059Y020109D01*
X01055Y020069D01*
Y020029D01*
X013975Y020773D02*
X014055Y020853D01*
X014135Y020773D01*
X014055Y020693D01*
X013975Y020773D01*
X013739Y021457D02*
X013819Y021537D01*
X013899Y021457D01*
X013819Y021377D01*
X013739Y021457D01*
X014054D02*
X014134Y021537D01*
X014214Y021457D01*
X014134Y021377D01*
X014054Y021457D01*
X010668Y021063D02*
X010748Y021143D01*
X010828Y021063D01*
X010748Y020983D01*
X010668Y021063D01*
Y021378D02*
X010748Y021458D01*
X010828Y021378D01*
X010748Y021298D01*
X010668Y021378D01*
Y021693D02*
X010748Y021773D01*
X010828Y021693D01*
X010748Y021613D01*
X010668Y021693D01*
X010392Y021063D02*
X010472Y021143D01*
X010552Y021063D01*
X010472Y020983D01*
X010392Y021063D01*
Y021378D02*
X010472Y021458D01*
X010552Y021378D01*
X010472Y021298D01*
X010392Y021378D01*
Y021693D02*
X010472Y021773D01*
X010552Y021693D01*
X010472Y021613D01*
X010392Y021693D01*
X012138Y02411D02*
X012218Y02419D01*
X012298Y02411D01*
X012218Y02403D01*
X012138Y02411D01*
X011717D02*
X011797Y02419D01*
X011877Y02411D01*
X011797Y02403D01*
X011717Y02411D01*
X011359Y024108D02*
X011439Y024188D01*
X011519Y024108D01*
X011439Y024028D01*
X011359Y024108D01*
X011004Y024126D02*
X011084Y024206D01*
X011164Y024126D01*
X011084Y024046D01*
X011004Y024126D01*
D91*
X033269Y015748D02*
G03*
X033269Y015748I-00008J0D01*
G01*
X034269D02*
G03*
X034269Y015748I-00008J0D01*
G01*
X035269D02*
G03*
X035269Y015748I-00008J0D01*
G01*
X036269D02*
G03*
X036269Y015748I-00008J0D01*
G01*
X037269D02*
G03*
X037269Y015748I-00008J0D01*
G01*
X038269D02*
G03*
X038269Y015748I-00008J0D01*
G01*
X039269D02*
G03*
X039269Y015748I-00008J0D01*
G01*
X033269Y024803D02*
G03*
X033269Y024803I-00008J0D01*
G01*
X034269D02*
G03*
X034269Y024803I-00008J0D01*
G01*
X035269D02*
G03*
X035269Y024803I-00008J0D01*
G01*
X036269D02*
G03*
X036269Y024803I-00008J0D01*
G01*
X037269D02*
G03*
X037269Y024803I-00008J0D01*
G01*
X038269D02*
G03*
X038269Y024803I-00008J0D01*
G01*
X039269D02*
G03*
X039269Y024803I-00008J0D01*
G01*
X031556Y018736D02*
G03*
X031556Y018736I-00008J0D01*
G01*
Y020736D02*
G03*
X031556Y020736I-00008J0D01*
G01*
Y021736D02*
G03*
X031556Y021736I-00008J0D01*
G01*
Y019736D02*
G03*
X031556Y019736I-00008J0D01*
G01*
X018387Y016968D02*
G03*
X018387Y016968I-00008J0D01*
G01*
Y017968D02*
G03*
X018387Y017968I-00008J0D01*
G01*
Y015969D02*
G03*
X018387Y015969I-00008J0D01*
G01*
X019529Y016953D02*
G03*
X019529Y016953I-00008J0D01*
G01*
Y017953D02*
G03*
X019529Y017953I-00008J0D01*
G01*
Y015953D02*
G03*
X019529Y015953I-00008J0D01*
G01*
X018478Y019331D02*
G03*
X018478Y019331I-00008J0D01*
G01*
X019478D02*
G03*
X019478Y019331I-00008J0D01*
G01*
M02*
